<?xml version="1.0" encoding="utf-8"?>
<!-- Generator: Adobe Illustrator 15.0.0, SVG Export Plug-In  -->
<!DOCTYPE svg PUBLIC "-//W3C//DTD SVG 1.1//EN" "http://www.w3.org/Graphics/SVG/1.1/DTD/svg11.dtd" [
	<!ENTITY ns_flows "http://ns.adobe.com/Flows/1.0/">
]>
<svg version="1.1"
	 xmlns="http://www.w3.org/2000/svg" xmlns:xlink="http://www.w3.org/1999/xlink" xmlns:a="http://ns.adobe.com/AdobeSVGViewerExtensions/3.0/"
	 x="0px" y="0px" width="300px" height="80px" viewBox="-1.225 0.355 300 80"
	 overflow="visible" enable-background="new -1.225 0.355 300 80" xml:space="preserve">
<defs>
</defs>
<polygon fill="none" stroke="#010101" stroke-width="2" stroke-linecap="round" stroke-linejoin="round" stroke-miterlimit="3.85" points="
	102.531,59.26 102.557,59.177 102.721,58.769 102.721,58.742 102.773,58.628 103.049,57.616 103.103,57.373 103.103,57.318 
	103.103,57.232 103.103,57.205 103.103,57.042 103.103,56.986 103.103,56.958 103.157,56.905 103.185,56.875 103.212,56.826 
	103.268,56.659 103.485,56.028 103.485,56 103.514,55.972 103.569,55.728 103.569,55.646 103.598,55.455 103.624,55.344 
	103.76,54.794 103.704,54.524 103.65,54.386 103.598,54.332 103.569,54.304 103.569,54.277 103.598,54.222 103.678,54.115 
	103.678,54.085 103.733,54.003 103.76,54.003 103.816,53.92 103.87,53.866 103.898,53.838 104.089,53.786 104.116,53.786 
	104.199,53.704 104.226,53.673 104.309,53.563 104.526,53.152 104.856,52.496 104.964,52.224 105.239,51.566 105.403,51.074 
	105.485,50.8 105.513,50.717 105.676,50.032 105.757,49.705 105.841,49.376 105.869,49.239 105.869,49.185 105.869,49.131 
	105.949,48.907 106.004,48.693 106.142,48.092 106.306,47.321 106.335,47.241 106.416,46.775 106.442,46.613 106.471,46.473 
	106.471,46.448 106.497,46.282 106.497,46.226 106.581,45.79 106.688,45.103 106.744,44.802 106.798,44.283 106.798,44.258 
	106.798,44.228 106.825,44.009 106.854,43.982 106.909,43.572 106.963,43.215 106.963,43.189 106.989,43.054 106.989,43.023 
	106.989,42.807 106.963,42.749 106.963,42.722 106.989,42.584 107.018,42.502 107.101,42.091 107.126,41.709 107.126,41.603 
	107.183,41.19 107.235,40.752 107.235,40.67 107.183,40.642 107.183,40.617 107.183,40.587 107.183,40.451 107.183,40.425 
	107.235,40.261 107.264,40.206 107.264,40.124 107.264,40.041 107.318,39.904 107.373,39.821 107.485,39.273 107.485,39.245 
	107.593,38.617 107.62,38.562 107.675,38.535 107.73,38.508 107.759,38.452 107.73,38.397 107.701,38.369 107.647,38.397 
	107.62,38.26 107.647,37.959 107.647,37.741 107.62,37.602 107.647,37.411 107.701,37.082 107.73,36.974 107.811,36.399 
	107.84,36.154 107.84,36.097 107.866,35.878 107.866,35.823 107.73,35.878 107.73,35.85 107.701,35.823 107.895,35.687 
	107.921,35.687 107.921,35.55 107.948,35.441 107.948,35.387 108.003,35.166 108.003,35.03 108.003,35.002 107.976,35.002 
	107.976,34.977 107.895,34.811 107.948,34.647 107.976,34.535 107.976,34.481 108.031,34.043 107.976,33.688 107.948,33.633 
	107.948,33.607 107.895,33.549 107.895,33.469 107.895,33.443 107.921,33.387 107.921,33.361 107.921,33.304 107.921,33.166 
	107.948,33.057 107.976,32.95 108.003,32.785 108.031,32.703 108.058,32.674 108.058,32.647 108.113,32.62 108.167,32.62 
	108.167,32.59 108.223,32.458 108.249,32.319 108.413,31.718 108.496,31.361 108.496,31.333 108.496,31.225 108.523,31.142 
	108.523,31.031 108.607,30.676 108.633,30.648 108.633,30.565 108.662,30.512 108.688,30.293 108.688,30.267 108.713,30.103 
	108.77,29.801 108.797,29.692 108.797,29.664 108.797,29.635 108.742,29.664 108.662,29.609 108.688,29.444 108.688,29.391 
	108.688,29.363 108.742,29.225 108.797,29.116 108.962,29.006 108.962,28.98 108.988,28.896 109.125,28.293 109.151,28.267 
	109.18,28.077 109.234,27.555 109.264,27.474 109.208,27.255 109.264,26.98 109.264,26.844 109.316,26.571 109.346,26.352 
	109.346,26.213 109.372,25.832 109.316,25.641 109.29,25.53 109.234,25.501 109.151,25.501 108.934,25.53 108.934,25.476 
	109.1,25.42 109.125,25.42 109.208,25.394 109.234,25.394 109.234,25.365 109.29,25.281 109.29,25.255 109.346,25.09 109.4,24.845 
	109.426,24.462 109.455,24.406 109.455,24.216 109.455,24.133 109.455,23.942 109.426,23.915 109.372,23.667 109.372,23.615 
	109.346,23.367 109.4,23.311 109.455,23.311 109.536,23.065 109.59,22.846 109.647,22.463 109.673,22.409 109.673,22.298 
	109.647,22.271 109.59,22.188 109.647,21.997 109.673,21.806 109.701,21.642 109.782,21.149 109.81,20.984 109.836,20.93 
	109.836,20.272 109.836,20.243 109.836,20.217 109.836,20.109 109.836,20.026 109.81,19.997 109.81,19.891 109.727,19.78 
	109.618,19.616 109.59,19.561 109.51,19.508 109.455,19.479 109.455,19.371 109.59,19.178 109.701,18.412 109.701,18.138 
	109.701,18.11 109.701,17.945 109.701,17.781 109.701,17.671 109.701,17.505 109.701,17.399 109.673,17.345 109.59,17.07 
	109.455,16.933 109.455,16.852 109.701,16.522 109.782,16.467 109.81,16.467 109.836,16.438 109.973,16.438 110.001,16.438 
	110.028,16.412 110.028,16.386 110.083,16.25 110.112,16.083 110.112,16.057 110.139,15.975 110.139,15.946 110.139,15.865 
	110.139,15.811 110.139,15.7 110.139,15.646 110.139,15.51 110.139,15.428 110.139,15.072 110.057,14.687 110.028,14.579 
	110.028,14.47 110.001,14.441 109.973,14.304 109.947,14.141 109.918,14.058 109.893,14.003 109.865,13.948 109.782,13.675 
	109.756,13.619 109.756,13.592 109.673,13.374 109.59,13.155 109.51,12.991 109.455,12.879 109.316,12.801 109.455,12.689 
	109.536,12.689 109.59,12.717 109.673,12.879 109.647,12.962 109.673,13.073 109.727,13.1 109.918,13.127 110.028,13.182 
	110.057,13.182 110.275,13.374 110.275,13.401 110.413,13.54 110.468,13.701 110.603,13.756 110.932,13.866 110.932,13.894 
	110.959,13.894 111.07,13.84 111.096,13.73 111.096,13.701 111.07,13.701 110.987,13.619 110.905,13.54 110.879,13.54 
	110.85,13.455 110.879,13.429 111.042,13.401 111.151,13.401 111.289,13.429 111.316,13.429 111.589,13.346 111.644,13.319 
	111.809,13.264 111.918,13.208 112.001,13.235 112.165,13.319 112.384,13.346 112.439,13.346 112.685,13.208 112.765,13.182 
	112.794,13.127 112.848,13.1 112.957,13.1 113.151,13.155 113.204,13.127 113.258,12.991 113.287,12.879 113.313,12.854 
	113.396,12.827 113.479,12.827 113.532,12.879 113.56,12.908 113.671,12.991 114.054,12.717 114.054,12.553 114.162,12.553 
	114.272,12.497 114.381,12.471 114.519,12.416 114.736,12.441 114.791,12.471 114.847,12.497 114.874,12.553 115.037,12.717 
	115.176,12.936 115.231,13.017 115.231,13.1 115.176,13.701 115.75,14.222 115.831,14.222 116.131,14.25 116.436,14.277 
	116.652,14.277 116.928,14.141 117.147,14.003 117.338,13.92 117.801,13.701 118.268,13.756 118.295,13.756 118.405,13.866 
	118.924,14.222 119.007,14.333 119.09,14.358 119.2,14.441 119.228,14.441 119.335,14.496 119.364,14.523 119.39,14.523 
	119.692,14.853 119.774,14.961 119.995,15.072 120.021,15.1 120.103,15.125 120.349,15.262 120.513,15.592 120.539,15.619 
	120.567,15.811 120.593,16.03 120.787,16.25 120.787,16.276 120.978,16.769 121.005,16.824 121.197,17.041 121.197,17.152 
	121.252,17.453 121.197,17.728 121.197,17.751 121.226,17.808 121.226,17.836 121.252,17.892 121.306,18.083 121.334,18.138 
	121.364,18.192 121.364,18.218 121.444,18.384 121.444,18.438 121.444,18.52 121.444,18.629 121.416,18.712 121.306,18.986 
	121.306,19.207 121.552,19.616 121.552,19.645 121.58,19.645 121.636,19.945 121.636,20.301 121.607,20.382 121.498,20.793 
	121.498,20.875 121.471,21.066 121.58,21.396 121.58,21.421 121.827,21.586 121.882,21.616 121.908,21.616 122.073,21.696 
	122.292,21.888 122.458,21.971 122.756,22.108 123.114,22.137 123.142,22.137 123.168,22.163 123.332,22.188 123.387,22.216 
	123.714,22.326 123.744,22.326 123.96,22.437 124.125,22.489 124.236,22.517 124.263,22.517 124.292,22.544 124.399,22.573 
	124.426,22.602 124.454,22.602 124.483,22.626 124.619,22.763 124.646,22.763 124.784,22.818 125.002,22.792 125.084,22.763 
	125.167,22.709 125.221,22.709 125.276,22.683 125.358,22.655 125.384,22.655 125.468,22.683 125.659,22.763 125.851,23.065 
	126.234,23.148 126.508,23.148 126.564,23.148 126.7,23.091 127.164,22.874 127.357,22.683 127.794,22.602 127.905,22.602 
	127.931,22.626 128.069,22.626 128.178,22.602 128.752,22.243 128.971,22.163 129.162,22.163 129.38,22.08 129.408,22.053 
	129.574,21.945 129.655,21.777 129.684,21.75 129.847,21.777 129.984,21.696 130.122,21.642 130.177,21.586 130.205,21.533 
	130.205,21.396 130.449,21.175 130.477,21.175 130.558,21.095 130.641,21.066 130.833,20.984 131.107,20.903 131.379,20.984 
	131.872,21.095 132.146,21.095 132.476,20.984 132.529,20.957 132.831,20.957 132.914,20.957 133.597,20.768 133.871,20.657 
	133.898,20.657 134.008,20.684 134.118,20.709 134.227,20.738 134.283,20.793 134.338,20.819 134.393,20.875 134.581,21.04 
	134.801,21.095 134.994,21.149 135.211,21.149 135.486,21.014 135.57,21.014 135.707,21.014 135.843,20.984 136.088,21.066 
	136.282,21.202 136.333,21.259 136.718,21.37 137.073,21.478 137.156,21.696 137.21,21.806 137.238,22.023 137.266,22.08 
	137.238,22.216 137.238,22.271 137.374,22.409 137.512,22.409 137.539,22.409 137.758,22.409 137.812,22.354 137.812,22.326 
	137.895,22.38 137.978,22.298 138.004,22.271 138.033,22.243 138.004,22.188 138.361,21.833 138.58,21.75 138.881,21.777 
	139.156,21.75 139.208,21.777 139.374,21.833 139.428,21.806 139.702,21.724 139.785,21.724 140.057,21.945 140.085,21.945 
	140.249,21.916 140.522,21.642 140.661,21.504 140.851,21.449 141.344,21.286 141.974,21.014 142.331,20.875 142.521,20.684 
	142.686,20.573 142.878,20.464 143.314,20.438 143.616,20.547 143.7,20.631 144,20.957 144.164,21.095 144.218,21.123 
	144.41,21.175 145.175,21.123 145.941,20.957 146.329,20.819 146.408,20.793 147.122,20.738 147.501,20.217 147.803,20.054 
	148.515,19.891 149.202,19.508 149.228,19.479 149.557,19.314 150.133,19.261 150.43,19.15 150.513,19.15 151.171,18.958 
	151.473,18.986 151.912,18.931 152.486,18.82 152.923,18.165 152.951,18.138 153.167,17.919 153.47,17.836 153.828,18.001 
	153.936,18.083 154.292,18.11 154.675,17.945 154.869,17.919 155.416,17.864 155.526,17.864 155.603,17.836 155.908,17.728 
	155.935,17.7 156.043,17.671 156.588,17.59 156.92,17.671 157.22,17.751 157.467,17.751 157.743,17.7 157.908,17.671 
	158.233,17.505 158.536,17.288 158.893,17.125 159.055,16.987 159.276,16.686 159.353,16.686 159.712,16.658 160.149,16.658 
	160.616,16.658 160.889,16.632 160.917,16.632 161.244,16.632 162.34,16.604 162.532,16.604 162.723,16.604 162.75,16.604 
	163.051,16.604 163.216,16.578 163.33,16.578 163.352,16.578 163.406,16.578 163.573,16.578 163.682,16.578 163.736,16.578 
	163.763,16.578 164.145,16.578 164.391,16.552 164.859,16.552 165.078,16.552 165.243,16.552 165.322,16.552 165.43,16.552 
	165.652,16.522 165.708,16.522 165.955,16.522 166.252,16.522 166.526,16.522 166.587,16.495 166.718,16.495 166.802,16.495 
	167.624,16.467 167.789,16.467 167.814,16.467 169.103,16.438 169.293,16.412 169.373,16.412 169.786,16.412 169.976,16.412 
	171.891,16.357 173.017,16.332 174.003,16.302 174.248,16.302 174.302,16.302 174.657,16.276 175.152,16.25 175.505,16.276 
	175.671,16.221 176.245,16.221 176.545,16.193 176.575,16.193 176.877,16.193 176.902,16.193 177.559,16.166 178.136,16.138 
	178.323,16.138 178.517,16.138 179.177,16.111 179.613,16.111 179.855,16.111 179.914,16.193 180.106,16.386 180.161,16.604 
	180.295,16.795 180.295,16.852 180.349,17.099 180.406,17.207 180.433,17.288 180.464,17.345 180.487,17.371 180.653,17.535 
	180.791,17.617 180.899,17.7 180.953,17.728 181.145,18.001 181.145,18.029 181.199,18.11 181.226,18.192 181.226,18.247 
	181.226,18.302 181.226,18.357 181.226,18.384 181.281,18.467 181.504,18.577 181.527,18.577 181.582,18.577 181.582,18.548 
	181.613,18.548 181.637,18.52 181.667,18.52 181.667,18.493 181.696,18.493 181.721,18.467 181.721,18.438 181.748,18.438 
	181.775,18.438 181.964,18.412 181.997,18.412 182.019,18.412 182.019,18.438 182.127,18.493 182.16,18.493 182.268,18.685 
	182.322,18.878 182.349,18.878 182.489,19.04 182.543,19.04 182.678,19.04 182.76,19.014 182.788,18.986 182.815,18.958 
	183.09,19.014 183.199,19.04 183.228,19.04 183.39,19.207 183.583,19.371 183.637,19.371 183.667,19.396 183.691,19.396 
	183.691,19.424 183.723,19.479 183.799,19.616 183.832,19.645 183.799,19.918 183.832,20.191 183.854,20.243 183.937,20.382 
	183.964,20.438 183.991,20.464 184.102,20.547 184.292,20.738 184.324,20.768 184.346,20.819 184.403,20.957 184.43,20.957 
	184.43,21.014 184.458,21.066 184.484,21.095 184.513,21.175 184.568,21.231 184.594,21.259 184.622,21.286 184.622,21.314 
	184.622,21.478 184.622,21.504 184.622,21.533 184.458,21.862 184.378,21.888 184.292,21.971 184.267,22.023 184.159,22.163 
	184.075,22.326 183.964,22.626 183.883,22.792 183.854,22.846 183.799,23.012 183.775,23.256 183.775,23.285 183.799,23.395 
	183.832,23.53 183.746,23.558 183.723,23.558 183.61,23.695 183.551,23.723 183.497,23.804 183.497,23.832 183.474,24.051 
	183.417,24.269 183.282,24.434 183.228,24.488 183.144,24.627 183.004,24.929 182.898,25.174 182.735,25.585 182.706,25.694 
	182.76,25.941 182.76,26.051 182.76,26.133 182.76,26.159 182.735,26.241 182.735,26.269 182.678,26.324 182.62,26.379 
	182.566,26.434 182.543,26.571 182.489,26.788 182.433,27.062 182.433,27.09 182.458,27.227 182.433,27.31 182.322,27.747 
	182.322,27.886 182.297,28.158 182.268,28.186 182.268,28.213 182.05,28.596 181.856,28.733 181.775,28.87 181.775,28.896 
	181.775,28.98 181.775,29.116 181.775,29.142 181.775,29.172 181.637,29.391 181.527,29.526 181.391,29.718 181.334,29.744 
	181.226,29.827 181.174,29.939 181.174,29.992 181.199,30.046 181.199,30.239 181.199,30.267 181.088,30.485 181.088,30.54 
	181.088,30.565 181.088,30.594 181.174,30.841 181.174,30.869 181.226,30.951 181.334,31.116 181.391,31.196 181.391,31.225 
	181.364,31.279 181.31,31.333 181.281,31.472 181.255,31.608 181.226,31.771 181.199,31.854 181.174,31.963 181.088,32.101 
	180.899,32.293 180.791,32.458 180.736,32.564 180.708,32.59 180.708,32.647 180.573,32.95 180.487,33.031 180.464,33.086 
	180.433,33.166 180.433,33.196 180.433,33.222 180.464,33.278 180.464,33.304 180.464,33.331 180.433,33.387 180.406,33.387 
	180.295,33.469 180.106,33.523 180.081,33.549 180.049,33.549 179.995,33.633 179.914,33.714 179.886,33.743 179.855,33.77 
	179.802,33.797 179.749,33.797 179.723,33.797 179.667,33.797 179.64,33.797 179.394,33.938 179.34,33.989 179.311,34.018 
	179.177,34.237 179.202,34.317 179.202,34.535 179.177,34.59 179.093,34.62 179.037,34.756 179.009,34.838 179.009,34.865 
	179.009,34.892 178.926,35.083 178.873,35.14 178.873,35.248 178.902,35.331 178.873,35.496 178.764,35.687 178.709,35.714 
	178.685,35.797 178.653,35.878 178.653,35.933 178.628,36.18 178.628,36.316 178.628,36.343 178.546,36.451 178.491,36.481 
	178.463,36.507 178.407,36.535 178.407,36.59 178.407,36.646 178.463,36.702 178.463,36.864 178.407,37.001 178.379,37.056 
	178.298,37.165 178.217,37.195 178.082,37.221 178.052,37.274 177.999,37.357 177.999,37.411 177.999,37.438 177.971,37.495 
	177.971,37.549 177.915,37.658 177.831,37.741 177.806,37.768 177.751,37.741 177.698,37.768 177.667,37.794 177.667,37.849 
	177.641,37.849 177.667,37.878 177.667,37.904 177.667,37.932 177.698,37.986 177.751,38.124 177.777,38.204 177.777,38.289 
	177.806,38.587 177.777,38.671 177.698,38.864 177.698,38.891 177.614,38.999 177.533,39.028 177.533,39.111 177.614,39.355 
	177.698,39.437 177.806,39.547 177.887,39.575 177.915,39.604 178.025,39.711 178.025,39.737 178.107,39.876 178.107,39.904 
	178.082,39.959 178.082,39.983 177.971,40.206 177.971,40.23 177.86,40.261 177.86,40.286 177.831,40.286 177.806,40.397 
	177.806,40.425 177.806,40.451 177.86,40.56 178.052,40.782 178.107,40.806 178.352,40.971 178.491,40.971 178.628,40.971 
	178.685,40.944 178.709,40.888 178.739,40.888 178.739,40.835 178.739,40.806 178.847,40.67 178.873,40.67 178.902,40.642 
	178.926,40.642 178.983,40.642 179.009,40.642 179.037,40.642 179.064,40.697 179.121,40.752 179.121,40.782 179.177,40.914 
	179.177,40.944 179.311,41.053 179.34,41.079 179.419,41.136 179.502,41.218 179.53,41.328 179.557,41.328 179.586,41.353 
	179.613,41.353 179.613,41.328 179.64,41.328 179.64,41.298 179.667,41.136 179.749,41.079 179.778,41.053 179.833,41.053 
	179.886,41.079 179.941,41.079 180.106,41.079 180.242,41.079 180.295,41.079 180.349,41.106 180.378,41.163 180.378,41.19 
	180.406,41.218 180.406,41.245 180.378,41.353 180.406,41.603 180.433,41.764 180.464,41.792 180.487,41.792 180.679,41.846 
	180.708,41.82 180.736,41.792 180.763,41.792 180.791,41.792 180.899,41.82 181.145,41.983 181.174,42.01 181.226,42.091 
	181.255,42.23 181.255,42.255 181.255,42.283 181.226,42.337 181.226,42.369 181.066,42.695 181.034,42.749 181.034,42.778 
	180.926,42.997 180.926,43.023 180.872,43.13 180.842,43.161 180.818,43.189 180.791,43.215 180.763,43.215 180.653,43.268 
	180.542,43.268 180.487,43.3 180.464,43.323 180.433,43.354 180.433,43.377 180.433,43.409 180.464,43.6 180.464,43.655 
	180.487,43.737 180.487,43.817 180.487,43.869 180.519,43.869 180.679,43.958 180.736,44.009 180.818,44.04 180.872,44.147 
	180.899,44.202 180.926,44.228 180.926,44.258 180.899,44.393 180.872,44.53 180.872,44.585 180.842,44.721 180.842,44.748 
	180.818,44.775 180.708,44.967 180.623,45.021 180.596,45.021 180.573,45.079 180.573,45.103 180.573,45.131 180.596,45.162 
	180.596,45.189 180.623,45.189 180.653,45.244 180.679,45.35 180.679,45.514 180.679,45.597 180.679,45.679 180.653,45.735 
	180.623,45.759 180.542,45.9 180.542,45.924 180.573,45.982 180.573,46.061 180.573,46.09 180.542,46.282 180.542,46.336 
	180.519,46.448 180.519,46.473 180.487,46.5 180.464,46.5 180.433,46.528 180.378,46.5 180.349,46.5 180.325,46.528 180.295,46.528 
	180.242,46.552 180.187,46.583 180.187,46.637 180.161,46.693 180.133,46.858 180.081,46.964 180.081,46.994 180.081,47.018 
	180.081,47.076 180.106,47.266 180.106,47.321 180.106,47.352 180.106,47.375 180.106,47.759 180.133,48.007 180.133,48.39 
	180.133,48.415 180.161,48.662 180.161,48.775 180.161,48.965 180.187,49.099 180.187,49.156 180.187,49.211 180.187,49.376 
	180.216,49.84 180.216,49.951 180.216,50.004 180.216,50.059 180.216,50.142 180.216,50.279 180.216,50.306 180.216,50.362 
	180.242,50.387 180.242,50.611 180.242,50.663 180.242,50.8 180.295,52.034 180.325,52.583 180.378,53.593 180.406,54.686 
	180.433,54.849 180.433,55.238 180.542,57.643 180.573,58.491 180.708,61.615 180.818,64.158 180.818,64.215 180.872,65.228 
	180.98,67.716 181.011,68.018 181.011,68.488 181.034,68.677 181.12,70.757 181.12,70.785 181.12,71.223 181.145,71.443 
	181.199,73.109 181.066,73.139 180.98,73.139 180.899,73.139 180.763,73.139 180.623,73.139 179.723,73.168 179.394,73.195 
	179.286,73.195 179.177,73.195 177.203,73.301 176.767,73.301 176.109,73.333 175.863,73.355 175.206,73.386 174.957,73.386 
	174.934,73.386 174.848,73.386 174.824,73.386 174.765,73.386 174.497,73.414 172.305,73.468 172.194,73.496 172.056,73.496 
	169.54,73.579 168.747,73.602 167.156,73.661 166.416,73.688 165.516,73.715 164.446,73.771 163.433,73.826 162.588,73.826 
	162.365,73.826 160.178,73.853 157.987,73.905 157.743,73.879 157.521,73.905 156.753,73.905 156.374,73.905 155.47,73.905 
	152.458,73.934 151.776,73.905 151.144,73.934 150.897,73.934 150.872,73.934 149.692,73.961 149.557,73.986 149.531,73.961 
	147.86,73.986 147.614,73.986 147.501,73.986 146.491,74.017 146.082,74.017 144.218,74.017 144.164,74.017 144.136,74.017 
	144.053,74.017 142.933,74.017 142.661,74.017 142.166,74.017 140.907,73.986 140.824,73.986 140.167,73.986 138.525,73.986 
	137.895,73.961 137.539,73.934 136.253,73.934 136.253,73.905 136.224,73.905 135.596,73.905 135.513,73.905 135.324,73.905 
	135.266,73.934 135.047,73.905 134.885,73.905 134.338,73.905 134.254,73.905 134.199,73.905 134.118,73.905 133.351,73.879 
	132.723,73.853 132.529,73.853 132.502,73.853 131.708,73.826 131.546,73.826 131.379,73.796 131.354,73.796 130.122,73.771 
	130.067,73.771 129.875,73.743 128.231,73.715 127.164,73.661 126.588,73.633 126.536,73.633 126.234,73.633 125.468,73.602 
	125.167,73.602 124.318,73.55 124.208,73.55 124.099,73.55 124.018,73.55 123.688,73.55 122.921,73.526 121.69,73.55 121.498,73.55 
	120.65,73.526 119.72,73.496 118.981,73.496 118.924,73.496 118.734,73.496 118.213,73.468 117.995,73.468 117.119,73.441 
	116.902,73.414 116.708,73.386 116.05,73.333 115.941,73.333 115.559,73.355 115.148,73.355 113.889,73.386 113.86,73.386 
	113.532,73.386 112.957,73.333 112.272,73.301 112.245,73.301 112.082,73.301 112.001,73.301 111.944,73.301 111.863,73.301 
	111.727,73.301 110.959,73.279 110.879,73.279 110.603,73.333 109.836,73.279 109.18,73.25 108.934,73.25 108.851,73.25 
	108.713,73.25 107.291,73.168 106.935,73.168 106.744,73.139 106.032,73.109 106.004,73.109 105.896,73.109 105.869,73.109 
	105.594,73.087 104.691,73.033 104.663,72.922 104.417,72.675 104.362,72.594 104.144,72.374 104.116,72.316 104.007,72.316 
	103.979,72.316 103.924,72.316 103.898,72.294 103.842,72.263 103.787,72.237 103.65,71.992 103.65,71.961 103.624,71.934 
	103.377,71.608 103.24,71.306 103.24,71.251 103.296,71.087 103.296,71.006 103.268,70.922 103.212,70.868 103.157,70.757 
	103.157,70.677 103.185,70.677 103.24,70.623 103.24,70.346 103.157,70.238 103.103,70.208 103.103,70.184 103.077,70.129 
	103.103,69.937 103.077,69.882 103.077,69.797 103.021,69.692 102.938,69.581 102.749,69.336 102.749,69.281 102.773,69.199 
	102.831,68.951 102.831,68.923 102.802,68.512 102.721,68.375 102.61,68.155 102.638,68.13 102.665,67.884 102.692,67.525 
	102.692,67.502 102.692,67.256 102.692,67.225 102.692,67.009 102.692,66.896 102.638,66.677 102.638,66.624 102.773,66.323 
	102.773,66.077 102.802,65.884 102.938,65.584 103.077,65.201 103.185,64.843 103.185,64.708 103.157,64.57 103.103,64.377 
	103.131,64.105 103.103,63.966 103.021,63.53 102.967,63.474 102.831,63.392 102.721,63.312 102.638,63.257 102.61,63.228 
	102.665,63.12 102.665,63.093 102.665,63.039 102.557,62.792 102.418,62.432 102.392,62.38 102.255,62.3 102.229,62.3 102.174,62.3 
	102.174,62.328 102.064,62.38 102.035,62.38 102.008,62.38 102.008,62.353 102.008,62.3 101.982,62.108 101.982,62.081 
	101.925,61.586 101.872,61.368 101.817,61.231 101.733,61.093 101.678,60.846 101.733,60.739 101.79,60.628 101.872,60.519 
	102.281,59.781 102.475,59.339 102.5,59.315 "/>
<polyline fill="none" stroke="#010101" stroke-width="2" stroke-linecap="round" stroke-linejoin="round" stroke-miterlimit="3.85" points="
	102.531,59.26 102.557,59.177 102.721,58.769 102.721,58.742 102.773,58.628 103.049,57.616 103.103,57.373 103.103,57.318 
	103.103,57.232 103.103,57.205 103.103,57.042 103.103,56.986 103.103,56.958 103.157,56.905 103.185,56.875 103.212,56.826 
	103.268,56.659 103.485,56.028 103.485,56 103.514,55.972 103.569,55.728 103.569,55.646 103.598,55.455 103.624,55.344 
	103.76,54.794 103.704,54.524 103.65,54.386 103.598,54.332 103.569,54.304 103.569,54.277 103.598,54.222 103.678,54.115 
	103.678,54.085 103.733,54.003 103.76,54.003 103.816,53.92 103.87,53.866 103.898,53.838 104.089,53.786 104.116,53.786 
	104.199,53.704 104.226,53.673 104.309,53.563 104.526,53.152 104.856,52.496 104.964,52.224 105.239,51.566 105.403,51.074 
	105.485,50.8 105.513,50.717 105.676,50.032 105.757,49.705 105.841,49.376 105.869,49.239 105.869,49.185 105.869,49.131 
	105.949,48.907 106.004,48.693 106.142,48.092 106.306,47.321 106.335,47.241 106.416,46.775 106.442,46.613 106.471,46.473 
	106.471,46.448 106.497,46.282 106.497,46.226 106.581,45.79 106.688,45.103 106.744,44.802 106.798,44.283 106.798,44.258 
	106.798,44.228 106.825,44.009 106.854,43.982 106.909,43.572 106.963,43.215 106.963,43.189 106.989,43.054 106.989,43.023 
	106.989,42.807 106.963,42.749 106.963,42.722 106.989,42.584 107.018,42.502 107.101,42.091 107.126,41.709 107.126,41.603 
	107.183,41.19 107.235,40.752 107.235,40.67 107.183,40.642 107.183,40.617 107.183,40.587 107.183,40.451 107.183,40.425 
	107.235,40.261 107.264,40.206 107.264,40.124 107.264,40.041 107.318,39.904 107.373,39.821 107.485,39.273 107.485,39.245 
	107.593,38.617 107.62,38.562 107.675,38.535 107.73,38.508 107.759,38.452 107.73,38.397 107.701,38.369 107.647,38.397 
	107.62,38.26 107.647,37.959 107.647,37.741 107.62,37.602 107.647,37.411 107.701,37.082 107.73,36.974 107.811,36.399 
	107.84,36.154 107.84,36.097 107.866,35.878 107.866,35.823 107.73,35.878 107.73,35.85 107.701,35.823 107.895,35.687 
	107.921,35.687 107.921,35.55 107.948,35.441 107.948,35.387 108.003,35.166 108.003,35.03 108.003,35.002 107.976,35.002 
	107.976,34.977 107.895,34.811 107.948,34.647 107.976,34.535 107.976,34.481 108.031,34.043 107.976,33.688 107.948,33.633 
	107.948,33.607 107.895,33.549 107.895,33.469 107.895,33.443 107.921,33.387 107.921,33.361 107.921,33.304 107.921,33.166 
	107.948,33.057 107.976,32.95 108.003,32.785 108.031,32.703 108.058,32.674 108.058,32.647 108.113,32.62 108.167,32.62 
	108.167,32.59 108.223,32.458 108.249,32.319 108.413,31.718 108.496,31.361 108.496,31.333 108.496,31.225 108.523,31.142 
	108.523,31.031 108.607,30.676 108.633,30.648 108.633,30.565 108.662,30.512 108.688,30.293 108.688,30.267 108.713,30.103 
	108.77,29.801 108.797,29.692 108.797,29.664 108.797,29.635 108.742,29.664 108.662,29.609 108.688,29.444 108.688,29.391 
	108.688,29.363 108.742,29.225 108.797,29.116 108.962,29.006 108.962,28.98 108.988,28.896 109.125,28.293 109.151,28.267 
	109.18,28.077 109.234,27.555 109.264,27.474 109.208,27.255 109.264,26.98 109.264,26.844 109.316,26.571 109.346,26.352 
	109.346,26.213 109.372,25.832 109.316,25.641 109.29,25.53 109.234,25.501 109.151,25.501 108.934,25.53 108.934,25.476 
	109.1,25.42 109.125,25.42 109.208,25.394 109.234,25.394 109.234,25.365 109.29,25.281 109.29,25.255 109.346,25.09 109.4,24.845 
	109.426,24.462 109.455,24.406 109.455,24.216 109.455,24.133 109.455,23.942 109.426,23.915 109.372,23.667 109.372,23.615 
	109.346,23.367 109.4,23.311 109.455,23.311 109.536,23.065 109.59,22.846 109.647,22.463 109.673,22.409 109.673,22.298 
	109.647,22.271 109.59,22.188 109.647,21.997 109.673,21.806 109.701,21.642 109.782,21.149 109.81,20.984 109.836,20.93 
	109.836,20.272 109.836,20.243 109.836,20.217 109.836,20.109 109.836,20.026 109.81,19.997 109.81,19.891 109.727,19.78 
	109.618,19.616 109.59,19.561 109.51,19.508 109.455,19.479 109.455,19.371 109.59,19.178 109.701,18.412 109.701,18.138 
	109.701,18.11 109.701,17.945 109.701,17.781 109.701,17.671 109.701,17.505 109.701,17.399 109.673,17.345 109.59,17.07 
	109.455,16.933 109.455,16.852 109.701,16.522 109.782,16.467 109.81,16.467 109.836,16.438 109.973,16.438 110.001,16.438 
	110.028,16.412 110.028,16.386 110.083,16.25 110.112,16.083 110.112,16.057 110.139,15.975 110.139,15.946 110.139,15.865 
	110.139,15.811 110.139,15.7 110.139,15.646 110.139,15.51 110.139,15.428 110.139,15.072 110.057,14.687 110.028,14.579 
	110.028,14.47 110.001,14.441 109.973,14.304 109.947,14.141 109.918,14.058 109.893,14.003 109.865,13.948 109.782,13.675 
	109.756,13.619 109.756,13.592 109.673,13.374 109.59,13.155 109.51,12.991 109.455,12.879 109.316,12.801 109.455,12.689 
	109.536,12.689 109.59,12.717 109.673,12.879 109.647,12.962 109.673,13.073 109.727,13.1 109.918,13.127 110.028,13.182 
	110.057,13.182 110.275,13.374 110.275,13.401 110.413,13.54 110.468,13.701 110.603,13.756 110.932,13.866 110.932,13.894 
	110.959,13.894 111.07,13.84 111.096,13.73 111.096,13.701 111.07,13.701 110.987,13.619 110.905,13.54 110.879,13.54 
	110.85,13.455 110.879,13.429 111.042,13.401 111.151,13.401 111.289,13.429 111.316,13.429 111.589,13.346 111.644,13.319 
	111.809,13.264 111.918,13.208 112.001,13.235 112.165,13.319 112.384,13.346 112.439,13.346 112.685,13.208 112.765,13.182 
	112.794,13.127 112.848,13.1 112.957,13.1 113.151,13.155 113.204,13.127 113.258,12.991 113.287,12.879 113.313,12.854 
	113.396,12.827 113.479,12.827 113.532,12.879 113.56,12.908 113.671,12.991 114.054,12.717 114.054,12.553 114.162,12.553 
	114.272,12.497 114.381,12.471 114.519,12.416 114.736,12.441 114.791,12.471 114.847,12.497 114.874,12.553 115.037,12.717 
	115.176,12.936 115.231,13.017 115.231,13.1 115.176,13.701 115.75,14.222 115.831,14.222 116.131,14.25 116.436,14.277 
	116.652,14.277 116.928,14.141 117.147,14.003 117.338,13.92 117.801,13.701 118.268,13.756 118.295,13.756 118.405,13.866 
	118.924,14.222 119.007,14.333 119.09,14.358 119.2,14.441 119.228,14.441 119.335,14.496 119.364,14.523 119.39,14.523 
	119.692,14.853 119.774,14.961 119.995,15.072 120.021,15.1 120.103,15.125 120.349,15.262 120.513,15.592 120.539,15.619 
	120.567,15.811 120.593,16.03 120.787,16.25 120.787,16.276 120.978,16.769 121.005,16.824 121.197,17.041 121.197,17.152 
	121.252,17.453 121.197,17.728 121.197,17.751 121.226,17.808 121.226,17.836 121.252,17.892 121.306,18.083 121.334,18.138 
	121.364,18.192 121.364,18.218 121.444,18.384 121.444,18.438 121.444,18.52 121.444,18.629 121.416,18.712 121.306,18.986 
	121.306,19.207 121.552,19.616 121.552,19.645 121.58,19.645 121.636,19.945 121.636,20.301 121.607,20.382 121.498,20.793 
	121.498,20.875 121.471,21.066 121.58,21.396 121.58,21.421 121.827,21.586 121.882,21.616 121.908,21.616 122.073,21.696 
	122.292,21.888 122.458,21.971 122.756,22.108 123.114,22.137 123.142,22.137 123.168,22.163 123.332,22.188 123.387,22.216 
	123.714,22.326 123.744,22.326 123.96,22.437 124.125,22.489 124.236,22.517 124.263,22.517 124.292,22.544 124.399,22.573 
	124.426,22.602 124.454,22.602 124.483,22.626 124.619,22.763 124.646,22.763 124.784,22.818 125.002,22.792 125.084,22.763 
	125.167,22.709 125.221,22.709 125.276,22.683 125.358,22.655 125.384,22.655 125.468,22.683 125.659,22.763 125.851,23.065 
	126.234,23.148 126.508,23.148 126.564,23.148 126.7,23.091 127.164,22.874 127.357,22.683 127.794,22.602 127.905,22.602 
	127.931,22.626 128.069,22.626 128.178,22.602 128.752,22.243 128.971,22.163 129.162,22.163 129.38,22.08 129.408,22.053 
	129.574,21.945 129.655,21.777 129.684,21.75 129.847,21.777 129.984,21.696 130.122,21.642 130.177,21.586 130.205,21.533 
	130.205,21.396 130.449,21.175 130.477,21.175 130.558,21.095 130.641,21.066 130.833,20.984 131.107,20.903 131.379,20.984 
	131.872,21.095 132.146,21.095 132.476,20.984 132.529,20.957 132.831,20.957 132.914,20.957 133.597,20.768 133.871,20.657 
	133.898,20.657 134.008,20.684 134.118,20.709 134.227,20.738 134.283,20.793 134.338,20.819 134.393,20.875 134.581,21.04 
	134.801,21.095 134.994,21.149 135.211,21.149 135.486,21.014 135.57,21.014 135.707,21.014 135.843,20.984 136.088,21.066 
	136.282,21.202 136.333,21.259 136.718,21.37 137.073,21.478 137.156,21.696 137.21,21.806 137.238,22.023 137.266,22.08 
	137.238,22.216 137.238,22.271 137.374,22.409 137.512,22.409 137.539,22.409 137.758,22.409 137.812,22.354 137.812,22.326 
	137.895,22.38 137.978,22.298 138.004,22.271 138.033,22.243 138.004,22.188 138.361,21.833 138.58,21.75 138.881,21.777 
	139.156,21.75 139.208,21.777 139.374,21.833 139.428,21.806 139.702,21.724 139.785,21.724 140.057,21.945 140.085,21.945 
	140.249,21.916 140.522,21.642 140.661,21.504 140.851,21.449 141.344,21.286 141.974,21.014 142.331,20.875 142.521,20.684 
	142.686,20.573 142.878,20.464 143.314,20.438 143.616,20.547 143.7,20.631 144,20.957 144.164,21.095 144.218,21.123 
	144.41,21.175 145.175,21.123 145.941,20.957 146.329,20.819 146.408,20.793 147.122,20.738 147.501,20.217 147.803,20.054 
	148.515,19.891 149.202,19.508 149.228,19.479 149.557,19.314 150.133,19.261 150.43,19.15 150.513,19.15 151.171,18.958 
	151.473,18.986 151.912,18.931 152.486,18.82 152.923,18.165 152.951,18.138 153.167,17.919 153.47,17.836 153.828,18.001 
	153.936,18.083 154.292,18.11 154.675,17.945 154.869,17.919 155.416,17.864 155.526,17.864 155.603,17.836 155.908,17.728 
	155.935,17.7 156.043,17.671 156.588,17.59 156.92,17.671 157.22,17.751 157.467,17.751 157.743,17.7 157.908,17.671 
	158.233,17.505 158.536,17.288 158.893,17.125 159.055,16.987 159.276,16.686 159.353,16.686 159.712,16.658 160.149,16.658 
	160.616,16.658 160.889,16.632 160.917,16.632 161.244,16.632 162.34,16.604 162.532,16.604 162.723,16.604 162.75,16.604 
	163.051,16.604 163.216,16.578 163.33,16.578 163.352,16.578 163.406,16.578 163.573,16.578 163.682,16.578 163.736,16.578 
	163.763,16.578 164.145,16.578 164.391,16.552 164.859,16.552 165.078,16.552 165.243,16.552 165.322,16.552 165.43,16.552 
	165.652,16.522 165.708,16.522 165.955,16.522 166.252,16.522 166.526,16.522 166.587,16.495 166.718,16.495 166.802,16.495 
	167.624,16.467 167.789,16.467 167.814,16.467 169.103,16.438 169.293,16.412 169.373,16.412 169.786,16.412 169.976,16.412 
	171.891,16.357 173.017,16.332 174.003,16.302 174.248,16.302 174.302,16.302 174.657,16.276 175.152,16.25 175.505,16.276 
	175.671,16.221 176.245,16.221 176.545,16.193 176.575,16.193 176.877,16.193 176.902,16.193 177.559,16.166 178.136,16.138 
	178.323,16.138 178.517,16.138 179.177,16.111 179.613,16.111 179.855,16.111 179.914,16.193 180.106,16.386 180.161,16.604 
	180.295,16.795 180.295,16.852 180.349,17.099 180.406,17.207 180.433,17.288 180.464,17.345 180.487,17.371 180.653,17.535 
	180.791,17.617 180.899,17.7 180.953,17.728 181.145,18.001 181.145,18.029 181.199,18.11 181.226,18.192 181.226,18.247 
	181.226,18.302 181.226,18.357 181.226,18.384 181.281,18.467 181.504,18.577 181.527,18.577 181.582,18.577 181.582,18.548 
	181.613,18.548 181.637,18.52 181.667,18.52 181.667,18.493 181.696,18.493 181.721,18.467 181.721,18.438 181.748,18.438 
	181.775,18.438 181.964,18.412 181.997,18.412 182.019,18.412 182.019,18.438 182.127,18.493 182.16,18.493 182.268,18.685 
	182.322,18.878 182.349,18.878 182.489,19.04 182.543,19.04 182.678,19.04 182.76,19.014 182.788,18.986 182.815,18.958 
	183.09,19.014 183.199,19.04 183.228,19.04 183.39,19.207 183.583,19.371 183.637,19.371 183.667,19.396 183.691,19.396 
	183.691,19.424 183.723,19.479 183.799,19.616 183.832,19.645 183.799,19.918 183.832,20.191 183.854,20.243 183.937,20.382 
	183.964,20.438 183.991,20.464 184.102,20.547 184.292,20.738 184.324,20.768 184.346,20.819 184.403,20.957 184.43,20.957 
	184.43,21.014 184.458,21.066 184.484,21.095 184.513,21.175 184.568,21.231 184.594,21.259 184.622,21.286 184.622,21.314 
	184.622,21.478 184.622,21.504 184.622,21.533 184.458,21.862 184.378,21.888 184.292,21.971 184.267,22.023 184.159,22.163 
	184.075,22.326 183.964,22.626 183.883,22.792 183.854,22.846 183.799,23.012 183.775,23.256 183.775,23.285 183.799,23.395 
	183.832,23.53 183.746,23.558 183.723,23.558 183.61,23.695 183.551,23.723 183.497,23.804 183.497,23.832 183.474,24.051 
	183.417,24.269 183.282,24.434 183.228,24.488 183.144,24.627 183.004,24.929 182.898,25.174 182.735,25.585 182.706,25.694 
	182.76,25.941 182.76,26.051 182.76,26.133 182.76,26.159 182.735,26.241 182.735,26.269 182.678,26.324 182.62,26.379 
	182.566,26.434 182.543,26.571 182.489,26.788 182.433,27.062 182.433,27.09 182.458,27.227 182.433,27.31 182.322,27.747 
	182.322,27.886 182.297,28.158 182.268,28.186 182.268,28.213 182.05,28.596 181.856,28.733 181.775,28.87 181.775,28.896 
	181.775,28.98 181.775,29.116 181.775,29.142 181.775,29.172 181.637,29.391 181.527,29.526 181.391,29.718 181.334,29.744 
	181.226,29.827 181.174,29.939 181.174,29.992 181.199,30.046 181.199,30.239 181.199,30.267 181.088,30.485 181.088,30.54 
	181.088,30.565 181.088,30.594 181.174,30.841 181.174,30.869 181.226,30.951 181.334,31.116 181.391,31.196 181.391,31.225 
	181.364,31.279 181.31,31.333 181.281,31.472 181.255,31.608 181.226,31.771 181.199,31.854 181.174,31.963 181.088,32.101 
	180.899,32.293 180.791,32.458 180.736,32.564 180.708,32.59 180.708,32.647 180.573,32.95 180.487,33.031 180.464,33.086 
	180.433,33.166 180.433,33.196 180.433,33.222 180.464,33.278 180.464,33.304 180.464,33.331 180.433,33.387 180.406,33.387 
	180.295,33.469 180.106,33.523 180.081,33.549 180.049,33.549 179.995,33.633 179.914,33.714 179.886,33.743 179.855,33.77 
	179.802,33.797 179.749,33.797 179.723,33.797 179.667,33.797 179.64,33.797 179.394,33.938 179.34,33.989 179.311,34.018 
	179.177,34.237 179.202,34.317 179.202,34.535 179.177,34.59 179.093,34.62 179.037,34.756 179.009,34.838 179.009,34.865 
	179.009,34.892 178.926,35.083 178.873,35.14 178.873,35.248 178.902,35.331 178.873,35.496 178.764,35.687 178.709,35.714 
	178.685,35.797 178.653,35.878 178.653,35.933 178.628,36.18 178.628,36.316 178.628,36.343 178.546,36.451 178.491,36.481 
	178.463,36.507 178.407,36.535 178.407,36.59 178.407,36.646 178.463,36.702 178.463,36.864 178.407,37.001 178.379,37.056 
	178.298,37.165 178.217,37.195 178.082,37.221 178.052,37.274 177.999,37.357 177.999,37.411 177.999,37.438 177.971,37.495 
	177.971,37.549 177.915,37.658 177.831,37.741 177.806,37.768 177.751,37.741 177.698,37.768 177.667,37.794 177.667,37.849 
	177.641,37.849 177.667,37.878 177.667,37.904 177.667,37.932 177.698,37.986 177.751,38.124 177.777,38.204 177.777,38.289 
	177.806,38.587 177.777,38.671 177.698,38.864 177.698,38.891 177.614,38.999 177.533,39.028 177.533,39.111 177.614,39.355 
	177.698,39.437 177.806,39.547 177.887,39.575 177.915,39.604 178.025,39.711 178.025,39.737 178.107,39.876 178.107,39.904 
	178.082,39.959 178.082,39.983 177.971,40.206 177.971,40.23 177.86,40.261 177.86,40.286 177.831,40.286 177.806,40.397 
	177.806,40.425 177.806,40.451 177.86,40.56 178.052,40.782 178.107,40.806 178.352,40.971 178.491,40.971 178.628,40.971 
	178.685,40.944 178.709,40.888 178.739,40.888 178.739,40.835 178.739,40.806 178.847,40.67 178.873,40.67 178.902,40.642 
	178.926,40.642 178.983,40.642 179.009,40.642 179.037,40.642 179.064,40.697 179.121,40.752 179.121,40.782 179.177,40.914 
	179.177,40.944 179.311,41.053 179.34,41.079 179.419,41.136 179.502,41.218 179.53,41.328 179.557,41.328 179.586,41.353 
	179.613,41.353 179.613,41.328 179.64,41.328 179.64,41.298 179.667,41.136 179.749,41.079 179.778,41.053 179.833,41.053 
	179.886,41.079 179.941,41.079 180.106,41.079 180.242,41.079 180.295,41.079 180.349,41.106 180.378,41.163 180.378,41.19 
	180.406,41.218 180.406,41.245 180.378,41.353 180.406,41.603 180.433,41.764 180.464,41.792 180.487,41.792 "/>
<polyline fill="none" stroke="#010101" stroke-width="2" stroke-linecap="round" stroke-linejoin="round" stroke-miterlimit="3.85" points="
	180.487,41.792 180.679,41.846 180.708,41.82 180.736,41.792 180.763,41.792 180.791,41.792 180.899,41.82 181.145,41.983 
	181.174,42.01 181.226,42.091 181.255,42.23 181.255,42.255 181.255,42.283 181.226,42.337 181.226,42.369 181.066,42.695 
	181.034,42.749 181.034,42.778 180.926,42.997 180.926,43.023 180.872,43.13 180.842,43.161 180.818,43.189 180.791,43.215 
	180.763,43.215 180.653,43.268 180.542,43.268 180.487,43.3 180.464,43.323 180.433,43.354 180.433,43.377 180.433,43.409 
	180.464,43.6 180.464,43.655 180.487,43.737 180.487,43.817 180.487,43.869 180.519,43.869 180.679,43.958 180.736,44.009 
	180.818,44.04 180.872,44.147 180.899,44.202 180.926,44.228 180.926,44.258 180.899,44.393 180.872,44.53 180.872,44.585 
	180.842,44.721 180.842,44.748 180.818,44.775 180.708,44.967 180.623,45.021 180.596,45.021 180.573,45.079 180.573,45.103 
	180.573,45.131 180.596,45.162 180.596,45.189 180.623,45.189 180.653,45.244 180.679,45.35 180.679,45.514 180.679,45.597 
	180.679,45.679 180.653,45.735 180.623,45.759 180.542,45.9 180.542,45.924 180.573,45.982 180.573,46.061 180.573,46.09 
	180.542,46.282 180.542,46.336 180.519,46.448 180.519,46.473 180.487,46.5 180.464,46.5 180.433,46.528 180.378,46.5 180.349,46.5 
	180.325,46.528 180.295,46.528 180.242,46.552 180.187,46.583 180.187,46.637 180.161,46.693 180.133,46.858 180.081,46.964 
	180.081,46.994 180.081,47.018 180.081,47.076 180.106,47.266 180.106,47.321 180.106,47.352 180.106,47.375 180.106,47.759 
	180.133,48.007 180.133,48.39 180.133,48.415 180.161,48.662 180.161,48.775 180.161,48.965 180.187,49.099 180.187,49.156 
	180.187,49.211 180.187,49.376 180.216,49.84 180.216,49.951 180.216,50.004 180.216,50.059 180.216,50.142 180.216,50.279 
	180.216,50.306 180.216,50.362 180.242,50.387 180.242,50.611 180.242,50.663 180.242,50.8 180.295,52.034 180.325,52.583 
	180.378,53.593 180.406,54.686 180.433,54.849 180.433,55.238 180.542,57.643 180.573,58.491 180.708,61.615 180.818,64.158 
	180.818,64.215 180.872,65.228 180.98,67.716 181.011,68.018 181.011,68.488 181.034,68.677 181.12,70.757 181.12,70.785 
	181.12,71.223 181.145,71.443 181.199,73.109 181.066,73.139 180.98,73.139 180.899,73.139 180.763,73.139 180.623,73.139 
	179.723,73.168 179.394,73.195 179.286,73.195 179.177,73.195 177.203,73.301 176.767,73.301 176.109,73.333 175.863,73.355 
	175.206,73.386 174.957,73.386 174.934,73.386 174.848,73.386 174.824,73.386 174.765,73.386 174.497,73.414 172.305,73.468 
	172.194,73.496 172.056,73.496 169.54,73.579 168.747,73.602 167.156,73.661 166.416,73.688 165.516,73.715 164.446,73.771 
	163.433,73.826 162.588,73.826 162.365,73.826 160.178,73.853 157.987,73.905 157.743,73.879 157.521,73.905 156.753,73.905 
	156.374,73.905 155.47,73.905 152.458,73.934 151.776,73.905 151.144,73.934 150.897,73.934 150.872,73.934 149.692,73.961 
	149.557,73.986 149.531,73.961 147.86,73.986 147.614,73.986 147.501,73.986 146.491,74.017 146.082,74.017 144.218,74.017 
	144.164,74.017 144.136,74.017 144.053,74.017 142.933,74.017 142.661,74.017 142.166,74.017 140.907,73.986 140.824,73.986 
	140.167,73.986 138.525,73.986 137.895,73.961 137.539,73.934 136.253,73.934 136.253,73.905 136.224,73.905 135.596,73.905 
	135.513,73.905 135.324,73.905 135.266,73.934 135.047,73.905 134.885,73.905 134.338,73.905 134.254,73.905 134.199,73.905 
	134.118,73.905 133.351,73.879 132.723,73.853 132.529,73.853 132.502,73.853 131.708,73.826 131.546,73.826 131.379,73.796 
	131.354,73.796 130.122,73.771 130.067,73.771 129.875,73.743 128.231,73.715 127.164,73.661 126.588,73.633 126.536,73.633 
	126.234,73.633 125.468,73.602 125.167,73.602 124.318,73.55 124.208,73.55 124.099,73.55 124.018,73.55 123.688,73.55 
	122.921,73.526 121.69,73.55 121.498,73.55 120.65,73.526 119.72,73.496 118.981,73.496 118.924,73.496 118.734,73.496 
	118.213,73.468 117.995,73.468 117.119,73.441 116.902,73.414 116.708,73.386 116.05,73.333 115.941,73.333 115.559,73.355 
	115.148,73.355 113.889,73.386 113.86,73.386 113.532,73.386 112.957,73.333 112.272,73.301 112.245,73.301 112.082,73.301 
	112.001,73.301 111.944,73.301 111.863,73.301 111.727,73.301 110.959,73.279 110.879,73.279 110.603,73.333 109.836,73.279 
	109.18,73.25 108.934,73.25 108.851,73.25 108.713,73.25 107.291,73.168 106.935,73.168 106.744,73.139 106.032,73.109 
	106.004,73.109 105.896,73.109 105.869,73.109 105.594,73.087 104.691,73.033 104.663,72.922 104.417,72.675 104.362,72.594 
	104.144,72.374 104.116,72.316 104.007,72.316 103.979,72.316 103.924,72.316 103.898,72.294 103.842,72.263 103.787,72.237 
	103.65,71.992 103.65,71.961 103.624,71.934 103.377,71.608 103.24,71.306 103.24,71.251 103.296,71.087 103.296,71.006 
	103.268,70.922 103.212,70.868 103.157,70.757 103.157,70.677 103.185,70.677 103.24,70.623 103.24,70.346 103.157,70.238 
	103.103,70.208 103.103,70.184 103.077,70.129 103.103,69.937 103.077,69.882 103.077,69.797 103.021,69.692 102.938,69.581 
	102.749,69.336 102.749,69.281 102.773,69.199 102.831,68.951 102.831,68.923 102.802,68.512 102.721,68.375 102.61,68.155 
	102.638,68.13 102.665,67.884 102.692,67.525 102.692,67.502 102.692,67.256 102.692,67.225 102.692,67.009 102.692,66.896 
	102.638,66.677 102.638,66.624 102.773,66.323 102.773,66.077 102.802,65.884 102.938,65.584 103.077,65.201 103.185,64.843 
	103.185,64.708 103.157,64.57 103.103,64.377 103.131,64.105 103.103,63.966 103.021,63.53 102.967,63.474 102.831,63.392 
	102.721,63.312 102.638,63.257 102.61,63.228 102.665,63.12 102.665,63.093 102.665,63.039 102.557,62.792 102.418,62.432 
	102.392,62.38 102.255,62.3 102.229,62.3 102.174,62.3 102.174,62.328 102.064,62.38 102.035,62.38 102.008,62.38 102.008,62.353 
	102.008,62.3 101.982,62.108 101.982,62.081 101.925,61.586 101.872,61.368 101.817,61.231 101.733,61.093 101.678,60.846 
	101.733,60.739 101.79,60.628 101.872,60.519 102.281,59.781 102.475,59.339 102.5,59.315 102.531,59.26 "/>
<polygon fill="none" stroke="#231F20" stroke-width="2" stroke-linecap="round" stroke-linejoin="round" stroke-miterlimit="3.85" points="
	214.956,49.709 215.009,48.265 215.095,46.521 215.15,45.41 215.15,45.354 215.233,44.276 215.26,43.831 215.289,43.275 
	215.315,42.447 215.343,42.168 215.343,42.114 215.398,40.865 215.398,40.754 215.398,40.617 215.563,37.125 215.594,35.738 
	215.62,35.212 215.732,32.855 215.759,31.608 215.84,29.724 215.951,27.033 216.005,25.397 216.005,25.288 216.005,25.258 
	216.037,24.679 216.177,21.435 216.202,20.713 216.202,20.631 216.232,20.047 216.287,18.884 216.315,18.386 216.34,17.499 
	216.396,15.89 216.48,13.952 216.48,13.343 218.311,13.425 219.389,13.451 221.112,13.535 222.272,13.564 222.55,13.564 
	224.767,13.646 224.907,13.646 225.292,13.672 226.068,13.672 227.096,13.701 227.564,13.701 228.923,13.727 228.978,13.727 
	231.476,13.813 232.193,13.813 232.527,13.813 232.777,13.84 233.361,13.84 235.048,13.868 235.601,13.868 235.742,13.868 
	235.769,13.868 236.435,13.896 237.515,13.922 237.819,13.922 239.094,13.922 240.674,13.979 241.145,13.979 245.138,14.035 
	245.273,14.035 245.304,14.035 245.383,14.035 245.804,14.062 245.859,14.062 246.577,14.089 247.743,14.118 247.994,14.118 
	248.021,14.118 249.46,14.144 252.73,14.172 253.089,14.172 253.173,14.172 254.031,14.172 255.057,14.172 256.612,14.144 
	258.109,14.144 258.328,14.144 258.355,14.144 259.244,14.144 261.79,14.118 261.85,14.118 262.762,14.118 263.041,14.118 
	263.68,14.089 264.731,14.062 265.201,14.062 265.589,14.062 266.698,14.035 267.034,14.035 267.946,14.035 268.111,14.035 
	269.831,14.005 269.859,14.005 270.193,14.005 270.826,13.979 271.049,13.979 271.245,13.979 271.462,13.979 271.603,13.979 
	271.773,13.979 271.938,13.952 271.991,13.952 272.076,13.952 272.491,13.952 272.521,13.952 272.714,13.952 273.239,13.952 
	273.352,13.952 273.542,13.952 273.765,13.922 274.793,13.896 274.958,13.896 276.897,13.868 277.314,13.868 277.728,13.868 
	277.868,13.84 278.561,13.84 278.839,13.813 279.004,13.813 279.197,13.813 279.223,13.813 279.835,13.813 282.358,13.727 
	282.384,13.727 282.553,13.727 282.578,13.727 282.746,13.727 282.801,13.727 283.191,13.701 283.215,13.701 283.409,13.701 
	283.439,13.701 283.633,13.701 283.658,13.701 283.827,13.701 283.851,13.701 284.046,13.672 284.241,13.672 284.27,13.672 
	284.466,13.672 284.489,13.672 284.685,13.672 284.712,13.672 284.877,13.672 284.909,13.672 285.099,13.646 285.128,13.646 
	285.711,13.646 285.797,13.646 285.93,13.619 286.099,13.619 286.125,13.619 287.042,13.592 287.399,13.592 287.875,13.564 
	287.898,13.564 288.009,13.564 288.123,13.564 288.538,13.535 288.869,13.535 289.067,13.535 289.174,13.535 289.976,13.509 
	290.062,13.509 290.227,13.479 291.034,13.451 291.167,13.451 291.253,13.451 291.282,13.451 291.393,13.451 291.696,13.451 
	291.922,13.425 291.944,13.425 292.141,13.425 292.862,13.397 293.469,13.37 293.666,13.37 293.831,17.056 293.858,17.805 
	293.913,19.466 293.94,20.133 293.94,20.382 294,21.545 294,22.185 294.023,22.24 294.023,22.709 294.023,22.851 294.054,22.876 
	294.054,23.014 294.111,24.512 294.111,24.623 294.133,25.593 294.133,25.789 294.188,27.006 294.219,27.893 294.249,28.253 
	294.3,30.138 294.328,30.221 294.328,30.36 294.328,30.583 294.383,31.691 294.411,32.662 294.442,32.993 294.442,33.105 
	294.442,33.38 294.465,33.88 294.497,34.131 294.497,34.241 294.497,34.655 294.497,34.684 294.521,35.129 294.576,36.319 
	294.576,36.403 294.576,36.624 294.606,36.761 294.606,37.066 294.662,38.092 294.716,39.286 294.747,40.505 294.773,40.56 
	294.773,40.59 294.799,41.806 294.965,45.189 294.965,45.41 294.965,45.634 294.997,45.828 294.997,46.05 295.021,46.881 
	295.021,47.018 295.021,47.045 295.021,47.213 295.05,47.213 295.05,47.299 295.076,48.073 295.076,48.57 295.104,48.903 
	295.104,49.126 295.134,49.4 295.134,49.68 295.159,50.427 295.19,50.927 295.19,50.982 295.19,51.425 295.245,52.476 
	295.269,53.118 295.269,53.2 295.269,53.396 295.324,54.476 295.354,54.973 295.354,55.086 295.354,55.167 295.354,55.197 
	295.354,55.221 295.354,55.279 295.354,55.389 295.382,56.304 295.382,56.333 295.382,56.36 295.382,56.412 295.41,56.583 
	295.464,58.08 295.464,58.107 295.464,58.274 295.494,58.94 295.519,59.577 295.547,59.88 295.547,60.101 295.58,60.519 
	295.602,60.825 295.602,61.045 295.633,61.683 295.633,61.877 295.633,62.04 295.659,62.214 295.659,62.736 295.69,63.153 
	295.69,63.457 295.69,63.708 295.712,63.788 295.712,64.205 295.745,64.733 295.766,65.232 295.766,65.256 295.766,65.62 
	295.798,65.894 295.798,66.12 295.798,66.45 295.828,67.061 295.828,67.225 295.855,67.808 295.91,69.498 295.937,69.72 
	295.937,69.748 295.937,69.943 295.937,70.026 295.993,71.053 295.993,71.079 295.993,71.108 295.993,71.216 295.993,71.662 
	295.855,71.662 294.357,71.715 294.054,71.745 293.555,71.745 293.442,71.745 293.332,71.745 292.916,71.77 292.333,71.77 
	290.365,71.855 288.343,71.91 287.846,71.882 287.625,71.855 287.399,71.882 287.067,71.882 286.988,71.855 286.678,71.882 
	285.075,71.937 284.989,71.937 284.963,71.965 284.794,71.937 283.827,71.965 283.603,71.965 283.494,71.965 282.996,71.996 
	282.496,71.996 281.75,72.02 280.996,72.05 279.86,72.078 278.973,72.105 276.256,72.161 273.071,72.244 270.638,72.298 
	270.215,72.328 269.69,72.328 269.553,72.328 269.19,72.353 269.025,72.353 268.998,72.353 268.887,72.353 268.5,72.353 
	268.334,72.353 268.139,72.353 267.586,72.353 267.556,72.353 267.282,72.353 267.086,72.353 265.867,72.382 265.617,72.382 
	264.924,72.382 264.622,72.382 263.345,72.407 261.487,72.407 261.127,72.438 260.078,72.382 259.879,72.382 259.657,72.407 
	258.911,72.407 258.55,72.407 256.582,72.407 256.365,72.382 256.303,72.382 256.25,72.382 256.053,72.382 255.977,72.382 
	255.531,72.407 255.5,72.407 255.391,72.407 255.253,72.407 254.144,72.407 253.726,72.382 253.119,72.382 253.089,72.382 
	249.851,72.382 249.737,72.382 248.657,72.382 247.908,72.382 247.462,72.382 246.909,72.382 246.384,72.382 246.023,72.382 
	245.829,72.382 245.804,72.382 244.995,72.382 244.25,72.353 243.974,72.353 242.614,72.353 242.473,72.353 242.09,72.353 
	241.922,72.353 241.035,72.353 240.674,72.353 239.648,72.328 239.565,72.215 239.094,72.215 238.652,72.188 238.319,72.188 
	237.708,72.188 236.878,72.161 235.828,72.161 235.159,72.13 233.22,72.105 232.969,72.105 232.527,72.078 232.028,72.078 
	232,72.078 231.113,72.05 231.088,72.05 229.811,72.02 229.034,71.996 228.147,71.996 228.035,71.965 227.982,71.965 
	227.485,71.965 226.654,71.937 226.456,71.937 226.068,71.937 225.903,71.91 224.378,71.882 224.294,71.882 223.546,71.855 
	223.103,71.855 222.715,71.829 222.053,71.799 221.112,71.77 220.22,71.745 219.222,71.715 218.918,71.715 217.727,71.662 
	215.343,71.578 215.289,71.578 214.736,71.55 214.261,71.55 214.291,71.244 214.291,71.192 214.318,70.471 214.318,70.441 
	214.318,70.274 214.318,70.136 214.347,69.943 214.347,69.888 214.372,68.946 214.372,68.587 214.372,68.557 214.402,68.474 
	214.402,68.032 214.402,67.894 214.458,66.868 214.458,66.782 214.488,66.282 214.488,66.061 214.567,64.703 214.567,64.592 
	214.567,64.48 214.567,64.456 214.595,64.26 214.623,63.815 214.653,62.736 214.653,62.543 214.653,62.459 214.68,61.845 
	214.708,61.183 214.708,61.154 214.736,60.767 214.736,60.711 214.736,60.628 214.736,60.574 214.76,60.325 214.76,59.909 
	214.791,59.383 214.791,59.298 214.818,58.828 214.818,58.717 214.845,58.328 214.845,57.355 214.872,57.025 214.872,56.998 
	214.928,55.389 214.956,55.086 214.956,54.756 214.985,54.586 214.872,53.423 214.818,52.98 214.901,50.982 "/>
<polygon fill="none" stroke="#010101" stroke-width="2" stroke-linecap="round" stroke-linejoin="round" stroke-miterlimit="3.85" points="
	4.795,54.538 4.734,54.506 4.705,54.506 4.677,54.476 4.588,54.472 4.529,54.439 4.5,54.439 4.38,54.435 4.172,54.404 4.114,54.401 
	4.083,54.4 4.054,54.428 4.021,54.486 3.991,54.517 3.962,54.517 3.812,54.513 3.637,54.476 3.546,54.445 3.518,54.415 
	3.462,54.325 3.402,54.232 3.373,54.203 3.316,54.17 3.287,54.201 3.223,54.321 3.191,54.376 3.164,54.374 3.131,54.374 
	3.102,54.374 3.045,54.314 3.018,54.252 2.989,54.191 3.022,54.042 2.879,53.862 2.85,53.773 2.852,53.742 2.854,53.68 
	2.824,53.649 2.796,53.649 2.734,53.646 2.678,53.615 2.648,53.556 2.652,53.466 2.683,53.382 2.714,53.263 2.811,53.028 
	2.902,52.939 2.934,52.883 2.966,52.822 2.999,52.703 3.031,52.644 3.031,52.612 3.032,52.527 3.035,52.465 3.098,52.351 
	3.1,52.321 3.1,52.259 3.075,52.111 3.076,52.049 3.108,51.961 3.142,51.844 3.142,51.813 3.145,51.755 3.085,51.696 3.057,51.634 
	2.973,51.483 3.002,51.456 3.155,51.367 3.184,51.311 3.129,51.162 3.104,51.101 3.043,51.069 2.956,51.034 2.838,50.972 
	2.75,50.969 2.69,50.938 2.632,50.91 2.632,50.876 2.55,50.697 2.55,50.669 2.551,50.635 2.64,50.549 2.794,50.466 2.824,50.41 
	2.854,50.378 2.918,50.231 2.953,50.025 2.956,49.962 2.956,49.906 2.871,49.754 2.873,49.693 2.874,49.634 2.876,49.606 
	2.847,49.576 2.819,49.542 2.702,49.39 2.674,49.332 2.676,49.3 2.706,49.276 2.735,49.276 2.855,49.28 2.945,49.283 3.005,49.25 
	3.005,49.221 3.005,49.19 3.035,49.192 3.126,49.165 3.274,49.169 3.452,49.235 3.512,49.235 3.541,49.235 3.628,49.206 
	3.72,49.122 3.783,49.065 3.815,48.978 3.881,48.799 3.883,48.708 3.883,48.682 4.007,48.473 4.066,48.449 4.13,48.358 
	4.159,48.299 4.191,48.272 4.191,48.212 4.286,48.096 4.316,48.068 4.406,48.01 4.466,48.01 4.528,47.983 4.619,47.897 
	4.648,47.869 4.651,47.78 4.652,47.716 4.654,47.69 4.866,47.547 5.078,47.433 5.078,47.403 5.05,47.372 4.966,47.19 4.909,47.042 
	4.911,46.98 4.912,46.892 5.005,46.745 5.04,46.719 5.069,46.686 5.099,46.662 5.099,46.63 5.101,46.6 5.101,46.569 5.072,46.538 
	5.072,46.48 5.075,46.42 5.076,46.39 5.107,46.33 5.109,46.273 5.079,46.214 5.082,46.182 5.082,46.154 5.082,46.09 5.082,46.065 
	5.116,46.034 5.118,46.003 5.147,46.003 5.147,45.975 5.147,45.944 5.118,45.944 5.12,45.917 5.12,45.885 5.092,45.855 
	5.092,45.825 5.064,45.765 5.094,45.738 5.096,45.708 5.125,45.679 5.154,45.616 5.217,45.59 5.306,45.564 5.339,45.564 
	5.397,45.537 5.488,45.482 5.521,45.331 5.524,45.244 5.496,45.182 5.466,45.148 5.438,45.121 5.41,45.059 5.412,45.033 
	5.353,44.997 5.324,44.967 5.353,44.967 5.386,44.881 5.417,44.823 5.447,44.764 5.448,44.674 5.451,44.617 5.425,44.524 
	5.314,44.253 5.29,44.078 5.204,43.862 5.233,43.862 5.266,43.836 5.296,43.779 5.328,43.75 5.298,43.717 5.271,43.6 5.273,43.569 
	5.217,43.417 5.217,43.388 5.249,43.332 5.25,43.3 5.278,43.302 5.369,43.305 5.397,43.305 5.461,43.244 5.489,43.219 5.521,43.189 
	5.551,43.161 5.523,43.069 5.524,43.041 5.438,42.976 5.41,42.917 5.378,42.917 5.38,42.886 5.38,42.858 5.382,42.826 5.382,42.798 
	5.413,42.769 5.444,42.769 5.473,42.742 5.504,42.712 5.504,42.681 5.504,42.652 5.504,42.623 5.477,42.593 5.421,42.501 
	5.391,42.499 5.362,42.468 5.331,42.437 5.332,42.413 5.303,42.41 5.245,42.378 5.217,42.347 5.219,42.255 5.22,42.23 5.314,42.08 
	5.375,41.992 5.375,41.964 5.466,41.936 5.494,41.967 5.523,41.967 5.644,41.911 5.707,41.826 5.829,41.737 5.83,41.709 
	5.861,41.681 5.861,41.648 5.921,41.621 5.981,41.562 6.012,41.506 6.042,41.506 6.071,41.476 6.104,41.479 6.104,41.448 
	6.104,41.417 6.107,41.389 6.076,41.357 6.079,41.331 6.079,41.298 6.108,41.27 6.139,41.27 6.166,41.273 6.23,41.245 6.258,41.245 
	6.317,41.185 6.351,41.158 6.381,41.129 6.412,41.039 6.414,40.921 6.416,40.862 6.392,40.742 6.393,40.682 6.393,40.649 
	6.429,40.444 6.459,40.356 6.464,40.266 6.464,40.237 6.556,40.18 6.556,40.121 6.648,40.034 6.68,39.975 6.74,39.948 6.802,39.921 
	6.86,39.921 6.977,39.955 7.099,39.897 7.22,39.873 7.248,39.873 7.311,39.785 7.373,39.699 7.402,39.67 7.462,39.64 7.611,39.674 
	7.731,39.649 7.789,39.62 7.885,39.532 8.006,39.387 8.008,39.358 8.035,39.358 8.035,39.327 8.129,39.241 8.188,39.214 
	8.308,39.187 8.397,39.221 8.548,39.163 8.668,39.107 8.701,39.046 8.849,39.021 8.85,38.992 8.878,38.992 8.911,38.906 
	8.883,38.818 8.913,38.786 8.916,38.759 9.004,38.733 9.066,38.7 9.098,38.644 9.312,38.44 9.464,38.327 9.465,38.295 9.494,38.295 
	9.494,38.237 9.523,38.237 9.554,38.209 9.585,38.209 9.586,38.18 9.617,38.18 9.617,38.15 9.646,38.121 9.648,38.091 9.676,38.092 
	9.708,38.092 9.736,38.092 9.825,38.066 9.857,38.066 9.915,38.069 9.945,38.071 9.946,38.041 9.979,37.982 9.949,37.951 
	9.95,37.892 9.95,37.832 9.954,37.801 9.928,37.683 9.93,37.594 9.932,37.504 9.933,37.474 9.904,37.444 9.727,37.292 9.674,37.11 
	9.618,36.99 9.592,36.9 9.534,36.838 9.504,36.808 9.444,36.778 9.389,36.745 9.3,36.654 9.15,36.65 9.004,36.586 8.975,36.557 
	8.919,36.436 8.804,36.313 8.776,36.282 8.718,36.252 8.602,36.097 8.572,36.068 8.425,36.064 8.334,36.031 8.335,36.001 
	8.308,35.973 8.308,35.943 8.281,35.852 8.281,35.793 8.226,35.733 8.193,35.73 8.078,35.638 8.047,35.638 8.02,35.607 8.02,35.578 
	7.991,35.578 7.932,35.575 7.932,35.546 7.874,35.454 7.874,35.426 7.845,35.424 7.845,35.394 7.817,35.394 7.817,35.364 
	7.788,35.361 7.759,35.361 7.697,35.361 7.608,35.387 7.519,35.414 7.399,35.413 7.371,35.38 7.342,35.35 7.254,35.256 
	7.254,35.229 7.256,35.199 7.32,35.082 7.321,35.023 7.321,34.992 7.325,34.843 7.328,34.753 7.361,34.695 7.362,34.636 
	7.392,34.579 7.396,34.459 7.371,34.309 7.371,34.282 7.289,34.098 7.118,33.738 6.945,33.553 6.891,33.402 6.893,33.345 
	6.859,33.345 6.893,33.315 6.923,33.285 6.952,33.286 6.954,33.166 6.897,33.105 6.78,33.014 6.784,32.895 6.785,32.864 
	6.787,32.775 6.788,32.717 6.761,32.657 6.702,32.594 6.675,32.564 6.676,32.504 6.676,32.474 6.678,32.416 6.678,32.386 
	6.68,32.358 6.652,32.326 6.652,32.293 6.652,32.267 6.625,32.234 6.566,32.113 6.539,32.055 6.513,31.905 6.515,31.816 
	6.516,31.785 6.516,31.757 6.487,31.755 6.487,31.725 6.459,31.725 6.429,31.724 6.373,31.691 6.341,31.664 6.285,31.572 
	6.227,31.54 6.139,31.477 6.08,31.447 5.992,31.386 5.964,31.323 5.937,31.294 5.906,31.262 5.88,31.202 5.762,31.109 5.674,31.049 
	5.618,30.958 5.561,30.867 5.533,30.807 5.504,30.747 5.504,30.714 5.448,30.596 5.448,30.565 5.425,30.416 5.394,30.416 
	5.396,30.294 5.34,30.176 5.342,30.145 5.286,30.026 5.229,29.936 5.171,29.874 5.141,29.842 5.113,29.841 5.113,29.813 
	4.995,29.75 4.967,29.718 4.936,29.718 4.907,29.657 4.878,29.657 4.879,29.628 4.823,29.567 4.795,29.504 4.797,29.477 
	4.797,29.447 4.771,29.298 4.771,29.269 4.804,29.18 4.835,29.091 4.866,29.033 4.869,28.973 4.843,28.882 4.843,28.824 
	4.844,28.792 4.844,28.763 4.847,28.733 4.847,28.703 4.878,28.584 4.879,28.525 4.881,28.436 4.857,28.316 4.857,28.259 
	4.857,28.228 4.86,28.168 4.923,28.022 4.926,27.963 4.926,27.871 4.929,27.844 4.902,27.725 4.904,27.665 4.904,27.632 
	4.905,27.545 4.909,27.425 4.942,27.308 5.005,27.16 5.099,27.074 5.128,27.045 5.249,26.987 5.28,26.901 5.281,26.871 
	5.281,26.839 5.286,26.781 5.254,26.781 5.255,26.752 5.226,26.72 5.199,26.661 5.169,26.658 5.141,26.628 5.082,26.567 
	4.966,26.506 4.933,26.503 4.878,26.442 4.85,26.442 4.821,26.382 4.851,26.324 4.883,26.294 4.911,26.265 4.973,26.209 
	5.002,26.177 5.032,26.18 5.034,26.149 5.064,26.151 5.094,26.151 5.123,26.122 5.154,26.122 5.216,26.125 5.303,26.126 
	5.362,26.159 5.48,26.103 5.571,26.075 5.602,26.044 5.666,25.927 5.734,25.602 5.735,25.516 5.737,25.485 5.741,25.305 
	5.742,25.277 5.744,25.188 5.718,25.097 5.691,25.006 5.633,24.944 5.611,24.677 5.643,24.56 5.593,24.232 5.516,23.752 
	5.521,23.542 5.554,23.395 5.477,23.006 5.425,22.767 5.343,22.466 5.259,22.227 5,21.952 5.002,21.921 5.002,21.894 4.917,21.74 
	4.917,21.711 4.888,21.651 4.892,21.591 4.866,21.442 4.866,21.413 4.811,21.202 4.754,21.111 4.758,20.992 4.759,20.964 
	4.759,20.934 4.795,20.785 4.825,20.728 4.886,20.668 4.946,20.64 5.008,20.554 5.041,20.524 5.041,20.493 5.011,20.435 
	4.984,20.342 4.992,20.107 4.967,19.927 4.967,19.896 5.03,19.78 5.094,19.664 5.128,19.485 5.071,19.364 4.9,19.061 4.756,18.909 
	4.759,18.79 4.761,18.729 4.793,18.672 4.854,18.554 4.886,18.464 4.886,18.436 4.857,18.407 4.744,18.312 4.655,18.221 
	4.629,18.132 4.629,18.072 4.728,17.776 4.761,17.628 4.768,17.479 4.711,17.301 4.747,17.033 4.635,16.792 4.666,16.732 
	4.728,16.676 4.789,16.559 4.823,16.468 4.825,16.44 4.799,16.291 4.8,16.231 4.83,16.171 4.832,16.143 4.894,16.114 5.015,16.028 
	5.045,15.971 5.046,15.939 5.046,15.879 5.048,15.821 5.021,15.731 4.933,15.641 4.819,15.517 4.733,15.366 4.768,15.248 
	4.771,15.158 4.683,15.067 4.536,14.943 4.509,14.912 4.54,14.854 4.572,14.767 4.546,14.677 4.516,14.586 4.43,14.495 
	4.406,14.345 4.44,14.079 4.44,14.017 4.475,13.989 4.475,13.96 4.505,13.93 4.566,13.873 4.6,13.786 4.6,13.726 4.542,13.664 
	4.513,13.633 4.483,13.633 4.483,13.603 4.485,13.572 4.487,13.484 4.55,13.427 4.55,13.369 4.552,13.337 4.497,13.187 
	4.437,13.154 4.408,13.096 4.38,13.063 4.352,13.034 4.354,12.974 4.383,12.916 4.477,12.829 4.598,12.742 4.806,12.72 4.866,12.72 
	4.955,12.694 5.104,12.667 5.286,12.644 5.315,12.614 5.373,12.615 5.404,12.586 5.437,12.528 5.561,12.441 5.77,12.299 5.799,12.3 
	5.854,12.449 5.915,12.482 6.005,12.425 6.156,12.31 6.367,12.227 6.429,12.198 6.546,12.202 6.606,12.202 6.726,12.207 
	6.784,12.208 7.052,12.243 7.081,12.245 7.141,12.279 7.168,12.336 7.168,12.366 7.167,12.397 7.135,12.425 7.134,12.484 
	7.134,12.514 7.163,12.546 7.191,12.546 7.22,12.577 7.249,12.577 7.342,12.551 7.522,12.437 7.611,12.438 7.669,12.44 
	7.725,12.561 7.756,12.622 7.785,12.622 7.994,12.509 8.118,12.363 8.18,12.365 8.236,12.366 8.562,12.435 8.625,12.437 
	8.708,12.615 8.735,12.649 8.968,12.924 9.025,12.953 9.054,12.984 9.283,13.286 9.308,13.408 9.279,13.437 9.19,13.493 
	9.187,13.553 9.187,13.612 9.567,13.801 9.651,13.953 9.682,14.043 9.739,14.074 9.857,14.165 9.856,14.194 9.971,14.23 10,14.26 
	10.031,14.262 10.062,14.262 10.268,14.267 10.51,14.184 10.688,14.101 10.808,14.103 10.836,14.136 10.927,14.167 10.956,14.167 
	10.985,14.108 11.079,13.992 11.108,13.935 11.143,13.875 11.117,13.786 11.148,13.695 11.243,13.52 11.398,13.226 11.429,13.198 
	11.371,13.137 11.313,13.104 11.313,13.075 11.315,13.017 11.347,12.958 11.467,12.901 11.558,12.902 11.587,12.874 11.714,12.581 
	11.901,12.26 11.994,12.113 12.058,11.993 12.236,11.939 12.238,11.879 12.258,11.227 12.26,11.166 12.265,10.928 12.271,10.63 
	12.312,10.275 12.315,10.158 12.37,9.266 12.39,8.552 12.391,8.49 12.399,8.225 12.402,8.135 12.41,7.776 12.484,6.142 
	12.486,6.083 12.498,5.697 12.498,5.666 12.507,5.311 12.581,3.735 12.581,3.706 12.583,3.616 12.587,3.467 12.627,3.14 
	12.699,1.594 12.715,1 13.636,1.055 14.17,1.07 16.488,1.193 17.379,1.218 17.586,1.252 17.914,1.261 18.748,1.283 19.132,1.295 
	19.282,1.326 19.728,1.341 20.799,1.369 21.155,1.379 22.82,1.453 23.265,1.468 23.947,1.515 24.037,1.517 24.513,1.529 
	24.633,1.533 24.93,1.541 25.226,1.549 25.644,1.56 25.999,1.571 27.128,1.63 28.378,1.664 28.913,1.68 29.061,1.683 29.092,1.686 
	29.122,1.686 29.181,1.688 29.241,1.689 29.747,1.702 29.984,1.707 30.401,1.719 30.935,1.736 30.995,1.736 31.113,1.74 
	32.51,1.777 33.79,1.812 34.652,1.837 36.465,1.887 38.102,1.931 38.487,1.941 38.904,1.952 38.961,1.954 39.648,1.973 41.371,2.02 
	41.402,2.02 41.462,2.021 41.491,2.023 41.521,2.023 41.548,2.026 41.579,2.026 41.611,2.026 41.908,2.036 41.996,2.037 
	42.442,2.048 42.62,2.054 42.651,2.054 42.858,2.061 43.096,2.067 43.126,2.067 43.215,2.071 43.303,2.072 44.314,2.1 44.344,2.102 
	44.405,2.104 44.851,2.086 45.148,2.093 45.208,2.096 48.571,2.129 49.104,2.143 49.938,2.136 49.997,2.138 50.176,2.143 
	50.236,2.145 50.591,2.155 50.77,2.159 50.979,2.164 51.186,2.141 51.308,2.145 51.368,2.145 51.396,2.176 51.632,2.241 
	51.662,2.243 51.989,2.251 52.167,2.257 52.374,2.263 52.584,2.238 52.971,2.249 53.149,2.254 53.358,2.259 53.743,2.27 
	54.814,2.27 54.963,2.274 55.143,2.278 55.528,2.259 55.706,2.264 55.917,2.27 56.065,2.274 56.094,2.275 56.122,2.275 
	56.511,2.287 56.72,2.292 57.463,2.282 57.938,2.294 58.088,2.299 59.1,2.295 59.157,2.299 59.904,2.289 60.02,2.292 60.827,2.314 
	60.943,2.317 61.004,2.318 62.222,2.294 62.491,2.3 63.444,2.295 63.474,2.299 63.503,2.299 63.682,2.304 63.742,2.307 
	63.919,2.311 64.129,2.287 64.691,2.304 64.753,2.304 64.931,2.308 65.079,2.311 65.645,2.299 67.132,2.308 67.123,2.694 
	67.119,2.843 67.126,3.676 67.119,3.973 67.117,4.035 67.115,4.092 67.141,4.214 67.129,4.718 67.14,5.345 67.136,5.403 
	67.145,6.328 67.133,6.625 67.14,7.519 67.136,8.708 67.129,9.065 67.148,9.423 67.129,10.108 67.141,10.703 67.132,11.058 
	67.148,11.566 67.136,12.041 67.157,12.339 67.157,13.381 67.148,13.767 67.141,13.947 67.165,14.274 67.151,15.821 67.14,16.208 
	67.152,16.864 67.148,17.071 67.14,17.31 67.169,17.371 67.166,17.4 67.165,17.49 67.145,18.145 67.145,18.171 67.145,18.262 
	67.169,18.472 67.157,18.887 67.148,19.155 67.166,19.573 67.158,19.812 67.155,19.989 67.145,20.435 67.141,20.464 67.166,20.732 
	67.157,21.06 67.157,21.09 67.155,21.149 67.151,21.271 67.148,21.329 67.145,21.537 67.169,21.717 67.165,21.833 67.162,21.923 
	67.158,22.013 67.157,22.132 67.155,22.163 67.145,22.517 67.17,22.729 67.166,22.906 67.16,23.115 67.155,23.293 67.151,23.473 
	67.145,23.65 67.145,23.68 67.169,23.889 67.165,24.007 67.157,24.275 67.157,24.335 67.152,24.424 67.151,24.485 67.151,24.513 
	67.174,24.811 67.172,24.841 67.17,24.93 67.169,24.991 67.165,25.109 67.16,25.256 67.155,25.466 67.179,25.646 67.174,25.854 
	67.17,26.031 67.165,26.241 67.158,26.449 67.157,26.507 67.181,26.627 67.177,26.835 67.17,27.045 67.169,27.163 67.174,29.157 
	67.181,29.96 67.191,30.706 67.177,31.181 67.174,31.33 67.191,31.747 67.188,31.924 67.181,32.135 67.176,32.341 67.17,32.522 
	67.188,35.11 67.169,35.883 67.183,36.481 67.184,40.704 67.169,42.372 67.183,42.968 67.195,43.591 67.195,44.662 67.188,45.975 
	67.188,46.003 67.176,46.513 67.181,47.341 67.179,47.406 67.191,48.058 67.188,48.178 67.174,48.714 67.17,48.892 67.191,50.234 
	67.191,50.29 67.188,50.38 67.184,50.439 67.183,50.559 67.172,50.975 67.188,51.453 67.188,51.483 67.184,51.542 67.184,51.57 
	67.183,51.603 67.172,53.145 67.184,53.714 67.191,54.668 67.179,55.081 67.174,55.292 67.166,55.587 67.165,55.619 67.188,57.912 
	67.195,58.866 67.176,59.548 67.172,59.697 67.174,60.708 67.174,60.739 67.172,60.797 67.17,60.853 67.188,61.333 67.165,64.309 
	67.179,68.119 67.158,68.891 67.157,68.953 67.151,69.13 67.165,69.727 67.16,69.906 67.155,71.182 67.169,71.841 67.165,71.992 
	67.157,72.229 67.145,72.672 67.14,72.85 67.14,75.023 67.148,76.872 67.148,76.9 67.141,77.137 67.145,79.162 64.467,79.117 
	64.229,79.113 63.961,79.131 61.969,79.11 61.849,79.107 61.762,79.106 61.583,79.099 61.552,79.099 61.465,79.125 61.432,79.125 
	61.374,79.124 61.312,79.121 61.196,79.117 61.168,79.117 61.134,79.117 61.106,79.117 60.986,79.113 60.541,79.103 58.487,79.103 
	58.07,79.093 57.626,79.079 57.06,79.093 56.583,79.08 56.078,79.066 56.049,79.066 54.501,79.055 54.441,79.055 53.698,79.031 
	50.724,79.01 48.85,78.99 47.689,78.958 47.245,78.945 47.035,78.94 46.828,78.965 46.589,78.958 46.202,78.947 45.727,78.934 
	45.46,78.927 45.13,78.947 45.101,78.947 44.861,78.94 44.713,78.934 44.448,78.927 43.583,78.907 42.998,78.681 40.23,77.562 
	37.994,76.666 37.284,76.381 33.195,74.751 30.133,73.54 28.779,72.995 28.721,72.96 28.661,72.96 28.512,72.898 28.486,72.865 
	28.366,72.836 26.924,72.257 26.011,71.874 23.274,70.788 23.039,70.692 20.095,69.542 19.067,69.096 17.741,68.553 15.917,67.789 
	13.004,66.578 12.653,66.45 9.682,65.211 7.355,64.222 4.531,63.045 3.824,62.757 3.002,62.411 2.089,62.023 1.676,61.864 
	1.354,61.735 1,61.58 1.002,61.546 1.032,61.522 1.003,61.459 1.003,61.432 1.036,61.401 1.065,61.401 1.095,61.401 1.097,61.374 
	1.125,61.343 1.126,61.315 1.126,61.285 1.07,61.222 1.043,61.19 1.072,61.133 1.104,61.078 1.165,61.016 1.167,60.99 1.138,60.958 
	1.139,60.897 1.139,60.87 1.169,60.87 1.261,60.839 1.261,60.811 1.29,60.811 1.29,60.784 1.292,60.752 1.292,60.722 1.293,60.694 
	1.264,60.661 1.236,60.633 1.174,60.66 1.117,60.657 1.088,60.628 1.088,60.598 1.118,60.571 1.178,60.51 1.211,60.481 
	1.211,60.454 1.181,60.422 1.181,60.393 1.183,60.363 1.214,60.336 1.244,60.276 1.247,60.246 1.218,60.187 1.218,60.156 
	1.158,60.156 1.158,60.125 1.132,60.033 1.138,59.914 1.167,59.855 1.257,59.83 1.287,59.833 1.317,59.861 1.345,59.861 
	1.467,59.834 1.468,59.774 1.468,59.747 1.497,59.717 1.559,59.688 1.648,59.631 1.681,59.602 1.681,59.573 1.683,59.542 
	1.683,59.514 1.743,59.425 1.806,59.398 1.895,59.311 1.897,59.284 1.897,59.253 1.928,59.219 1.931,59.132 2.116,58.87 
	2.116,58.841 2.119,58.783 2.212,58.667 2.242,58.608 2.275,58.577 2.304,58.486 2.307,58.46 2.431,58.314 2.46,58.253 
	2.489,58.255 2.605,58.377 2.666,58.38 2.725,58.38 2.755,58.381 2.844,58.414 2.873,58.416 2.961,58.447 3.08,58.453 3.11,58.453 
	3.141,58.481 3.169,58.481 3.256,58.484 3.346,58.518 3.404,58.546 3.435,58.519 3.467,58.46 3.822,58.47 3.826,58.35 4.035,58.386 
	4.037,58.269 4.187,58.271 4.333,58.276 4.338,58.186 4.485,58.19 4.459,58.073 4.433,57.953 4.433,57.924 4.434,57.863 
	4.437,57.743 4.471,57.713 4.471,57.655 4.561,57.596 4.591,57.571 4.591,57.54 4.654,57.483 4.654,57.452 4.715,57.395 
	4.806,57.366 4.866,57.338 4.897,57.31 4.956,57.283 5.048,57.194 5.107,57.136 5.201,57.049 5.271,56.635 5.273,56.576 
	5.274,56.548 5.312,56.279 5.314,56.25 5.315,56.191 5.317,56.132 5.199,56.007 5.171,55.976 5.144,55.915 5.116,55.828 5.147,55.8 
	5.147,55.739 5.208,55.683 5.242,55.622 5.243,55.563 5.243,55.533 5.243,55.504 5.245,55.472 5.245,55.443 5.247,55.414 
	5.219,55.355 5.188,55.326 5.157,55.324 5.069,55.351 5.041,55.351 5.011,55.319 5.011,55.287 4.983,55.201 4.986,55.048 
	4.962,54.871 4.933,54.81 4.936,54.779 4.905,54.75 4.907,54.722 4.907,54.693 4.879,54.693 4.851,54.6 4.793,54.569 "/>
<path d="M197.964,39.706l-0.845,0.843l2.77,2.767l-2.77,2.768l0.845,0.845l3.609-3.612L197.964,39.706z M197.964,39.706"/>
<path d="M85.121,39.706l-0.842,0.843l2.769,2.767l-2.769,2.768l0.842,0.845l3.612-3.612L85.121,39.706z M85.121,39.706"/>
</svg>
