<?xml version="1.0" encoding="utf-8"?>
<!-- Generator: Adobe Illustrator 15.0.0, SVG Export Plug-In  -->
<!DOCTYPE svg PUBLIC "-//W3C//DTD SVG 1.1//EN" "http://www.w3.org/Graphics/SVG/1.1/DTD/svg11.dtd" [
	<!ENTITY ns_flows "http://ns.adobe.com/Flows/1.0/">
]>
<svg version="1.1"
	 xmlns="http://www.w3.org/2000/svg" xmlns:xlink="http://www.w3.org/1999/xlink" xmlns:a="http://ns.adobe.com/AdobeSVGViewerExtensions/3.0/"
	 x="0px" y="0px" width="300px" height="80px" viewBox="-1.975 -0.395 300 80"
	 overflow="visible" enable-background="new -1.975 -0.395 300 80" xml:space="preserve">
<defs>
</defs>
<polygon fill="none" stroke="#010101" stroke-width="0.5" stroke-linecap="round" stroke-linejoin="round" stroke-miterlimit="3.85" points="
	101.781,58.51 101.807,58.427 101.971,58.019 101.971,57.992 102.023,57.878 102.299,56.866 102.353,56.623 102.353,56.568 
	102.353,56.482 102.353,56.455 102.353,56.292 102.353,56.236 102.353,56.208 102.407,56.155 102.435,56.125 102.462,56.076 
	102.518,55.909 102.735,55.278 102.735,55.25 102.764,55.222 102.819,54.978 102.819,54.896 102.848,54.705 102.874,54.594 
	103.01,54.044 102.954,53.774 102.9,53.636 102.848,53.582 102.819,53.554 102.819,53.527 102.848,53.472 102.928,53.365 
	102.928,53.335 102.983,53.253 103.01,53.253 103.066,53.17 103.12,53.116 103.148,53.088 103.339,53.036 103.366,53.036 
	103.449,52.954 103.476,52.923 103.559,52.813 103.776,52.402 104.106,51.746 104.214,51.474 104.489,50.816 104.653,50.324 
	104.735,50.05 104.763,49.967 104.926,49.282 105.007,48.955 105.091,48.626 105.119,48.489 105.119,48.435 105.119,48.381 
	105.199,48.157 105.254,47.943 105.392,47.342 105.556,46.571 105.585,46.491 105.666,46.025 105.692,45.863 105.721,45.723 
	105.721,45.698 105.747,45.532 105.747,45.476 105.831,45.04 105.938,44.353 105.994,44.052 106.048,43.533 106.048,43.508 
	106.048,43.478 106.075,43.259 106.104,43.232 106.159,42.822 106.213,42.465 106.213,42.439 106.239,42.304 106.239,42.273 
	106.239,42.057 106.213,41.999 106.213,41.972 106.239,41.834 106.268,41.752 106.351,41.341 106.376,40.959 106.376,40.853 
	106.433,40.44 106.485,40.002 106.485,39.92 106.433,39.892 106.433,39.867 106.433,39.837 106.433,39.701 106.433,39.675 
	106.485,39.511 106.514,39.456 106.514,39.374 106.514,39.291 106.568,39.154 106.623,39.071 106.735,38.523 106.735,38.495 
	106.843,37.867 106.87,37.812 106.925,37.785 106.98,37.758 107.009,37.702 106.98,37.647 106.951,37.619 106.897,37.647 
	106.87,37.51 106.897,37.209 106.897,36.991 106.87,36.852 106.897,36.661 106.951,36.332 106.98,36.224 107.061,35.649 
	107.09,35.404 107.09,35.347 107.116,35.128 107.116,35.073 106.98,35.128 106.98,35.1 106.951,35.073 107.145,34.937 
	107.171,34.937 107.171,34.8 107.198,34.691 107.198,34.637 107.253,34.416 107.253,34.28 107.253,34.252 107.226,34.252 
	107.226,34.227 107.145,34.061 107.198,33.897 107.226,33.785 107.226,33.731 107.281,33.293 107.226,32.938 107.198,32.883 
	107.198,32.857 107.145,32.799 107.145,32.719 107.145,32.693 107.171,32.637 107.171,32.611 107.171,32.554 107.171,32.416 
	107.198,32.307 107.226,32.2 107.253,32.035 107.281,31.953 107.308,31.924 107.308,31.897 107.363,31.87 107.417,31.87 
	107.417,31.84 107.473,31.708 107.499,31.569 107.663,30.968 107.746,30.611 107.746,30.583 107.746,30.475 107.773,30.392 
	107.773,30.281 107.857,29.926 107.883,29.898 107.883,29.815 107.912,29.762 107.938,29.543 107.938,29.517 107.963,29.353 
	108.02,29.051 108.047,28.942 108.047,28.914 108.047,28.885 107.992,28.914 107.912,28.859 107.938,28.694 107.938,28.641 
	107.938,28.613 107.992,28.475 108.047,28.366 108.212,28.256 108.212,28.23 108.238,28.146 108.375,27.543 108.401,27.517 
	108.43,27.327 108.484,26.805 108.514,26.724 108.458,26.505 108.514,26.23 108.514,26.094 108.566,25.821 108.596,25.602 
	108.596,25.463 108.622,25.082 108.566,24.891 108.54,24.78 108.484,24.751 108.401,24.751 108.184,24.78 108.184,24.726 
	108.35,24.67 108.375,24.67 108.458,24.644 108.484,24.644 108.484,24.615 108.54,24.531 108.54,24.505 108.596,24.34 
	108.65,24.095 108.676,23.712 108.705,23.656 108.705,23.466 108.705,23.383 108.705,23.192 108.676,23.165 108.622,22.917 
	108.622,22.865 108.596,22.617 108.65,22.561 108.705,22.561 108.786,22.315 108.84,22.096 108.897,21.713 108.923,21.659 
	108.923,21.548 108.897,21.521 108.84,21.438 108.897,21.247 108.923,21.056 108.951,20.892 109.032,20.399 109.06,20.234 
	109.086,20.18 109.086,19.522 109.086,19.493 109.086,19.467 109.086,19.359 109.086,19.276 109.06,19.247 109.06,19.141 
	108.977,19.03 108.868,18.866 108.84,18.811 108.76,18.758 108.705,18.729 108.705,18.621 108.84,18.428 108.951,17.662 
	108.951,17.388 108.951,17.36 108.951,17.195 108.951,17.031 108.951,16.921 108.951,16.755 108.951,16.649 108.923,16.595 
	108.84,16.32 108.705,16.183 108.705,16.102 108.951,15.772 109.032,15.717 109.06,15.717 109.086,15.688 109.223,15.688 
	109.251,15.688 109.278,15.662 109.278,15.636 109.333,15.5 109.362,15.333 109.362,15.307 109.389,15.225 109.389,15.196 
	109.389,15.115 109.389,15.061 109.389,14.95 109.389,14.896 109.389,14.76 109.389,14.678 109.389,14.322 109.307,13.937 
	109.278,13.829 109.278,13.72 109.251,13.691 109.223,13.554 109.197,13.391 109.168,13.308 109.143,13.253 109.115,13.198 
	109.032,12.925 109.006,12.869 109.006,12.842 108.923,12.624 108.84,12.405 108.76,12.241 108.705,12.129 108.566,12.051 
	108.705,11.939 108.786,11.939 108.84,11.967 108.923,12.129 108.897,12.212 108.923,12.323 108.977,12.35 109.168,12.377 
	109.278,12.432 109.307,12.432 109.525,12.624 109.525,12.651 109.663,12.79 109.718,12.951 109.853,13.006 110.182,13.116 
	110.182,13.144 110.209,13.144 110.32,13.09 110.346,12.98 110.346,12.951 110.32,12.951 110.237,12.869 110.155,12.79 
	110.129,12.79 110.1,12.705 110.129,12.679 110.292,12.651 110.401,12.651 110.539,12.679 110.566,12.679 110.839,12.596 
	110.894,12.569 111.059,12.514 111.168,12.458 111.251,12.485 111.415,12.569 111.634,12.596 111.689,12.596 111.935,12.458 
	112.015,12.432 112.044,12.377 112.098,12.35 112.207,12.35 112.401,12.405 112.454,12.377 112.508,12.241 112.537,12.129 
	112.563,12.104 112.646,12.077 112.729,12.077 112.782,12.129 112.81,12.158 112.921,12.241 113.304,11.967 113.304,11.803 
	113.412,11.803 113.522,11.747 113.631,11.721 113.769,11.666 113.986,11.691 114.041,11.721 114.097,11.747 114.124,11.803 
	114.287,11.967 114.426,12.186 114.481,12.267 114.481,12.35 114.426,12.951 115,13.472 115.081,13.472 115.381,13.5 
	115.686,13.527 115.902,13.527 116.178,13.391 116.397,13.253 116.588,13.17 117.051,12.951 117.518,13.006 117.545,13.006 
	117.655,13.116 118.174,13.472 118.257,13.583 118.34,13.608 118.45,13.691 118.478,13.691 118.585,13.746 118.614,13.773 
	118.64,13.773 118.942,14.103 119.024,14.211 119.245,14.322 119.271,14.35 119.353,14.375 119.599,14.512 119.763,14.842 
	119.789,14.869 119.817,15.061 119.843,15.28 120.037,15.5 120.037,15.526 120.228,16.019 120.255,16.074 120.447,16.291 
	120.447,16.402 120.502,16.703 120.447,16.978 120.447,17.001 120.476,17.058 120.476,17.086 120.502,17.142 120.556,17.333 
	120.584,17.388 120.614,17.442 120.614,17.468 120.694,17.634 120.694,17.688 120.694,17.77 120.694,17.879 120.666,17.962 
	120.556,18.236 120.556,18.457 120.802,18.866 120.802,18.895 120.83,18.895 120.886,19.195 120.886,19.551 120.857,19.632 
	120.748,20.043 120.748,20.125 120.721,20.316 120.83,20.646 120.83,20.671 121.077,20.836 121.132,20.866 121.158,20.866 
	121.323,20.946 121.542,21.138 121.708,21.221 122.006,21.358 122.364,21.387 122.392,21.387 122.418,21.413 122.582,21.438 
	122.637,21.466 122.964,21.576 122.994,21.576 123.21,21.687 123.375,21.739 123.486,21.767 123.513,21.767 123.542,21.794 
	123.649,21.823 123.676,21.852 123.704,21.852 123.733,21.876 123.869,22.013 123.896,22.013 124.034,22.068 124.252,22.042 
	124.334,22.013 124.417,21.959 124.471,21.959 124.526,21.933 124.608,21.905 124.634,21.905 124.718,21.933 124.909,22.013 
	125.101,22.315 125.484,22.398 125.758,22.398 125.814,22.398 125.95,22.341 126.414,22.124 126.607,21.933 127.044,21.852 
	127.155,21.852 127.181,21.876 127.319,21.876 127.428,21.852 128.002,21.493 128.221,21.413 128.412,21.413 128.63,21.33 
	128.658,21.303 128.824,21.195 128.905,21.027 128.934,21 129.097,21.027 129.234,20.946 129.372,20.892 129.427,20.836 
	129.455,20.783 129.455,20.646 129.699,20.425 129.727,20.425 129.808,20.345 129.891,20.316 130.083,20.234 130.357,20.153 
	130.629,20.234 131.122,20.345 131.396,20.345 131.726,20.234 131.779,20.207 132.081,20.207 132.164,20.207 132.847,20.018 
	133.121,19.907 133.148,19.907 133.258,19.934 133.368,19.959 133.477,19.988 133.533,20.043 133.588,20.069 133.643,20.125 
	133.831,20.29 134.051,20.345 134.244,20.399 134.461,20.399 134.736,20.264 134.82,20.264 134.957,20.264 135.093,20.234 
	135.338,20.316 135.532,20.452 135.583,20.509 135.968,20.62 136.323,20.728 136.406,20.946 136.46,21.056 136.488,21.273 
	136.516,21.33 136.488,21.466 136.488,21.521 136.624,21.659 136.762,21.659 136.789,21.659 137.008,21.659 137.062,21.604 
	137.062,21.576 137.145,21.63 137.228,21.548 137.254,21.521 137.283,21.493 137.254,21.438 137.611,21.083 137.83,21 
	138.131,21.027 138.406,21 138.458,21.027 138.624,21.083 138.678,21.056 138.952,20.974 139.035,20.974 139.307,21.195 
	139.335,21.195 139.499,21.166 139.772,20.892 139.911,20.754 140.101,20.699 140.594,20.536 141.224,20.264 141.581,20.125 
	141.771,19.934 141.936,19.823 142.128,19.714 142.564,19.688 142.866,19.797 142.95,19.881 143.25,20.207 143.414,20.345 
	143.468,20.373 143.66,20.425 144.425,20.373 145.191,20.207 145.579,20.069 145.658,20.043 146.372,19.988 146.751,19.467 
	147.053,19.304 147.765,19.141 148.452,18.758 148.478,18.729 148.807,18.564 149.383,18.511 149.68,18.4 149.763,18.4 
	150.421,18.208 150.723,18.236 151.162,18.181 151.736,18.07 152.173,17.415 152.201,17.388 152.417,17.169 152.72,17.086 
	153.078,17.251 153.186,17.333 153.542,17.36 153.925,17.195 154.119,17.169 154.666,17.114 154.776,17.114 154.853,17.086 
	155.158,16.978 155.185,16.95 155.293,16.921 155.838,16.84 156.17,16.921 156.47,17.001 156.717,17.001 156.993,16.95 
	157.158,16.921 157.483,16.755 157.786,16.538 158.143,16.375 158.305,16.237 158.526,15.936 158.603,15.936 158.962,15.908 
	159.399,15.908 159.866,15.908 160.139,15.882 160.167,15.882 160.494,15.882 161.59,15.854 161.782,15.854 161.973,15.854 
	162,15.854 162.301,15.854 162.466,15.828 162.58,15.828 162.602,15.828 162.656,15.828 162.823,15.828 162.932,15.828 
	162.986,15.828 163.013,15.828 163.395,15.828 163.641,15.802 164.109,15.802 164.328,15.802 164.493,15.802 164.572,15.802 
	164.68,15.802 164.902,15.772 164.958,15.772 165.205,15.772 165.502,15.772 165.776,15.772 165.837,15.745 165.968,15.745 
	166.052,15.745 166.874,15.717 167.039,15.717 167.064,15.717 168.353,15.688 168.543,15.662 168.623,15.662 169.036,15.662 
	169.226,15.662 171.141,15.607 172.267,15.582 173.253,15.552 173.498,15.552 173.552,15.552 173.907,15.526 174.402,15.5 
	174.755,15.526 174.921,15.471 175.495,15.471 175.795,15.443 175.825,15.443 176.127,15.443 176.152,15.443 176.809,15.416 
	177.386,15.388 177.573,15.388 177.767,15.388 178.427,15.361 178.863,15.361 179.105,15.361 179.164,15.443 179.356,15.636 
	179.411,15.854 179.545,16.045 179.545,16.102 179.599,16.349 179.656,16.457 179.683,16.538 179.714,16.595 179.737,16.621 
	179.903,16.785 180.041,16.867 180.149,16.95 180.203,16.978 180.395,17.251 180.395,17.279 180.449,17.36 180.476,17.442 
	180.476,17.497 180.476,17.552 180.476,17.607 180.476,17.634 180.531,17.717 180.754,17.827 180.777,17.827 180.832,17.827 
	180.832,17.798 180.863,17.798 180.887,17.77 180.917,17.77 180.917,17.743 180.946,17.743 180.971,17.717 180.971,17.688 
	180.998,17.688 181.025,17.688 181.214,17.662 181.247,17.662 181.269,17.662 181.269,17.688 181.377,17.743 181.41,17.743 
	181.518,17.935 181.572,18.128 181.599,18.128 181.739,18.29 181.793,18.29 181.928,18.29 182.01,18.264 182.038,18.236 
	182.065,18.208 182.34,18.264 182.449,18.29 182.478,18.29 182.64,18.457 182.833,18.621 182.887,18.621 182.917,18.646 
	182.941,18.646 182.941,18.674 182.973,18.729 183.049,18.866 183.082,18.895 183.049,19.168 183.082,19.441 183.104,19.493 
	183.187,19.632 183.214,19.688 183.241,19.714 183.352,19.797 183.542,19.988 183.574,20.018 183.596,20.069 183.653,20.207 
	183.68,20.207 183.68,20.264 183.708,20.316 183.734,20.345 183.763,20.425 183.818,20.481 183.844,20.509 183.872,20.536 
	183.872,20.564 183.872,20.728 183.872,20.754 183.872,20.783 183.708,21.112 183.628,21.138 183.542,21.221 183.517,21.273 
	183.409,21.413 183.325,21.576 183.214,21.876 183.133,22.042 183.104,22.096 183.049,22.262 183.025,22.506 183.025,22.535 
	183.049,22.645 183.082,22.78 182.996,22.808 182.973,22.808 182.86,22.945 182.801,22.973 182.747,23.054 182.747,23.082 
	182.724,23.301 182.667,23.519 182.532,23.684 182.478,23.738 182.394,23.877 182.254,24.179 182.148,24.424 181.985,24.835 
	181.956,24.944 182.01,25.191 182.01,25.301 182.01,25.383 182.01,25.409 181.985,25.491 181.985,25.519 181.928,25.574 
	181.87,25.629 181.816,25.684 181.793,25.821 181.739,26.038 181.683,26.312 181.683,26.34 181.708,26.477 181.683,26.56 
	181.572,26.997 181.572,27.136 181.547,27.408 181.518,27.436 181.518,27.463 181.3,27.846 181.106,27.983 181.025,28.12 
	181.025,28.146 181.025,28.23 181.025,28.366 181.025,28.392 181.025,28.422 180.887,28.641 180.777,28.776 180.641,28.968 
	180.584,28.994 180.476,29.077 180.424,29.189 180.424,29.242 180.449,29.296 180.449,29.489 180.449,29.517 180.338,29.735 
	180.338,29.79 180.338,29.815 180.338,29.844 180.424,30.091 180.424,30.119 180.476,30.201 180.584,30.366 180.641,30.446 
	180.641,30.475 180.614,30.529 180.56,30.583 180.531,30.722 180.505,30.858 180.476,31.021 180.449,31.104 180.424,31.213 
	180.338,31.351 180.149,31.543 180.041,31.708 179.986,31.814 179.958,31.84 179.958,31.897 179.823,32.2 179.737,32.281 
	179.714,32.336 179.683,32.416 179.683,32.446 179.683,32.472 179.714,32.528 179.714,32.554 179.714,32.581 179.683,32.637 
	179.656,32.637 179.545,32.719 179.356,32.773 179.331,32.799 179.299,32.799 179.245,32.883 179.164,32.964 179.136,32.993 
	179.105,33.02 179.052,33.047 178.999,33.047 178.973,33.047 178.917,33.047 178.89,33.047 178.644,33.188 178.59,33.239 
	178.561,33.268 178.427,33.487 178.452,33.567 178.452,33.785 178.427,33.84 178.343,33.87 178.287,34.006 178.259,34.088 
	178.259,34.115 178.259,34.142 178.176,34.333 178.123,34.39 178.123,34.498 178.152,34.581 178.123,34.746 178.014,34.937 
	177.959,34.964 177.935,35.047 177.903,35.128 177.903,35.183 177.878,35.43 177.878,35.566 177.878,35.593 177.796,35.701 
	177.741,35.731 177.713,35.757 177.657,35.785 177.657,35.84 177.657,35.896 177.713,35.952 177.713,36.114 177.657,36.251 
	177.629,36.306 177.548,36.415 177.467,36.445 177.332,36.471 177.302,36.524 177.249,36.607 177.249,36.661 177.249,36.688 
	177.221,36.745 177.221,36.799 177.165,36.908 177.081,36.991 177.056,37.018 177.001,36.991 176.948,37.018 176.917,37.044 
	176.917,37.099 176.891,37.099 176.917,37.128 176.917,37.154 176.917,37.182 176.948,37.236 177.001,37.374 177.027,37.454 
	177.027,37.539 177.056,37.837 177.027,37.921 176.948,38.114 176.948,38.141 176.864,38.249 176.783,38.278 176.783,38.361 
	176.864,38.605 176.948,38.687 177.056,38.797 177.137,38.825 177.165,38.854 177.275,38.961 177.275,38.987 177.357,39.126 
	177.357,39.154 177.332,39.209 177.332,39.233 177.221,39.456 177.221,39.48 177.11,39.511 177.11,39.536 177.081,39.536 
	177.056,39.647 177.056,39.675 177.056,39.701 177.11,39.81 177.302,40.032 177.357,40.056 177.602,40.221 177.741,40.221 
	177.878,40.221 177.935,40.194 177.959,40.138 177.989,40.138 177.989,40.085 177.989,40.056 178.097,39.92 178.123,39.92 
	178.152,39.892 178.176,39.892 178.233,39.892 178.259,39.892 178.287,39.892 178.314,39.947 178.371,40.002 178.371,40.032 
	178.427,40.164 178.427,40.194 178.561,40.303 178.59,40.329 178.669,40.386 178.752,40.468 178.78,40.578 178.807,40.578 
	178.836,40.603 178.863,40.603 178.863,40.578 178.89,40.578 178.89,40.548 178.917,40.386 178.999,40.329 179.028,40.303 
	179.083,40.303 179.136,40.329 179.191,40.329 179.356,40.329 179.492,40.329 179.545,40.329 179.599,40.356 179.628,40.413 
	179.628,40.44 179.656,40.468 179.656,40.495 179.628,40.603 179.656,40.853 179.683,41.014 179.714,41.042 179.737,41.042 
	179.929,41.096 179.958,41.07 179.986,41.042 180.013,41.042 180.041,41.042 180.149,41.07 180.395,41.233 180.424,41.26 
	180.476,41.341 180.505,41.48 180.505,41.505 180.505,41.533 180.476,41.587 180.476,41.619 180.316,41.945 180.284,41.999 
	180.284,42.028 180.176,42.247 180.176,42.273 180.122,42.38 180.092,42.411 180.068,42.439 180.041,42.465 180.013,42.465 
	179.903,42.518 179.792,42.518 179.737,42.55 179.714,42.573 179.683,42.604 179.683,42.627 179.683,42.659 179.714,42.85 
	179.714,42.905 179.737,42.987 179.737,43.067 179.737,43.119 179.769,43.119 179.929,43.208 179.986,43.259 180.068,43.29 
	180.122,43.397 180.149,43.452 180.176,43.478 180.176,43.508 180.149,43.643 180.122,43.78 180.122,43.835 180.092,43.971 
	180.092,43.998 180.068,44.025 179.958,44.217 179.873,44.271 179.846,44.271 179.823,44.329 179.823,44.353 179.823,44.381 
	179.846,44.412 179.846,44.439 179.873,44.439 179.903,44.494 179.929,44.6 179.929,44.764 179.929,44.847 179.929,44.929 
	179.903,44.985 179.873,45.009 179.792,45.15 179.792,45.174 179.823,45.232 179.823,45.311 179.823,45.34 179.792,45.532 
	179.792,45.586 179.769,45.698 179.769,45.723 179.737,45.75 179.714,45.75 179.683,45.778 179.628,45.75 179.599,45.75 
	179.575,45.778 179.545,45.778 179.492,45.802 179.437,45.833 179.437,45.887 179.411,45.943 179.383,46.108 179.331,46.214 
	179.331,46.244 179.331,46.268 179.331,46.326 179.356,46.516 179.356,46.571 179.356,46.602 179.356,46.625 179.356,47.009 
	179.383,47.257 179.383,47.64 179.383,47.665 179.411,47.912 179.411,48.025 179.411,48.215 179.437,48.349 179.437,48.406 
	179.437,48.461 179.437,48.626 179.466,49.09 179.466,49.201 179.466,49.254 179.466,49.309 179.466,49.392 179.466,49.529 
	179.466,49.556 179.466,49.612 179.492,49.637 179.492,49.861 179.492,49.913 179.492,50.05 179.545,51.284 179.575,51.833 
	179.628,52.843 179.656,53.936 179.683,54.099 179.683,54.488 179.792,56.893 179.823,57.741 179.958,60.865 180.068,63.408 
	180.068,63.465 180.122,64.478 180.23,66.966 180.261,67.268 180.261,67.738 180.284,67.927 180.37,70.007 180.37,70.035 
	180.37,70.473 180.395,70.693 180.449,72.359 180.316,72.389 180.23,72.389 180.149,72.389 180.013,72.389 179.873,72.389 
	178.973,72.418 178.644,72.445 178.536,72.445 178.427,72.445 176.453,72.551 176.017,72.551 175.359,72.583 175.113,72.605 
	174.456,72.636 174.207,72.636 174.184,72.636 174.098,72.636 174.074,72.636 174.015,72.636 173.747,72.664 171.555,72.718 
	171.444,72.746 171.306,72.746 168.79,72.829 167.997,72.852 166.406,72.911 165.666,72.938 164.766,72.965 163.696,73.021 
	162.683,73.076 161.838,73.076 161.615,73.076 159.428,73.103 157.237,73.155 156.993,73.129 156.771,73.155 156.003,73.155 
	155.624,73.155 154.72,73.155 151.708,73.184 151.026,73.155 150.394,73.184 150.147,73.184 150.122,73.184 148.942,73.211 
	148.807,73.236 148.781,73.211 147.11,73.236 146.864,73.236 146.751,73.236 145.741,73.267 145.332,73.267 143.468,73.267 
	143.414,73.267 143.386,73.267 143.303,73.267 142.183,73.267 141.911,73.267 141.416,73.267 140.157,73.236 140.074,73.236 
	139.417,73.236 137.775,73.236 137.145,73.211 136.789,73.184 135.503,73.184 135.503,73.155 135.474,73.155 134.846,73.155 
	134.763,73.155 134.574,73.155 134.516,73.184 134.297,73.155 134.135,73.155 133.588,73.155 133.504,73.155 133.449,73.155 
	133.368,73.155 132.601,73.129 131.973,73.103 131.779,73.103 131.752,73.103 130.958,73.076 130.796,73.076 130.629,73.046 
	130.604,73.046 129.372,73.021 129.317,73.021 129.125,72.993 127.481,72.965 126.414,72.911 125.838,72.883 125.786,72.883 
	125.484,72.883 124.718,72.852 124.417,72.852 123.568,72.8 123.458,72.8 123.349,72.8 123.268,72.8 122.938,72.8 122.171,72.776 
	120.94,72.8 120.748,72.8 119.9,72.776 118.97,72.746 118.231,72.746 118.174,72.746 117.984,72.746 117.463,72.718 117.245,72.718 
	116.369,72.691 116.152,72.664 115.958,72.636 115.3,72.583 115.191,72.583 114.809,72.605 114.398,72.605 113.139,72.636 
	113.11,72.636 112.782,72.636 112.207,72.583 111.522,72.551 111.495,72.551 111.332,72.551 111.251,72.551 111.194,72.551 
	111.113,72.551 110.977,72.551 110.209,72.529 110.129,72.529 109.853,72.583 109.086,72.529 108.43,72.5 108.184,72.5 
	108.101,72.5 107.963,72.5 106.541,72.418 106.185,72.418 105.994,72.389 105.282,72.359 105.254,72.359 105.146,72.359 
	105.119,72.359 104.844,72.337 103.941,72.283 103.913,72.172 103.667,71.925 103.612,71.844 103.394,71.624 103.366,71.566 
	103.257,71.566 103.229,71.566 103.174,71.566 103.148,71.544 103.092,71.513 103.037,71.487 102.9,71.242 102.9,71.211 
	102.874,71.184 102.627,70.858 102.49,70.556 102.49,70.501 102.546,70.337 102.546,70.256 102.518,70.172 102.462,70.118 
	102.407,70.007 102.407,69.927 102.435,69.927 102.49,69.873 102.49,69.596 102.407,69.488 102.353,69.458 102.353,69.434 
	102.327,69.379 102.353,69.187 102.327,69.132 102.327,69.047 102.271,68.942 102.188,68.831 101.999,68.586 101.999,68.531 
	102.023,68.449 102.081,68.201 102.081,68.173 102.052,67.762 101.971,67.625 101.86,67.405 101.888,67.38 101.915,67.134 
	101.942,66.775 101.942,66.752 101.942,66.506 101.942,66.475 101.942,66.259 101.942,66.146 101.888,65.927 101.888,65.874 
	102.023,65.573 102.023,65.327 102.052,65.134 102.188,64.834 102.327,64.451 102.435,64.093 102.435,63.958 102.407,63.82 
	102.353,63.627 102.381,63.355 102.353,63.216 102.271,62.78 102.217,62.724 102.081,62.642 101.971,62.562 101.888,62.507 
	101.86,62.478 101.915,62.37 101.915,62.343 101.915,62.289 101.807,62.042 101.668,61.682 101.642,61.63 101.505,61.55 
	101.479,61.55 101.424,61.55 101.424,61.578 101.314,61.63 101.285,61.63 101.258,61.63 101.258,61.603 101.258,61.55 
	101.232,61.358 101.232,61.331 101.175,60.836 101.122,60.618 101.067,60.481 100.983,60.343 100.928,60.096 100.983,59.989 
	101.04,59.878 101.122,59.769 101.531,59.031 101.725,58.589 101.75,58.565 "/>
<polyline fill="none" stroke="#010101" stroke-width="0.5" stroke-linecap="round" stroke-linejoin="round" stroke-miterlimit="3.85" points="
	101.781,58.51 101.807,58.427 101.971,58.019 101.971,57.992 102.023,57.878 102.299,56.866 102.353,56.623 102.353,56.568 
	102.353,56.482 102.353,56.455 102.353,56.292 102.353,56.236 102.353,56.208 102.407,56.155 102.435,56.125 102.462,56.076 
	102.518,55.909 102.735,55.278 102.735,55.25 102.764,55.222 102.819,54.978 102.819,54.896 102.848,54.705 102.874,54.594 
	103.01,54.044 102.954,53.774 102.9,53.636 102.848,53.582 102.819,53.554 102.819,53.527 102.848,53.472 102.928,53.365 
	102.928,53.335 102.983,53.253 103.01,53.253 103.066,53.17 103.12,53.116 103.148,53.088 103.339,53.036 103.366,53.036 
	103.449,52.954 103.476,52.923 103.559,52.813 103.776,52.402 104.106,51.746 104.214,51.474 104.489,50.816 104.653,50.324 
	104.735,50.05 104.763,49.967 104.926,49.282 105.007,48.955 105.091,48.626 105.119,48.489 105.119,48.435 105.119,48.381 
	105.199,48.157 105.254,47.943 105.392,47.342 105.556,46.571 105.585,46.491 105.666,46.025 105.692,45.863 105.721,45.723 
	105.721,45.698 105.747,45.532 105.747,45.476 105.831,45.04 105.938,44.353 105.994,44.052 106.048,43.533 106.048,43.508 
	106.048,43.478 106.075,43.259 106.104,43.232 106.159,42.822 106.213,42.465 106.213,42.439 106.239,42.304 106.239,42.273 
	106.239,42.057 106.213,41.999 106.213,41.972 106.239,41.834 106.268,41.752 106.351,41.341 106.376,40.959 106.376,40.853 
	106.433,40.44 106.485,40.002 106.485,39.92 106.433,39.892 106.433,39.867 106.433,39.837 106.433,39.701 106.433,39.675 
	106.485,39.511 106.514,39.456 106.514,39.374 106.514,39.291 106.568,39.154 106.623,39.071 106.735,38.523 106.735,38.495 
	106.843,37.867 106.87,37.812 106.925,37.785 106.98,37.758 107.009,37.702 106.98,37.647 106.951,37.619 106.897,37.647 
	106.87,37.51 106.897,37.209 106.897,36.991 106.87,36.852 106.897,36.661 106.951,36.332 106.98,36.224 107.061,35.649 
	107.09,35.404 107.09,35.347 107.116,35.128 107.116,35.073 106.98,35.128 106.98,35.1 106.951,35.073 107.145,34.937 
	107.171,34.937 107.171,34.8 107.198,34.691 107.198,34.637 107.253,34.416 107.253,34.28 107.253,34.252 107.226,34.252 
	107.226,34.227 107.145,34.061 107.198,33.897 107.226,33.785 107.226,33.731 107.281,33.293 107.226,32.938 107.198,32.883 
	107.198,32.857 107.145,32.799 107.145,32.719 107.145,32.693 107.171,32.637 107.171,32.611 107.171,32.554 107.171,32.416 
	107.198,32.307 107.226,32.2 107.253,32.035 107.281,31.953 107.308,31.924 107.308,31.897 107.363,31.87 107.417,31.87 
	107.417,31.84 107.473,31.708 107.499,31.569 107.663,30.968 107.746,30.611 107.746,30.583 107.746,30.475 107.773,30.392 
	107.773,30.281 107.857,29.926 107.883,29.898 107.883,29.815 107.912,29.762 107.938,29.543 107.938,29.517 107.963,29.353 
	108.02,29.051 108.047,28.942 108.047,28.914 108.047,28.885 107.992,28.914 107.912,28.859 107.938,28.694 107.938,28.641 
	107.938,28.613 107.992,28.475 108.047,28.366 108.212,28.256 108.212,28.23 108.238,28.146 108.375,27.543 108.401,27.517 
	108.43,27.327 108.484,26.805 108.514,26.724 108.458,26.505 108.514,26.23 108.514,26.094 108.566,25.821 108.596,25.602 
	108.596,25.463 108.622,25.082 108.566,24.891 108.54,24.78 108.484,24.751 108.401,24.751 108.184,24.78 108.184,24.726 
	108.35,24.67 108.375,24.67 108.458,24.644 108.484,24.644 108.484,24.615 108.54,24.531 108.54,24.505 108.596,24.34 
	108.65,24.095 108.676,23.712 108.705,23.656 108.705,23.466 108.705,23.383 108.705,23.192 108.676,23.165 108.622,22.917 
	108.622,22.865 108.596,22.617 108.65,22.561 108.705,22.561 108.786,22.315 108.84,22.096 108.897,21.713 108.923,21.659 
	108.923,21.548 108.897,21.521 108.84,21.438 108.897,21.247 108.923,21.056 108.951,20.892 109.032,20.399 109.06,20.234 
	109.086,20.18 109.086,19.522 109.086,19.493 109.086,19.467 109.086,19.359 109.086,19.276 109.06,19.247 109.06,19.141 
	108.977,19.03 108.868,18.866 108.84,18.811 108.76,18.758 108.705,18.729 108.705,18.621 108.84,18.428 108.951,17.662 
	108.951,17.388 108.951,17.36 108.951,17.195 108.951,17.031 108.951,16.921 108.951,16.755 108.951,16.649 108.923,16.595 
	108.84,16.32 108.705,16.183 108.705,16.102 108.951,15.772 109.032,15.717 109.06,15.717 109.086,15.688 109.223,15.688 
	109.251,15.688 109.278,15.662 109.278,15.636 109.333,15.5 109.362,15.333 109.362,15.307 109.389,15.225 109.389,15.196 
	109.389,15.115 109.389,15.061 109.389,14.95 109.389,14.896 109.389,14.76 109.389,14.678 109.389,14.322 109.307,13.937 
	109.278,13.829 109.278,13.72 109.251,13.691 109.223,13.554 109.197,13.391 109.168,13.308 109.143,13.253 109.115,13.198 
	109.032,12.925 109.006,12.869 109.006,12.842 108.923,12.624 108.84,12.405 108.76,12.241 108.705,12.129 108.566,12.051 
	108.705,11.939 108.786,11.939 108.84,11.967 108.923,12.129 108.897,12.212 108.923,12.323 108.977,12.35 109.168,12.377 
	109.278,12.432 109.307,12.432 109.525,12.624 109.525,12.651 109.663,12.79 109.718,12.951 109.853,13.006 110.182,13.116 
	110.182,13.144 110.209,13.144 110.32,13.09 110.346,12.98 110.346,12.951 110.32,12.951 110.237,12.869 110.155,12.79 
	110.129,12.79 110.1,12.705 110.129,12.679 110.292,12.651 110.401,12.651 110.539,12.679 110.566,12.679 110.839,12.596 
	110.894,12.569 111.059,12.514 111.168,12.458 111.251,12.485 111.415,12.569 111.634,12.596 111.689,12.596 111.935,12.458 
	112.015,12.432 112.044,12.377 112.098,12.35 112.207,12.35 112.401,12.405 112.454,12.377 112.508,12.241 112.537,12.129 
	112.563,12.104 112.646,12.077 112.729,12.077 112.782,12.129 112.81,12.158 112.921,12.241 113.304,11.967 113.304,11.803 
	113.412,11.803 113.522,11.747 113.631,11.721 113.769,11.666 113.986,11.691 114.041,11.721 114.097,11.747 114.124,11.803 
	114.287,11.967 114.426,12.186 114.481,12.267 114.481,12.35 114.426,12.951 115,13.472 115.081,13.472 115.381,13.5 
	115.686,13.527 115.902,13.527 116.178,13.391 116.397,13.253 116.588,13.17 117.051,12.951 117.518,13.006 117.545,13.006 
	117.655,13.116 118.174,13.472 118.257,13.583 118.34,13.608 118.45,13.691 118.478,13.691 118.585,13.746 118.614,13.773 
	118.64,13.773 118.942,14.103 119.024,14.211 119.245,14.322 119.271,14.35 119.353,14.375 119.599,14.512 119.763,14.842 
	119.789,14.869 119.817,15.061 119.843,15.28 120.037,15.5 120.037,15.526 120.228,16.019 120.255,16.074 120.447,16.291 
	120.447,16.402 120.502,16.703 120.447,16.978 120.447,17.001 120.476,17.058 120.476,17.086 120.502,17.142 120.556,17.333 
	120.584,17.388 120.614,17.442 120.614,17.468 120.694,17.634 120.694,17.688 120.694,17.77 120.694,17.879 120.666,17.962 
	120.556,18.236 120.556,18.457 120.802,18.866 120.802,18.895 120.83,18.895 120.886,19.195 120.886,19.551 120.857,19.632 
	120.748,20.043 120.748,20.125 120.721,20.316 120.83,20.646 120.83,20.671 121.077,20.836 121.132,20.866 121.158,20.866 
	121.323,20.946 121.542,21.138 121.708,21.221 122.006,21.358 122.364,21.387 122.392,21.387 122.418,21.413 122.582,21.438 
	122.637,21.466 122.964,21.576 122.994,21.576 123.21,21.687 123.375,21.739 123.486,21.767 123.513,21.767 123.542,21.794 
	123.649,21.823 123.676,21.852 123.704,21.852 123.733,21.876 123.869,22.013 123.896,22.013 124.034,22.068 124.252,22.042 
	124.334,22.013 124.417,21.959 124.471,21.959 124.526,21.933 124.608,21.905 124.634,21.905 124.718,21.933 124.909,22.013 
	125.101,22.315 125.484,22.398 125.758,22.398 125.814,22.398 125.95,22.341 126.414,22.124 126.607,21.933 127.044,21.852 
	127.155,21.852 127.181,21.876 127.319,21.876 127.428,21.852 128.002,21.493 128.221,21.413 128.412,21.413 128.63,21.33 
	128.658,21.303 128.824,21.195 128.905,21.027 128.934,21 129.097,21.027 129.234,20.946 129.372,20.892 129.427,20.836 
	129.455,20.783 129.455,20.646 129.699,20.425 129.727,20.425 129.808,20.345 129.891,20.316 130.083,20.234 130.357,20.153 
	130.629,20.234 131.122,20.345 131.396,20.345 131.726,20.234 131.779,20.207 132.081,20.207 132.164,20.207 132.847,20.018 
	133.121,19.907 133.148,19.907 133.258,19.934 133.368,19.959 133.477,19.988 133.533,20.043 133.588,20.069 133.643,20.125 
	133.831,20.29 134.051,20.345 134.244,20.399 134.461,20.399 134.736,20.264 134.82,20.264 134.957,20.264 135.093,20.234 
	135.338,20.316 135.532,20.452 135.583,20.509 135.968,20.62 136.323,20.728 136.406,20.946 136.46,21.056 136.488,21.273 
	136.516,21.33 136.488,21.466 136.488,21.521 136.624,21.659 136.762,21.659 136.789,21.659 137.008,21.659 137.062,21.604 
	137.062,21.576 137.145,21.63 137.228,21.548 137.254,21.521 137.283,21.493 137.254,21.438 137.611,21.083 137.83,21 
	138.131,21.027 138.406,21 138.458,21.027 138.624,21.083 138.678,21.056 138.952,20.974 139.035,20.974 139.307,21.195 
	139.335,21.195 139.499,21.166 139.772,20.892 139.911,20.754 140.101,20.699 140.594,20.536 141.224,20.264 141.581,20.125 
	141.771,19.934 141.936,19.823 142.128,19.714 142.564,19.688 142.866,19.797 142.95,19.881 143.25,20.207 143.414,20.345 
	143.468,20.373 143.66,20.425 144.425,20.373 145.191,20.207 145.579,20.069 145.658,20.043 146.372,19.988 146.751,19.467 
	147.053,19.304 147.765,19.141 148.452,18.758 148.478,18.729 148.807,18.564 149.383,18.511 149.68,18.4 149.763,18.4 
	150.421,18.208 150.723,18.236 151.162,18.181 151.736,18.07 152.173,17.415 152.201,17.388 152.417,17.169 152.72,17.086 
	153.078,17.251 153.186,17.333 153.542,17.36 153.925,17.195 154.119,17.169 154.666,17.114 154.776,17.114 154.853,17.086 
	155.158,16.978 155.185,16.95 155.293,16.921 155.838,16.84 156.17,16.921 156.47,17.001 156.717,17.001 156.993,16.95 
	157.158,16.921 157.483,16.755 157.786,16.538 158.143,16.375 158.305,16.237 158.526,15.936 158.603,15.936 158.962,15.908 
	159.399,15.908 159.866,15.908 160.139,15.882 160.167,15.882 160.494,15.882 161.59,15.854 161.782,15.854 161.973,15.854 
	162,15.854 162.301,15.854 162.466,15.828 162.58,15.828 162.602,15.828 162.656,15.828 162.823,15.828 162.932,15.828 
	162.986,15.828 163.013,15.828 163.395,15.828 163.641,15.802 164.109,15.802 164.328,15.802 164.493,15.802 164.572,15.802 
	164.68,15.802 164.902,15.772 164.958,15.772 165.205,15.772 165.502,15.772 165.776,15.772 165.837,15.745 165.968,15.745 
	166.052,15.745 166.874,15.717 167.039,15.717 167.064,15.717 168.353,15.688 168.543,15.662 168.623,15.662 169.036,15.662 
	169.226,15.662 171.141,15.607 172.267,15.582 173.253,15.552 173.498,15.552 173.552,15.552 173.907,15.526 174.402,15.5 
	174.755,15.526 174.921,15.471 175.495,15.471 175.795,15.443 175.825,15.443 176.127,15.443 176.152,15.443 176.809,15.416 
	177.386,15.388 177.573,15.388 177.767,15.388 178.427,15.361 178.863,15.361 179.105,15.361 179.164,15.443 179.356,15.636 
	179.411,15.854 179.545,16.045 179.545,16.102 179.599,16.349 179.656,16.457 179.683,16.538 179.714,16.595 179.737,16.621 
	179.903,16.785 180.041,16.867 180.149,16.95 180.203,16.978 180.395,17.251 180.395,17.279 180.449,17.36 180.476,17.442 
	180.476,17.497 180.476,17.552 180.476,17.607 180.476,17.634 180.531,17.717 180.754,17.827 180.777,17.827 180.832,17.827 
	180.832,17.798 180.863,17.798 180.887,17.77 180.917,17.77 180.917,17.743 180.946,17.743 180.971,17.717 180.971,17.688 
	180.998,17.688 181.025,17.688 181.214,17.662 181.247,17.662 181.269,17.662 181.269,17.688 181.377,17.743 181.41,17.743 
	181.518,17.935 181.572,18.128 181.599,18.128 181.739,18.29 181.793,18.29 181.928,18.29 182.01,18.264 182.038,18.236 
	182.065,18.208 182.34,18.264 182.449,18.29 182.478,18.29 182.64,18.457 182.833,18.621 182.887,18.621 182.917,18.646 
	182.941,18.646 182.941,18.674 182.973,18.729 183.049,18.866 183.082,18.895 183.049,19.168 183.082,19.441 183.104,19.493 
	183.187,19.632 183.214,19.688 183.241,19.714 183.352,19.797 183.542,19.988 183.574,20.018 183.596,20.069 183.653,20.207 
	183.68,20.207 183.68,20.264 183.708,20.316 183.734,20.345 183.763,20.425 183.818,20.481 183.844,20.509 183.872,20.536 
	183.872,20.564 183.872,20.728 183.872,20.754 183.872,20.783 183.708,21.112 183.628,21.138 183.542,21.221 183.517,21.273 
	183.409,21.413 183.325,21.576 183.214,21.876 183.133,22.042 183.104,22.096 183.049,22.262 183.025,22.506 183.025,22.535 
	183.049,22.645 183.082,22.78 182.996,22.808 182.973,22.808 182.86,22.945 182.801,22.973 182.747,23.054 182.747,23.082 
	182.724,23.301 182.667,23.519 182.532,23.684 182.478,23.738 182.394,23.877 182.254,24.179 182.148,24.424 181.985,24.835 
	181.956,24.944 182.01,25.191 182.01,25.301 182.01,25.383 182.01,25.409 181.985,25.491 181.985,25.519 181.928,25.574 
	181.87,25.629 181.816,25.684 181.793,25.821 181.739,26.038 181.683,26.312 181.683,26.34 181.708,26.477 181.683,26.56 
	181.572,26.997 181.572,27.136 181.547,27.408 181.518,27.436 181.518,27.463 181.3,27.846 181.106,27.983 181.025,28.12 
	181.025,28.146 181.025,28.23 181.025,28.366 181.025,28.392 181.025,28.422 180.887,28.641 180.777,28.776 180.641,28.968 
	180.584,28.994 180.476,29.077 180.424,29.189 180.424,29.242 180.449,29.296 180.449,29.489 180.449,29.517 180.338,29.735 
	180.338,29.79 180.338,29.815 180.338,29.844 180.424,30.091 180.424,30.119 180.476,30.201 180.584,30.366 180.641,30.446 
	180.641,30.475 180.614,30.529 180.56,30.583 180.531,30.722 180.505,30.858 180.476,31.021 180.449,31.104 180.424,31.213 
	180.338,31.351 180.149,31.543 180.041,31.708 179.986,31.814 179.958,31.84 179.958,31.897 179.823,32.2 179.737,32.281 
	179.714,32.336 179.683,32.416 179.683,32.446 179.683,32.472 179.714,32.528 179.714,32.554 179.714,32.581 179.683,32.637 
	179.656,32.637 179.545,32.719 179.356,32.773 179.331,32.799 179.299,32.799 179.245,32.883 179.164,32.964 179.136,32.993 
	179.105,33.02 179.052,33.047 178.999,33.047 178.973,33.047 178.917,33.047 178.89,33.047 178.644,33.188 178.59,33.239 
	178.561,33.268 178.427,33.487 178.452,33.567 178.452,33.785 178.427,33.84 178.343,33.87 178.287,34.006 178.259,34.088 
	178.259,34.115 178.259,34.142 178.176,34.333 178.123,34.39 178.123,34.498 178.152,34.581 178.123,34.746 178.014,34.937 
	177.959,34.964 177.935,35.047 177.903,35.128 177.903,35.183 177.878,35.43 177.878,35.566 177.878,35.593 177.796,35.701 
	177.741,35.731 177.713,35.757 177.657,35.785 177.657,35.84 177.657,35.896 177.713,35.952 177.713,36.114 177.657,36.251 
	177.629,36.306 177.548,36.415 177.467,36.445 177.332,36.471 177.302,36.524 177.249,36.607 177.249,36.661 177.249,36.688 
	177.221,36.745 177.221,36.799 177.165,36.908 177.081,36.991 177.056,37.018 177.001,36.991 176.948,37.018 176.917,37.044 
	176.917,37.099 176.891,37.099 176.917,37.128 176.917,37.154 176.917,37.182 176.948,37.236 177.001,37.374 177.027,37.454 
	177.027,37.539 177.056,37.837 177.027,37.921 176.948,38.114 176.948,38.141 176.864,38.249 176.783,38.278 176.783,38.361 
	176.864,38.605 176.948,38.687 177.056,38.797 177.137,38.825 177.165,38.854 177.275,38.961 177.275,38.987 177.357,39.126 
	177.357,39.154 177.332,39.209 177.332,39.233 177.221,39.456 177.221,39.48 177.11,39.511 177.11,39.536 177.081,39.536 
	177.056,39.647 177.056,39.675 177.056,39.701 177.11,39.81 177.302,40.032 177.357,40.056 177.602,40.221 177.741,40.221 
	177.878,40.221 177.935,40.194 177.959,40.138 177.989,40.138 177.989,40.085 177.989,40.056 178.097,39.92 178.123,39.92 
	178.152,39.892 178.176,39.892 178.233,39.892 178.259,39.892 178.287,39.892 178.314,39.947 178.371,40.002 178.371,40.032 
	178.427,40.164 178.427,40.194 178.561,40.303 178.59,40.329 178.669,40.386 178.752,40.468 178.78,40.578 178.807,40.578 
	178.836,40.603 178.863,40.603 178.863,40.578 178.89,40.578 178.89,40.548 178.917,40.386 178.999,40.329 179.028,40.303 
	179.083,40.303 179.136,40.329 179.191,40.329 179.356,40.329 179.492,40.329 179.545,40.329 179.599,40.356 179.628,40.413 
	179.628,40.44 179.656,40.468 179.656,40.495 179.628,40.603 179.656,40.853 179.683,41.014 179.714,41.042 179.737,41.042 "/>
<polyline fill="none" stroke="#010101" stroke-width="0.5" stroke-linecap="round" stroke-linejoin="round" stroke-miterlimit="3.85" points="
	179.737,41.042 179.929,41.096 179.958,41.07 179.986,41.042 180.013,41.042 180.041,41.042 180.149,41.07 180.395,41.233 
	180.424,41.26 180.476,41.341 180.505,41.48 180.505,41.505 180.505,41.533 180.476,41.587 180.476,41.619 180.316,41.945 
	180.284,41.999 180.284,42.028 180.176,42.247 180.176,42.273 180.122,42.38 180.092,42.411 180.068,42.439 180.041,42.465 
	180.013,42.465 179.903,42.518 179.792,42.518 179.737,42.55 179.714,42.573 179.683,42.604 179.683,42.627 179.683,42.659 
	179.714,42.85 179.714,42.905 179.737,42.987 179.737,43.067 179.737,43.119 179.769,43.119 179.929,43.208 179.986,43.259 
	180.068,43.29 180.122,43.397 180.149,43.452 180.176,43.478 180.176,43.508 180.149,43.643 180.122,43.78 180.122,43.835 
	180.092,43.971 180.092,43.998 180.068,44.025 179.958,44.217 179.873,44.271 179.846,44.271 179.823,44.329 179.823,44.353 
	179.823,44.381 179.846,44.412 179.846,44.439 179.873,44.439 179.903,44.494 179.929,44.6 179.929,44.764 179.929,44.847 
	179.929,44.929 179.903,44.985 179.873,45.009 179.792,45.15 179.792,45.174 179.823,45.232 179.823,45.311 179.823,45.34 
	179.792,45.532 179.792,45.586 179.769,45.698 179.769,45.723 179.737,45.75 179.714,45.75 179.683,45.778 179.628,45.75 
	179.599,45.75 179.575,45.778 179.545,45.778 179.492,45.802 179.437,45.833 179.437,45.887 179.411,45.943 179.383,46.108 
	179.331,46.214 179.331,46.244 179.331,46.268 179.331,46.326 179.356,46.516 179.356,46.571 179.356,46.602 179.356,46.625 
	179.356,47.009 179.383,47.257 179.383,47.64 179.383,47.665 179.411,47.912 179.411,48.025 179.411,48.215 179.437,48.349 
	179.437,48.406 179.437,48.461 179.437,48.626 179.466,49.09 179.466,49.201 179.466,49.254 179.466,49.309 179.466,49.392 
	179.466,49.529 179.466,49.556 179.466,49.612 179.492,49.637 179.492,49.861 179.492,49.913 179.492,50.05 179.545,51.284 
	179.575,51.833 179.628,52.843 179.656,53.936 179.683,54.099 179.683,54.488 179.792,56.893 179.823,57.741 179.958,60.865 
	180.068,63.408 180.068,63.465 180.122,64.478 180.23,66.966 180.261,67.268 180.261,67.738 180.284,67.927 180.37,70.007 
	180.37,70.035 180.37,70.473 180.395,70.693 180.449,72.359 180.316,72.389 180.23,72.389 180.149,72.389 180.013,72.389 
	179.873,72.389 178.973,72.418 178.644,72.445 178.536,72.445 178.427,72.445 176.453,72.551 176.017,72.551 175.359,72.583 
	175.113,72.605 174.456,72.636 174.207,72.636 174.184,72.636 174.098,72.636 174.074,72.636 174.015,72.636 173.747,72.664 
	171.555,72.718 171.444,72.746 171.306,72.746 168.79,72.829 167.997,72.852 166.406,72.911 165.666,72.938 164.766,72.965 
	163.696,73.021 162.683,73.076 161.838,73.076 161.615,73.076 159.428,73.103 157.237,73.155 156.993,73.129 156.771,73.155 
	156.003,73.155 155.624,73.155 154.72,73.155 151.708,73.184 151.026,73.155 150.394,73.184 150.147,73.184 150.122,73.184 
	148.942,73.211 148.807,73.236 148.781,73.211 147.11,73.236 146.864,73.236 146.751,73.236 145.741,73.267 145.332,73.267 
	143.468,73.267 143.414,73.267 143.386,73.267 143.303,73.267 142.183,73.267 141.911,73.267 141.416,73.267 140.157,73.236 
	140.074,73.236 139.417,73.236 137.775,73.236 137.145,73.211 136.789,73.184 135.503,73.184 135.503,73.155 135.474,73.155 
	134.846,73.155 134.763,73.155 134.574,73.155 134.516,73.184 134.297,73.155 134.135,73.155 133.588,73.155 133.504,73.155 
	133.449,73.155 133.368,73.155 132.601,73.129 131.973,73.103 131.779,73.103 131.752,73.103 130.958,73.076 130.796,73.076 
	130.629,73.046 130.604,73.046 129.372,73.021 129.317,73.021 129.125,72.993 127.481,72.965 126.414,72.911 125.838,72.883 
	125.786,72.883 125.484,72.883 124.718,72.852 124.417,72.852 123.568,72.8 123.458,72.8 123.349,72.8 123.268,72.8 122.938,72.8 
	122.171,72.776 120.94,72.8 120.748,72.8 119.9,72.776 118.97,72.746 118.231,72.746 118.174,72.746 117.984,72.746 117.463,72.718 
	117.245,72.718 116.369,72.691 116.152,72.664 115.958,72.636 115.3,72.583 115.191,72.583 114.809,72.605 114.398,72.605 
	113.139,72.636 113.11,72.636 112.782,72.636 112.207,72.583 111.522,72.551 111.495,72.551 111.332,72.551 111.251,72.551 
	111.194,72.551 111.113,72.551 110.977,72.551 110.209,72.529 110.129,72.529 109.853,72.583 109.086,72.529 108.43,72.5 
	108.184,72.5 108.101,72.5 107.963,72.5 106.541,72.418 106.185,72.418 105.994,72.389 105.282,72.359 105.254,72.359 
	105.146,72.359 105.119,72.359 104.844,72.337 103.941,72.283 103.913,72.172 103.667,71.925 103.612,71.844 103.394,71.624 
	103.366,71.566 103.257,71.566 103.229,71.566 103.174,71.566 103.148,71.544 103.092,71.513 103.037,71.487 102.9,71.242 
	102.9,71.211 102.874,71.184 102.627,70.858 102.49,70.556 102.49,70.501 102.546,70.337 102.546,70.256 102.518,70.172 
	102.462,70.118 102.407,70.007 102.407,69.927 102.435,69.927 102.49,69.873 102.49,69.596 102.407,69.488 102.353,69.458 
	102.353,69.434 102.327,69.379 102.353,69.187 102.327,69.132 102.327,69.047 102.271,68.942 102.188,68.831 101.999,68.586 
	101.999,68.531 102.023,68.449 102.081,68.201 102.081,68.173 102.052,67.762 101.971,67.625 101.86,67.405 101.888,67.38 
	101.915,67.134 101.942,66.775 101.942,66.752 101.942,66.506 101.942,66.475 101.942,66.259 101.942,66.146 101.888,65.927 
	101.888,65.874 102.023,65.573 102.023,65.327 102.052,65.134 102.188,64.834 102.327,64.451 102.435,64.093 102.435,63.958 
	102.407,63.82 102.353,63.627 102.381,63.355 102.353,63.216 102.271,62.78 102.217,62.724 102.081,62.642 101.971,62.562 
	101.888,62.507 101.86,62.478 101.915,62.37 101.915,62.343 101.915,62.289 101.807,62.042 101.668,61.682 101.642,61.63 
	101.505,61.55 101.479,61.55 101.424,61.55 101.424,61.578 101.314,61.63 101.285,61.63 101.258,61.63 101.258,61.603 
	101.258,61.55 101.232,61.358 101.232,61.331 101.175,60.836 101.122,60.618 101.067,60.481 100.983,60.343 100.928,60.096 
	100.983,59.989 101.04,59.878 101.122,59.769 101.531,59.031 101.725,58.589 101.75,58.565 101.781,58.51 "/>
<polygon fill="none" stroke="#231F20" stroke-width="0.5" stroke-linecap="round" stroke-linejoin="round" stroke-miterlimit="3.85" points="
	214.206,48.959 214.259,47.515 214.345,45.771 214.4,44.66 214.4,44.604 214.483,43.526 214.51,43.081 214.539,42.525 
	214.565,41.697 214.593,41.418 214.593,41.364 214.648,40.115 214.648,40.004 214.648,39.867 214.813,36.375 214.844,34.988 
	214.87,34.462 214.982,32.105 215.009,30.858 215.09,28.974 215.201,26.283 215.255,24.647 215.255,24.538 215.255,24.508 
	215.287,23.929 215.427,20.685 215.452,19.963 215.452,19.881 215.482,19.297 215.537,18.134 215.565,17.636 215.59,16.749 
	215.646,15.14 215.73,13.202 215.73,12.593 217.561,12.675 218.639,12.701 220.362,12.785 221.522,12.814 221.8,12.814 
	224.017,12.896 224.157,12.896 224.542,12.922 225.318,12.922 226.346,12.951 226.814,12.951 228.173,12.977 228.228,12.977 
	230.726,13.063 231.443,13.063 231.777,13.063 232.027,13.09 232.611,13.09 234.298,13.118 234.851,13.118 234.992,13.118 
	235.019,13.118 235.685,13.146 236.765,13.172 237.069,13.172 238.344,13.172 239.924,13.229 240.395,13.229 244.388,13.285 
	244.523,13.285 244.554,13.285 244.633,13.285 245.054,13.312 245.109,13.312 245.827,13.339 246.993,13.368 247.244,13.368 
	247.271,13.368 248.71,13.394 251.98,13.422 252.339,13.422 252.423,13.422 253.281,13.422 254.307,13.422 255.862,13.394 
	257.359,13.394 257.578,13.394 257.605,13.394 258.494,13.394 261.04,13.368 261.1,13.368 262.012,13.368 262.291,13.368 
	262.93,13.339 263.981,13.312 264.451,13.312 264.839,13.312 265.948,13.285 266.284,13.285 267.196,13.285 267.361,13.285 
	269.081,13.255 269.109,13.255 269.443,13.255 270.076,13.229 270.299,13.229 270.495,13.229 270.712,13.229 270.853,13.229 
	271.023,13.229 271.188,13.202 271.241,13.202 271.326,13.202 271.741,13.202 271.771,13.202 271.964,13.202 272.489,13.202 
	272.602,13.202 272.792,13.202 273.015,13.172 274.043,13.146 274.208,13.146 276.147,13.118 276.564,13.118 276.978,13.118 
	277.118,13.09 277.811,13.09 278.089,13.063 278.254,13.063 278.447,13.063 278.473,13.063 279.085,13.063 281.608,12.977 
	281.634,12.977 281.803,12.977 281.828,12.977 281.996,12.977 282.051,12.977 282.441,12.951 282.465,12.951 282.659,12.951 
	282.689,12.951 282.883,12.951 282.908,12.951 283.077,12.951 283.101,12.951 283.296,12.922 283.491,12.922 283.52,12.922 
	283.716,12.922 283.739,12.922 283.935,12.922 283.962,12.922 284.127,12.922 284.159,12.922 284.349,12.896 284.378,12.896 
	284.961,12.896 285.047,12.896 285.18,12.869 285.349,12.869 285.375,12.869 286.292,12.842 286.649,12.842 287.125,12.814 
	287.148,12.814 287.259,12.814 287.373,12.814 287.788,12.785 288.119,12.785 288.317,12.785 288.424,12.785 289.226,12.759 
	289.312,12.759 289.477,12.729 290.284,12.701 290.417,12.701 290.503,12.701 290.532,12.701 290.643,12.701 290.946,12.701 
	291.172,12.675 291.194,12.675 291.391,12.675 292.112,12.647 292.719,12.62 292.916,12.62 293.081,16.306 293.108,17.055 
	293.163,18.716 293.19,19.383 293.19,19.632 293.25,20.795 293.25,21.435 293.273,21.49 293.273,21.959 293.273,22.101 
	293.304,22.126 293.304,22.264 293.361,23.762 293.361,23.873 293.383,24.843 293.383,25.039 293.438,26.256 293.469,27.143 
	293.499,27.503 293.55,29.388 293.578,29.471 293.578,29.61 293.578,29.833 293.633,30.941 293.661,31.912 293.692,32.243 
	293.692,32.355 293.692,32.63 293.715,33.13 293.747,33.381 293.747,33.491 293.747,33.905 293.747,33.934 293.771,34.379 
	293.826,35.569 293.826,35.653 293.826,35.874 293.856,36.011 293.856,36.316 293.912,37.342 293.966,38.536 293.997,39.755 
	294.023,39.81 294.023,39.84 294.049,41.056 294.215,44.439 294.215,44.66 294.215,44.884 294.247,45.078 294.247,45.3 
	294.271,46.131 294.271,46.268 294.271,46.295 294.271,46.463 294.3,46.463 294.3,46.549 294.326,47.323 294.326,47.82 
	294.354,48.153 294.354,48.376 294.384,48.65 294.384,48.93 294.409,49.677 294.44,50.177 294.44,50.232 294.44,50.675 
	294.495,51.726 294.519,52.368 294.519,52.45 294.519,52.646 294.574,53.726 294.604,54.223 294.604,54.336 294.604,54.417 
	294.604,54.447 294.604,54.471 294.604,54.529 294.604,54.639 294.632,55.554 294.632,55.583 294.632,55.61 294.632,55.662 
	294.66,55.833 294.714,57.33 294.714,57.357 294.714,57.524 294.744,58.19 294.769,58.827 294.797,59.13 294.797,59.351 
	294.83,59.769 294.852,60.075 294.852,60.295 294.883,60.933 294.883,61.127 294.883,61.29 294.909,61.464 294.909,61.986 
	294.94,62.403 294.94,62.707 294.94,62.958 294.962,63.038 294.962,63.455 294.995,63.983 295.016,64.482 295.016,64.506 
	295.016,64.87 295.048,65.144 295.048,65.37 295.048,65.7 295.078,66.311 295.078,66.475 295.105,67.058 295.16,68.748 
	295.187,68.97 295.187,68.998 295.187,69.193 295.187,69.276 295.243,70.303 295.243,70.329 295.243,70.358 295.243,70.466 
	295.243,70.912 295.105,70.912 293.607,70.965 293.304,70.995 292.805,70.995 292.692,70.995 292.582,70.995 292.166,71.02 
	291.583,71.02 289.615,71.105 287.593,71.16 287.096,71.132 286.875,71.105 286.649,71.132 286.317,71.132 286.238,71.105 
	285.928,71.132 284.325,71.187 284.239,71.187 284.213,71.215 284.044,71.187 283.077,71.215 282.853,71.215 282.744,71.215 
	282.246,71.246 281.746,71.246 281,71.27 280.246,71.3 279.11,71.328 278.223,71.355 275.506,71.411 272.321,71.494 269.888,71.548 
	269.465,71.578 268.94,71.578 268.803,71.578 268.44,71.603 268.275,71.603 268.248,71.603 268.137,71.603 267.75,71.603 
	267.584,71.603 267.389,71.603 266.836,71.603 266.806,71.603 266.532,71.603 266.336,71.603 265.117,71.632 264.867,71.632 
	264.174,71.632 263.872,71.632 262.595,71.657 260.737,71.657 260.377,71.688 259.328,71.632 259.129,71.632 258.907,71.657 
	258.161,71.657 257.8,71.657 255.832,71.657 255.615,71.632 255.553,71.632 255.5,71.632 255.303,71.632 255.227,71.632 
	254.781,71.657 254.75,71.657 254.641,71.657 254.503,71.657 253.394,71.657 252.976,71.632 252.369,71.632 252.339,71.632 
	249.101,71.632 248.987,71.632 247.907,71.632 247.158,71.632 246.712,71.632 246.159,71.632 245.634,71.632 245.273,71.632 
	245.079,71.632 245.054,71.632 244.245,71.632 243.5,71.603 243.224,71.603 241.864,71.603 241.723,71.603 241.34,71.603 
	241.172,71.603 240.285,71.603 239.924,71.603 238.898,71.578 238.815,71.465 238.344,71.465 237.902,71.438 237.569,71.438 
	236.958,71.438 236.128,71.411 235.078,71.411 234.409,71.38 232.47,71.355 232.219,71.355 231.777,71.328 231.278,71.328 
	231.25,71.328 230.363,71.3 230.338,71.3 229.061,71.27 228.284,71.246 227.397,71.246 227.285,71.215 227.232,71.215 
	226.735,71.215 225.904,71.187 225.706,71.187 225.318,71.187 225.153,71.16 223.628,71.132 223.544,71.132 222.796,71.105 
	222.353,71.105 221.965,71.079 221.303,71.049 220.362,71.02 219.47,70.995 218.472,70.965 218.168,70.965 216.977,70.912 
	214.593,70.828 214.539,70.828 213.986,70.8 213.511,70.8 213.541,70.494 213.541,70.442 213.568,69.721 213.568,69.691 
	213.568,69.524 213.568,69.386 213.597,69.193 213.597,69.138 213.622,68.196 213.622,67.837 213.622,67.807 213.652,67.724 
	213.652,67.282 213.652,67.144 213.708,66.118 213.708,66.032 213.738,65.532 213.738,65.311 213.817,63.953 213.817,63.842 
	213.817,63.73 213.817,63.706 213.845,63.51 213.873,63.065 213.903,61.986 213.903,61.793 213.903,61.709 213.93,61.095 
	213.958,60.433 213.958,60.404 213.986,60.017 213.986,59.961 213.986,59.878 213.986,59.824 214.01,59.575 214.01,59.159 
	214.041,58.633 214.041,58.548 214.068,58.078 214.068,57.967 214.095,57.578 214.095,56.605 214.122,56.275 214.122,56.248 
	214.178,54.639 214.206,54.336 214.206,54.006 214.235,53.836 214.122,52.673 214.068,52.23 214.151,50.232 "/>
<polygon fill="none" stroke="#010101" stroke-width="0.5" stroke-linecap="round" stroke-linejoin="round" stroke-miterlimit="3.85" points="
	4.045,53.788 3.984,53.756 3.955,53.756 3.927,53.726 3.838,53.722 3.779,53.689 3.75,53.689 3.63,53.685 3.422,53.654 
	3.364,53.651 3.333,53.65 3.304,53.678 3.271,53.736 3.241,53.767 3.212,53.767 3.062,53.763 2.887,53.726 2.796,53.695 
	2.768,53.665 2.712,53.575 2.652,53.482 2.623,53.453 2.566,53.42 2.537,53.451 2.473,53.571 2.441,53.626 2.414,53.624 
	2.381,53.624 2.352,53.624 2.295,53.564 2.268,53.502 2.239,53.441 2.272,53.292 2.129,53.112 2.1,53.023 2.102,52.992 2.104,52.93 
	2.074,52.899 2.046,52.899 1.984,52.896 1.928,52.865 1.898,52.806 1.902,52.716 1.933,52.632 1.964,52.513 2.061,52.278 
	2.152,52.189 2.184,52.133 2.216,52.072 2.249,51.953 2.281,51.894 2.281,51.862 2.282,51.777 2.285,51.715 2.348,51.601 
	2.35,51.571 2.35,51.509 2.325,51.361 2.326,51.299 2.358,51.211 2.392,51.094 2.392,51.063 2.395,51.005 2.335,50.946 
	2.307,50.884 2.223,50.733 2.252,50.706 2.405,50.617 2.434,50.561 2.379,50.412 2.354,50.351 2.293,50.319 2.206,50.284 
	2.088,50.222 2,50.219 1.94,50.188 1.882,50.16 1.882,50.126 1.8,49.947 1.8,49.919 1.801,49.885 1.89,49.799 2.044,49.716 
	2.074,49.66 2.104,49.628 2.168,49.481 2.203,49.275 2.206,49.212 2.206,49.156 2.121,49.004 2.123,48.943 2.124,48.884 
	2.126,48.856 2.097,48.826 2.069,48.792 1.952,48.64 1.924,48.582 1.926,48.55 1.956,48.526 1.985,48.526 2.105,48.53 2.195,48.533 
	2.255,48.5 2.255,48.471 2.255,48.44 2.285,48.442 2.376,48.415 2.524,48.419 2.702,48.485 2.762,48.485 2.791,48.485 2.878,48.456 
	2.97,48.372 3.033,48.315 3.065,48.228 3.131,48.049 3.133,47.958 3.133,47.932 3.257,47.723 3.316,47.699 3.38,47.608 
	3.409,47.549 3.441,47.522 3.441,47.462 3.536,47.346 3.566,47.318 3.656,47.26 3.716,47.26 3.778,47.233 3.869,47.147 
	3.898,47.119 3.901,47.03 3.902,46.966 3.904,46.94 4.116,46.797 4.328,46.683 4.328,46.653 4.3,46.622 4.216,46.44 4.159,46.292 
	4.161,46.23 4.162,46.142 4.255,45.995 4.29,45.969 4.319,45.936 4.349,45.912 4.349,45.88 4.351,45.85 4.351,45.819 4.322,45.788 
	4.322,45.73 4.325,45.67 4.326,45.64 4.357,45.58 4.359,45.523 4.329,45.464 4.332,45.432 4.332,45.404 4.332,45.34 4.332,45.315 
	4.366,45.284 4.368,45.253 4.397,45.253 4.397,45.225 4.397,45.194 4.368,45.194 4.37,45.167 4.37,45.135 4.342,45.105 
	4.342,45.075 4.314,45.015 4.344,44.988 4.346,44.958 4.375,44.929 4.404,44.866 4.467,44.84 4.556,44.814 4.589,44.814 
	4.647,44.787 4.738,44.732 4.771,44.581 4.774,44.494 4.746,44.432 4.716,44.398 4.688,44.371 4.66,44.309 4.662,44.283 
	4.603,44.247 4.574,44.217 4.603,44.217 4.636,44.131 4.667,44.073 4.697,44.014 4.698,43.924 4.701,43.867 4.675,43.774 
	4.564,43.503 4.54,43.328 4.454,43.112 4.483,43.112 4.516,43.086 4.546,43.029 4.578,43 4.548,42.967 4.521,42.85 4.523,42.819 
	4.467,42.667 4.467,42.638 4.499,42.582 4.5,42.55 4.528,42.552 4.619,42.555 4.647,42.555 4.711,42.494 4.739,42.469 4.771,42.439 
	4.801,42.411 4.773,42.319 4.774,42.291 4.688,42.226 4.66,42.167 4.628,42.167 4.63,42.136 4.63,42.108 4.632,42.076 4.632,42.048 
	4.663,42.019 4.694,42.019 4.723,41.992 4.754,41.962 4.754,41.931 4.754,41.902 4.754,41.873 4.727,41.843 4.671,41.751 
	4.641,41.749 4.612,41.718 4.581,41.687 4.582,41.663 4.553,41.66 4.495,41.628 4.467,41.597 4.469,41.505 4.47,41.48 4.564,41.33 
	4.625,41.242 4.625,41.214 4.716,41.186 4.744,41.217 4.773,41.217 4.894,41.161 4.957,41.076 5.079,40.987 5.08,40.959 
	5.111,40.931 5.111,40.898 5.171,40.871 5.231,40.812 5.262,40.756 5.292,40.756 5.321,40.726 5.354,40.729 5.354,40.698 
	5.354,40.667 5.357,40.639 5.326,40.607 5.329,40.581 5.329,40.548 5.358,40.52 5.389,40.52 5.416,40.523 5.48,40.495 5.508,40.495 
	5.567,40.435 5.601,40.408 5.631,40.379 5.662,40.289 5.664,40.171 5.666,40.112 5.642,39.992 5.643,39.932 5.643,39.899 
	5.679,39.694 5.709,39.606 5.714,39.516 5.714,39.487 5.806,39.43 5.806,39.371 5.898,39.284 5.93,39.225 5.99,39.198 6.052,39.171 
	6.11,39.171 6.227,39.205 6.349,39.147 6.47,39.123 6.498,39.123 6.561,39.035 6.623,38.949 6.652,38.92 6.712,38.89 6.861,38.924 
	6.981,38.899 7.039,38.87 7.135,38.782 7.256,38.637 7.258,38.608 7.285,38.608 7.285,38.577 7.379,38.491 7.438,38.464 
	7.558,38.437 7.647,38.471 7.798,38.413 7.918,38.357 7.951,38.296 8.099,38.271 8.1,38.242 8.128,38.242 8.161,38.156 
	8.133,38.068 8.163,38.036 8.166,38.009 8.254,37.983 8.316,37.95 8.348,37.894 8.562,37.69 8.714,37.577 8.715,37.545 
	8.744,37.545 8.744,37.487 8.773,37.487 8.804,37.459 8.835,37.459 8.836,37.43 8.867,37.43 8.867,37.4 8.896,37.371 8.898,37.341 
	8.926,37.342 8.958,37.342 8.986,37.342 9.075,37.316 9.107,37.316 9.165,37.319 9.195,37.321 9.196,37.291 9.229,37.232 
	9.199,37.201 9.2,37.142 9.2,37.082 9.204,37.051 9.178,36.933 9.18,36.844 9.182,36.754 9.183,36.724 9.154,36.694 8.977,36.542 
	8.924,36.36 8.868,36.24 8.842,36.15 8.784,36.088 8.754,36.058 8.694,36.028 8.639,35.995 8.55,35.904 8.4,35.9 8.254,35.836 
	8.225,35.807 8.169,35.686 8.054,35.563 8.026,35.532 7.968,35.502 7.852,35.347 7.822,35.318 7.675,35.314 7.584,35.281 
	7.585,35.251 7.558,35.223 7.558,35.193 7.531,35.102 7.531,35.043 7.476,34.983 7.443,34.98 7.328,34.888 7.297,34.888 
	7.27,34.857 7.27,34.828 7.241,34.828 7.182,34.825 7.182,34.796 7.124,34.704 7.124,34.676 7.095,34.674 7.095,34.644 
	7.067,34.644 7.067,34.614 7.038,34.611 7.009,34.611 6.947,34.611 6.858,34.637 6.769,34.664 6.649,34.663 6.621,34.63 6.592,34.6 
	6.504,34.506 6.504,34.479 6.506,34.449 6.57,34.332 6.571,34.273 6.571,34.242 6.575,34.093 6.578,34.003 6.611,33.945 
	6.612,33.886 6.642,33.829 6.646,33.709 6.621,33.559 6.621,33.532 6.539,33.348 6.368,32.988 6.195,32.803 6.141,32.652 
	6.143,32.595 6.109,32.595 6.143,32.565 6.173,32.535 6.202,32.536 6.204,32.416 6.147,32.355 6.03,32.264 6.034,32.145 
	6.035,32.114 6.037,32.025 6.038,31.967 6.011,31.907 5.952,31.844 5.925,31.814 5.926,31.754 5.926,31.724 5.928,31.666 
	5.928,31.636 5.93,31.608 5.902,31.576 5.902,31.543 5.902,31.517 5.875,31.484 5.816,31.363 5.789,31.305 5.763,31.155 
	5.765,31.066 5.766,31.035 5.766,31.007 5.737,31.005 5.737,30.975 5.709,30.975 5.679,30.974 5.623,30.941 5.591,30.914 
	5.535,30.822 5.477,30.79 5.389,30.727 5.33,30.697 5.242,30.636 5.214,30.573 5.187,30.544 5.156,30.512 5.13,30.452 5.012,30.359 
	4.924,30.299 4.868,30.208 4.811,30.117 4.783,30.057 4.754,29.997 4.754,29.964 4.698,29.846 4.698,29.815 4.675,29.666 
	4.644,29.666 4.646,29.544 4.59,29.426 4.592,29.395 4.536,29.276 4.479,29.186 4.421,29.124 4.391,29.092 4.363,29.091 
	4.363,29.063 4.245,29 4.217,28.968 4.186,28.968 4.157,28.907 4.128,28.907 4.129,28.878 4.073,28.817 4.045,28.754 4.047,28.727 
	4.047,28.697 4.021,28.548 4.021,28.519 4.054,28.43 4.085,28.341 4.116,28.283 4.119,28.223 4.093,28.132 4.093,28.074 
	4.094,28.042 4.094,28.013 4.097,27.983 4.097,27.953 4.128,27.834 4.129,27.775 4.131,27.686 4.107,27.566 4.107,27.509 
	4.107,27.478 4.11,27.418 4.173,27.272 4.176,27.213 4.176,27.121 4.179,27.094 4.152,26.975 4.154,26.915 4.154,26.882 
	4.155,26.795 4.159,26.675 4.192,26.558 4.255,26.41 4.349,26.324 4.378,26.295 4.499,26.237 4.53,26.151 4.531,26.121 
	4.531,26.089 4.536,26.031 4.504,26.031 4.505,26.002 4.476,25.97 4.449,25.911 4.419,25.908 4.391,25.878 4.332,25.817 
	4.216,25.756 4.183,25.753 4.128,25.692 4.1,25.692 4.071,25.632 4.101,25.574 4.133,25.544 4.161,25.515 4.223,25.459 
	4.252,25.427 4.282,25.43 4.284,25.399 4.314,25.401 4.344,25.401 4.373,25.372 4.404,25.372 4.466,25.375 4.553,25.376 
	4.612,25.409 4.73,25.353 4.821,25.325 4.852,25.294 4.916,25.177 4.984,24.852 4.985,24.766 4.987,24.735 4.991,24.555 
	4.992,24.527 4.994,24.438 4.968,24.347 4.941,24.256 4.883,24.194 4.861,23.927 4.893,23.81 4.843,23.482 4.766,23.002 
	4.771,22.792 4.804,22.645 4.727,22.256 4.675,22.017 4.593,21.716 4.509,21.477 4.25,21.202 4.252,21.171 4.252,21.144 
	4.167,20.99 4.167,20.961 4.138,20.901 4.142,20.841 4.116,20.692 4.116,20.663 4.061,20.452 4.004,20.361 4.008,20.242 
	4.009,20.214 4.009,20.184 4.045,20.035 4.075,19.978 4.136,19.918 4.196,19.89 4.258,19.804 4.291,19.774 4.291,19.743 
	4.261,19.685 4.234,19.592 4.242,19.357 4.217,19.177 4.217,19.146 4.28,19.03 4.344,18.914 4.378,18.735 4.321,18.614 4.15,18.311 
	4.006,18.159 4.009,18.04 4.011,17.979 4.043,17.922 4.104,17.804 4.136,17.714 4.136,17.686 4.107,17.657 3.994,17.562 
	3.905,17.471 3.879,17.382 3.879,17.322 3.978,17.026 4.011,16.878 4.018,16.729 3.961,16.551 3.997,16.283 3.885,16.042 
	3.916,15.982 3.978,15.926 4.039,15.809 4.073,15.718 4.075,15.69 4.049,15.541 4.05,15.481 4.08,15.421 4.082,15.393 4.144,15.364 
	4.265,15.278 4.295,15.221 4.296,15.189 4.296,15.129 4.298,15.071 4.271,14.981 4.183,14.891 4.069,14.767 3.983,14.616 
	4.018,14.498 4.021,14.408 3.933,14.317 3.786,14.193 3.759,14.162 3.79,14.104 3.822,14.017 3.796,13.927 3.766,13.836 
	3.68,13.745 3.656,13.595 3.69,13.329 3.69,13.267 3.725,13.239 3.725,13.21 3.755,13.18 3.816,13.123 3.85,13.036 3.85,12.976 
	3.792,12.914 3.763,12.883 3.733,12.883 3.733,12.853 3.735,12.822 3.737,12.734 3.8,12.677 3.8,12.619 3.802,12.587 3.747,12.437 
	3.687,12.404 3.658,12.346 3.63,12.313 3.602,12.284 3.604,12.224 3.633,12.166 3.727,12.079 3.848,11.992 4.056,11.97 4.116,11.97 
	4.205,11.944 4.354,11.917 4.536,11.894 4.565,11.864 4.623,11.865 4.654,11.836 4.687,11.778 4.811,11.691 5.02,11.549 
	5.049,11.55 5.104,11.699 5.165,11.732 5.255,11.675 5.406,11.56 5.617,11.477 5.679,11.448 5.796,11.452 5.856,11.452 
	5.976,11.457 6.034,11.458 6.302,11.493 6.331,11.495 6.391,11.529 6.418,11.586 6.418,11.616 6.417,11.647 6.385,11.675 
	6.384,11.734 6.384,11.764 6.413,11.796 6.441,11.796 6.47,11.827 6.499,11.827 6.592,11.801 6.772,11.687 6.861,11.688 
	6.919,11.69 6.975,11.811 7.006,11.872 7.035,11.872 7.244,11.759 7.368,11.613 7.43,11.615 7.486,11.616 7.812,11.685 
	7.875,11.687 7.958,11.865 7.985,11.899 8.218,12.174 8.275,12.203 8.304,12.234 8.533,12.536 8.558,12.658 8.529,12.687 
	8.44,12.743 8.437,12.803 8.437,12.862 8.817,13.051 8.901,13.203 8.932,13.293 8.989,13.324 9.107,13.415 9.106,13.444 
	9.221,13.48 9.25,13.51 9.281,13.512 9.312,13.512 9.518,13.517 9.76,13.434 9.938,13.351 10.058,13.353 10.086,13.386 
	10.177,13.417 10.206,13.417 10.235,13.358 10.329,13.242 10.358,13.185 10.393,13.125 10.367,13.036 10.398,12.945 10.493,12.77 
	10.648,12.476 10.679,12.448 10.621,12.387 10.563,12.354 10.563,12.325 10.565,12.267 10.597,12.208 10.717,12.151 10.808,12.152 
	10.837,12.124 10.964,11.831 11.151,11.51 11.244,11.363 11.308,11.243 11.486,11.189 11.488,11.129 11.508,10.477 11.51,10.416 
	11.515,10.178 11.521,9.88 11.562,9.525 11.565,9.408 11.62,8.516 11.64,7.802 11.641,7.74 11.649,7.475 11.652,7.385 11.66,7.026 
	11.734,5.392 11.736,5.333 11.748,4.947 11.748,4.916 11.757,4.561 11.831,2.985 11.831,2.956 11.833,2.866 11.837,2.717 
	11.877,2.39 11.949,0.844 11.965,0.25 12.886,0.305 13.42,0.32 15.738,0.443 16.629,0.468 16.836,0.502 17.164,0.511 17.998,0.533 
	18.382,0.545 18.532,0.576 18.978,0.591 20.049,0.619 20.405,0.629 22.07,0.703 22.515,0.718 23.197,0.765 23.287,0.767 
	23.763,0.779 23.883,0.783 24.18,0.791 24.476,0.799 24.894,0.81 25.249,0.821 26.378,0.88 27.628,0.914 28.163,0.93 28.311,0.933 
	28.342,0.936 28.372,0.936 28.431,0.938 28.491,0.939 28.997,0.952 29.234,0.957 29.651,0.969 30.185,0.986 30.245,0.986 
	30.363,0.99 31.76,1.027 33.04,1.062 33.902,1.087 35.715,1.137 37.352,1.181 37.737,1.191 38.154,1.202 38.211,1.204 38.898,1.223 
	40.621,1.27 40.652,1.27 40.712,1.271 40.741,1.273 40.771,1.273 40.798,1.276 40.829,1.276 40.861,1.276 41.158,1.286 
	41.246,1.287 41.692,1.298 41.87,1.304 41.901,1.304 42.108,1.311 42.346,1.317 42.376,1.317 42.465,1.321 42.553,1.322 
	43.564,1.35 43.594,1.352 43.655,1.354 44.101,1.336 44.398,1.343 44.458,1.346 47.821,1.379 48.354,1.393 49.188,1.386 
	49.247,1.388 49.426,1.393 49.486,1.395 49.841,1.405 50.02,1.409 50.229,1.414 50.436,1.391 50.558,1.395 50.618,1.395 
	50.646,1.426 50.882,1.491 50.912,1.493 51.239,1.501 51.417,1.507 51.624,1.513 51.834,1.488 52.221,1.499 52.399,1.504 
	52.608,1.509 52.993,1.52 54.064,1.52 54.213,1.524 54.393,1.528 54.778,1.509 54.956,1.514 55.167,1.52 55.315,1.524 55.344,1.525 
	55.372,1.525 55.761,1.537 55.97,1.542 56.713,1.532 57.188,1.544 57.338,1.549 58.35,1.545 58.407,1.549 59.154,1.539 59.27,1.542 
	60.077,1.564 60.193,1.567 60.254,1.568 61.472,1.544 61.741,1.55 62.694,1.545 62.724,1.549 62.753,1.549 62.932,1.554 
	62.992,1.557 63.169,1.561 63.379,1.537 63.941,1.554 64.003,1.554 64.181,1.558 64.329,1.561 64.895,1.549 66.382,1.558 
	66.373,1.944 66.369,2.093 66.376,2.926 66.369,3.223 66.367,3.285 66.365,3.342 66.391,3.464 66.379,3.968 66.39,4.595 
	66.386,4.653 66.395,5.578 66.383,5.875 66.39,6.769 66.386,7.958 66.379,8.315 66.398,8.673 66.379,9.358 66.391,9.953 
	66.382,10.308 66.398,10.816 66.386,11.291 66.407,11.589 66.407,12.631 66.398,13.017 66.391,13.197 66.415,13.524 66.401,15.071 
	66.39,15.458 66.402,16.114 66.398,16.321 66.39,16.56 66.419,16.621 66.416,16.65 66.415,16.74 66.395,17.395 66.395,17.421 
	66.395,17.512 66.419,17.722 66.407,18.137 66.398,18.405 66.416,18.823 66.408,19.062 66.405,19.239 66.395,19.685 66.391,19.714 
	66.416,19.982 66.407,20.31 66.407,20.34 66.405,20.399 66.401,20.521 66.398,20.579 66.395,20.787 66.419,20.967 66.415,21.083 
	66.412,21.173 66.408,21.263 66.407,21.382 66.405,21.413 66.395,21.767 66.42,21.979 66.416,22.156 66.41,22.365 66.405,22.543 
	66.401,22.723 66.395,22.9 66.395,22.93 66.419,23.139 66.415,23.257 66.407,23.525 66.407,23.585 66.402,23.674 66.401,23.735 
	66.401,23.763 66.424,24.061 66.422,24.091 66.42,24.18 66.419,24.241 66.415,24.359 66.41,24.506 66.405,24.716 66.429,24.896 
	66.424,25.104 66.42,25.281 66.415,25.491 66.408,25.699 66.407,25.757 66.431,25.877 66.427,26.085 66.42,26.295 66.419,26.413 
	66.424,28.407 66.431,29.21 66.441,29.956 66.427,30.431 66.424,30.58 66.441,30.997 66.438,31.174 66.431,31.385 66.426,31.591 
	66.42,31.772 66.438,34.36 66.419,35.133 66.433,35.731 66.434,39.954 66.419,41.622 66.433,42.218 66.445,42.841 66.445,43.912 
	66.438,45.225 66.438,45.253 66.426,45.763 66.431,46.591 66.429,46.656 66.441,47.308 66.438,47.428 66.424,47.964 66.42,48.142 
	66.441,49.484 66.441,49.54 66.438,49.63 66.434,49.689 66.433,49.809 66.422,50.225 66.438,50.703 66.438,50.733 66.434,50.792 
	66.434,50.82 66.433,50.853 66.422,52.395 66.434,52.964 66.441,53.918 66.429,54.331 66.424,54.542 66.416,54.837 66.415,54.869 
	66.438,57.162 66.445,58.116 66.426,58.798 66.422,58.947 66.424,59.958 66.424,59.989 66.422,60.047 66.42,60.103 66.438,60.583 
	66.415,63.559 66.429,67.369 66.408,68.141 66.407,68.203 66.401,68.38 66.415,68.977 66.41,69.156 66.405,70.432 66.419,71.091 
	66.415,71.242 66.407,71.479 66.395,71.922 66.39,72.1 66.39,74.273 66.398,76.122 66.398,76.15 66.391,76.387 66.395,78.412 
	63.717,78.367 63.479,78.363 63.211,78.381 61.219,78.36 61.099,78.357 61.012,78.356 60.833,78.349 60.802,78.349 60.715,78.375 
	60.682,78.375 60.624,78.374 60.562,78.371 60.446,78.367 60.418,78.367 60.384,78.367 60.356,78.367 60.236,78.363 59.791,78.353 
	57.737,78.353 57.32,78.343 56.876,78.329 56.31,78.343 55.833,78.33 55.328,78.316 55.299,78.316 53.751,78.305 53.691,78.305 
	52.948,78.281 49.974,78.26 48.1,78.24 46.939,78.208 46.495,78.195 46.285,78.19 46.078,78.215 45.839,78.208 45.452,78.197 
	44.977,78.184 44.71,78.177 44.38,78.197 44.351,78.197 44.111,78.19 43.963,78.184 43.698,78.177 42.833,78.157 42.248,77.931 
	39.48,76.812 37.244,75.916 36.534,75.631 32.445,74.001 29.383,72.79 28.029,72.245 27.971,72.21 27.911,72.21 27.762,72.148 
	27.736,72.115 27.616,72.086 26.174,71.507 25.261,71.124 22.524,70.038 22.289,69.942 19.345,68.792 18.317,68.346 16.991,67.803 
	15.167,67.039 12.254,65.828 11.903,65.7 8.932,64.461 6.605,63.472 3.781,62.295 3.074,62.007 2.252,61.661 1.339,61.273 
	0.926,61.114 0.604,60.985 0.25,60.83 0.252,60.796 0.282,60.772 0.253,60.709 0.253,60.682 0.286,60.651 0.315,60.651 
	0.345,60.651 0.347,60.624 0.375,60.593 0.376,60.565 0.376,60.535 0.32,60.472 0.293,60.44 0.322,60.383 0.354,60.328 
	0.415,60.266 0.417,60.24 0.388,60.208 0.389,60.147 0.389,60.12 0.419,60.12 0.511,60.089 0.511,60.061 0.54,60.061 0.54,60.034 
	0.542,60.002 0.542,59.972 0.543,59.944 0.514,59.911 0.486,59.883 0.424,59.91 0.367,59.907 0.338,59.878 0.338,59.848 
	0.368,59.821 0.428,59.76 0.461,59.731 0.461,59.704 0.431,59.672 0.431,59.643 0.433,59.613 0.464,59.586 0.494,59.526 
	0.497,59.496 0.468,59.437 0.468,59.406 0.408,59.406 0.408,59.375 0.382,59.283 0.388,59.164 0.417,59.105 0.507,59.08 
	0.537,59.083 0.567,59.111 0.595,59.111 0.717,59.084 0.718,59.024 0.718,58.997 0.747,58.967 0.809,58.938 0.898,58.881 
	0.931,58.852 0.931,58.823 0.933,58.792 0.933,58.764 0.993,58.675 1.056,58.648 1.145,58.561 1.147,58.534 1.147,58.503 
	1.178,58.469 1.181,58.382 1.366,58.12 1.366,58.091 1.369,58.033 1.462,57.917 1.492,57.858 1.525,57.827 1.554,57.736 
	1.557,57.71 1.681,57.564 1.71,57.503 1.739,57.505 1.855,57.627 1.916,57.63 1.975,57.63 2.005,57.631 2.094,57.664 2.123,57.666 
	2.211,57.697 2.33,57.703 2.36,57.703 2.391,57.731 2.419,57.731 2.506,57.734 2.596,57.768 2.654,57.796 2.685,57.769 2.717,57.71 
	3.072,57.72 3.076,57.6 3.285,57.636 3.287,57.519 3.437,57.521 3.583,57.526 3.588,57.436 3.735,57.44 3.709,57.323 3.683,57.203 
	3.683,57.174 3.684,57.113 3.687,56.993 3.721,56.963 3.721,56.905 3.811,56.846 3.841,56.821 3.841,56.79 3.904,56.733 
	3.904,56.702 3.965,56.645 4.056,56.616 4.116,56.588 4.147,56.56 4.206,56.533 4.298,56.444 4.357,56.386 4.451,56.299 
	4.521,55.885 4.523,55.826 4.524,55.798 4.562,55.529 4.564,55.5 4.565,55.441 4.567,55.382 4.449,55.257 4.421,55.226 
	4.394,55.165 4.366,55.078 4.397,55.05 4.397,54.989 4.458,54.933 4.492,54.872 4.493,54.813 4.493,54.783 4.493,54.754 
	4.495,54.722 4.495,54.693 4.497,54.664 4.469,54.605 4.438,54.576 4.407,54.574 4.319,54.601 4.291,54.601 4.261,54.569 
	4.261,54.537 4.233,54.451 4.236,54.298 4.212,54.121 4.183,54.06 4.186,54.029 4.155,54 4.157,53.972 4.157,53.943 4.129,53.943 
	4.101,53.85 4.043,53.819 "/>
<path d="M197.214,38.956l-0.845,0.843l2.77,2.767l-2.77,2.768l0.845,0.845l3.609-3.612L197.214,38.956z M197.214,38.956"/>
<path d="M84.371,38.956l-0.842,0.843l2.769,2.767l-2.769,2.768l0.842,0.845l3.612-3.612L84.371,38.956z M84.371,38.956"/>
</svg>
