<?xml version="1.0" encoding="utf-8"?>
<!-- Generator: Adobe Illustrator 15.0.0, SVG Export Plug-In . SVG Version: 6.00 Build 0)  -->
<!DOCTYPE svg PUBLIC "-//W3C//DTD SVG 1.1//EN" "http://www.w3.org/Graphics/SVG/1.1/DTD/svg11.dtd">
<svg version="1.1" id="Layer_1" xmlns="http://www.w3.org/2000/svg" xmlns:xlink="http://www.w3.org/1999/xlink" x="0px" y="0px"
	 width="141.732px" height="141.732px" viewBox="0 0 141.732 141.732" enable-background="new 0 0 141.732 141.732"
	 xml:space="preserve">
<g id="Layer_1_1_" display="none">
	<polygon display="inline" fill="#E6A329" points="111.142,36.396 70.866,36.396 30.591,36.396 38.139,118.281 70.866,127.559 
		103.582,118.281 	"/>
	<polygon display="inline" fill="#F1BF22" points="70.866,43.066 70.866,120.625 97.368,113.112 103.822,43.066 	"/>
	<polygon display="inline" fill="#FFFFFF" points="91.951,53.114 51.188,53.114 48.355,83.774 48.415,83.582 83.041,83.582 
		81.911,96.55 70.866,99.735 59.652,96.502 58.979,88.654 48.799,88.654 50.254,104.338 70.866,110.192 91.479,104.338 
		94.315,73.558 57.573,73.558 58.041,63.294 83.544,63.294 83.919,69.169 94.19,69.169 	"/>
	<path display="inline" fill="#EBEBEB" d="M70.866,53.114H51.188l-2.833,30.66l0.061-0.192h22.451V73.558H58.991l0.468-10.265
		h11.408L70.866,53.114L70.866,53.114z M58.979,88.654H48.799l1.454,15.685l20.613,5.842V99.735l-11.214-3.232L58.979,88.654z"/>
	<polygon display="inline" points="63.028,24.317 55.865,24.317 55.865,29.461 63.028,29.461 66.863,29.461 68.161,29.461 
		68.161,14.173 63.028,14.173 	"/>
	<g display="inline">
		<g>
			<defs>
				<rect id="SVGID_1_" x="0" y="0" width="141.732" height="141.732"/>
			</defs>
			<clipPath id="SVGID_2_">
				<use xlink:href="#SVGID_1_"  overflow="visible"/>
			</clipPath>
			<path clip-path="url(#SVGID_2_)" d="M85.868,14.25H73.374v5.354c1.67,1.671,2.543,2.471,4.961,4.889
				c-1.414,0-4.961,0.005-4.961,0.005v4.884h12.494v-4.885l-4.99-4.893h4.99V14.25z"/>
		</g>
	</g>
</g>
<g id="Layer_2" display="none">
	<g display="inline">
		<g>
			<polygon fill="#010101" points="59.71,19.586 59.71,14.352 47.227,14.352 47.227,29.654 59.71,29.654 59.71,24.419 
				52.461,24.419 52.461,19.586 			"/>
			<polygon fill="#010101" points="77.43,14.352 64.945,14.352 64.945,19.725 70.154,24.419 64.945,24.419 64.945,29.654 
				77.43,29.654 77.43,24.559 72.694,19.586 77.43,19.586 			"/>
			<polygon fill="#010101" points="95.552,14.352 83.067,14.352 83.067,19.725 88.075,24.419 83.067,24.419 83.067,29.654 
				95.552,29.654 95.552,24.559 90.614,19.586 95.552,19.586 			"/>
		</g>
		<polygon fill="#1072BA" points="38.448,118.848 31.118,36.639 111.659,36.639 104.323,118.833 71.34,127.979 		"/>
		<polygon fill="#2AAAE2" points="71.457,120.984 98.076,113.663 104.312,43.485 71.457,43.485 		"/>
		<polygon fill="#B4B4B4" points="47.896,73.687 48.779,83.756 71.457,73.687 71.457,63.604 		"/>
		<polygon fill="#E6E6E5" points="96.574,52.84 71.457,63.604 71.457,73.687 95.707,62.908 		"/>
		<polygon fill="#E6E6E5" points="71.457,100.029 71.38,100.042 60.132,97.021 59.397,88.992 49.276,88.992 50.688,104.812 
			71.376,110.54 71.457,110.522 		"/>
		<polygon fill="#FFFFFF" points="71.457,73.687 71.457,83.756 83.771,83.756 82.65,96.918 71.457,100.04 71.457,110.529 
			92.076,104.8 94.791,73.687 		"/>
		<polygon fill="#E6E6E5" points="71.457,73.687 47.896,73.687 48.779,83.756 71.457,83.756 		"/>
		<polygon fill="#E6E6E5" points="71.457,62.908 71.457,52.84 71.354,52.84 46.106,52.84 46.999,62.908 		"/>
		<polygon fill="#FFFFFF" points="71.457,52.84 71.457,62.781 71.457,62.908 95.707,62.908 96.574,52.84 		"/>
	</g>
</g>
<g id="Layer_3" display="none">
	<polygon display="inline" fill="#E44F26" points="37.755,119.382 30.384,36.701 111.383,36.701 104.004,119.369 70.835,128.565 	
		"/>
	<polygon display="inline" fill="#F1662A" points="70.884,121.536 97.688,114.103 103.993,43.462 70.884,43.462 	"/>
	<polygon display="inline" fill="#EBEBEB" points="70.884,74.127 57.465,74.127 56.539,63.744 70.884,63.744 70.884,53.601 
		70.849,53.601 45.456,53.601 45.699,56.323 48.191,84.266 70.884,84.266 	"/>
	<polygon display="inline" fill="#EBEBEB" points="70.884,100.464 70.84,100.473 59.545,97.424 58.824,89.339 53.336,89.339 
		48.645,89.339 50.065,105.26 70.837,111.026 70.884,111.013 	"/>
	<path display="inline" fill="#010101" d="M37.919,14.232h5.154v5.091h4.714v-5.091h5.153V29.65h-5.153v-5.163h-4.714v5.163H37.92
		L37.919,14.232L37.919,14.232z"/>
	<path display="inline" fill="#010101" d="M59.717,19.344h-4.535v-5.112H69.41v5.112h-4.538V29.65h-5.154L59.717,19.344
		L59.717,19.344z"/>
	<path display="inline" fill="#010101" d="M71.668,14.232h5.374l3.307,5.417l3.3-5.417h5.377V29.65h-5.131v-7.644l-3.546,5.482
		h-0.091l-3.548-5.482v7.644h-5.042V14.232L71.668,14.232z"/>
	<path display="inline" fill="#010101" d="M91.588,14.232h5.155v10.32h7.248v5.098H91.588V14.232z"/>
	<polygon display="inline" fill="#FFFFFF" points="70.849,74.127 70.849,84.266 83.335,84.266 82.158,97.418 70.849,100.471 
		70.849,111.022 91.638,105.26 91.79,103.545 94.173,76.849 94.42,74.127 91.687,74.127 	"/>
	<polygon display="inline" fill="#FFFFFF" points="70.849,53.601 70.849,59.9 70.849,63.717 70.849,63.744 95.31,63.744 
		95.31,63.744 95.343,63.744 95.546,61.464 96.008,56.323 96.251,53.601 	"/>
</g>
<g id="Layer_4" display="none">
	<g display="inline">
		<path d="M9.097,88.016c0,0.812,0,1.709-0.706,2.713c-0.596,0.774-1.522,1.406-2.75,1.406c-1.002,0-1.895-0.444-2.491-1.036
			c-1-1.04-1.035-2.23-1.073-3.121V49.352c0.039-0.895,0.073-2.083,1.073-3.119c0.598-0.596,1.489-1.044,2.491-1.044
			c1.228,0,2.154,0.634,2.75,1.413c0.706,1.004,0.706,1.893,0.706,2.708V88.016L9.097,88.016z"/>
		<path d="M20.81,88.016c0,0.812,0,1.709-0.706,2.713c-0.593,0.774-1.521,1.406-2.745,1.406c-1.004,0-1.896-0.444-2.492-1.036
			c-1.002-1.04-1.036-2.23-1.072-3.121V49.352c0.036-0.895,0.069-2.083,1.072-3.119c0.597-0.596,1.487-1.044,2.492-1.044
			c1.224,0,2.15,0.634,2.745,1.413c0.706,1.004,0.706,1.893,0.706,2.708V88.016L20.81,88.016z"/>
		<path d="M32.529,80.51c0,0.818,0,1.714-0.707,2.714c-0.594,0.782-1.519,1.415-2.748,1.415c-1.004,0-1.896-0.451-2.49-1.037
			c-1.001-1.044-1.038-2.234-1.071-3.125V41.853c0.034-0.896,0.07-2.087,1.071-3.123c0.596-0.596,1.486-1.039,2.49-1.039
			c1.229,0,2.154,0.635,2.748,1.409c0.707,1.004,0.707,1.895,0.707,2.712V80.51L32.529,80.51z"/>
		<path d="M44.243,88.016c0,0.812,0,1.709-0.706,2.713c-0.593,0.774-1.52,1.406-2.744,1.406c-1.01,0-1.896-0.444-2.489-1.036
			c-1.006-1.04-1.038-2.23-1.075-3.121V49.352c0.037-0.895,0.068-2.083,1.075-3.119c0.593-0.596,1.479-1.044,2.489-1.044
			c1.225,0,2.151,0.634,2.744,1.413c0.706,1.004,0.706,1.893,0.706,2.708V88.016L44.243,88.016z"/>
		<path d="M55.961,80.51c0,0.818,0,1.714-0.704,2.714c-0.597,0.782-1.526,1.415-2.754,1.415c-1.001,0-1.887-0.451-2.481-1.037
			c-1.005-1.044-1.04-2.234-1.083-3.125V41.853c0.043-0.896,0.078-2.087,1.083-3.123c0.596-0.596,1.48-1.039,2.481-1.039
			c1.228,0,2.158,0.635,2.754,1.409c0.704,1.004,0.704,1.895,0.704,2.712V80.51L55.961,80.51z"/>
		<path d="M67.675,88.016c0,0.812,0,1.709-0.708,2.713c-0.59,0.774-1.518,1.406-2.746,1.406c-0.999,0-1.896-0.444-2.485-1.036
			c-1.001-1.04-1.039-2.23-1.079-3.121V49.352c0.04-0.895,0.078-2.083,1.079-3.119c0.59-0.596,1.486-1.044,2.485-1.044
			c1.229,0,2.155,0.634,2.746,1.413c0.708,1.004,0.708,1.893,0.708,2.708V88.016L67.675,88.016z"/>
		<path d="M79.394,88.016c0,0.812,0,1.709-0.708,2.713c-0.591,0.774-1.518,1.406-2.746,1.406c-1.004,0-1.896-0.444-2.488-1.036
			c-1.005-1.04-1.042-2.23-1.08-3.121V49.352c0.038-0.895,0.075-2.083,1.08-3.119c0.594-0.596,1.484-1.044,2.488-1.044
			c1.229,0,2.155,0.634,2.746,1.413c0.708,1.004,0.708,1.893,0.708,2.708V88.016L79.394,88.016z"/>
		<path d="M136.209,56.927c0.82,0,1.709,0,2.71,0.705c0.777,0.596,1.413,1.522,1.413,2.748c0,1.003-0.443,1.896-1.039,2.49
			c-1.035,0.998-2.229,1.035-3.119,1.074H87.339c-0.896-0.039-2.086-0.076-3.124-1.074c-0.591-0.594-1.034-1.487-1.034-2.49
			c0-1.226,0.633-2.152,1.407-2.748c1.005-0.705,1.897-0.705,2.709-0.705H136.209L136.209,56.927z"/>
		<path d="M136.209,45.21c0.82,0,1.709,0,2.71,0.704c0.777,0.59,1.413,1.521,1.413,2.75c0,1-0.443,1.891-1.039,2.484
			c-1.035,1.007-2.229,1.044-3.119,1.078H87.339c-0.896-0.034-2.086-0.071-3.124-1.078c-0.591-0.594-1.034-1.483-1.034-2.484
			c0-1.229,0.633-2.16,1.407-2.75c1.005-0.704,1.897-0.704,2.709-0.704H136.209L136.209,45.21z"/>
		<path d="M136.209,80.368c0.82,0,1.709,0,2.71,0.702c0.777,0.594,1.413,1.523,1.413,2.746c0,1.004-0.443,1.895-1.039,2.491
			c-1.035,0.999-2.229,1.034-3.119,1.076H87.339c-0.896-0.042-2.086-0.077-3.124-1.076c-0.591-0.598-1.034-1.487-1.034-2.491
			c0-1.223,0.633-2.152,1.407-2.746c1.005-0.702,1.897-0.702,2.709-0.702H136.209L136.209,80.368z"/>
		<path d="M136.209,68.647c0.82,0,1.709,0,2.71,0.704c0.777,0.592,1.413,1.519,1.413,2.746c0,1.007-0.443,1.896-1.039,2.491
			c-1.035,1-2.229,1.041-3.119,1.077H87.339c-0.896-0.036-2.086-0.077-3.124-1.077c-0.591-0.597-1.034-1.484-1.034-2.491
			c0-1.228,0.633-2.153,1.407-2.746c1.005-0.704,1.897-0.704,2.709-0.704H136.209L136.209,68.647z"/>
		<path d="M25.575,112.731c0,0.855,0,1.896,0.67,2.786c0.601,0.778,1.603,1.265,2.604,1.265c1.891,0,2.674-1.23,3.079-1.935
			c1.596,1.482,3.234,2.048,5.424,2.048c5.237,0,8.614-4.058,8.614-10.029c0-7.169-4.42-10.139-8.32-10.139
			c-2.038,0-4.045,0.704-5.198,2.338v-5.869c0-2.336-1.784-3.453-3.376-3.453c-0.708,0-1.893,0.182-2.713,1.34
			c-0.669,0.894-0.743,1.827-0.782,3.603v18.046H25.575z M35.379,101.481c0.929,0,1.895,0.444,2.53,1.521
			c0.514,0.859,0.816,2.151,0.816,3.711c0,1.604-0.258,3.603-1.268,4.609c-0.522,0.521-1.295,0.813-2.04,0.813
			c-3.123,0-3.191-3.973-3.191-5.238c0-1.256,0.068-3.784,1.558-4.896C34.228,101.661,34.827,101.481,35.379,101.481L35.379,101.481
			z"/>
		<path d="M78.593,108.463c1.522,0,2.188-1.187,2.188-2.821c0-4.27-2.898-8.991-9.584-8.991c-6.794,0-10.023,4.529-10.023,9.997
			c0,5.078,2.673,10.389,9.949,10.389c5.798,0,8.584-3.154,8.584-4.935c0-1.451-1.339-2.601-2.932-2.601
			c-0.86,0-1.414,0.371-1.83,0.705c-0.515,0.407-0.922,0.896-1.484,1.228c-0.52,0.371-1.223,0.596-2.005,0.596
			c-3.042,0-3.376-2.752-3.451-3.565L78.593,108.463L78.593,108.463z M67.966,104.715c0.19-1.235,0.672-2.237,1.714-2.755
			c0.408-0.217,0.932-0.334,1.487-0.334c1.708,0,2.372,1.113,2.521,1.413c0.296,0.56,0.37,1.079,0.447,1.676H67.966L67.966,104.715z
			"/>
		<path d="M108.365,96.606c-5.277,0-10.361,2.793-10.361,10.075c0,2.894,0.669,5.307,2.522,7.427c0.896,1.038,2.9,2.974,7.58,2.974
			c5.831,0,10.361-3.2,10.361-10.216C118.469,102,115.874,96.606,108.365,96.606L108.365,96.606z M108.292,101.706
			c1.415,0,2.082,0.771,2.527,1.668c0.447,0.966,0.668,2.188,0.668,3.684c0,1.632-0.221,4.898-3.23,4.898
			c-3.164,0-3.274-3.979-3.274-5.203C104.981,105.562,105.066,101.706,108.292,101.706L108.292,101.706z"/>
		<path d="M121.397,100.703c0.035-0.708,0.035-1.449,0.408-2.157c0.521-1.007,1.525-1.675,2.785-1.675
			c0.963,0,1.747,0.377,2.342,1.004c0.776,0.822,0.854,1.603,0.928,2.193c0.401-0.52,0.742-0.97,1.373-1.522
			c1.302-1.151,3.046-1.705,4.79-1.705c1.781,0,3.525,0.698,4.677,2.075c1.112,1.338,1.265,2.565,1.265,3.824v10.029
			c0,0.781-0.071,1.594-0.629,2.524c-0.636,0.928-1.678,1.487-2.79,1.487c-1.111,0-2.005-0.406-2.675-1.376
			c-0.701-0.968-0.772-1.818-0.772-2.746v-7.726c0-0.56,0-1.19-0.339-1.777c-0.366-0.749-1.111-1.156-1.932-1.156
			c-0.629,0-1.144,0.219-1.558,0.553c-0.923,0.82-0.973,2.271-0.973,3.753v6.578c0,0.631-0.067,1.555-0.667,2.41
			c-0.625,0.928-1.663,1.487-2.854,1.487c-1.413-0.034-2.527-0.854-3.001-1.817c-0.344-0.711-0.379-1.449-0.379-2.08V100.703
			L121.397,100.703z"/>
		<path d="M55.955,109.831c0,0.597,0,1.189,0.855,1.376c0.186,0.035,1.188,0.111,1.409,0.184c0.711,0.223,1.559,1.083,1.559,2.485
			c0,3.16-3.414,3.16-4.014,3.16c-0.96,0-1.928-0.077-2.854-0.302c-3.793-0.958-4.017-3.822-4.017-6.044l0.038-16.785
			c0.04-0.893,0.076-2.083,1.08-3.124c0.592-0.589,1.482-1.038,2.487-1.038c1.228,0,2.153,0.631,2.75,1.411
			c0.704,1.004,0.704,1.889,0.704,2.712L55.955,109.831L55.955,109.831z"/>
		<path d="M12.136,101.644c1.233,0,2.094,0.785,2.5,1.645c0.413,0.82,0.643,2.354,0.643,3.811c0,3.212-0.979,4.144-1.459,4.52
			c-0.673,0.562-1.381,0.634-1.792,0.634c-1.539,0-2.403-1.12-2.788-2.241c-0.194-0.413-0.451-1.271-0.451-2.953
			c0-1.114,0.188-2.682,0.808-3.799C10.422,101.79,11.612,101.644,12.136,101.644L12.136,101.644z M15.163,99.301
			c-1.304-1.837-3.247-2.437-5.159-2.437c-5.893,0-8.353,5.153-8.353,10.233c0,6.311,3.657,9.784,8.036,9.784
			c3.572,0,4.995-1.873,5.664-2.742c0.149,1.913,1.925,2.642,3.099,2.642c1.155,0,2.357-0.575,2.988-1.811
			c0.443-0.932,0.486-2.086,0.486-3.24l-0.025-9.955c0-1.186-0.036-2.373-0.494-3.323c-0.654-1.265-1.875-1.847-3.068-1.847
			C17.157,96.606,15.313,97.337,15.163,99.301L15.163,99.301z"/>
		<path d="M85.57,95.235c0.039-0.972,0.115-2.045,0.965-3.051c0.333-0.364,1.08-1.111,2.449-1.111c1.709,0,3.382,1.15,3.382,3.715
			v2.373h1.485c1.522,0.04,2.411,0.818,2.455,2.343c0,0.779-0.3,1.447-0.784,1.817c-0.636,0.557-1.524,0.521-3.156,0.488v8.021
			c0,0.597,0,1.189,0.852,1.376c0.192,0.035,1.192,0.111,1.412,0.188c0.707,0.219,1.563,1.077,1.563,2.479
			c0,3.16-3.417,3.16-4.013,3.16c-0.967,0-1.929-0.077-2.863-0.302c-3.785-0.958-4.006-3.822-4.006-6.044
			c0-2.34,0.108-6.504,0.148-8.848c-1.228,0.034-1.711,0-2.11-0.108c-1.005-0.334-1.416-1.344-1.416-2.307
			c0-0.227,0-0.444,0.066-0.738c0.415-1.417,1.601-1.455,2.194-1.488h1.375L85.57,95.235L85.57,95.235z"/>
	</g>
</g>
<g id="Layer_5" display="none">
	<g display="inline">
		<polygon fill="#B4B4B4" points="70.702,26.941 27.221,42.243 34.092,99.208 70.748,119.357 107.593,98.936 114.462,41.972 		"/>
		<polygon fill="#A51E22" points="110.124,45.264 70.601,31.787 70.601,114.542 103.724,96.21 		"/>
		<polygon fill="#DC2226" points="32.1,45.508 37.988,96.456 70.6,114.542 70.6,31.785 		"/>
		<path fill="#F3F3F3" d="M81.48,75.841L70.6,80.929H59.134l-5.39,13.48l-10.027,0.188l26.885-59.807L81.48,75.841z M80.429,73.281
			l-9.757-19.314L62.67,72.948H70.6L80.429,73.281z"/>
		<polygon fill="#B4B4B4" points="70.6,34.792 70.672,53.967 79.753,72.963 70.62,72.963 70.6,80.917 83.228,80.929 89.128,94.599 
			98.722,94.776 		"/>
	</g>
</g>
<g id="Layer_6" display="none">
	
		<radialGradient id="SVGID_3_" cx="17.6355" cy="78.7478" r="87.8247" gradientTransform="matrix(1 0 0 -1 26.52 133.4253)" gradientUnits="userSpaceOnUse">
		<stop  offset="0" style="stop-color:#FFFFFF"/>
		<stop  offset="0.5" style="stop-color:#4C6B97"/>
		<stop  offset="1" style="stop-color:#000000"/>
	</radialGradient>
	<ellipse display="inline" fill="url(#SVGID_3_)" cx="70.881" cy="77.489" rx="66.882" ry="35.182"/>
	<ellipse display="inline" fill="#6181B6" cx="70.881" cy="77.489" rx="64.271" ry="32.57"/>
	<g display="inline">
		<path fill="#FFFFFF" d="M83.9,88.016l3.188-16.407c0.722-3.703,0.121-6.466-1.776-8.211c-1.84-1.689-4.961-2.51-9.546-2.51h-5.521
			l1.58-8.131c0.06-0.306-0.021-0.623-0.219-0.862c-0.199-0.241-0.496-0.381-0.809-0.381h-7.619c-0.5,0-0.932,0.354-1.026,0.846
			l-3.385,17.418c-0.31-1.959-1.066-3.646-2.281-5.034c-2.235-2.559-5.771-3.855-10.508-3.855H31.207
			c-0.5,0-0.931,0.354-1.025,0.846L23.33,96.991c-0.06,0.308,0.021,0.623,0.219,0.864c0.199,0.239,0.495,0.381,0.808,0.381h7.681
			c0.5,0,0.93-0.354,1.026-0.846l1.657-8.529h5.717c3,0,5.52-0.324,7.487-0.965c2.013-0.654,3.863-1.765,5.496-3.292
			c1.319-1.212,2.409-2.568,3.248-4.032l-1.37,7.046c-0.06,0.306,0.021,0.623,0.221,0.863c0.197,0.241,0.494,0.38,0.806,0.38h7.621
			c0.5,0,0.93-0.354,1.025-0.845l3.761-19.354h5.229c2.229,0,2.881,0.445,3.058,0.635c0.162,0.175,0.496,0.787,0.121,2.721
			l-3.031,15.601c-0.061,0.306,0.021,0.623,0.219,0.863c0.199,0.241,0.494,0.38,0.807,0.38h7.742
			C83.373,88.861,83.805,88.507,83.9,88.016z M48.573,74.459c-0.479,2.46-1.38,4.215-2.681,5.215
			c-1.322,1.019-3.436,1.534-6.282,1.534h-3.404l2.462-12.667h4.4c3.232,0,4.536,0.691,5.059,1.271
			C48.853,70.616,49.007,72.224,48.573,74.459z"/>
		<path fill="#FFFFFF" d="M116.486,64.744c-2.234-2.559-5.771-3.855-10.51-3.855H91.209c-0.502,0-0.932,0.354-1.026,0.846
			L83.33,96.991c-0.061,0.308,0.021,0.623,0.219,0.864c0.199,0.239,0.494,0.381,0.808,0.381h7.68c0.502,0,0.932-0.354,1.027-0.846
			l1.656-8.529h5.717c3,0,5.521-0.324,7.487-0.965c2.015-0.654,3.865-1.765,5.496-3.292c1.363-1.252,2.484-2.655,3.332-4.175
			c0.849-1.518,1.457-3.21,1.812-5.031C119.436,70.905,118.738,67.321,116.486,64.744z M108.52,74.459
			c-0.478,2.46-1.379,4.215-2.681,5.215c-1.321,1.019-3.436,1.534-6.28,1.534h-3.404l2.461-12.667h4.402
			c3.231,0,4.535,0.691,5.059,1.271C108.801,70.616,108.955,72.224,108.52,74.459z"/>
	</g>
	<g display="inline">
		<path d="M43.069,67.497c2.918,0,4.863,0.539,5.835,1.616c0.971,1.077,1.203,2.926,0.694,5.547
			c-0.531,2.729-1.554,4.677-3.069,5.844c-1.516,1.166-3.822,1.749-6.919,1.749h-4.671l2.867-14.756H43.069z M24.356,97.191h7.68
			l1.822-9.375h6.579c2.901,0,5.291-0.303,7.166-0.914c1.875-0.608,3.579-1.632,5.111-3.066c1.287-1.184,2.329-2.488,3.125-3.915
			c0.798-1.427,1.363-3,1.697-4.722c0.812-4.181,0.2-7.436-1.837-9.767c-2.038-2.333-5.279-3.499-9.722-3.499H31.208L24.356,97.191z
			"/>
		<path d="M63.178,52.559h7.619l-1.821,9.374h6.789c4.271,0,7.218,0.744,8.839,2.234s2.106,3.905,1.459,7.242l-3.188,16.406h-7.742
			l3.031-15.601c0.346-1.773,0.219-2.983-0.379-3.63c-0.6-0.645-1.875-0.968-3.824-0.968h-6.09l-3.925,20.198h-7.621L63.178,52.559z
			"/>
		<path d="M103.018,67.497c2.916,0,4.86,0.539,5.834,1.616c0.973,1.077,1.203,2.926,0.694,5.547
			c-0.53,2.729-1.553,4.677-3.069,5.844c-1.517,1.166-3.822,1.749-6.918,1.749h-4.672l2.866-14.756H103.018z M84.303,97.191h7.682
			l1.82-9.375h6.579c2.902,0,5.289-0.303,7.164-0.914c1.875-0.608,3.578-1.632,5.111-3.066c1.289-1.184,2.33-2.488,3.127-3.915
			s1.363-3,1.697-4.722c0.812-4.181,0.201-7.436-1.838-9.767c-2.037-2.333-5.277-3.499-9.722-3.499h-14.77L84.303,97.191z"/>
	</g>
</g>
<g id="Layer_7" display="none">
	<g display="inline">
		<path fill="#5D87A1" d="M35.763,104.932h-5.178c-0.183-8.737-0.687-16.954-1.512-24.65h-0.045l-7.881,24.65h-3.942l-7.834-24.65
			H9.326c-0.581,7.394-0.946,15.608-1.098,24.65H3.508c0.306-10.997,1.068-21.307,2.291-30.929h6.416l7.469,22.726h0.046
			l7.514-22.726h6.139C34.726,85.274,35.519,95.585,35.763,104.932"/>
		<path fill="#5D87A1" d="M58.214,82.114c-2.106,11.438-4.888,19.75-8.339,24.935c-2.688,3.995-5.635,5.993-8.843,5.993
			c-0.855,0-1.91-0.257-3.161-0.77v-2.758c0.611,0.09,1.329,0.138,2.154,0.138c1.497,0,2.703-0.413,3.621-1.238
			c1.098-1.007,1.647-2.137,1.647-3.39c0-0.855-0.429-2.611-1.282-5.269L38.33,82.113h5.085l4.078,13.194
			c0.917,2.994,1.298,5.088,1.146,6.277c2.229-5.956,3.787-12.446,4.674-19.473h4.9V82.114z"/>
		<polygon fill="#F8971D" points="127.123,104.932 112.416,104.932 112.416,74.004 117.365,74.004 117.365,101.127 127.123,101.127 
					"/>
		<path fill="#F8971D" d="M108.568,105.677l-5.686-2.803c0.507-0.416,0.985-0.864,1.423-1.382c2.414-2.838,3.619-7.037,3.619-12.598
			c0-10.231-4.016-15.352-12.049-15.352c-3.94,0-7.012,1.297-9.211,3.896c-2.414,2.84-3.619,7.023-3.619,12.554
			c0,5.438,1.068,9.427,3.205,11.959c1.956,2.291,4.904,3.438,8.847,3.438c1.472,0,2.82-0.182,4.049-0.544l7.403,4.308
			L108.568,105.677z M90.148,98.746c-1.252-2.017-1.879-5.252-1.879-9.712c0-7.789,2.368-11.686,7.102-11.686
			c2.477,0,4.292,0.933,5.453,2.794c1.252,2.018,1.88,5.224,1.88,9.623c0,7.851-2.369,11.775-7.102,11.775
			C93.127,101.542,91.31,100.612,90.148,98.746"/>
		<path fill="#F8971D" d="M80.891,96.361c0,2.622-0.965,4.774-2.887,6.46c-1.922,1.678-4.504,2.519-7.738,2.519
			c-3.026,0-5.958-0.968-8.799-2.889l1.329-2.655c2.444,1.222,4.656,1.831,6.644,1.831c1.861,0,3.319-0.414,4.374-1.232
			c1.055-0.826,1.685-1.977,1.685-3.436c0-1.838-1.281-3.407-3.631-4.723c-2.17-1.192-6.505-3.677-6.505-3.677
			c-2.35-1.715-3.527-3.554-3.527-6.582c0-2.505,0.877-4.53,2.634-6.07c1.757-1.544,4.025-2.317,6.803-2.317
			c2.871,0,5.481,0.769,7.834,2.294l-1.194,2.653c-2.013-0.853-3.997-1.281-5.953-1.281c-1.586,0-2.81,0.384-3.663,1.149
			c-0.857,0.76-1.387,1.737-1.387,2.93c0,1.832,1.308,3.421,3.725,4.763c2.196,1.19,6.638,3.726,6.638,3.726
			C79.687,91.533,80.891,93.355,80.891,96.361"/>
		<path fill="#5D87A1" d="M133.333,63.644c-2.99-0.075-5.308,0.224-7.249,1.046c-0.561,0.223-1.456,0.223-1.534,0.934
			c0.302,0.298,0.339,0.784,0.602,1.196c0.447,0.747,1.23,1.754,1.941,2.28c0.785,0.598,1.569,1.193,2.395,1.717
			c1.456,0.899,3.101,1.422,4.518,2.316c0.826,0.523,1.646,1.195,2.471,1.759c0.409,0.298,0.67,0.785,1.193,0.971v-0.115
			c-0.263-0.334-0.337-0.82-0.597-1.195c-0.374-0.37-0.748-0.71-1.122-1.081c-1.084-1.456-2.431-2.728-3.885-3.773
			c-1.197-0.823-3.815-1.945-4.299-3.324c0,0-0.037-0.04-0.075-0.076c0.821-0.075,1.796-0.376,2.58-0.602
			c1.269-0.335,2.427-0.259,3.732-0.595c0.601-0.151,1.198-0.338,1.799-0.522V64.24c-0.676-0.671-1.159-1.569-1.87-2.204
			c-1.903-1.644-3.999-3.249-6.166-4.597c-1.16-0.748-2.655-1.231-3.891-1.868c-0.443-0.225-1.19-0.335-1.454-0.711
			c-0.673-0.822-1.048-1.904-1.532-2.877c-1.082-2.053-2.132-4.332-3.063-6.502c-0.672-1.457-1.083-2.913-1.906-4.259
			c-3.851-6.354-8.034-10.201-14.461-13.977c-1.385-0.786-3.027-1.122-4.782-1.533c-0.937-0.039-1.868-0.111-2.803-0.148
			c-0.6-0.264-1.199-0.974-1.723-1.31c-2.129-1.344-7.621-4.259-9.19-0.411c-1.009,2.432,1.493,4.821,2.354,6.056
			c0.635,0.857,1.459,1.832,1.904,2.802c0.261,0.635,0.337,1.309,0.6,1.98c0.597,1.644,1.157,3.476,1.942,5.009
			c0.41,0.785,0.858,1.607,1.381,2.313c0.303,0.414,0.823,0.6,0.937,1.273c-0.521,0.746-0.562,1.868-0.86,2.802
			c-1.345,4.223-0.822,9.455,1.084,12.557c0.598,0.935,2.019,2.99,3.925,2.203c1.682-0.671,1.309-2.802,1.794-4.669
			c0.11-0.452,0.037-0.749,0.261-1.046V55.2c0.521,1.044,1.046,2.051,1.533,3.101c1.158,1.829,3.175,3.736,4.857,5.006
			c0.896,0.675,1.604,1.832,2.728,2.243v-0.111h-0.075c-0.225-0.335-0.56-0.486-0.858-0.747c-0.673-0.673-1.419-1.496-1.943-2.243
			c-1.569-2.092-2.952-4.41-4.186-6.801c-0.599-1.161-1.121-2.432-1.605-3.588c-0.226-0.446-0.226-1.12-0.6-1.345
			c-0.562,0.821-1.382,1.532-1.794,2.538c-0.709,1.608-0.781,3.589-1.047,5.646c-0.148,0.04-0.073,0-0.148,0.075
			c-1.194-0.3-1.604-1.532-2.056-2.575c-1.119-2.656-1.31-6.917-0.337-9.981c0.263-0.783,1.388-3.249,0.936-3.997
			c-0.226-0.713-0.973-1.12-1.383-1.683c-0.485-0.71-1.012-1.605-1.344-2.393c-0.897-2.091-1.35-4.408-2.317-6.501
			c-0.448-0.973-1.232-1.981-1.866-2.877c-0.713-1.01-1.497-1.719-2.058-2.914c-0.188-0.411-0.447-1.085-0.15-1.531
			c0.074-0.3,0.226-0.413,0.523-0.488c0.484-0.41,1.869,0.112,2.354,0.336c1.383,0.559,2.542,1.085,3.698,1.868
			c0.522,0.375,1.084,1.084,1.757,1.272h0.785c1.193,0.26,2.542,0.072,3.665,0.41c1.978,0.636,3.771,1.569,5.381,2.578
			c4.892,3.103,8.929,7.513,11.655,12.781c0.448,0.856,0.638,1.644,1.049,2.539c0.784,1.835,1.757,3.703,2.54,5.496
			c0.784,1.757,1.534,3.548,2.654,5.008c0.562,0.784,2.804,1.194,3.812,1.605c0.745,0.335,1.906,0.635,2.579,1.046
			c1.271,0.782,2.538,1.682,3.735,2.542C131.351,61.962,133.221,62.896,133.333,63.644"/>
		<path fill="#5D87A1" d="M95.216,31.168c-0.634,0-1.079,0.076-1.531,0.188v0.076h0.073c0.303,0.597,0.824,1.01,1.195,1.532
			c0.302,0.599,0.562,1.193,0.861,1.792c0.037-0.036,0.072-0.074,0.072-0.074c0.525-0.372,0.787-0.971,0.787-1.868
			c-0.225-0.264-0.262-0.522-0.448-0.785C96.002,31.655,95.515,31.468,95.216,31.168"/>
		<path fill="#F8971D" d="M136.896,104.929h0.771v-3.789h-1.161l-0.945,2.582l-1.031-2.582h-1.121v3.789h0.731v-2.885h0.042
			l1.078,2.885h0.558l1.079-2.885V104.929z M130.655,104.929h0.82v-3.146h1.072v-0.643h-3.008v0.643h1.114L130.655,104.929
			L130.655,104.929z"/>
	</g>
</g>
<g id="Layer_8" display="none">
	<g display="inline">
		
			<linearGradient id="SVGID_4_" gradientUnits="userSpaceOnUse" x1="24.093" y1="109.2654" x2="117.9075" y2="15.4508" gradientTransform="matrix(1 0 0 -1 0 142.7319)">
			<stop  offset="0.2033" style="stop-color:#F89933"/>
			<stop  offset="1" style="stop-color:#A35731"/>
		</linearGradient>
		<rect x="24.338" y="33.222" fill="url(#SVGID_4_)" width="93.326" height="94.303"/>
		<path fill="#FFDD00" d="M38.578,105.429l13.221-43.151l0.265-7.925H65.28l14.88,51.076H70.156L65.43,92.085H52.029l-4.012,13.345
			H38.578z M63.627,83.39c0,0-4.397-16.853-4.623-18.555c-0.244,1.633-4.511,18.555-4.511,18.555H63.627z"/>
		<path fill="#FFDD00" d="M83.631,58.744c0-1.514,0.546-2.817,1.638-3.908c1.091-1.091,2.393-1.637,3.907-1.637
			c1.537,0,2.855,0.541,3.959,1.62c1.103,1.081,1.652,2.388,1.652,3.925s-0.551,2.851-1.652,3.942
			c-1.104,1.091-2.422,1.637-3.959,1.637c-1.516,0-2.816-0.557-3.907-1.67C84.177,61.54,83.631,60.236,83.631,58.744z"/>
		<rect x="83.781" y="67.721" fill="#FFDD00" width="10.471" height="37.708"/>
	</g>
</g>
<g id="Layer_11" display="none">
	<g display="inline">
		<g>
			<defs>
				<path id="SVGID_5_" d="M36.854,33.672c-7.003,0-12.682,5.678-12.682,12.681v69.026c0,7.002,5.678,12.682,12.682,12.682h69.025
					c7.002,0,12.681-5.68,12.681-12.682V46.352c0-7.003-5.679-12.681-12.681-12.681H36.854z"/>
			</defs>
			<clipPath id="SVGID_6_">
				<use xlink:href="#SVGID_5_"  overflow="visible"/>
			</clipPath>
			
				<linearGradient id="SVGID_7_" gradientUnits="userSpaceOnUse" x1="-234.6907" y1="328.9187" x2="-233.8579" y2="328.9187" gradientTransform="matrix(97.8892 -75.6695 75.6695 97.8892 -1888.0989 -49841.6016)">
				<stop  offset="0" style="stop-color:#121134"/>
				<stop  offset="1" style="stop-color:#602D4F"/>
			</linearGradient>
			<polygon clip-path="url(#SVGID_6_)" fill="url(#SVGID_7_)" points="-21.498,68.977 83.255,-11.999 164.231,92.754 
				59.477,173.731 			"/>
		</g>
	</g>
	<g display="inline">
		<path fill="#FFFFFF" d="M46.87,51.313h27.562c15.601,0,18.972,11.09,18.972,15.468c0,8.856-5.021,11.121-7.529,12.137
			c3.811,1.074,9.988,4.323,9.988,15.585c0,3.222-0.406,15.914-20.718,15.914H46.87V51.313z M62.126,74.414h8.391
			c6.209,0,6.835-4.066,6.835-6.017c0-1.808-1.13-5.764-6.727-5.764h-8.499V74.414z M62.126,100.094h9.62
			c7.998,0,8.465-5.628,8.465-7.606c0-1.836-0.69-7.516-8.502-7.516h-9.583V100.094z"/>
	</g>
</g>
<g id="Layer_9" display="none">
	<g display="inline">
		<g>
			<g>
				<path fill="#1D1D1B" d="M73.779,70.206c-0.002,0.16,0,0.312-0.005,0.479c0.002,0.049,0.003,0.098,0.005,0.146
					c0.002-0.111,0.01-0.224,0.01-0.337C73.789,70.396,73.783,70.3,73.779,70.206z"/>
				<path fill="#1D1D1B" d="M52.39,81.127c5.853,0,10.597-4.265,10.597-10.314c0-0.108-0.013-0.215-0.016-0.322
					c-0.165,5.879-4.833,9.999-10.581,9.999l-4.118-0.161v0.641L52.39,81.127z"/>
				<path fill="#1D1D1B" d="M57.868,51.325c8.317,1.28,11.09,4.692,12.796,7.464c1.484,2.412,3.046,4.589,3.119,10.448
					c0.035-6.341-1.583-8.591-3.119-11.088c-1.707-2.772-4.479-6.186-12.796-7.464c-8.317-1.28-21.752,0-21.752,0v0.639
					C36.116,51.325,49.551,50.046,57.868,51.325z"/>
			</g>
			<g>
				
					<linearGradient id="SVGID_8_" gradientUnits="userSpaceOnUse" x1="97.158" y1="67.0012" x2="96.8285" y2="48.1262" gradientTransform="matrix(1 0 0 -1 0 142.7319)">
					<stop  offset="0" style="stop-color:#1D1D1B"/>
					<stop  offset="0.0896" style="stop-color:#1D1D1B;stop-opacity:0.9104"/>
					<stop  offset="1" style="stop-color:#1D1D1B;stop-opacity:0"/>
				</linearGradient>
				<path fill="url(#SVGID_8_)" d="M92.718,79.93c-3.311-1.418-4.765-2.99-4.958-4.364c-0.225,1.507,1.12,3.36,4.958,5.004
					c3.83,1.642,13.331,5.271,13.524,14.2c0.002-0.122,0.009-0.243,0.009-0.366C106.251,85.274,96.587,81.588,92.718,79.93z"/>
				
					<linearGradient id="SVGID_9_" gradientUnits="userSpaceOnUse" x1="86.6306" y1="48.4866" x2="86.543" y2="43.4688" gradientTransform="matrix(1 0 0 -1 0 142.7319)">
					<stop  offset="0" style="stop-color:#1D1D1B"/>
					<stop  offset="0.0896" style="stop-color:#1D1D1B;stop-opacity:0.9104"/>
					<stop  offset="1" style="stop-color:#1D1D1B;stop-opacity:0"/>
				</linearGradient>
				<path fill="url(#SVGID_9_)" d="M90.416,98.688c-4.92-0.022-13.021-4.604-13.021-4.604v0.642c0,0,8.102,4.581,13.021,4.604
					c3.633,0.019,5.664-1.204,5.385-3.03C95.559,97.763,93.605,98.704,90.416,98.688z"/>
				
					<linearGradient id="SVGID_10_" gradientUnits="userSpaceOnUse" x1="90.948" y1="79.8875" x2="90.7078" y2="66.1278" gradientTransform="matrix(1 0 0 -1 0 142.7319)">
					<stop  offset="0" style="stop-color:#1D1D1B"/>
					<stop  offset="0.0896" style="stop-color:#1D1D1B;stop-opacity:0.9104"/>
					<stop  offset="1" style="stop-color:#1D1D1B;stop-opacity:0"/>
				</linearGradient>
				<path fill="url(#SVGID_10_)" d="M93.215,63.534c6.879-0.08,11.037,3.039,11.037,3.039v-0.64c0,0-4.157-3.119-11.037-3.039
					c-6.877,0.08-15.865,4.079-15.865,13.194c0,0.101,0.009,0.188,0.011,0.283C77.594,67.51,86.43,63.613,93.215,63.534z"/>
			</g>
		</g>
		<g>
			<g>
				<path fill="#FFFFFF" d="M52.39,58.383l-4.118,0.214v0.64l4.118-0.213c5.749,0,10.416,5.351,10.581,11.273
					c0.003-0.105,0.016-0.21,0.016-0.317C62.986,63.927,58.242,58.383,52.39,58.383z"/>
				<path fill="#FFFFFF" d="M73.783,69.046c-0.002,0.266,0,0.525-0.009,0.806c0.002,0.055,0.003,0.106,0.005,0.162
					C73.784,69.682,73.787,69.356,73.783,69.046z"/>
				<rect x="36.116" y="106.792" fill="#FFFFFF" width="12.156" height="0.642"/>
				<path fill="#FFFFFF" d="M73.452,73.449c-0.218,1.163-0.543,2.139-0.948,2.964c-3.113,7.197-11.564,12.36-21.51,12.36
					c-0.767,0-1.521-0.042-2.27-0.103c-0.287,0.064-0.452,0.103-0.452,0.103v0.64c0,0,0.165-0.036,0.452-0.102
					c0.748,0.061,1.503,0.102,2.27,0.102c9.945,0,18.396-5.164,21.51-12.36c0.405-0.824,0.73-1.799,0.948-2.965
					c0.218-1.022,0.337-2.073,0.337-3.147c0-0.103-0.006-0.201-0.01-0.302C73.758,71.593,73.646,72.533,73.452,73.449z"/>
			</g>
			<g>
				<path fill="#FFFFFF" d="M88.657,90.052c4.694,2.202,6.888,4.383,7.144,6.055c0.285-1.731-1.823-4.196-7.144-6.693
					c-6.397-3.001-11.181-5.466-11.298-13.23c-0.002,0.117-0.011,0.235-0.011,0.355C77.349,84.535,82.18,87.013,88.657,90.052z"/>
				<path fill="#FFFFFF" d="M104.252,75.177c0,0-5.998-3.438-10.957-3.438c-3.336,0-5.822,1.598-5.535,3.635
					c0.257-1.722,2.559-2.995,5.535-2.995c4.959,0,10.957,3.438,10.957,3.438V75.177z"/>
				<path fill="#FFFFFF" d="M90.416,107.647c-9.029-0.081-13.021-3.84-13.021-3.84v0.64c0,0,3.991,3.76,13.021,3.84
					c9.031,0.08,15.835-4.799,15.835-13.436c0-0.095-0.007-0.184-0.009-0.273C106.051,102.984,99.318,107.725,90.416,107.647z"/>
			</g>
		</g>
		
			<linearGradient id="SVGID_11_" gradientUnits="userSpaceOnUse" x1="71.1829" y1="15.6614" x2="71.1829" y2="110.0286" gradientTransform="matrix(1 0 0 -1 0 142.7319)">
			<stop  offset="0" style="stop-color:#1B325E"/>
			<stop  offset="1" style="stop-color:#1F5EAC"/>
		</linearGradient>
		<rect x="24" y="32.704" fill="url(#SVGID_11_)" width="94.366" height="94.367"/>
		<g>
			<path fill="#5CCCF5" d="M73.774,70.312c0.185-6.973-1.51-9.292-3.11-11.895c-1.707-2.771-4.479-6.185-12.796-7.464
				c-8.317-1.28-21.752,0-21.752,0v56.3h12.156v-18.02c0,0,0.165-0.038,0.452-0.104c0.748,0.061,1.503,0.104,2.27,0.104
				c9.945,0,18.396-5.164,21.51-12.36c0.405-0.825,0.73-1.801,0.948-2.965c0.218-1.024,0.337-2.075,0.337-3.149
				C73.789,70.61,73.779,70.462,73.774,70.312z M52.39,80.757l-4.118-0.16V59.058l4.118-0.215c5.853,0,10.597,5.546,10.597,11.598
				C62.986,76.492,58.242,80.757,52.39,80.757z"/>
			<path fill="#5CCCF5" d="M104.252,66.202c0,0-4.157-3.119-11.037-3.039c-6.877,0.08-15.865,4.079-15.865,13.195
				c0,7.998,4.831,10.477,11.309,13.516c9.821,4.607,8.717,9.117,1.759,9.083c-4.92-0.021-13.021-4.604-13.021-4.604v9.916
				c0,0,3.991,3.76,13.021,3.84c9.031,0.079,15.835-4.799,15.835-13.438c0-9.129-9.664-12.813-13.533-14.473
				c-8.22-3.521-5.009-7.999,0.577-7.999c4.959,0,10.957,3.438,10.957,3.438L104.252,66.202L104.252,66.202z"/>
		</g>
	</g>
</g>
<g id="Layer_10" display="none">
	<g display="inline">
		<path fill="#005A8F" d="M93.625,49.129c-4.943-3.078-9.607-4.291-14.271-7.369c-2.893-1.959-6.903-6.622-10.263-10.635
			c-0.652,6.438-2.611,9.049-4.85,10.915c-4.758,3.731-7.743,4.852-11.848,7.089c-3.451,1.772-22.202,12.968-22.202,37.034
			c0,24.067,20.243,41.791,42.725,41.791c22.48,0,41.979-16.325,41.979-41.045S96.609,50.996,93.625,49.129z"/>
		<path fill="#FFFFFF" d="M86.049,107.048c1.492,0,3.077,0.095,4.197,0.839c1.119,0.747,1.771,2.428,2.146,3.359
			c0.372,0.934,0,1.492-0.747,1.865c-0.652,0.373-0.746,0.188-1.398-1.026c-0.654-1.212-1.213-2.425-4.479-2.425
			c-3.265,0-4.291,1.119-5.877,2.425c-1.585,1.308-2.146,1.772-2.705,1.026s-0.372-1.492,0.652-2.425
			c1.026-0.934,2.706-2.427,4.291-3.079C83.716,106.956,84.555,107.048,86.049,107.048L86.049,107.048z"/>
		<path fill="#FFFFFF" d="M70.562,117.683c1.864,1.491,4.664,2.705,10.635,2.705s10.168-1.68,12.033-3.078
			c0.84-0.653,1.213-0.094,1.307,0.278c0.094,0.374,0.279,0.934-0.373,1.586c-0.467,0.468-4.758,3.451-9.795,3.918
			c-5.037,0.468-11.848,0.746-15.952-2.983c-0.652-0.653-0.467-1.587,0-1.96c0.466-0.373,0.839-0.652,1.399-0.652
			C70.376,117.497,70.283,117.497,70.562,117.683L70.562,117.683z"/>
		<path fill="#0E78BE" d="M47.708,110.593c7.089-0.094,8.396-1.306,14.646-4.104c33.769-15.112,40.019-28.918,41.231-32.089
			c1.213-3.172,2.984-8.303,1.119-13.993c-0.36-1.099-0.623-1.98-0.812-2.69c-4.488-5.018-8.943-7.756-10.289-8.597
			c-4.851-3.078-9.607-4.291-14.271-7.369c-2.893-1.866-6.903-6.624-10.262-10.634c-0.653,6.436-2.519,9.142-4.851,10.914
			c-4.758,3.731-7.743,4.851-11.848,7.089c-3.452,1.866-22.202,12.967-22.202,37.034c0,7.685,2.064,14.722,5.604,20.742l0.926-0.032
			C38.66,108.634,41.738,110.687,47.708,110.593z"/>
		<path fill="#044A75" d="M93.604,49.119c-4.851-3.078-9.607-4.291-14.271-7.369c-2.893-1.866-6.903-6.624-10.262-10.634
			c-0.653,6.436-2.52,9.142-4.851,10.914c-4.758,3.73-7.743,4.851-11.848,7.089c-3.452,1.866-22.202,12.967-22.202,37.034
			c0,7.685,2.064,14.722,5.604,20.742c7.55,12.836,21.815,21.05,37.119,21.05c22.481,0,41.979-16.325,41.979-41.046
			c0-13.575-5.514-23.07-10.979-29.184C99.404,52.699,94.949,49.96,93.604,49.119z M104.943,60.04
			c6.124,7.657,9.229,16.694,9.229,26.859c0,5.898-1.124,11.472-3.339,16.562c-2.103,4.829-5.129,9.108-8.997,12.72
			c-7.646,7.134-17.925,11.062-28.941,11.062c-5.451,0-10.799-1.041-15.898-3.095c-5.008-2.019-9.521-4.906-13.414-8.584
			c-8.197-7.749-12.712-18.194-12.712-29.413c0-9.991,3.244-18.871,9.639-26.389c4.888-5.744,10.156-8.928,12.195-10.029
			c0.99-0.54,1.918-1.017,2.816-1.478c2.814-1.444,5.474-2.81,9.13-5.677c1.95-1.481,4.026-3.829,4.912-9.789
			c3.082,3.665,6.658,7.784,9.389,9.546c2.426,1.602,4.913,2.723,7.319,3.808c2.274,1.025,4.629,2.087,6.957,3.564
			c0.004,0.003,0.088,0.056,0.088,0.056C100.123,54.015,103.751,58.549,104.943,60.04z"/>
		<path fill="#8ACBF0" d="M69.536,32.981c1.307,3.825,1.12,5.784,1.12,6.623c0,0.84-0.467,3.079-1.959,4.197
			c-0.653,0.467-0.84,0.841-0.84,0.934c0,0.374,0.84,0.653,0.84,1.493c0,1.025-0.467,3.078-5.411,8.021
			c-4.943,4.944-12.033,9.329-17.537,12.034s-8.116,2.519-8.861,1.212c-0.746-1.307,0.279-4.198,3.73-8.021
			c3.452-3.825,14.366-9.329,14.366-9.329l13.62-9.516l0.746-3.638"/>
		<path fill="#FFFFFF" d="M69.536,32.888c-0.839,6.156-2.705,8.021-5.223,9.98c-4.198,3.172-8.304,5.131-9.235,5.597
			c-2.426,1.214-11.194,6.063-15.766,13.061c-1.399,2.146,0,2.984,0.279,3.172c0.28,0.187,3.452,0.56,10.262-3.545
			s9.795-6.53,13.62-10.541c2.052-2.146,2.332-3.358,2.332-3.918c0-0.653-0.467-0.934-1.213-1.119c-0.373-0.093-0.467-0.28,0-0.56
			c0.467-0.28,2.426-1.213,2.893-1.586c0.466-0.373,2.705-1.865,2.798-4.291C70.377,36.712,70.189,35.033,69.536,32.888
			L69.536,32.888z"/>
		<path fill="#FFFFFF" d="M48.548,100.706c0.094-7.275,6.903-14.086,15.485-14.18c10.914-0.093,18.471,10.821,23.974,10.728
			c4.664-0.093,13.62-9.233,18.005-9.233c4.663,0,5.97,4.851,5.97,7.741c0,2.892-0.934,8.115-3.171,11.382
			c-2.239,3.265-3.639,4.478-6.25,4.291c-3.358-0.28-10.075-10.729-14.366-10.914c-5.41-0.188-17.164,11.287-26.399,11.287
			c-5.597,0-7.275-0.841-9.143-2.053C49.854,107.794,48.455,104.81,48.548,100.706L48.548,100.706z"/>
		<path fill="none" d="M104.705,60.407c1.865,5.69,0.094,10.821-1.119,13.993c-1.213,3.171-7.463,16.977-41.231,32.089
			c-6.25,2.799-7.557,4.011-14.646,4.104c-5.97,0.095-9.049-1.959-11.007-3.729l-0.926,0.032c7.55,12.836,21.815,21.05,37.119,21.05
			c22.481,0,41.979-16.325,41.979-41.046c0-13.575-5.514-23.07-10.979-29.184C104.082,58.426,104.344,59.308,104.705,60.407z"/>
	</g>
</g>
<g id="Layer_16" display="none">
	<rect x="0" y="0" display="inline" width="142.232" height="141.732"/>
</g>
<g id="Layer_12" display="none">
	<path display="inline" fill="#FFFFFF" d="M30.954,4.763L5.722,29.996L45.793,69.9l25.15-25.147l-3.856-3.855l-9.892,9.975
		l-3.856-3.855l9.976-9.893l-4.275-4.274l-7.209,7.294l-3.855-3.856l7.294-7.208l-4.275-4.278L41.1,34.775l-3.856-3.857l9.976-9.892
		l-4.275-4.275l-7.208,7.294l-3.857-3.856l7.294-7.211L30.954,4.763z M119.985,8.702c-3.344,0-6.67,1.309-9.223,3.857l-4.777,4.695
		l-47.03,47.028l-9.391,9.391L16.2,107.123c-0.533,0.355-0.916,0.892-1.091,1.508l-5.363,20.12
		c-0.372,1.437,0.492,2.898,1.926,3.271c0.44,0.114,0.903,0.114,1.345,0l20.12-5.363c0.449-0.145,0.854-0.405,1.174-0.755
		l0.167-0.085c0.125-0.128,0.236-0.27,0.334-0.42l89.7-89.617v-0.083l1.763-1.761c1.387-1.39,2.934-2.935,2.934-2.935
		c5.092-5.098,5.087-13.346,0-18.444C126.65,10.008,123.326,8.702,119.985,8.702z M119.985,14.068c2.054,0,3.998,0.812,5.448,2.264
		c2.998,3,3,7.897,0,10.897c-0.349,0.343-0.629,0.63-0.924,0.923l-10.896-10.898l0.923-0.923
		C115.994,14.877,117.927,14.068,119.985,14.068z M99.278,72.5l-7.209,7.209l-2.264-2.265L71.781,95.469l39.989,39.989
		l25.232-25.231l-5.534-5.534l-7.209,7.209l-3.855-3.771l7.294-7.294l-4.275-4.189l-9.893,9.893l-3.856-3.773l9.977-9.976
		l-4.275-4.192l-7.21,7.21l-3.855-3.771l7.295-7.294l-4.274-4.192l-9.893,9.893l-3.856-3.771l9.975-9.977L99.278,72.5z
		 M19.134,114.5l8.132,8.132l-11.148,3.018L19.134,114.5z"/>
</g>
<g id="Layer_13" display="none">
	<path display="inline" fill="#FFFFFF" d="M20.769,14.078c-8.228,0-15.001,6.773-15.001,15v80.001
		c0,8.228,6.773,15.001,15.001,15.001h99.998c8.227,0,15.001-6.773,15.001-15.001V29.078c0-8.227-6.774-15-15.001-15H20.769z
		 M20.769,34.078h45v25h-45V34.078z M25.768,39.078v15.001h5V39.078H25.768z M45.768,39.078v15.001h5V39.078H45.768z M88.267,39.078
		c4.002,0,7.501,3.5,7.501,7.5s-3.499,7.5-7.501,7.5c-3.999,0-7.5-3.5-7.5-7.5S84.268,39.078,88.267,39.078z M113.267,39.078
		c4.001,0,7.5,3.5,7.5,7.5s-3.499,7.5-7.5,7.5c-3.999,0-7.501-3.5-7.501-7.5S109.268,39.078,113.267,39.078z M55.767,44.079v10
		h5.002v-10H55.767z M35.769,49.078v5.001h4.997v-5.001H35.769z M15.767,74.078h15v29.999h9.999V74.078h5.002v29.999h9.999V74.078
		h5.002v29.999h9.999V74.078h15.001v29.999h9.999V74.078h5.002v29.999h9.998V74.078h15.001v35.001c0,2.772-2.229,4.999-5.002,4.999
		H20.769c-2.773,0-5.002-2.227-5.002-4.999V74.078z"/>
</g>
<g id="Layer_14" display="none">
	<path display="inline" fill="#FFFFFF" d="M20.261,14.232c-4.279,0-7.762,3.481-7.762,7.761v77.608c0,4.279,3.481,7.762,7.762,7.762
		H123.74c4.279,0,7.761-3.481,7.761-7.762V21.993c0-4.278-3.48-7.761-7.761-7.761H20.261z M25.435,27.167h93.131v67.261H25.435
		V27.167z M57.206,38.242L36.51,58.938l-1.778,1.858l1.778,1.859l20.696,20.695l3.719-3.72L42.088,60.797l18.836-18.836
		L57.206,38.242z M86.794,38.242l-3.719,3.719l18.837,18.836L83.075,79.633l3.719,3.72l20.696-20.695l1.778-1.859l-1.778-1.858
		L86.794,38.242z M59.065,109.95v10.348h25.869V109.95H59.065z M33.196,112.537c-0.768,0-1.531,0.303-2.021,0.889L18.24,128.948
		c-0.644,0.771-0.748,1.925-0.323,2.829c0.428,0.909,1.339,1.455,2.345,1.455H123.74c1.005,0,1.92-0.546,2.345-1.455
		c0.428-0.909,0.318-2.058-0.323-2.829l-12.936-15.522c-0.495-0.586-1.253-0.889-2.021-0.889H90.108v7.761v5.175h-5.174H59.065
		h-5.174v-5.175v-7.761H33.196z"/>
</g>
<g id="Layer_15" display="none">
	<path display="inline" fill="#FFFFFF" d="M104.807,13.995c-1,0.088-1.872,0.729-2.551,1.7l-27.907,38.96
		c-1.355,1.959-0.125,6.112,4.674,10.91c4.8,4.791,9.378,6.582,11.334,5.242L129.6,43.037c1.966-1.346,2.245-3.714,0.565-5.383
		l-22.383-22.526C106.941,14.287,105.808,13.906,104.807,13.995z M65.989,63.863c-0.394-0.025-0.797-0.033-1.275,0.142
		c-56.827,20.721-22.617,45.406-50.15,66.729c58.511,0,71.401-13.37,71.401-49.16c-1.103-2.355-6.464-3.488-11.615-8.5
		C69.836,68.685,68.751,64.049,65.989,63.863z"/>
</g>
<g id="az" display="none">
	
		<polygon display="inline" fill="none" stroke="#000000" stroke-width="2.5" stroke-linecap="round" stroke-linejoin="round" stroke-miterlimit="3.85" points="
		22.991,95.394 22.892,95.344 22.842,95.344 22.792,95.294 22.645,95.294 22.546,95.246 22.496,95.246 22.298,95.246 21.952,95.197 
		21.854,95.197 21.804,95.197 21.755,95.246 21.705,95.344 21.655,95.394 21.606,95.394 21.358,95.394 21.062,95.344 20.913,95.294 
		20.864,95.246 20.765,95.097 20.666,94.95 20.616,94.901 20.518,94.85 20.468,94.901 20.37,95.097 20.32,95.197 20.271,95.197 
		20.221,95.197 20.171,95.197 20.072,95.097 20.023,94.999 19.974,94.901 20.023,94.653 19.775,94.356 19.726,94.208 19.726,94.158 
		19.726,94.057 19.677,94.008 19.627,94.008 19.528,94.008 19.43,93.958 19.379,93.86 19.379,93.711 19.43,93.565 19.479,93.366 
		19.627,92.969 19.775,92.822 19.824,92.723 19.874,92.624 19.924,92.424 19.974,92.327 19.974,92.277 19.974,92.128 19.974,92.03 
		20.072,91.832 20.072,91.782 20.072,91.683 20.023,91.436 20.023,91.336 20.072,91.189 20.122,90.99 20.122,90.94 20.122,90.842 
		20.023,90.743 19.974,90.644 19.824,90.397 19.874,90.346 20.122,90.199 20.171,90.1 20.072,89.853 20.023,89.754 19.924,89.705 
		19.775,89.655 19.578,89.555 19.43,89.555 19.33,89.505 19.231,89.456 19.231,89.407 19.083,89.11 19.083,89.061 19.083,89.01 
		19.231,88.862 19.479,88.713 19.528,88.614 19.578,88.566 19.677,88.319 19.726,87.972 19.726,87.873 19.726,87.774 19.578,87.527 
		19.578,87.427 19.578,87.328 19.578,87.278 19.528,87.229 19.479,87.179 19.281,86.933 19.231,86.834 19.231,86.785 19.281,86.736 
		19.33,86.736 19.528,86.736 19.677,86.736 19.775,86.687 19.775,86.635 19.775,86.585 19.824,86.585 19.974,86.537 20.221,86.537 
		20.518,86.635 20.616,86.635 20.666,86.635 20.814,86.585 20.963,86.437 21.062,86.339 21.111,86.191 21.21,85.892 21.21,85.745 
		21.21,85.695 21.408,85.35 21.507,85.3 21.606,85.151 21.655,85.052 21.705,85.002 21.705,84.904 21.854,84.707 21.903,84.657 
		22.051,84.558 22.15,84.558 22.249,84.509 22.397,84.361 22.446,84.31 22.446,84.162 22.446,84.062 22.446,84.013 22.792,83.767 
		23.14,83.568 23.14,83.518 23.09,83.469 22.942,83.172 22.842,82.925 22.842,82.826 22.842,82.677 22.991,82.429 23.041,82.38 
		23.09,82.333 23.14,82.282 23.14,82.233 23.14,82.184 23.14,82.133 23.09,82.083 23.09,81.985 23.09,81.885 23.09,81.836 
		23.14,81.737 23.14,81.638 23.09,81.54 23.09,81.49 23.09,81.441 23.09,81.34 23.09,81.292 23.14,81.242 23.14,81.193 
		23.188,81.193 23.188,81.143 23.188,81.093 23.14,81.093 23.14,81.044 23.14,80.995 23.09,80.945 23.09,80.896 23.041,80.796 
		23.09,80.749 23.09,80.7 23.14,80.649 23.188,80.549 23.288,80.5 23.437,80.451 23.486,80.451 23.585,80.401 23.733,80.302 
		23.783,80.055 23.783,79.907 23.733,79.807 23.683,79.757 23.634,79.708 23.585,79.609 23.585,79.56 23.486,79.51 23.437,79.46 
		23.486,79.46 23.535,79.312 23.585,79.215 23.634,79.114 23.634,78.966 23.634,78.868 23.585,78.719 23.387,78.273 23.337,77.977 
		23.188,77.629 23.238,77.629 23.288,77.58 23.337,77.482 23.387,77.432 23.337,77.383 23.288,77.185 23.288,77.135 23.188,76.887 
		23.188,76.838 23.238,76.739 23.238,76.69 23.288,76.69 23.437,76.69 23.486,76.69 23.585,76.59 23.634,76.542 23.683,76.493 
		23.733,76.442 23.683,76.294 23.683,76.245 23.535,76.146 23.486,76.045 23.437,76.045 23.437,75.997 23.437,75.949 23.437,75.897 
		23.437,75.849 23.486,75.8 23.535,75.8 23.585,75.75 23.634,75.701 23.634,75.652 23.634,75.602 23.634,75.552 23.585,75.503 
		23.486,75.353 23.437,75.353 23.387,75.304 23.337,75.254 23.337,75.206 23.288,75.206 23.188,75.156 23.14,75.106 23.14,74.958 
		23.14,74.909 23.288,74.661 23.387,74.512 23.387,74.462 23.535,74.413 23.585,74.462 23.634,74.462 23.832,74.364 23.931,74.216 
		24.129,74.068 24.129,74.019 24.178,73.969 24.178,73.918 24.277,73.869 24.377,73.771 24.425,73.671 24.475,73.671 24.524,73.623 
		24.574,73.623 24.574,73.573 24.574,73.523 24.574,73.474 24.524,73.424 24.524,73.375 24.524,73.326 24.574,73.276 24.623,73.276 
		24.672,73.276 24.772,73.228 24.821,73.228 24.92,73.128 24.97,73.077 25.02,73.029 25.068,72.88 25.068,72.683 25.068,72.583 
		25.02,72.385 25.02,72.286 25.02,72.236 25.068,71.89 25.118,71.742 25.118,71.592 25.118,71.542 25.266,71.444 25.266,71.346 
		25.415,71.197 25.464,71.099 25.564,71.05 25.663,71 25.762,71 25.958,71.05 26.157,70.95 26.355,70.901 26.404,70.901 
		26.503,70.752 26.603,70.604 26.652,70.554 26.75,70.505 26.998,70.554 27.196,70.505 27.294,70.456 27.444,70.307 27.641,70.059 
		27.641,70.009 27.69,70.009 27.69,69.959 27.839,69.812 27.938,69.763 28.136,69.713 28.284,69.763 28.531,69.663 28.73,69.564 
		28.779,69.466 29.026,69.415 29.026,69.365 29.075,69.365 29.125,69.218 29.075,69.07 29.125,69.02 29.125,68.971 29.273,68.921 
		29.373,68.873 29.422,68.773 29.768,68.426 30.016,68.229 30.016,68.18 30.065,68.18 30.065,68.08 30.114,68.08 30.164,68.031 
		30.213,68.031 30.213,67.981 30.263,67.981 30.263,67.932 30.312,67.882 30.312,67.832 30.362,67.832 30.411,67.832 30.46,67.832 
		30.61,67.782 30.658,67.782 30.757,67.782 30.807,67.782 30.807,67.733 30.856,67.634 30.807,67.585 30.807,67.487 30.807,67.387 
		30.807,67.338 30.757,67.139 30.757,66.991 30.757,66.842 30.757,66.793 30.708,66.744 30.411,66.497 30.312,66.199 30.213,66.002 
		30.164,65.854 30.065,65.754 30.016,65.706 29.916,65.655 29.817,65.605 29.669,65.457 29.422,65.457 29.175,65.358 29.125,65.309 
		29.026,65.112 28.829,64.914 28.779,64.863 28.68,64.814 28.482,64.566 28.432,64.517 28.185,64.517 28.037,64.468 28.037,64.418 
		27.988,64.37 27.988,64.32 27.938,64.17 27.938,64.072 27.839,63.973 27.789,63.973 27.591,63.825 27.542,63.825 27.493,63.775 
		27.493,63.726 27.444,63.726 27.344,63.726 27.344,63.676 27.245,63.528 27.245,63.479 27.196,63.479 27.196,63.429 27.146,63.429 
		27.146,63.379 27.097,63.379 27.047,63.379 26.949,63.379 26.799,63.429 26.652,63.479 26.454,63.479 26.404,63.429 26.355,63.379 
		26.207,63.23 26.207,63.181 26.207,63.131 26.305,62.934 26.305,62.835 26.305,62.786 26.305,62.538 26.305,62.389 26.355,62.291 
		26.355,62.192 26.404,62.093 26.404,61.895 26.355,61.647 26.355,61.598 26.207,61.301 25.909,60.707 25.613,60.411 25.514,60.163 
		25.514,60.064 25.464,60.064 25.514,60.015 25.564,59.965 25.613,59.965 25.613,59.768 25.514,59.667 25.316,59.519 25.316,59.322 
		25.316,59.272 25.316,59.124 25.316,59.025 25.266,58.926 25.167,58.826 25.118,58.776 25.118,58.677 25.118,58.629 25.118,58.53 
		25.118,58.48 25.118,58.431 25.068,58.382 25.068,58.332 25.068,58.283 25.02,58.233 24.92,58.034 24.871,57.936 24.821,57.689 
		24.821,57.541 24.821,57.491 24.821,57.442 24.772,57.442 24.772,57.391 24.723,57.391 24.672,57.391 24.574,57.341 24.524,57.292 
		24.425,57.145 24.327,57.094 24.178,56.996 24.079,56.947 23.931,56.848 23.881,56.749 23.832,56.7 23.783,56.649 23.733,56.55 
		23.535,56.402 23.387,56.302 23.288,56.155 23.188,56.007 23.14,55.907 23.09,55.808 23.09,55.758 22.991,55.562 22.991,55.512 
		22.942,55.265 22.892,55.265 22.892,55.065 22.792,54.868 22.792,54.819 22.694,54.621 22.596,54.473 22.496,54.373 22.446,54.323 
		22.397,54.323 22.397,54.274 22.199,54.175 22.15,54.125 22.101,54.125 22.051,54.027 22.001,54.027 22.001,53.978 21.903,53.879 
		21.854,53.78 21.854,53.73 21.854,53.68 21.804,53.433 21.804,53.384 21.854,53.236 21.903,53.087 21.952,52.988 21.952,52.888 
		21.903,52.74 21.903,52.642 21.903,52.592 21.903,52.542 21.903,52.493 21.903,52.443 21.952,52.246 21.952,52.146 21.952,51.998 
		21.903,51.8 21.903,51.701 21.903,51.653 21.903,51.552 22.001,51.305 22.001,51.207 22.001,51.058 22.001,51.009 21.952,50.811 
		21.952,50.712 21.952,50.662 21.952,50.513 21.952,50.316 22.001,50.118 22.101,49.87 22.249,49.722 22.298,49.672 22.496,49.574 
		22.546,49.425 22.546,49.376 22.546,49.327 22.546,49.228 22.496,49.228 22.496,49.177 22.446,49.128 22.397,49.029 22.348,49.029 
		22.298,48.979 22.199,48.881 22.001,48.782 21.952,48.782 21.854,48.683 21.804,48.683 21.755,48.584 21.804,48.486 21.854,48.437 
		21.903,48.385 22.001,48.287 22.051,48.237 22.101,48.237 22.101,48.188 22.15,48.188 22.199,48.188 22.249,48.139 22.298,48.139 
		22.397,48.139 22.546,48.139 22.645,48.188 22.842,48.089 22.991,48.04 23.041,47.99 23.14,47.792 23.238,47.248 23.238,47.1 
		23.238,47.05 23.238,46.753 23.238,46.704 23.238,46.555 23.188,46.407 23.14,46.259 23.041,46.158 22.991,45.714 23.041,45.517 
		22.942,44.972 22.792,44.18 22.792,43.833 22.842,43.586 22.694,42.943 22.596,42.547 22.446,42.052 22.298,41.656 21.854,41.211 
		21.854,41.162 21.854,41.113 21.705,40.864 21.705,40.814 21.655,40.716 21.655,40.617 21.606,40.37 21.606,40.321 21.507,39.974 
		21.408,39.825 21.408,39.628 21.408,39.579 21.408,39.529 21.457,39.281 21.507,39.182 21.606,39.083 21.705,39.034 21.804,38.885 
		21.854,38.836 21.854,38.787 21.804,38.687 21.755,38.539 21.755,38.144 21.705,37.846 21.705,37.796 21.804,37.599 21.903,37.401 
		21.952,37.104 21.854,36.906 21.556,36.411 21.309,36.164 21.309,35.966 21.309,35.867 21.358,35.769 21.457,35.57 21.507,35.421 
		21.507,35.372 21.457,35.323 21.26,35.174 21.111,35.026 21.062,34.876 21.062,34.778 21.21,34.284 21.26,34.036 21.26,33.789 
		21.161,33.493 21.21,33.047 21.012,32.65 21.062,32.551 21.161,32.453 21.26,32.255 21.309,32.106 21.309,32.058 21.26,31.809 
		21.26,31.71 21.309,31.612 21.309,31.562 21.408,31.513 21.606,31.364 21.655,31.266 21.655,31.215 21.655,31.116 21.655,31.017 
		21.606,30.87 21.457,30.721 21.26,30.523 21.111,30.275 21.161,30.078 21.161,29.929 21.012,29.781 20.765,29.583 20.715,29.533 
		20.765,29.434 20.814,29.286 20.765,29.138 20.715,28.99 20.566,28.84 20.518,28.593 20.566,28.147 20.566,28.048 20.616,27.999 
		20.616,27.95 20.666,27.9 20.765,27.801 20.814,27.653 20.814,27.555 20.715,27.454 20.666,27.405 20.616,27.405 20.616,27.355 
		20.616,27.306 20.616,27.158 20.715,27.059 20.715,26.961 20.715,26.911 20.616,26.663 20.518,26.613 20.468,26.515 20.419,26.465 
		20.37,26.416 20.37,26.317 20.419,26.218 20.566,26.07 20.765,25.92 21.111,25.871 21.21,25.871 21.358,25.822 21.606,25.772 
		21.903,25.723 21.952,25.674 22.051,25.674 22.101,25.624 22.15,25.525 22.348,25.377 22.694,25.129 22.744,25.129 22.842,25.377 
		22.942,25.426 23.09,25.328 23.337,25.129 23.683,24.98 23.783,24.931 23.98,24.931 24.079,24.931 24.277,24.931 24.377,24.931 
		24.821,24.98 24.871,24.98 24.97,25.03 25.02,25.129 25.02,25.177 25.02,25.229 24.97,25.278 24.97,25.377 24.97,25.426 
		25.02,25.476 25.068,25.476 25.118,25.525 25.167,25.525 25.316,25.476 25.613,25.278 25.762,25.278 25.86,25.278 25.958,25.476 
		26.008,25.575 26.058,25.575 26.404,25.377 26.603,25.129 26.701,25.129 26.799,25.129 27.344,25.229 27.444,25.229 27.591,25.525 
		27.641,25.575 28.037,26.021 28.136,26.07 28.185,26.119 28.581,26.613 28.63,26.812 28.581,26.862 28.432,26.961 28.432,27.059 
		28.432,27.158 29.075,27.454 29.224,27.703 29.273,27.851 29.373,27.9 29.571,28.048 29.571,28.098 29.768,28.147 29.817,28.198 
		29.867,28.198 29.916,28.198 30.263,28.198 30.658,28.048 30.956,27.9 31.153,27.9 31.203,27.95 31.352,27.999 31.4,27.999 
		31.45,27.9 31.599,27.703 31.647,27.604 31.697,27.505 31.647,27.355 31.697,27.208 31.846,26.911 32.093,26.416 32.143,26.366 
		32.044,26.267 31.945,26.218 31.945,26.168 31.945,26.07 31.995,25.972 32.191,25.871 32.341,25.871 32.39,25.822 32.588,25.328 
		32.885,24.783 33.033,24.536 33.132,24.337 33.429,24.238 33.429,24.14 33.429,23.052 33.429,22.951 33.429,22.556 33.429,22.061 
		33.478,21.467 33.478,21.27 33.528,19.785 33.528,18.598 33.528,18.499 33.528,18.054 33.528,17.905 33.528,17.312 33.578,14.589 
		33.578,14.49 33.578,13.847 33.578,13.797 33.578,13.204 33.627,10.582 33.627,10.532 33.627,10.384 33.627,10.135 33.677,9.592 
		33.726,7.018 33.726,6.029 35.259,6.079 36.15,6.079 40.008,6.177 41.492,6.177 41.838,6.227 42.383,6.227 43.767,6.227 
		44.411,6.227 44.659,6.276 45.399,6.276 47.182,6.276 47.775,6.276 50.545,6.326 51.287,6.326 52.424,6.375 52.573,6.375 
		53.365,6.375 53.563,6.375 54.057,6.375 54.551,6.375 55.245,6.375 55.838,6.375 57.717,6.424 59.795,6.424 60.687,6.424 
		60.933,6.424 60.983,6.424 61.032,6.424 61.131,6.424 61.23,6.424 62.071,6.424 62.467,6.424 63.159,6.424 64.051,6.424 
		64.149,6.424 64.347,6.424 66.673,6.424 68.799,6.424 70.234,6.424 73.251,6.424 75.973,6.424 76.615,6.424 77.307,6.424 
		77.405,6.424 78.544,6.424 81.412,6.424 81.462,6.424 81.562,6.424 81.61,6.424 81.661,6.424 81.709,6.424 81.76,6.424 
		81.809,6.424 82.303,6.424 82.451,6.424 83.193,6.424 83.49,6.424 83.541,6.424 83.887,6.424 84.282,6.424 84.332,6.424 
		84.479,6.424 84.627,6.424 86.31,6.424 86.36,6.424 86.459,6.424 87.201,6.375 87.694,6.375 87.794,6.375 93.386,6.276 
		94.274,6.276 95.659,6.227 95.759,6.227 96.056,6.227 96.153,6.227 96.749,6.227 97.045,6.227 97.391,6.227 97.737,6.177 
		97.937,6.177 98.034,6.177 98.085,6.227 98.479,6.326 98.529,6.326 99.073,6.326 99.371,6.326 99.716,6.326 100.062,6.276 
		100.705,6.276 101.002,6.276 101.35,6.276 101.992,6.276 103.773,6.227 104.02,6.227 104.317,6.227 104.959,6.177 105.256,6.177 
		105.603,6.177 105.852,6.177 105.9,6.177 105.949,6.177 106.593,6.177 106.939,6.177 108.176,6.128 108.967,6.128 109.215,6.128 
		110.897,6.079 110.995,6.079 112.232,6.029 112.429,6.029 113.767,6.029 113.964,6.029 114.062,6.029 116.09,5.931 116.536,5.931 
		118.119,5.881 118.169,5.881 118.218,5.881 118.515,5.881 118.612,5.881 118.909,5.881 119.257,5.832 120.195,5.832 120.295,5.832 
		120.591,5.832 120.84,5.832 121.779,5.782 124.252,5.731 124.252,6.375 124.252,6.624 124.303,8.009 124.303,8.503 124.303,8.602 
		124.303,8.701 124.353,8.899 124.353,9.74 124.401,10.779 124.401,10.878 124.451,12.412 124.451,12.907 124.5,14.391 
		124.55,16.372 124.55,16.964 124.6,17.558 124.6,18.697 124.648,19.687 124.648,20.28 124.698,21.121 124.698,21.913 
		124.746,22.408 124.796,24.14 124.796,24.783 124.796,25.08 124.848,25.624 124.895,28.198 124.895,28.84 124.945,29.929 
		124.945,30.275 124.945,30.672 124.994,30.771 124.994,30.82 124.994,30.968 124.994,32.058 124.994,32.106 124.994,32.255 
		125.045,32.601 125.045,33.293 125.045,33.739 125.092,34.432 125.092,34.828 125.092,35.125 125.092,35.867 125.092,35.917 
		125.143,36.361 125.143,36.906 125.143,36.956 125.143,37.054 125.143,37.253 125.143,37.352 125.143,37.698 125.191,37.996 
		125.191,38.192 125.191,38.341 125.191,38.489 125.191,38.687 125.191,38.737 125.191,39.33 125.242,39.677 125.242,39.974 
		125.242,40.321 125.242,40.617 125.242,40.914 125.242,41.211 125.242,41.26 125.291,41.606 125.291,41.805 125.291,42.25 
		125.291,42.349 125.291,42.499 125.291,42.597 125.291,42.646 125.342,43.14 125.342,43.19 125.342,43.339 125.342,43.438 
		125.342,43.635 125.342,43.882 125.342,44.23 125.391,44.526 125.391,44.873 125.391,45.169 125.391,45.517 125.391,45.862 
		125.391,45.961 125.439,46.158 125.439,46.506 125.439,46.852 125.439,47.05 125.539,50.365 125.588,51.701 125.638,52.939 
		125.638,53.73 125.638,53.978 125.688,54.671 125.688,54.967 125.688,55.314 125.688,55.66 125.688,55.958 125.835,60.262 
		125.835,61.548 125.887,62.538 126.084,69.564 126.132,72.335 126.183,73.326 126.232,74.364 126.281,76.146 126.331,78.323 
		126.331,78.372 126.331,79.215 126.379,80.597 126.379,80.7 126.429,81.787 126.429,81.985 126.429,82.875 126.429,83.172 
		126.527,85.4 126.527,85.499 126.527,85.646 126.527,85.745 126.527,85.944 126.527,86.635 126.577,87.427 126.577,87.477 
		126.577,87.577 126.577,87.625 126.577,87.675 126.628,90.247 126.676,91.189 126.727,92.772 126.727,93.465 126.727,93.81 
		126.727,94.306 126.727,94.356 126.873,98.166 126.924,99.75 126.924,100.888 126.924,101.134 126.973,102.817 126.973,102.867 
		126.973,102.963 126.973,103.063 127.023,103.855 127.121,108.804 127.32,115.138 127.32,116.424 127.32,116.523 127.32,116.821 
		127.369,117.809 127.369,118.106 127.418,120.234 127.469,121.323 127.469,121.571 127.469,121.967 127.469,122.708 
		127.469,123.005 127.568,126.619 127.667,129.686 127.667,129.736 127.667,130.132 127.766,133.495 123.312,133.545 
		122.917,133.545 122.471,133.594 119.157,133.643 118.96,133.643 118.811,133.643 118.515,133.643 118.466,133.643 
		118.317,133.694 118.267,133.694 118.169,133.694 118.068,133.694 117.87,133.694 117.823,133.694 117.772,133.694 
		117.723,133.694 117.524,133.694 116.783,133.694 113.369,133.792 112.677,133.792 111.936,133.792 110.995,133.842 
		110.203,133.842 109.361,133.842 109.314,133.842 106.74,133.892 106.641,133.892 105.404,133.892 100.457,133.991 97.342,134.04 
		95.412,134.04 94.671,134.04 94.324,134.04 93.978,134.09 93.583,134.09 92.938,134.09 92.149,134.09 91.703,134.09 
		91.157,134.139 91.108,134.139 90.712,134.139 90.467,134.139 90.021,134.139 88.586,134.139 87.598,133.792 82.945,132.061 
		79.187,130.674 78,130.229 71.123,127.707 65.978,125.826 63.704,124.986 63.605,124.936 63.506,124.936 63.257,124.837 
		63.209,124.787 63.011,124.737 60.587,123.844 59.053,123.252 54.453,121.571 54.057,121.422 49.11,119.641 47.379,118.949 
		45.153,118.106 42.085,116.919 37.188,115.039 36.596,114.841 31.599,112.912 27.69,111.376 22.942,109.546 21.755,109.1 
		20.37,108.557 18.835,107.962 18.144,107.716 17.599,107.517 17.005,107.27 17.005,107.221 17.055,107.171 17.005,107.073 
		17.005,107.023 17.055,106.973 17.104,106.973 17.154,106.973 17.154,106.924 17.203,106.875 17.203,106.825 17.203,106.774 
		17.104,106.676 17.055,106.626 17.104,106.528 17.154,106.427 17.253,106.33 17.253,106.282 17.203,106.232 17.203,106.132 
		17.203,106.083 17.253,106.083 17.401,106.033 17.401,105.984 17.45,105.984 17.45,105.934 17.45,105.884 17.45,105.835 
		17.45,105.786 17.401,105.737 17.352,105.687 17.253,105.737 17.154,105.737 17.104,105.687 17.104,105.637 17.154,105.588 
		17.253,105.489 17.302,105.44 17.302,105.391 17.253,105.339 17.253,105.29 17.253,105.241 17.302,105.192 17.352,105.092 
		17.352,105.043 17.302,104.944 17.302,104.895 17.203,104.895 17.203,104.844 17.154,104.697 17.154,104.5 17.203,104.4 
		17.352,104.351 17.401,104.351 17.45,104.4 17.5,104.4 17.698,104.351 17.698,104.251 17.698,104.203 17.748,104.153 
		17.846,104.104 17.995,104.004 18.044,103.956 18.044,103.906 18.044,103.855 18.044,103.807 18.144,103.658 18.242,103.608 
		18.39,103.459 18.39,103.411 18.39,103.361 18.439,103.311 18.439,103.163 18.737,102.718 18.737,102.668 18.737,102.57 
		18.885,102.371 18.934,102.272 18.985,102.222 19.033,102.074 19.033,102.025 19.231,101.778 19.281,101.677 19.33,101.677 
		19.528,101.876 19.627,101.876 19.726,101.876 19.775,101.876 19.924,101.926 19.974,101.926 20.122,101.975 20.32,101.975 
		20.37,101.975 20.419,102.025 20.468,102.025 20.616,102.025 20.765,102.074 20.864,102.124 20.913,102.074 20.963,101.975 
		21.556,101.975 21.556,101.778 21.903,101.827 21.903,101.629 22.15,101.629 22.397,101.629 22.397,101.48 22.645,101.48 
		22.596,101.283 22.546,101.085 22.546,101.037 22.546,100.937 22.546,100.738 22.596,100.689 22.596,100.589 22.744,100.491 
		22.792,100.441 22.792,100.392 22.892,100.293 22.892,100.244 22.991,100.145 23.14,100.094 23.238,100.044 23.288,99.996 
		23.387,99.946 23.535,99.798 23.634,99.7 23.783,99.552 23.881,98.859 23.881,98.759 23.881,98.71 23.931,98.265 23.931,98.215 
		23.931,98.117 23.931,98.017 23.733,97.82 23.683,97.769 23.634,97.67 23.585,97.522 23.634,97.472 23.634,97.375 23.733,97.275 
		23.783,97.175 23.783,97.076 23.783,97.027 23.783,96.977 23.783,96.927 23.783,96.878 23.783,96.83 23.733,96.73 23.683,96.682 
		23.634,96.682 23.486,96.73 23.437,96.73 23.387,96.682 23.387,96.63 23.337,96.484 23.337,96.235 23.288,95.939 23.238,95.839 
		23.238,95.791 23.188,95.742 23.188,95.691 23.188,95.642 23.14,95.642 23.09,95.493 22.991,95.443 	"/>
</g>
<g>
	
		<polygon fill="none" stroke="#231F20" stroke-width="2.5" stroke-linecap="round" stroke-linejoin="round" stroke-miterlimit="3.85" points="
		4.364,80.998 4.456,78.6 4.594,75.695 4.686,73.851 4.686,73.76 4.825,71.963 4.87,71.224 4.917,70.302 4.963,68.92 5.01,68.459 
		5.01,68.366 5.101,66.292 5.101,66.108 5.101,65.877 5.378,60.068 5.424,57.764 5.47,56.888 5.654,52.969 5.701,50.895 
		5.839,47.761 6.023,43.289 6.115,40.569 6.115,40.385 6.115,40.339 6.162,39.371 6.392,33.978 6.438,32.779 6.438,32.64 
		6.484,31.672 6.576,29.737 6.622,28.907 6.669,27.432 6.76,24.758 6.899,21.531 6.899,20.517 9.941,20.656 11.738,20.701 
		14.596,20.84 16.531,20.886 16.992,20.886 20.68,21.024 20.91,21.024 21.555,21.07 22.846,21.07 24.552,21.117 25.335,21.117 
		27.593,21.162 27.686,21.162 31.834,21.301 33.032,21.301 33.585,21.301 34,21.347 34.968,21.347 37.78,21.393 38.701,21.393 
		38.931,21.393 38.978,21.393 40.084,21.439 41.882,21.485 42.388,21.485 44.508,21.485 47.136,21.578 47.92,21.578 54.556,21.67 
		54.786,21.67 54.832,21.67 54.971,21.67 55.662,21.715 55.755,21.715 56.953,21.762 58.888,21.807 59.303,21.807 59.349,21.807 
		61.747,21.854 67.185,21.9 67.784,21.9 67.922,21.9 69.351,21.9 71.056,21.9 73.637,21.854 76.128,21.854 76.495,21.854 
		76.542,21.854 78.015,21.854 82.257,21.807 82.349,21.807 83.87,21.807 84.33,21.807 85.391,21.762 87.141,21.715 87.927,21.715 
		88.571,21.715 90.414,21.67 90.968,21.67 92.489,21.67 92.764,21.67 95.623,21.623 95.669,21.623 96.222,21.623 97.281,21.578 
		97.649,21.578 97.972,21.578 98.342,21.578 98.573,21.578 98.849,21.578 99.127,21.531 99.218,21.531 99.356,21.531 
		100.049,21.531 100.094,21.531 100.416,21.531 101.292,21.531 101.475,21.531 101.799,21.531 102.167,21.485 103.873,21.439 
		104.148,21.439 107.376,21.393 108.067,21.393 108.759,21.393 108.989,21.347 110.14,21.347 110.601,21.301 110.879,21.301 
		111.201,21.301 111.247,21.301 112.261,21.301 116.456,21.162 116.502,21.162 116.778,21.162 116.825,21.162 117.101,21.162 
		117.194,21.162 117.839,21.117 117.884,21.117 118.207,21.117 118.253,21.117 118.575,21.117 118.621,21.117 118.898,21.117 
		118.945,21.117 119.266,21.07 119.591,21.07 119.635,21.07 119.959,21.07 120.005,21.07 120.327,21.07 120.372,21.07 
		120.649,21.07 120.696,21.07 121.018,21.024 121.064,21.024 122.033,21.024 122.171,21.024 122.401,20.978 122.678,20.978 
		122.723,20.978 124.246,20.932 124.844,20.932 125.627,20.886 125.673,20.886 125.858,20.886 126.042,20.886 126.733,20.84 
		127.286,20.84 127.609,20.84 127.794,20.84 129.131,20.794 129.268,20.794 129.546,20.748 130.883,20.701 131.113,20.701 
		131.25,20.701 131.297,20.701 131.481,20.701 131.988,20.701 132.356,20.656 132.403,20.656 132.725,20.656 133.924,20.609 
		134.937,20.564 135.26,20.564 135.538,26.694 135.582,27.938 135.675,30.705 135.721,31.811 135.721,32.226 135.814,34.162 
		135.814,35.223 135.86,35.315 135.86,36.098 135.86,36.329 135.905,36.374 135.905,36.605 135.999,39.094 135.999,39.28 
		136.044,40.892 136.044,41.215 136.135,43.244 136.183,44.719 136.228,45.318 136.319,48.452 136.367,48.591 136.367,48.821 
		136.367,49.19 136.46,51.034 136.504,52.647 136.551,53.2 136.551,53.385 136.551,53.846 136.596,54.675 136.643,55.091 
		136.643,55.275 136.643,55.966 136.643,56.011 136.688,56.75 136.781,58.732 136.781,58.87 136.781,59.24 136.827,59.469 
		136.827,59.976 136.921,61.682 137.011,63.665 137.057,65.693 137.105,65.785 137.105,65.831 137.149,67.859 137.425,73.483 
		137.425,73.851 137.425,74.221 137.472,74.543 137.472,74.913 137.518,76.296 137.518,76.527 137.518,76.57 137.518,76.847 
		137.565,76.847 137.565,76.988 137.61,78.278 137.61,79.106 137.657,79.66 137.657,80.028 137.703,80.49 137.703,80.951 
		137.749,82.194 137.796,83.026 137.796,83.117 137.796,83.855 137.886,85.605 137.933,86.668 137.933,86.805 137.933,87.13 
		138.026,88.927 138.071,89.756 138.071,89.939 138.071,90.079 138.071,90.124 138.071,90.171 138.071,90.263 138.071,90.447 
		138.117,91.968 138.117,92.015 138.117,92.061 138.117,92.151 138.164,92.429 138.256,94.919 138.256,94.965 138.256,95.243 
		138.302,96.348 138.348,97.409 138.394,97.915 138.394,98.283 138.44,98.974 138.486,99.482 138.486,99.85 138.532,100.912 
		138.532,101.234 138.532,101.51 138.579,101.789 138.579,102.664 138.625,103.356 138.625,103.86 138.625,104.278 138.672,104.414 
		138.672,105.106 138.717,105.982 138.762,106.811 138.762,106.857 138.762,107.458 138.808,107.918 138.808,108.288 
		138.808,108.84 138.855,109.855 138.855,110.132 138.902,111.098 138.993,113.911 139.039,114.278 139.039,114.325 
		139.039,114.649 139.039,114.787 139.133,116.493 139.133,116.538 139.133,116.585 139.133,116.768 139.133,117.507 
		138.902,117.507 136.413,117.599 135.905,117.644 135.076,117.644 134.892,117.644 134.706,117.644 134.015,117.691 
		133.048,117.691 129.775,117.83 126.412,117.921 125.583,117.875 125.213,117.83 124.844,117.875 124.291,117.875 124.152,117.83 
		123.645,117.875 120.971,117.968 120.834,117.968 120.787,118.014 120.511,117.968 118.898,118.014 118.529,118.014 
		118.344,118.014 117.514,118.06 116.686,118.06 115.441,118.104 114.197,118.151 112.307,118.198 110.832,118.245 106.314,118.335 
		101.015,118.474 96.961,118.566 96.268,118.613 95.393,118.613 95.162,118.613 94.562,118.658 94.287,118.658 94.24,118.658 
		94.056,118.658 93.411,118.658 93.134,118.658 92.811,118.658 91.889,118.658 91.844,118.658 91.384,118.658 91.059,118.658 
		89.032,118.706 88.615,118.706 87.465,118.706 86.958,118.706 84.838,118.751 81.748,118.751 81.15,118.797 79.398,118.706 
		79.076,118.706 78.708,118.751 77.463,118.751 76.863,118.751 73.592,118.751 73.223,118.706 73.131,118.706 73.039,118.706 
		72.716,118.706 72.578,118.706 71.841,118.751 71.794,118.751 71.609,118.751 71.38,118.751 69.536,118.751 68.844,118.706 
		67.83,118.706 67.784,118.706 62.392,118.706 62.207,118.706 60.41,118.706 59.165,118.706 58.427,118.706 57.506,118.706 
		56.631,118.706 56.031,118.706 55.708,118.706 55.662,118.706 54.325,118.706 53.081,118.658 52.62,118.658 50.362,118.658 
		50.131,118.658 49.487,118.658 49.21,118.658 47.735,118.658 47.136,118.658 45.43,118.613 45.292,118.428 44.508,118.428 
		43.771,118.382 43.219,118.382 42.204,118.382 40.821,118.335 39.07,118.335 37.964,118.289 34.737,118.245 34.323,118.245 
		33.585,118.198 32.756,118.198 32.709,118.198 31.235,118.151 31.188,118.151 29.069,118.104 27.778,118.06 26.303,118.06 
		26.118,118.014 26.026,118.014 25.197,118.014 23.814,117.968 23.491,117.968 22.846,117.968 22.57,117.921 20.035,117.875 
		19.897,117.875 18.652,117.83 17.915,117.83 17.269,117.783 16.163,117.736 14.596,117.691 13.121,117.644 11.462,117.599 
		10.955,117.599 8.973,117.507 5.01,117.369 4.917,117.369 3.995,117.323 3.212,117.323 3.258,116.814 3.258,116.724 3.303,115.525 
		3.303,115.479 3.303,115.201 3.303,114.97 3.349,114.649 3.349,114.557 3.396,112.989 3.396,112.391 3.396,112.344 3.443,112.205 
		3.443,111.469 3.443,111.237 3.534,109.532 3.534,109.393 3.58,108.564 3.58,108.194 3.719,105.935 3.719,105.752 3.719,105.567 
		3.719,105.522 3.765,105.2 3.811,104.462 3.857,102.664 3.857,102.341 3.857,102.202 3.903,101.187 3.948,100.081 3.948,100.034 
		3.995,99.389 3.995,99.299 3.995,99.159 3.995,99.068 4.041,98.654 4.041,97.963 4.087,97.085 4.087,96.947 4.133,96.165 
		4.133,95.978 4.179,95.333 4.179,93.719 4.226,93.167 4.226,93.121 4.318,90.447 4.364,89.939 4.364,89.387 4.409,89.111 
		4.226,87.174 4.133,86.437 4.272,83.117 	"/>
</g>
</svg>
