<?xml version="1.0" encoding="utf-8"?>
<!-- Generator: Adobe Illustrator 15.0.0, SVG Export Plug-In  -->
<!DOCTYPE svg PUBLIC "-//W3C//DTD SVG 1.1//EN" "http://www.w3.org/Graphics/SVG/1.1/DTD/svg11.dtd" [
	<!ENTITY ns_flows "http://ns.adobe.com/Flows/1.0/">
]>
<svg version="1.1"
	 xmlns="http://www.w3.org/2000/svg" xmlns:xlink="http://www.w3.org/1999/xlink" xmlns:a="http://ns.adobe.com/AdobeSVGViewerExtensions/3.0/"
	 x="0px" y="0px" width="50px" height="50px" viewBox="-0.156 0 50 50" overflow="visible" enable-background="new -0.156 0 50 50"
	 xml:space="preserve">
<defs>
</defs>
<path fill="#FFFFFF" d="M24.922,0C11.158,0,0,11.158,0,24.922c0,13.765,11.158,24.922,24.922,24.922
	c13.763,0,24.922-11.157,24.922-24.922C49.842,11.158,38.685,0,24.922,0L24.922,0z M24.922,45.171
	c-11.184,0-20.249-9.065-20.249-20.249c0-11.184,9.065-20.248,20.249-20.248c11.183,0,20.249,9.063,20.249,20.248
	C45.171,36.105,36.104,45.171,24.922,45.171L24.922,45.171z M34.297,21.807h-6.262v-6.231c0-0.859-0.698-1.557-1.558-1.557h-3.115
	c-0.861,0-1.557,0.698-1.557,1.557v6.231h-6.228c-0.863,0-1.561,0.697-1.561,1.557v3.117c0,0.86,0.698,1.556,1.561,1.556h6.229
	v6.217c0,0.859,0.696,1.557,1.557,1.557h3.115c0.859,0,1.558-0.697,1.558-1.557v-6.217h6.262c0.862,0,1.561-0.695,1.561-1.556
	v-3.117C35.858,22.505,35.159,21.807,34.297,21.807L34.297,21.807z M34.297,21.807"/>
</svg>
