<?xml version="1.0" encoding="utf-8"?>
<!-- Generator: Adobe Illustrator 15.0.0, SVG Export Plug-In  -->
<!DOCTYPE svg PUBLIC "-//W3C//DTD SVG 1.1//EN" "http://www.w3.org/Graphics/SVG/1.1/DTD/svg11.dtd" [
	<!ENTITY ns_flows "http://ns.adobe.com/Flows/1.0/">
]>
<svg version="1.1"
	 xmlns="http://www.w3.org/2000/svg" xmlns:xlink="http://www.w3.org/1999/xlink" xmlns:a="http://ns.adobe.com/AdobeSVGViewerExtensions/3.0/"
	 x="0px" y="0px" width="100px" height="50px" viewBox="-5.141 -9.917 100 50"
	 overflow="visible" enable-background="new -5.141 -9.917 100 50" xml:space="preserve">
<defs>
</defs>
<g>
	<g>
		<path d="M15.619,2.067c-0.837,3.711-1.374,7.481-2.394,11.151c-0.208,0.75,0.829,1.517,1.092,0.57
			c1.02-3.67,1.556-7.44,2.394-11.151C16.88,1.884,15.835,1.108,15.619,2.067L15.619,2.067z"/>
	</g>
</g>
<g>
	<g>
		<path d="M11.308,2.94c1.822-0.386,3.613-0.883,5.436-1.266c6.152-1.289,4.571,4.026,0.832,5.234
			c-0.622,0.201-0.808,1.366,0.039,1.267c3.508-0.412,6.689,0.424,9.411,2.705c5.699,4.775-0.259,10.678-5.2,12.2
			c-7.479,2.305-15.403-0.348-20.668-5.874c-0.514-0.539-1.533,0.561-1.012,1.107c6.342,6.657,19.56,10.257,27.229,3.31
			c8.083-7.322-1.152-15.763-9.631-14.768c0.013,0.422,0.026,0.844,0.039,1.267c2.479-0.8,6.284-2.879,5.447-6.019
			c-1.079-4.047-9.688-0.928-11.791-0.482C10.732,1.77,10.393,3.134,11.308,2.94L11.308,2.94z"/>
	</g>
</g>
<g>
	<g>
		<path d="M27.356,16.232c-0.205,0.165,4.017-1.872,4.125-0.135c0.022,0.361,0.58,0.474,0.849,0.397
			c4.262-1.197,9.807-4.21,10.924,2.125c0.625,3.546-0.884,7.562-2.399,10.682c-1.013,2.087-4.218,7.162-7.593,3.158
			c-2.893-3.433-0.35-8.112,1.901-10.967c3.94-4.994,10.347-4.779,15.867-6.639c0.936-0.315,0.182-1.249-0.611-0.981
			c-7.308,2.462-17.235,2.786-19.446,12.208c-1.289,5.496,3.419,12.637,8.772,7.123c3.569-3.676,5.44-9.854,4.978-14.89
			c-0.198-2.152-1.397-3.831-3.319-4.735c-0.873-0.41-1.897-0.412-2.838-0.433c-0.756-0.017-5.675,1.686-5.68,1.61
			c-0.018-0.282-0.417-0.434-0.649-0.419c-2.354,0.147-3.904-0.446-5.818,1.098C25.654,16.052,26.749,16.723,27.356,16.232
			L27.356,16.232z"/>
	</g>
</g>
<g>
	<g>
		<path d="M62.114,16.502c1.783-1.641,1.922-0.1,3.759,0.522c0.457,0.155,2.613-0.104,2.604-0.798
			c0.004,0.257,0.178,0.532,0.47,0.508c2.967-0.256,7.442-1.282,7.514-5.115c0.079-4.254-2.377-5.064-4.688-1.495
			c-0.774,1.197-1.818,7.898,1.22,6.696c1.73-0.685,4.75-4.256,6.692-2.283c2.361,2.399,5.064,1.112,8.018,0.448
			c0.709-0.16,0.93-1.532,0.014-1.326c-3.143,0.707-5.088,0.216-8.001-1.142c-0.881-0.41-1.565-0.489-2.449,0.045
			c-0.999,0.604-1.893,1.321-2.804,2.051c-0.794-0.516-1.588-1.032-2.381-1.548c1.195-4.563,1.668-4.129,1.419,1.302
			c-0.154,0.106-3.745,1.625-3.758,0.662c-0.009-0.585-0.581-0.575-0.948-0.31c-1.444-0.333-2.89-0.666-4.335-0.999
			c-0.183-0.341-0.641-0.188-0.868-0.005c-0.738,0.557-1.437,1.161-2.096,1.81C60.872,16.1,61.388,17.171,62.114,16.502
			L62.114,16.502z"/>
	</g>
</g>
<g>
	<g>
		<path d="M60.579,2.456c-2.784-2.768-6.48-3.332-9.717-0.993c-3.486,2.521-4.253,8.417-4.467,12.327
			c-0.228,4.174,1.249,8.852,5.534,10.404c3.459,1.253,7.927-2.42,11.049-3.354c0.747-0.225,0.819-1.508-0.121-1.227
			c-2.397,0.718-4.534,1.909-6.819,2.899c-4.012,1.738-7.186-1.663-8.065-5.397c-0.809-3.431-0.009-7.354,1.043-10.646
			c1.618-5.068,6.604-6.83,10.476-2.98C60.026,4.02,61.11,2.984,60.579,2.456L60.579,2.456z"/>
	</g>
</g>
</svg>
