<?xml version="1.0" encoding="utf-8"?>
<!-- Generator: Adobe Illustrator 15.0.0, SVG Export Plug-In  -->
<!DOCTYPE svg PUBLIC "-//W3C//DTD SVG 1.1//EN" "http://www.w3.org/Graphics/SVG/1.1/DTD/svg11.dtd" [
	<!ENTITY ns_flows "http://ns.adobe.com/Flows/1.0/">
]>
<svg version="1.1"
	 xmlns="http://www.w3.org/2000/svg" xmlns:xlink="http://www.w3.org/1999/xlink" xmlns:a="http://ns.adobe.com/AdobeSVGViewerExtensions/3.0/"
	 x="0px" y="0px" width="400px" height="130px" viewBox="-3.049 -11.299 400 130"
	 overflow="visible" enable-background="new -3.049 -11.299 400 130" xml:space="preserve">
<defs>
</defs>
<polygon fill="none" stroke="#010101" stroke-width="2.5" stroke-linecap="round" stroke-linejoin="round" stroke-miterlimit="3.85" points="
	136.21,78.694 136.247,78.585 136.466,78.04 136.466,78.003 136.537,77.856 136.902,76.51 136.974,76.183 136.974,76.111 
	136.974,76 136.974,75.962 136.974,75.747 136.974,75.672 136.974,75.636 137.047,75.563 137.084,75.527 137.119,75.457 
	137.192,75.237 137.483,74.398 137.483,74.362 137.519,74.326 137.592,73.999 137.592,73.89 137.63,73.634 137.666,73.489 
	137.847,72.76 137.774,72.397 137.702,72.215 137.63,72.143 137.592,72.107 137.592,72.071 137.63,71.997 137.739,71.851 
	137.739,71.815 137.811,71.708 137.847,71.708 137.92,71.595 137.993,71.523 138.03,71.488 138.285,71.416 138.32,71.416 
	138.43,71.307 138.467,71.267 138.575,71.124 138.867,70.578 139.303,69.703 139.449,69.34 139.812,68.467 140.031,67.811 
	140.141,67.449 140.176,67.337 140.395,66.428 140.503,65.993 140.613,65.555 140.649,65.375 140.649,65.3 140.649,65.227 
	140.759,64.936 140.832,64.646 141.014,63.845 141.232,62.827 141.269,62.716 141.378,62.097 141.414,61.88 141.45,61.699 
	141.45,61.662 141.486,61.443 141.486,61.37 141.596,60.788 141.741,59.877 141.814,59.478 141.887,58.787 141.887,58.751 
	141.887,58.713 141.922,58.423 141.96,58.387 142.033,57.84 142.105,57.366 142.105,57.331 142.141,57.15 142.141,57.113 
	142.141,56.822 142.105,56.748 142.105,56.711 142.141,56.53 142.178,56.42 142.286,55.875 142.323,55.366 142.323,55.221 
	142.396,54.674 142.469,54.092 142.469,53.982 142.396,53.946 142.396,53.91 142.396,53.873 142.396,53.692 142.396,53.655 
	142.469,53.436 142.505,53.364 142.505,53.255 142.505,53.146 142.578,52.964 142.65,52.854 142.797,52.126 142.797,52.09 
	142.942,51.253 142.979,51.18 143.05,51.144 143.124,51.107 143.161,51.034 143.124,50.962 143.087,50.927 143.014,50.962 
	142.979,50.78 143.014,50.379 143.014,50.09 142.979,49.906 143.014,49.652 143.087,49.215 143.124,49.069 143.233,48.306 
	143.27,47.978 143.27,47.906 143.306,47.614 143.306,47.541 143.124,47.614 143.124,47.577 143.087,47.541 143.342,47.359 
	143.379,47.359 143.379,47.177 143.415,47.032 143.415,46.959 143.488,46.668 143.488,46.486 143.488,46.449 143.451,46.449 
	143.451,46.413 143.342,46.194 143.415,45.976 143.451,45.83 143.451,45.757 143.524,45.175 143.451,44.702 143.415,44.63 
	143.415,44.593 143.342,44.52 143.342,44.41 143.342,44.375 143.379,44.302 143.379,44.267 143.379,44.192 143.379,44.011 
	143.415,43.865 143.451,43.72 143.488,43.502 143.524,43.392 143.561,43.356 143.561,43.318 143.633,43.283 143.706,43.283 
	143.706,43.246 143.779,43.065 143.814,42.883 144.033,42.082 144.143,41.609 144.143,41.572 144.143,41.427 144.179,41.318 
	144.179,41.172 144.289,40.699 144.325,40.662 144.325,40.553 144.362,40.481 144.397,40.189 144.397,40.154 144.434,39.935 
	144.506,39.535 144.543,39.389 144.543,39.353 144.543,39.316 144.47,39.353 144.362,39.279 144.397,39.061 144.397,38.988 
	144.397,38.953 144.47,38.771 144.543,38.625 144.762,38.479 144.762,38.443 144.797,38.333 144.979,37.533 145.016,37.496 
	145.052,37.242 145.126,36.55 145.162,36.441 145.089,36.149 145.162,35.786 145.162,35.605 145.234,35.241 145.27,34.949 
	145.27,34.766 145.307,34.257 145.234,34.004 145.198,33.857 145.126,33.821 145.016,33.821 144.726,33.857 144.726,33.784 
	144.943,33.712 144.979,33.712 145.089,33.676 145.126,33.676 145.126,33.638 145.198,33.529 145.198,33.494 145.27,33.275 
	145.344,32.948 145.379,32.438 145.417,32.364 145.417,32.111 145.417,32.001 145.417,31.746 145.379,31.71 145.307,31.382 
	145.307,31.31 145.27,30.982 145.344,30.91 145.417,30.91 145.526,30.582 145.598,30.291 145.671,29.782 145.708,29.709 
	145.708,29.563 145.671,29.526 145.598,29.417 145.671,29.162 145.708,28.907 145.744,28.689 145.853,28.034 145.89,27.816 
	145.926,27.744 145.926,26.869 145.926,26.833 145.926,26.797 145.926,26.651 145.926,26.542 145.89,26.505 145.89,26.36 
	145.78,26.214 145.634,25.996 145.598,25.924 145.49,25.852 145.417,25.815 145.417,25.668 145.598,25.414 145.744,24.395 
	145.744,24.031 145.744,23.994 145.744,23.776 145.744,23.558 145.744,23.413 145.744,23.193 145.744,23.048 145.708,22.975 
	145.598,22.612 145.417,22.43 145.417,22.321 145.744,21.885 145.853,21.812 145.89,21.812 145.926,21.774 146.107,21.774 
	146.144,21.774 146.181,21.738 146.181,21.702 146.254,21.521 146.29,21.301 146.29,21.265 146.326,21.156 146.326,21.12 
	146.326,21.01 146.326,20.938 146.326,20.792 146.326,20.72 146.326,20.538 146.326,20.428 146.326,19.956 146.216,19.445 
	146.181,19.3 146.181,19.155 146.144,19.118 146.107,18.936 146.071,18.718 146.035,18.607 145.999,18.536 145.962,18.463 
	145.853,18.099 145.817,18.027 145.817,17.989 145.708,17.699 145.598,17.408 145.49,17.189 145.417,17.042 145.234,16.935 
	145.417,16.789 145.526,16.789 145.598,16.826 145.708,17.042 145.671,17.153 145.708,17.298 145.78,17.333 146.035,17.371 
	146.181,17.444 146.216,17.444 146.507,17.699 146.507,17.735 146.69,17.918 146.763,18.135 146.944,18.208 147.381,18.354 
	147.381,18.39 147.417,18.39 147.563,18.317 147.6,18.172 147.6,18.135 147.563,18.135 147.455,18.027 147.344,17.918 
	147.309,17.918 147.272,17.808 147.309,17.771 147.527,17.735 147.672,17.735 147.855,17.771 147.891,17.771 148.255,17.662 
	148.327,17.626 148.545,17.554 148.692,17.48 148.801,17.516 149.019,17.626 149.31,17.662 149.382,17.662 149.709,17.48 
	149.819,17.444 149.855,17.371 149.928,17.333 150.074,17.333 150.329,17.408 150.401,17.371 150.474,17.189 150.51,17.042 
	150.546,17.007 150.656,16.971 150.765,16.971 150.837,17.042 150.874,17.08 151.021,17.189 151.53,16.826 151.53,16.607 
	151.674,16.607 151.821,16.534 151.966,16.498 152.148,16.424 152.439,16.461 152.511,16.498 152.585,16.534 152.621,16.607 
	152.839,16.826 153.022,17.116 153.094,17.226 153.094,17.333 153.022,18.135 153.786,18.827 153.894,18.827 154.294,18.863 
	154.695,18.9 154.986,18.9 155.351,18.718 155.641,18.536 155.896,18.426 156.514,18.135 157.132,18.208 157.169,18.208 
	157.315,18.354 158.006,18.827 158.116,18.973 158.225,19.008 158.37,19.118 158.407,19.118 158.552,19.191 158.588,19.227 
	158.625,19.227 159.025,19.664 159.134,19.809 159.426,19.956 159.462,19.992 159.571,20.027 159.898,20.208 160.117,20.646 
	160.153,20.683 160.189,20.938 160.226,21.229 160.481,21.521 160.481,21.556 160.734,22.211 160.771,22.285 161.026,22.574 
	161.026,22.721 161.099,23.121 161.026,23.486 161.026,23.521 161.063,23.594 161.063,23.63 161.099,23.704 161.172,23.958 
	161.209,24.031 161.246,24.104 161.246,24.14 161.354,24.359 161.354,24.432 161.354,24.54 161.354,24.686 161.318,24.795 
	161.172,25.16 161.172,25.451 161.499,25.996 161.499,26.033 161.536,26.033 161.609,26.433 161.609,26.906 161.572,27.016 
	161.426,27.561 161.426,27.67 161.391,27.925 161.536,28.362 161.536,28.397 161.863,28.617 161.936,28.653 161.972,28.653 
	162.191,28.762 162.482,29.017 162.701,29.126 163.1,29.309 163.574,29.345 163.611,29.345 163.647,29.38 163.865,29.417 
	163.937,29.454 164.374,29.599 164.411,29.599 164.701,29.746 164.919,29.817 165.065,29.854 165.102,29.854 165.139,29.89 
	165.285,29.927 165.32,29.964 165.357,29.964 165.393,29.999 165.576,30.181 165.611,30.181 165.793,30.254 166.084,30.218 
	166.194,30.181 166.302,30.108 166.375,30.108 166.448,30.072 166.557,30.036 166.593,30.036 166.703,30.072 166.958,30.181 
	167.213,30.582 167.722,30.692 168.085,30.692 168.159,30.692 168.34,30.618 168.958,30.327 169.213,30.072 169.795,29.964 
	169.941,29.964 169.978,29.999 170.16,29.999 170.306,29.964 171.07,29.49 171.36,29.38 171.616,29.38 171.906,29.272 
	171.943,29.235 172.161,29.09 172.27,28.871 172.306,28.834 172.525,28.871 172.707,28.762 172.888,28.689 172.961,28.617 
	172.999,28.544 172.999,28.362 173.325,28.07 173.362,28.07 173.471,27.961 173.581,27.925 173.835,27.816 174.2,27.707 
	174.563,27.816 175.217,27.961 175.582,27.961 176.018,27.816 176.09,27.779 176.491,27.779 176.601,27.779 177.51,27.525 
	177.874,27.38 177.91,27.38 178.055,27.416 178.201,27.452 178.347,27.488 178.419,27.561 178.493,27.598 178.566,27.67 
	178.819,27.889 179.11,27.961 179.366,28.034 179.657,28.034 180.021,27.853 180.13,27.853 180.312,27.853 180.494,27.816 
	180.821,27.925 181.077,28.106 181.149,28.181 181.659,28.326 182.13,28.471 182.241,28.762 182.313,28.907 182.349,29.198 
	182.385,29.272 182.349,29.454 182.349,29.526 182.531,29.709 182.713,29.709 182.75,29.709 183.042,29.709 183.114,29.635 
	183.114,29.599 183.223,29.671 183.332,29.563 183.369,29.526 183.405,29.49 183.369,29.417 183.841,28.945 184.132,28.834 
	184.533,28.871 184.897,28.834 184.969,28.871 185.188,28.945 185.26,28.907 185.625,28.799 185.734,28.799 186.097,29.09 
	186.134,29.09 186.353,29.053 186.715,28.689 186.898,28.507 187.154,28.434 187.808,28.216 188.645,27.853 189.118,27.67 
	189.373,27.416 189.591,27.27 189.845,27.125 190.427,27.088 190.828,27.233 190.937,27.344 191.337,27.779 191.556,27.961 
	191.627,27.998 191.883,28.07 192.902,27.998 193.92,27.779 194.43,27.598 194.539,27.561 195.485,27.488 195.994,26.797 
	196.394,26.58 197.341,26.36 198.25,25.852 198.288,25.815 198.723,25.596 199.489,25.523 199.888,25.378 199.998,25.378 
	200.871,25.123 201.271,25.16 201.854,25.086 202.617,24.94 203.2,24.068 203.236,24.031 203.527,23.74 203.927,23.63 
	204.401,23.849 204.545,23.958 205.018,23.994 205.528,23.776 205.784,23.74 206.511,23.667 206.656,23.667 206.766,23.63 
	207.166,23.486 207.203,23.449 207.348,23.413 208.075,23.303 208.511,23.413 208.913,23.521 209.24,23.521 209.604,23.449 
	209.823,23.413 210.258,23.193 210.659,22.902 211.132,22.685 211.35,22.502 211.641,22.102 211.75,22.102 212.223,22.066 
	212.806,22.066 213.424,22.066 213.788,22.029 213.824,22.029 214.262,22.029 215.716,21.993 215.97,21.993 216.227,21.993 
	216.263,21.993 216.663,21.993 216.881,21.957 217.028,21.957 217.064,21.957 217.136,21.957 217.354,21.957 217.5,21.957 
	217.572,21.957 217.608,21.957 218.119,21.957 218.447,21.92 219.065,21.92 219.356,21.92 219.574,21.92 219.683,21.92 
	219.83,21.92 220.119,21.885 220.193,21.885 220.519,21.885 220.919,21.885 221.283,21.885 221.358,21.848 221.539,21.848 
	221.648,21.848 222.739,21.812 222.958,21.812 222.995,21.812 224.704,21.774 224.959,21.738 225.067,21.738 225.615,21.738 
	225.87,21.738 228.417,21.666 229.907,21.628 231.218,21.593 231.544,21.593 231.619,21.593 232.09,21.556 232.747,21.521 
	233.219,21.556 233.437,21.483 234.201,21.483 234.602,21.447 234.638,21.447 235.039,21.447 235.074,21.447 235.948,21.411 
	236.712,21.374 236.967,21.374 237.223,21.374 238.095,21.338 238.678,21.338 239.003,21.338 239.079,21.447 239.332,21.702 
	239.407,21.993 239.586,22.248 239.586,22.321 239.659,22.649 239.732,22.794 239.769,22.902 239.807,22.975 239.843,23.012 
	240.059,23.231 240.243,23.339 240.386,23.449 240.46,23.486 240.714,23.849 240.714,23.886 240.788,23.994 240.824,24.104 
	240.824,24.176 240.824,24.25 240.824,24.322 240.824,24.359 240.896,24.467 241.188,24.613 241.224,24.613 241.295,24.613 
	241.295,24.577 241.333,24.577 241.37,24.54 241.408,24.54 241.408,24.504 241.444,24.504 241.48,24.467 241.48,24.432 
	241.515,24.432 241.551,24.432 241.807,24.395 241.843,24.395 241.879,24.395 241.879,24.432 242.024,24.504 242.062,24.504 
	242.208,24.759 242.279,25.014 242.316,25.014 242.498,25.231 242.571,25.231 242.752,25.231 242.862,25.196 242.897,25.16 
	242.933,25.123 243.298,25.196 243.444,25.231 243.481,25.231 243.699,25.451 243.954,25.668 244.027,25.668 244.063,25.705 
	244.098,25.705 244.098,25.741 244.136,25.815 244.244,25.996 244.282,26.033 244.244,26.397 244.282,26.761 244.317,26.833 
	244.426,27.016 244.463,27.088 244.499,27.125 244.644,27.233 244.899,27.488 244.937,27.525 244.972,27.598 245.045,27.779 
	245.081,27.779 245.081,27.853 245.119,27.925 245.154,27.961 245.191,28.07 245.263,28.144 245.299,28.181 245.337,28.216 
	245.337,28.252 245.337,28.471 245.337,28.507 245.337,28.544 245.119,28.981 245.009,29.017 244.899,29.126 244.863,29.198 
	244.718,29.38 244.609,29.599 244.463,29.999 244.354,30.218 244.317,30.291 244.244,30.51 244.208,30.836 244.208,30.874 
	244.244,31.019 244.282,31.2 244.171,31.237 244.136,31.237 243.99,31.418 243.916,31.455 243.843,31.564 243.843,31.6 
	243.808,31.892 243.736,32.183 243.553,32.401 243.481,32.475 243.373,32.657 243.189,33.057 243.044,33.385 242.826,33.93 
	242.79,34.075 242.862,34.403 242.862,34.549 242.862,34.658 242.862,34.693 242.826,34.804 242.826,34.84 242.752,34.913 
	242.679,34.986 242.608,35.058 242.571,35.241 242.498,35.531 242.425,35.895 242.425,35.932 242.461,36.114 242.425,36.223 
	242.279,36.805 242.279,36.988 242.244,37.352 242.208,37.387 242.208,37.424 241.916,37.932 241.662,38.116 241.551,38.297 
	241.551,38.333 241.551,38.443 241.551,38.625 241.551,38.661 241.551,38.697 241.37,38.988 241.224,39.17 241.042,39.425 
	240.969,39.46 240.824,39.572 240.751,39.717 240.751,39.789 240.788,39.862 240.788,40.116 240.788,40.154 240.642,40.444 
	240.642,40.518 240.642,40.553 240.642,40.589 240.751,40.917 240.751,40.954 240.824,41.062 240.969,41.282 241.042,41.39 
	241.042,41.427 241.006,41.5 240.933,41.572 240.896,41.754 240.86,41.937 240.824,42.153 240.788,42.265 240.751,42.41 
	240.642,42.591 240.386,42.847 240.243,43.065 240.169,43.21 240.133,43.246 240.133,43.318 239.951,43.72 239.843,43.83 
	239.807,43.902 239.769,44.011 239.769,44.047 239.769,44.083 239.807,44.157 239.807,44.192 239.807,44.229 239.769,44.302 
	239.732,44.302 239.586,44.41 239.332,44.484 239.296,44.52 239.259,44.52 239.187,44.63 239.079,44.738 239.042,44.776 
	239.003,44.812 238.932,44.847 238.86,44.847 238.823,44.847 238.75,44.847 238.713,44.847 238.385,45.031 238.314,45.103 
	238.278,45.139 238.095,45.431 238.131,45.54 238.131,45.83 238.095,45.903 237.986,45.939 237.914,46.121 237.878,46.231 
	237.878,46.268 237.878,46.303 237.768,46.558 237.695,46.631 237.695,46.777 237.731,46.886 237.695,47.105 237.55,47.359 
	237.477,47.396 237.439,47.504 237.403,47.614 237.403,47.686 237.367,48.013 237.367,48.196 237.367,48.233 237.258,48.377 
	237.184,48.415 237.149,48.45 237.076,48.487 237.076,48.561 237.076,48.632 237.149,48.706 237.149,48.924 237.076,49.105 
	237.04,49.18 236.93,49.326 236.823,49.362 236.639,49.397 236.603,49.469 236.53,49.579 236.53,49.652 236.53,49.688 
	236.495,49.761 236.495,49.834 236.421,49.98 236.313,50.09 236.276,50.125 236.202,50.09 236.128,50.125 236.094,50.161 
	236.094,50.233 236.057,50.233 236.094,50.271 236.094,50.308 236.094,50.343 236.128,50.416 236.202,50.599 236.24,50.707 
	236.24,50.816 236.276,51.216 236.24,51.326 236.128,51.581 236.128,51.617 236.021,51.762 235.914,51.798 235.914,51.909 
	236.021,52.235 236.128,52.345 236.276,52.491 236.384,52.527 236.421,52.563 236.568,52.708 236.568,52.745 236.676,52.927 
	236.676,52.964 236.639,53.036 236.639,53.073 236.495,53.364 236.495,53.4 236.349,53.436 236.349,53.474 236.313,53.474 
	236.276,53.619 236.276,53.655 236.276,53.692 236.349,53.837 236.603,54.128 236.676,54.165 237.003,54.383 237.184,54.383 
	237.367,54.383 237.439,54.346 237.477,54.273 237.514,54.273 237.514,54.201 237.514,54.165 237.659,53.982 237.695,53.982 
	237.731,53.946 237.768,53.946 237.839,53.946 237.878,53.946 237.914,53.946 237.95,54.019 238.022,54.092 238.022,54.128 
	238.095,54.309 238.095,54.346 238.278,54.492 238.314,54.528 238.422,54.602 238.532,54.71 238.568,54.856 238.604,54.856 
	238.641,54.892 238.678,54.892 238.678,54.856 238.713,54.856 238.713,54.82 238.75,54.602 238.86,54.528 238.896,54.492 
	238.968,54.492 239.042,54.528 239.115,54.528 239.332,54.528 239.514,54.528 239.586,54.528 239.659,54.565 239.696,54.637 
	239.696,54.674 239.732,54.71 239.732,54.747 239.696,54.892 239.732,55.221 239.769,55.437 239.807,55.476 239.843,55.476 
	240.096,55.547 240.133,55.511 240.169,55.476 240.207,55.476 240.243,55.476 240.386,55.511 240.714,55.728 240.751,55.765 
	240.824,55.875 240.86,56.057 240.86,56.092 240.86,56.13 240.824,56.203 240.824,56.24 240.607,56.674 240.569,56.748 
	240.569,56.787 240.423,57.077 240.423,57.113 240.35,57.258 240.314,57.293 240.279,57.331 240.243,57.366 240.207,57.366 
	240.059,57.44 239.914,57.44 239.843,57.476 239.807,57.512 239.769,57.549 239.769,57.585 239.769,57.622 239.807,57.876 
	239.807,57.95 239.843,58.059 239.843,58.167 239.843,58.24 239.879,58.24 240.096,58.351 240.169,58.423 240.279,58.458 
	240.35,58.604 240.386,58.677 240.423,58.713 240.423,58.751 240.386,58.931 240.35,59.114 240.35,59.187 240.314,59.37 
	240.314,59.405 240.279,59.441 240.133,59.697 240.023,59.769 239.986,59.769 239.951,59.84 239.951,59.877 239.951,59.913 
	239.986,59.953 239.986,59.988 240.023,59.988 240.059,60.061 240.096,60.205 240.096,60.424 240.096,60.535 240.096,60.642 
	240.059,60.715 240.023,60.751 239.914,60.934 239.914,60.97 239.951,61.042 239.951,61.151 239.951,61.189 239.914,61.443 
	239.914,61.517 239.879,61.662 239.879,61.699 239.843,61.734 239.807,61.734 239.769,61.769 239.696,61.734 239.659,61.734 
	239.624,61.769 239.586,61.769 239.514,61.805 239.442,61.843 239.442,61.917 239.407,61.989 239.369,62.208 239.296,62.352 
	239.296,62.388 239.296,62.425 239.296,62.5 239.332,62.754 239.332,62.827 239.332,62.864 239.332,62.899 239.332,63.409 
	239.369,63.737 239.369,64.245 239.369,64.281 239.407,64.609 239.407,64.755 239.407,65.01 239.442,65.191 239.442,65.265 
	239.442,65.337 239.442,65.555 239.479,66.173 239.479,66.321 239.479,66.393 239.479,66.465 239.479,66.576 239.479,66.756 
	239.479,66.792 239.479,66.865 239.514,66.902 239.514,67.195 239.514,67.266 239.514,67.449 239.586,69.087 239.624,69.815 
	239.696,71.161 239.732,72.617 239.769,72.833 239.769,73.345 239.914,76.546 239.951,77.675 240.133,81.824 240.279,85.208 
	240.279,85.282 240.35,86.627 240.497,89.939 240.533,90.339 240.533,90.959 240.569,91.213 240.68,93.977 240.68,94.014 
	240.68,94.597 240.714,94.889 240.788,97.108 240.607,97.144 240.497,97.144 240.386,97.144 240.207,97.144 240.023,97.144 
	238.823,97.18 238.385,97.219 238.242,97.219 238.095,97.219 235.473,97.363 234.893,97.363 234.02,97.4 233.692,97.436 
	232.819,97.472 232.491,97.472 232.455,97.472 232.347,97.472 232.31,97.472 232.236,97.472 231.873,97.507 228.961,97.583 
	228.817,97.619 228.634,97.619 225.288,97.728 224.232,97.763 222.122,97.835 221.138,97.873 219.937,97.91 218.519,97.984 
	217.171,98.055 216.044,98.055 215.752,98.055 212.842,98.091 209.93,98.164 209.604,98.127 209.313,98.164 208.293,98.164 
	207.785,98.164 206.583,98.164 202.582,98.202 201.672,98.164 200.833,98.202 200.507,98.202 200.471,98.202 198.906,98.237 
	198.723,98.272 198.688,98.237 196.467,98.272 196.139,98.272 195.994,98.272 194.649,98.309 194.103,98.309 191.627,98.309 
	191.556,98.309 191.52,98.309 191.41,98.309 189.919,98.309 189.555,98.309 188.899,98.309 187.226,98.272 187.116,98.272 
	186.243,98.272 184.06,98.272 183.223,98.237 182.75,98.202 181.04,98.202 181.04,98.164 181.002,98.164 180.166,98.164 
	180.056,98.164 179.803,98.164 179.73,98.202 179.438,98.164 179.22,98.164 178.493,98.164 178.383,98.164 178.31,98.164 
	178.201,98.164 177.182,98.127 176.345,98.091 176.09,98.091 176.055,98.091 174.999,98.055 174.782,98.055 174.563,98.018 
	174.526,98.018 172.888,97.984 172.815,97.984 172.561,97.946 170.377,97.91 168.958,97.835 168.194,97.799 168.123,97.799 
	167.722,97.799 166.703,97.763 166.302,97.763 165.175,97.691 165.029,97.691 164.884,97.691 164.775,97.691 164.338,97.691 
	163.319,97.656 161.681,97.691 161.426,97.691 160.298,97.656 159.062,97.619 158.08,97.619 158.006,97.619 157.751,97.619 
	157.06,97.583 156.769,97.583 155.604,97.546 155.314,97.507 155.059,97.472 154.186,97.4 154.04,97.4 153.53,97.436 
	152.985,97.436 151.311,97.472 151.274,97.472 150.837,97.472 150.074,97.4 149.165,97.363 149.128,97.363 148.91,97.363 
	148.801,97.363 148.728,97.363 148.619,97.363 148.437,97.363 147.417,97.328 147.309,97.328 146.944,97.4 145.926,97.328 
	145.052,97.292 144.726,97.292 144.615,97.292 144.434,97.292 142.542,97.18 142.068,97.18 141.814,97.144 140.868,97.108 
	140.832,97.108 140.685,97.108 140.649,97.108 140.285,97.073 139.085,97 139.048,96.853 138.721,96.527 138.648,96.417 
	138.357,96.125 138.32,96.053 138.175,96.053 138.139,96.053 138.067,96.053 138.03,96.018 137.957,95.98 137.885,95.943 
	137.702,95.615 137.702,95.579 137.666,95.543 137.338,95.108 137.156,94.708 137.156,94.634 137.23,94.416 137.23,94.306 
	137.192,94.198 137.119,94.125 137.047,93.977 137.047,93.87 137.084,93.87 137.156,93.797 137.156,93.432 137.047,93.288 
	136.974,93.25 136.974,93.214 136.938,93.142 136.974,92.888 136.938,92.815 136.938,92.705 136.866,92.561 136.756,92.413 
	136.502,92.087 136.502,92.013 136.537,91.906 136.611,91.577 136.611,91.541 136.574,90.995 136.466,90.812 136.319,90.521 
	136.355,90.484 136.392,90.157 136.428,89.684 136.428,89.649 136.428,89.322 136.428,89.282 136.428,88.994 136.428,88.847 
	136.355,88.556 136.355,88.483 136.537,88.083 136.537,87.755 136.574,87.501 136.756,87.102 136.938,86.591 137.084,86.116 
	137.084,85.937 137.047,85.753 136.974,85.499 137.011,85.135 136.974,84.954 136.866,84.372 136.792,84.299 136.611,84.188 
	136.466,84.081 136.355,84.007 136.319,83.971 136.392,83.825 136.392,83.788 136.392,83.716 136.247,83.388 136.065,82.916 
	136.028,82.843 135.847,82.735 135.81,82.735 135.737,82.735 135.737,82.77 135.591,82.843 135.555,82.843 135.519,82.843 
	135.519,82.806 135.519,82.735 135.483,82.48 135.483,82.443 135.41,81.788 135.337,81.497 135.265,81.314 135.154,81.132 
	135.082,80.805 135.154,80.658 135.228,80.514 135.337,80.369 135.882,79.385 136.138,78.802 136.174,78.766 "/>
<polyline fill="none" stroke="#010101" stroke-width="2.5" stroke-linecap="round" stroke-linejoin="round" stroke-miterlimit="3.85" points="
	136.21,78.694 136.247,78.585 136.466,78.04 136.466,78.003 136.537,77.856 136.902,76.51 136.974,76.183 136.974,76.111 
	136.974,76 136.974,75.962 136.974,75.747 136.974,75.672 136.974,75.636 137.047,75.563 137.084,75.527 137.119,75.457 
	137.192,75.237 137.483,74.398 137.483,74.362 137.519,74.326 137.592,73.999 137.592,73.89 137.63,73.634 137.666,73.489 
	137.847,72.76 137.774,72.397 137.702,72.215 137.63,72.143 137.592,72.107 137.592,72.071 137.63,71.997 137.739,71.851 
	137.739,71.815 137.811,71.708 137.847,71.708 137.92,71.595 137.993,71.523 138.03,71.488 138.285,71.416 138.32,71.416 
	138.43,71.307 138.467,71.267 138.575,71.124 138.867,70.578 139.303,69.703 139.449,69.34 139.812,68.467 140.031,67.811 
	140.141,67.449 140.176,67.337 140.395,66.428 140.503,65.993 140.613,65.555 140.649,65.375 140.649,65.3 140.649,65.227 
	140.759,64.936 140.832,64.646 141.014,63.845 141.232,62.827 141.269,62.716 141.378,62.097 141.414,61.88 141.45,61.699 
	141.45,61.662 141.486,61.443 141.486,61.37 141.596,60.788 141.741,59.877 141.814,59.478 141.887,58.787 141.887,58.751 
	141.887,58.713 141.922,58.423 141.96,58.387 142.033,57.84 142.105,57.366 142.105,57.331 142.141,57.15 142.141,57.113 
	142.141,56.822 142.105,56.748 142.105,56.711 142.141,56.53 142.178,56.42 142.286,55.875 142.323,55.366 142.323,55.221 
	142.396,54.674 142.469,54.092 142.469,53.982 142.396,53.946 142.396,53.91 142.396,53.873 142.396,53.692 142.396,53.655 
	142.469,53.436 142.505,53.364 142.505,53.255 142.505,53.146 142.578,52.964 142.65,52.854 142.797,52.126 142.797,52.09 
	142.942,51.253 142.979,51.18 143.05,51.144 143.124,51.107 143.161,51.034 143.124,50.962 143.087,50.927 143.014,50.962 
	142.979,50.78 143.014,50.379 143.014,50.09 142.979,49.906 143.014,49.652 143.087,49.215 143.124,49.069 143.233,48.306 
	143.27,47.978 143.27,47.906 143.306,47.614 143.306,47.541 143.124,47.614 143.124,47.577 143.087,47.541 143.342,47.359 
	143.379,47.359 143.379,47.177 143.415,47.032 143.415,46.959 143.488,46.668 143.488,46.486 143.488,46.449 143.451,46.449 
	143.451,46.413 143.342,46.194 143.415,45.976 143.451,45.83 143.451,45.757 143.524,45.175 143.451,44.702 143.415,44.63 
	143.415,44.593 143.342,44.52 143.342,44.41 143.342,44.375 143.379,44.302 143.379,44.267 143.379,44.192 143.379,44.011 
	143.415,43.865 143.451,43.72 143.488,43.502 143.524,43.392 143.561,43.356 143.561,43.318 143.633,43.283 143.706,43.283 
	143.706,43.246 143.779,43.065 143.814,42.883 144.033,42.082 144.143,41.609 144.143,41.572 144.143,41.427 144.179,41.318 
	144.179,41.172 144.289,40.699 144.325,40.662 144.325,40.553 144.362,40.481 144.397,40.189 144.397,40.154 144.434,39.935 
	144.506,39.535 144.543,39.389 144.543,39.353 144.543,39.316 144.47,39.353 144.362,39.279 144.397,39.061 144.397,38.988 
	144.397,38.953 144.47,38.771 144.543,38.625 144.762,38.479 144.762,38.443 144.797,38.333 144.979,37.533 145.016,37.496 
	145.052,37.242 145.126,36.55 145.162,36.441 145.089,36.149 145.162,35.786 145.162,35.605 145.234,35.241 145.27,34.949 
	145.27,34.766 145.307,34.257 145.234,34.004 145.198,33.857 145.126,33.821 145.016,33.821 144.726,33.857 144.726,33.784 
	144.943,33.712 144.979,33.712 145.089,33.676 145.126,33.676 145.126,33.638 145.198,33.529 145.198,33.494 145.27,33.275 
	145.344,32.948 145.379,32.438 145.417,32.364 145.417,32.111 145.417,32.001 145.417,31.746 145.379,31.71 145.307,31.382 
	145.307,31.31 145.27,30.982 145.344,30.91 145.417,30.91 145.526,30.582 145.598,30.291 145.671,29.782 145.708,29.709 
	145.708,29.563 145.671,29.526 145.598,29.417 145.671,29.162 145.708,28.907 145.744,28.689 145.853,28.034 145.89,27.816 
	145.926,27.744 145.926,26.869 145.926,26.833 145.926,26.797 145.926,26.651 145.926,26.542 145.89,26.505 145.89,26.36 
	145.78,26.214 145.634,25.996 145.598,25.924 145.49,25.852 145.417,25.815 145.417,25.668 145.598,25.414 145.744,24.395 
	145.744,24.031 145.744,23.994 145.744,23.776 145.744,23.558 145.744,23.413 145.744,23.193 145.744,23.048 145.708,22.975 
	145.598,22.612 145.417,22.43 145.417,22.321 145.744,21.885 145.853,21.812 145.89,21.812 145.926,21.774 146.107,21.774 
	146.144,21.774 146.181,21.738 146.181,21.702 146.254,21.521 146.29,21.301 146.29,21.265 146.326,21.156 146.326,21.12 
	146.326,21.01 146.326,20.938 146.326,20.792 146.326,20.72 146.326,20.538 146.326,20.428 146.326,19.956 146.216,19.445 
	146.181,19.3 146.181,19.155 146.144,19.118 146.107,18.936 146.071,18.718 146.035,18.607 145.999,18.536 145.962,18.463 
	145.853,18.099 145.817,18.027 145.817,17.989 145.708,17.699 145.598,17.408 145.49,17.189 145.417,17.042 145.234,16.935 
	145.417,16.789 145.526,16.789 145.598,16.826 145.708,17.042 145.671,17.153 145.708,17.298 145.78,17.333 146.035,17.371 
	146.181,17.444 146.216,17.444 146.507,17.699 146.507,17.735 146.69,17.918 146.763,18.135 146.944,18.208 147.381,18.354 
	147.381,18.39 147.417,18.39 147.563,18.317 147.6,18.172 147.6,18.135 147.563,18.135 147.455,18.027 147.344,17.918 
	147.309,17.918 147.272,17.808 147.309,17.771 147.527,17.735 147.672,17.735 147.855,17.771 147.891,17.771 148.255,17.662 
	148.327,17.626 148.545,17.554 148.692,17.48 148.801,17.516 149.019,17.626 149.31,17.662 149.382,17.662 149.709,17.48 
	149.819,17.444 149.855,17.371 149.928,17.333 150.074,17.333 150.329,17.408 150.401,17.371 150.474,17.189 150.51,17.042 
	150.546,17.007 150.656,16.971 150.765,16.971 150.837,17.042 150.874,17.08 151.021,17.189 151.53,16.826 151.53,16.607 
	151.674,16.607 151.821,16.534 151.966,16.498 152.148,16.424 152.439,16.461 152.511,16.498 152.585,16.534 152.621,16.607 
	152.839,16.826 153.022,17.116 153.094,17.226 153.094,17.333 153.022,18.135 153.786,18.827 153.894,18.827 154.294,18.863 
	154.695,18.9 154.986,18.9 155.351,18.718 155.641,18.536 155.896,18.426 156.514,18.135 157.132,18.208 157.169,18.208 
	157.315,18.354 158.006,18.827 158.116,18.973 158.225,19.008 158.37,19.118 158.407,19.118 158.552,19.191 158.588,19.227 
	158.625,19.227 159.025,19.664 159.134,19.809 159.426,19.956 159.462,19.992 159.571,20.027 159.898,20.208 160.117,20.646 
	160.153,20.683 160.189,20.938 160.226,21.229 160.481,21.521 160.481,21.556 160.734,22.211 160.771,22.285 161.026,22.574 
	161.026,22.721 161.099,23.121 161.026,23.486 161.026,23.521 161.063,23.594 161.063,23.63 161.099,23.704 161.172,23.958 
	161.209,24.031 161.246,24.104 161.246,24.14 161.354,24.359 161.354,24.432 161.354,24.54 161.354,24.686 161.318,24.795 
	161.172,25.16 161.172,25.451 161.499,25.996 161.499,26.033 161.536,26.033 161.609,26.433 161.609,26.906 161.572,27.016 
	161.426,27.561 161.426,27.67 161.391,27.925 161.536,28.362 161.536,28.397 161.863,28.617 161.936,28.653 161.972,28.653 
	162.191,28.762 162.482,29.017 162.701,29.126 163.1,29.309 163.574,29.345 163.611,29.345 163.647,29.38 163.865,29.417 
	163.937,29.454 164.374,29.599 164.411,29.599 164.701,29.746 164.919,29.817 165.065,29.854 165.102,29.854 165.139,29.89 
	165.285,29.927 165.32,29.964 165.357,29.964 165.393,29.999 165.576,30.181 165.611,30.181 165.793,30.254 166.084,30.218 
	166.194,30.181 166.302,30.108 166.375,30.108 166.448,30.072 166.557,30.036 166.593,30.036 166.703,30.072 166.958,30.181 
	167.213,30.582 167.722,30.692 168.085,30.692 168.159,30.692 168.34,30.618 168.958,30.327 169.213,30.072 169.795,29.964 
	169.941,29.964 169.978,29.999 170.16,29.999 170.306,29.964 171.07,29.49 171.36,29.38 171.616,29.38 171.906,29.272 
	171.943,29.235 172.161,29.09 172.27,28.871 172.306,28.834 172.525,28.871 172.707,28.762 172.888,28.689 172.961,28.617 
	172.999,28.544 172.999,28.362 173.325,28.07 173.362,28.07 173.471,27.961 173.581,27.925 173.835,27.816 174.2,27.707 
	174.563,27.816 175.217,27.961 175.582,27.961 176.018,27.816 176.09,27.779 176.491,27.779 176.601,27.779 177.51,27.525 
	177.874,27.38 177.91,27.38 178.055,27.416 178.201,27.452 178.347,27.488 178.419,27.561 178.493,27.598 178.566,27.67 
	178.819,27.889 179.11,27.961 179.366,28.034 179.657,28.034 180.021,27.853 180.13,27.853 180.312,27.853 180.494,27.816 
	180.821,27.925 181.077,28.106 181.149,28.181 181.659,28.326 182.13,28.471 182.241,28.762 182.313,28.907 182.349,29.198 
	182.385,29.272 182.349,29.454 182.349,29.526 182.531,29.709 182.713,29.709 182.75,29.709 183.042,29.709 183.114,29.635 
	183.114,29.599 183.223,29.671 183.332,29.563 183.369,29.526 183.405,29.49 183.369,29.417 183.841,28.945 184.132,28.834 
	184.533,28.871 184.897,28.834 184.969,28.871 185.188,28.945 185.26,28.907 185.625,28.799 185.734,28.799 186.097,29.09 
	186.134,29.09 186.353,29.053 186.715,28.689 186.898,28.507 187.154,28.434 187.808,28.216 188.645,27.853 189.118,27.67 
	189.373,27.416 189.591,27.27 189.845,27.125 190.427,27.088 190.828,27.233 190.937,27.344 191.337,27.779 191.556,27.961 
	191.627,27.998 191.883,28.07 192.902,27.998 193.92,27.779 194.43,27.598 194.539,27.561 195.485,27.488 195.994,26.797 
	196.394,26.58 197.341,26.36 198.25,25.852 198.288,25.815 198.723,25.596 199.489,25.523 199.888,25.378 199.998,25.378 
	200.871,25.123 201.271,25.16 201.854,25.086 202.617,24.94 203.2,24.068 203.236,24.031 203.527,23.74 203.927,23.63 
	204.401,23.849 204.545,23.958 205.018,23.994 205.528,23.776 205.784,23.74 206.511,23.667 206.656,23.667 206.766,23.63 
	207.166,23.486 207.203,23.449 207.348,23.413 208.075,23.303 208.511,23.413 208.913,23.521 209.24,23.521 209.604,23.449 
	209.823,23.413 210.258,23.193 210.659,22.902 211.132,22.685 211.35,22.502 211.641,22.102 211.75,22.102 212.223,22.066 
	212.806,22.066 213.424,22.066 213.788,22.029 213.824,22.029 214.262,22.029 215.716,21.993 215.97,21.993 216.227,21.993 
	216.263,21.993 216.663,21.993 216.881,21.957 217.028,21.957 217.064,21.957 217.136,21.957 217.354,21.957 217.5,21.957 
	217.572,21.957 217.608,21.957 218.119,21.957 218.447,21.92 219.065,21.92 219.356,21.92 219.574,21.92 219.683,21.92 
	219.83,21.92 220.119,21.885 220.193,21.885 220.519,21.885 220.919,21.885 221.283,21.885 221.358,21.848 221.539,21.848 
	221.648,21.848 222.739,21.812 222.958,21.812 222.995,21.812 224.704,21.774 224.959,21.738 225.067,21.738 225.615,21.738 
	225.87,21.738 228.417,21.666 229.907,21.628 231.218,21.593 231.544,21.593 231.619,21.593 232.09,21.556 232.747,21.521 
	233.219,21.556 233.437,21.483 234.201,21.483 234.602,21.447 234.638,21.447 235.039,21.447 235.074,21.447 235.948,21.411 
	236.712,21.374 236.967,21.374 237.223,21.374 238.095,21.338 238.678,21.338 239.003,21.338 239.079,21.447 239.332,21.702 
	239.407,21.993 239.586,22.248 239.586,22.321 239.659,22.649 239.732,22.794 239.769,22.902 239.807,22.975 239.843,23.012 
	240.059,23.231 240.243,23.339 240.386,23.449 240.46,23.486 240.714,23.849 240.714,23.886 240.788,23.994 240.824,24.104 
	240.824,24.176 240.824,24.25 240.824,24.322 240.824,24.359 240.896,24.467 241.188,24.613 241.224,24.613 241.295,24.613 
	241.295,24.577 241.333,24.577 241.37,24.54 241.408,24.54 241.408,24.504 241.444,24.504 241.48,24.467 241.48,24.432 
	241.515,24.432 241.551,24.432 241.807,24.395 241.843,24.395 241.879,24.395 241.879,24.432 242.024,24.504 242.062,24.504 
	242.208,24.759 242.279,25.014 242.316,25.014 242.498,25.231 242.571,25.231 242.752,25.231 242.862,25.196 242.897,25.16 
	242.933,25.123 243.298,25.196 243.444,25.231 243.481,25.231 243.699,25.451 243.954,25.668 244.027,25.668 244.063,25.705 
	244.098,25.705 244.098,25.741 244.136,25.815 244.244,25.996 244.282,26.033 244.244,26.397 244.282,26.761 244.317,26.833 
	244.426,27.016 244.463,27.088 244.499,27.125 244.644,27.233 244.899,27.488 244.937,27.525 244.972,27.598 245.045,27.779 
	245.081,27.779 245.081,27.853 245.119,27.925 245.154,27.961 245.191,28.07 245.263,28.144 245.299,28.181 245.337,28.216 
	245.337,28.252 245.337,28.471 245.337,28.507 245.337,28.544 245.119,28.981 245.009,29.017 244.899,29.126 244.863,29.198 
	244.718,29.38 244.609,29.599 244.463,29.999 244.354,30.218 244.317,30.291 244.244,30.51 244.208,30.836 244.208,30.874 
	244.244,31.019 244.282,31.2 244.171,31.237 244.136,31.237 243.99,31.418 243.916,31.455 243.843,31.564 243.843,31.6 
	243.808,31.892 243.736,32.183 243.553,32.401 243.481,32.475 243.373,32.657 243.189,33.057 243.044,33.385 242.826,33.93 
	242.79,34.075 242.862,34.403 242.862,34.549 242.862,34.658 242.862,34.693 242.826,34.804 242.826,34.84 242.752,34.913 
	242.679,34.986 242.608,35.058 242.571,35.241 242.498,35.531 242.425,35.895 242.425,35.932 242.461,36.114 242.425,36.223 
	242.279,36.805 242.279,36.988 242.244,37.352 242.208,37.387 242.208,37.424 241.916,37.932 241.662,38.116 241.551,38.297 
	241.551,38.333 241.551,38.443 241.551,38.625 241.551,38.661 241.551,38.697 241.37,38.988 241.224,39.17 241.042,39.425 
	240.969,39.46 240.824,39.572 240.751,39.717 240.751,39.789 240.788,39.862 240.788,40.116 240.788,40.154 240.642,40.444 
	240.642,40.518 240.642,40.553 240.642,40.589 240.751,40.917 240.751,40.954 240.824,41.062 240.969,41.282 241.042,41.39 
	241.042,41.427 241.006,41.5 240.933,41.572 240.896,41.754 240.86,41.937 240.824,42.153 240.788,42.265 240.751,42.41 
	240.642,42.591 240.386,42.847 240.243,43.065 240.169,43.21 240.133,43.246 240.133,43.318 239.951,43.72 239.843,43.83 
	239.807,43.902 239.769,44.011 239.769,44.047 239.769,44.083 239.807,44.157 239.807,44.192 239.807,44.229 239.769,44.302 
	239.732,44.302 239.586,44.41 239.332,44.484 239.296,44.52 239.259,44.52 239.187,44.63 239.079,44.738 239.042,44.776 
	239.003,44.812 238.932,44.847 238.86,44.847 238.823,44.847 238.75,44.847 238.713,44.847 238.385,45.031 238.314,45.103 
	238.278,45.139 238.095,45.431 238.131,45.54 238.131,45.83 238.095,45.903 237.986,45.939 237.914,46.121 237.878,46.231 
	237.878,46.268 237.878,46.303 237.768,46.558 237.695,46.631 237.695,46.777 237.731,46.886 237.695,47.105 237.55,47.359 
	237.477,47.396 237.439,47.504 237.403,47.614 237.403,47.686 237.367,48.013 237.367,48.196 237.367,48.233 237.258,48.377 
	237.184,48.415 237.149,48.45 237.076,48.487 237.076,48.561 237.076,48.632 237.149,48.706 237.149,48.924 237.076,49.105 
	237.04,49.18 236.93,49.326 236.823,49.362 236.639,49.397 236.603,49.469 236.53,49.579 236.53,49.652 236.53,49.688 
	236.495,49.761 236.495,49.834 236.421,49.98 236.313,50.09 236.276,50.125 236.202,50.09 236.128,50.125 236.094,50.161 
	236.094,50.233 236.057,50.233 236.094,50.271 236.094,50.308 236.094,50.343 236.128,50.416 236.202,50.599 236.24,50.707 
	236.24,50.816 236.276,51.216 236.24,51.326 236.128,51.581 236.128,51.617 236.021,51.762 235.914,51.798 235.914,51.909 
	236.021,52.235 236.128,52.345 236.276,52.491 236.384,52.527 236.421,52.563 236.568,52.708 236.568,52.745 236.676,52.927 
	236.676,52.964 236.639,53.036 236.639,53.073 236.495,53.364 236.495,53.4 236.349,53.436 236.349,53.474 236.313,53.474 
	236.276,53.619 236.276,53.655 236.276,53.692 236.349,53.837 236.603,54.128 236.676,54.165 237.003,54.383 237.184,54.383 
	237.367,54.383 237.439,54.346 237.477,54.273 237.514,54.273 237.514,54.201 237.514,54.165 237.659,53.982 237.695,53.982 
	237.731,53.946 237.768,53.946 237.839,53.946 237.878,53.946 237.914,53.946 237.95,54.019 238.022,54.092 238.022,54.128 
	238.095,54.309 238.095,54.346 238.278,54.492 238.314,54.528 238.422,54.602 238.532,54.71 238.568,54.856 238.604,54.856 
	238.641,54.892 238.678,54.892 238.678,54.856 238.713,54.856 238.713,54.82 238.75,54.602 238.86,54.528 238.896,54.492 
	238.968,54.492 239.042,54.528 239.115,54.528 239.332,54.528 239.514,54.528 239.586,54.528 239.659,54.565 239.696,54.637 
	239.696,54.674 239.732,54.71 239.732,54.747 239.696,54.892 239.732,55.221 239.769,55.437 239.807,55.476 239.843,55.476 "/>
<polyline fill="none" stroke="#010101" stroke-width="2.5" stroke-linecap="round" stroke-linejoin="round" stroke-miterlimit="3.85" points="
	239.843,55.476 240.096,55.547 240.133,55.511 240.169,55.476 240.207,55.476 240.243,55.476 240.386,55.511 240.714,55.728 
	240.751,55.765 240.824,55.875 240.86,56.057 240.86,56.092 240.86,56.13 240.824,56.203 240.824,56.24 240.607,56.674 
	240.569,56.748 240.569,56.787 240.423,57.077 240.423,57.113 240.35,57.258 240.314,57.293 240.279,57.331 240.243,57.366 
	240.207,57.366 240.059,57.44 239.914,57.44 239.843,57.476 239.807,57.512 239.769,57.549 239.769,57.585 239.769,57.622 
	239.807,57.876 239.807,57.95 239.843,58.059 239.843,58.167 239.843,58.24 239.879,58.24 240.096,58.351 240.169,58.423 
	240.279,58.458 240.35,58.604 240.386,58.677 240.423,58.713 240.423,58.751 240.386,58.931 240.35,59.114 240.35,59.187 
	240.314,59.37 240.314,59.405 240.279,59.441 240.133,59.697 240.023,59.769 239.986,59.769 239.951,59.84 239.951,59.877 
	239.951,59.913 239.986,59.953 239.986,59.988 240.023,59.988 240.059,60.061 240.096,60.205 240.096,60.424 240.096,60.535 
	240.096,60.642 240.059,60.715 240.023,60.751 239.914,60.934 239.914,60.97 239.951,61.042 239.951,61.151 239.951,61.189 
	239.914,61.443 239.914,61.517 239.879,61.662 239.879,61.699 239.843,61.734 239.807,61.734 239.769,61.769 239.696,61.734 
	239.659,61.734 239.624,61.769 239.586,61.769 239.514,61.805 239.442,61.843 239.442,61.917 239.407,61.989 239.369,62.208 
	239.296,62.352 239.296,62.388 239.296,62.425 239.296,62.5 239.332,62.754 239.332,62.827 239.332,62.864 239.332,62.899 
	239.332,63.409 239.369,63.737 239.369,64.245 239.369,64.281 239.407,64.609 239.407,64.755 239.407,65.01 239.442,65.191 
	239.442,65.265 239.442,65.337 239.442,65.555 239.479,66.173 239.479,66.321 239.479,66.393 239.479,66.465 239.479,66.576 
	239.479,66.756 239.479,66.792 239.479,66.865 239.514,66.902 239.514,67.195 239.514,67.266 239.514,67.449 239.586,69.087 
	239.624,69.815 239.696,71.161 239.732,72.617 239.769,72.833 239.769,73.345 239.914,76.546 239.951,77.675 240.133,81.824 
	240.279,85.208 240.279,85.282 240.35,86.627 240.497,89.939 240.533,90.339 240.533,90.959 240.569,91.213 240.68,93.977 
	240.68,94.014 240.68,94.597 240.714,94.889 240.788,97.108 240.607,97.144 240.497,97.144 240.386,97.144 240.207,97.144 
	240.023,97.144 238.823,97.18 238.385,97.219 238.242,97.219 238.095,97.219 235.473,97.363 234.893,97.363 234.02,97.4 
	233.692,97.436 232.819,97.472 232.491,97.472 232.455,97.472 232.347,97.472 232.31,97.472 232.236,97.472 231.873,97.507 
	228.961,97.583 228.817,97.619 228.634,97.619 225.288,97.728 224.232,97.763 222.122,97.835 221.138,97.873 219.937,97.91 
	218.519,97.984 217.171,98.055 216.044,98.055 215.752,98.055 212.842,98.091 209.93,98.164 209.604,98.127 209.313,98.164 
	208.293,98.164 207.785,98.164 206.583,98.164 202.582,98.202 201.672,98.164 200.833,98.202 200.507,98.202 200.471,98.202 
	198.906,98.237 198.723,98.272 198.688,98.237 196.467,98.272 196.139,98.272 195.994,98.272 194.649,98.309 194.103,98.309 
	191.627,98.309 191.556,98.309 191.52,98.309 191.41,98.309 189.919,98.309 189.555,98.309 188.899,98.309 187.226,98.272 
	187.116,98.272 186.243,98.272 184.06,98.272 183.223,98.237 182.75,98.202 181.04,98.202 181.04,98.164 181.002,98.164 
	180.166,98.164 180.056,98.164 179.803,98.164 179.73,98.202 179.438,98.164 179.22,98.164 178.493,98.164 178.383,98.164 
	178.31,98.164 178.201,98.164 177.182,98.127 176.345,98.091 176.09,98.091 176.055,98.091 174.999,98.055 174.782,98.055 
	174.563,98.018 174.526,98.018 172.888,97.984 172.815,97.984 172.561,97.946 170.377,97.91 168.958,97.835 168.194,97.799 
	168.123,97.799 167.722,97.799 166.703,97.763 166.302,97.763 165.175,97.691 165.029,97.691 164.884,97.691 164.775,97.691 
	164.338,97.691 163.319,97.656 161.681,97.691 161.426,97.691 160.298,97.656 159.062,97.619 158.08,97.619 158.006,97.619 
	157.751,97.619 157.06,97.583 156.769,97.583 155.604,97.546 155.314,97.507 155.059,97.472 154.186,97.4 154.04,97.4 
	153.53,97.436 152.985,97.436 151.311,97.472 151.274,97.472 150.837,97.472 150.074,97.4 149.165,97.363 149.128,97.363 
	148.91,97.363 148.801,97.363 148.728,97.363 148.619,97.363 148.437,97.363 147.417,97.328 147.309,97.328 146.944,97.4 
	145.926,97.328 145.052,97.292 144.726,97.292 144.615,97.292 144.434,97.292 142.542,97.18 142.068,97.18 141.814,97.144 
	140.868,97.108 140.832,97.108 140.685,97.108 140.649,97.108 140.285,97.073 139.085,97 139.048,96.853 138.721,96.527 
	138.648,96.417 138.357,96.125 138.32,96.053 138.175,96.053 138.139,96.053 138.067,96.053 138.03,96.018 137.957,95.98 
	137.885,95.943 137.702,95.615 137.702,95.579 137.666,95.543 137.338,95.108 137.156,94.708 137.156,94.634 137.23,94.416 
	137.23,94.306 137.192,94.198 137.119,94.125 137.047,93.977 137.047,93.87 137.084,93.87 137.156,93.797 137.156,93.432 
	137.047,93.288 136.974,93.25 136.974,93.214 136.938,93.142 136.974,92.888 136.938,92.815 136.938,92.705 136.866,92.561 
	136.756,92.413 136.502,92.087 136.502,92.013 136.537,91.906 136.611,91.577 136.611,91.541 136.574,90.995 136.466,90.812 
	136.319,90.521 136.355,90.484 136.392,90.157 136.428,89.684 136.428,89.649 136.428,89.322 136.428,89.282 136.428,88.994 
	136.428,88.847 136.355,88.556 136.355,88.483 136.537,88.083 136.537,87.755 136.574,87.501 136.756,87.102 136.938,86.591 
	137.084,86.116 137.084,85.937 137.047,85.753 136.974,85.499 137.011,85.135 136.974,84.954 136.866,84.372 136.792,84.299 
	136.611,84.188 136.466,84.081 136.355,84.007 136.319,83.971 136.392,83.825 136.392,83.788 136.392,83.716 136.247,83.388 
	136.065,82.916 136.028,82.843 135.847,82.735 135.81,82.735 135.737,82.735 135.737,82.77 135.591,82.843 135.555,82.843 
	135.519,82.843 135.519,82.806 135.519,82.735 135.483,82.48 135.483,82.443 135.41,81.788 135.337,81.497 135.265,81.314 
	135.154,81.132 135.082,80.805 135.154,80.658 135.228,80.514 135.337,80.369 135.882,79.385 136.138,78.802 136.174,78.766 
	136.21,78.694 "/>
<polygon fill="none" stroke="#231F20" stroke-width="2.5" stroke-linecap="round" stroke-linejoin="round" stroke-miterlimit="3.85" points="
	285.659,65.998 285.732,64.082 285.841,61.759 285.917,60.286 285.917,60.212 286.027,58.776 286.063,58.186 286.101,57.448 
	286.137,56.343 286.174,55.975 286.174,55.901 286.248,54.243 286.248,54.097 286.248,53.911 286.469,49.269 286.506,47.427 
	286.542,46.727 286.69,43.594 286.728,41.937 286.837,39.431 286.985,35.856 287.059,33.683 287.059,33.536 287.059,33.499 
	287.095,32.725 287.281,28.415 287.317,27.456 287.317,27.346 287.354,26.571 287.427,25.025 287.463,24.361 287.501,23.183 
	287.574,21.044 287.685,18.466 287.685,17.655 290.116,17.766 291.553,17.802 293.837,17.913 295.384,17.95 295.752,17.95 
	298.7,18.061 298.884,18.061 299.4,18.097 300.432,18.097 301.794,18.135 302.42,18.135 304.225,18.17 304.3,18.17 307.616,18.282 
	308.573,18.282 309.015,18.282 309.347,18.319 310.12,18.319 312.368,18.355 313.104,18.355 313.289,18.355 313.327,18.355 
	314.209,18.392 315.647,18.429 316.051,18.429 317.746,18.429 319.847,18.503 320.473,18.503 325.778,18.576 325.96,18.576 
	325.998,18.576 326.109,18.576 326.662,18.613 326.735,18.613 327.693,18.651 329.241,18.687 329.573,18.687 329.609,18.687 
	331.525,18.724 335.872,18.761 336.35,18.761 336.46,18.761 337.604,18.761 338.965,18.761 341.029,18.724 343.02,18.724 
	343.314,18.724 343.35,18.724 344.529,18.724 347.918,18.687 347.993,18.687 349.208,18.687 349.577,18.687 350.423,18.651 
	351.823,18.613 352.451,18.613 352.965,18.613 354.439,18.576 354.881,18.576 356.097,18.576 356.318,18.576 358.602,18.539 
	358.639,18.539 359.081,18.539 359.928,18.503 360.222,18.503 360.48,18.503 360.775,18.503 360.961,18.503 361.181,18.503 
	361.403,18.466 361.475,18.466 361.586,18.466 362.14,18.466 362.176,18.466 362.433,18.466 363.134,18.466 363.281,18.466 
	363.539,18.466 363.833,18.429 365.197,18.392 365.417,18.392 367.997,18.355 368.549,18.355 369.102,18.355 369.286,18.319 
	370.207,18.319 370.575,18.282 370.796,18.282 371.053,18.282 371.09,18.282 371.901,18.282 375.254,18.17 375.292,18.17 
	375.511,18.17 375.549,18.17 375.77,18.17 375.844,18.17 376.36,18.135 376.396,18.135 376.654,18.135 376.69,18.135 
	376.949,18.135 376.985,18.135 377.207,18.135 377.244,18.135 377.501,18.097 377.759,18.097 377.795,18.097 378.054,18.097 
	378.09,18.097 378.349,18.097 378.383,18.097 378.606,18.097 378.643,18.097 378.902,18.061 378.938,18.061 379.712,18.061 
	379.823,18.061 380.006,18.024 380.228,18.024 380.264,18.024 381.481,17.987 381.958,17.987 382.585,17.95 382.622,17.95 
	382.77,17.95 382.917,17.95 383.469,17.913 383.911,17.913 384.168,17.913 384.317,17.913 385.386,17.876 385.496,17.876 
	385.717,17.839 386.787,17.802 386.969,17.802 387.08,17.802 387.117,17.802 387.264,17.802 387.668,17.802 387.963,17.766 
	388,17.766 388.258,17.766 389.215,17.729 390.027,17.693 390.284,17.693 390.506,22.593 390.542,23.587 390.616,25.798 
	390.653,26.683 390.653,27.015 390.728,28.562 390.728,29.41 390.764,29.484 390.764,30.109 390.764,30.294 390.8,30.33 
	390.8,30.514 390.875,32.503 390.875,32.652 390.911,33.941 390.911,34.199 390.984,35.821 391.022,37 391.059,37.479 
	391.13,39.984 391.169,40.095 391.169,40.278 391.169,40.574 391.244,42.047 391.279,43.337 391.316,43.779 391.316,43.927 
	391.316,44.295 391.352,44.958 391.39,45.29 391.39,45.438 391.39,45.989 391.39,46.025 391.426,46.616 391.5,48.201 391.5,48.311 
	391.5,48.606 391.537,48.789 391.537,49.195 391.612,50.559 391.684,52.144 391.721,53.765 391.759,53.838 391.759,53.875 
	391.795,55.497 392.015,59.992 392.015,60.286 392.015,60.582 392.053,60.838 392.053,61.134 392.089,62.24 392.089,62.424 
	392.089,62.458 392.089,62.68 392.127,62.68 392.127,62.792 392.163,63.824 392.163,64.486 392.201,64.928 392.201,65.223 
	392.237,65.591 392.237,65.96 392.274,66.954 392.311,67.619 392.311,67.692 392.311,68.282 392.383,69.68 392.421,70.53 
	392.421,70.64 392.421,70.899 392.496,72.334 392.531,72.998 392.531,73.145 392.531,73.256 392.531,73.292 392.531,73.33 
	392.531,73.404 392.531,73.55 392.568,74.766 392.568,74.804 392.568,74.841 392.568,74.913 392.606,75.135 392.679,77.125 
	392.679,77.162 392.679,77.383 392.716,78.268 392.752,79.116 392.79,79.519 392.79,79.814 392.827,80.367 392.863,80.772 
	392.863,81.067 392.9,81.916 392.9,82.172 392.9,82.392 392.937,82.617 392.937,83.316 392.974,83.869 392.974,84.272 
	392.974,84.606 393.011,84.714 393.011,85.267 393.047,85.967 393.083,86.63 393.083,86.667 393.083,87.147 393.121,87.515 
	393.121,87.811 393.121,88.252 393.158,89.064 393.158,89.285 393.196,90.057 393.269,92.305 393.305,92.599 393.305,92.636 
	393.305,92.896 393.305,93.005 393.38,94.37 393.38,94.405 393.38,94.443 393.38,94.589 393.38,95.179 393.196,95.179 
	391.206,95.253 390.8,95.29 390.137,95.29 389.99,95.29 389.841,95.29 389.29,95.327 388.516,95.327 385.9,95.437 383.212,95.51 
	382.55,95.474 382.253,95.437 381.958,95.474 381.517,95.474 381.406,95.437 381.001,95.474 378.864,95.548 378.753,95.548 
	378.716,95.585 378.497,95.548 377.207,95.585 376.912,95.585 376.763,95.585 376.101,95.623 375.438,95.623 374.443,95.658 
	373.448,95.695 371.938,95.732 370.759,95.77 367.148,95.841 362.913,95.953 359.672,96.026 359.118,96.064 358.418,96.064 
	358.234,96.064 357.754,96.099 357.534,96.099 357.498,96.099 357.35,96.099 356.834,96.099 356.613,96.099 356.355,96.099 
	355.619,96.099 355.583,96.099 355.213,96.099 354.955,96.099 353.334,96.137 353.001,96.137 352.082,96.137 351.676,96.137 
	349.982,96.173 347.511,96.173 347.035,96.211 345.634,96.137 345.376,96.137 345.082,96.173 344.087,96.173 343.607,96.173 
	340.993,96.173 340.699,96.137 340.625,96.137 340.551,96.137 340.292,96.137 340.183,96.137 339.593,96.173 339.555,96.173 
	339.409,96.173 339.225,96.173 337.751,96.173 337.198,96.137 336.387,96.137 336.35,96.137 332.042,96.137 331.893,96.137 
	330.457,96.137 329.46,96.137 328.872,96.137 328.135,96.137 327.436,96.137 326.957,96.137 326.699,96.137 326.662,96.137 
	325.592,96.137 324.598,96.099 324.23,96.099 322.425,96.099 322.241,96.099 321.726,96.099 321.504,96.099 320.326,96.099 
	319.847,96.099 318.483,96.064 318.373,95.917 317.746,95.917 317.157,95.878 316.715,95.878 315.905,95.878 314.799,95.841 
	313.4,95.841 312.514,95.804 309.936,95.77 309.605,95.77 309.015,95.732 308.352,95.732 308.315,95.732 307.136,95.695 
	307.099,95.695 305.406,95.658 304.374,95.623 303.195,95.623 303.046,95.585 302.973,95.585 302.31,95.585 301.206,95.548 
	300.947,95.548 300.432,95.548 300.21,95.51 298.184,95.474 298.074,95.474 297.08,95.437 296.491,95.437 295.974,95.4 
	295.09,95.363 293.837,95.327 292.658,95.29 291.332,95.253 290.927,95.253 289.343,95.179 286.174,95.07 286.101,95.07 
	285.364,95.033 284.738,95.033 284.774,94.625 284.774,94.554 284.811,93.596 284.811,93.559 284.811,93.336 284.811,93.152 
	284.847,92.896 284.847,92.823 284.885,91.569 284.885,91.09 284.885,91.052 284.922,90.942 284.922,90.353 284.922,90.168 
	284.996,88.805 284.996,88.695 285.033,88.032 285.033,87.736 285.142,85.93 285.142,85.784 285.142,85.636 285.142,85.6 
	285.18,85.342 285.217,84.752 285.253,83.316 285.253,83.057 285.253,82.946 285.291,82.135 285.327,81.251 285.327,81.213 
	285.364,80.698 285.364,80.625 285.364,80.514 285.364,80.442 285.4,80.111 285.4,79.557 285.437,78.857 285.437,78.746 
	285.474,78.121 285.474,77.971 285.511,77.457 285.511,76.166 285.548,75.724 285.548,75.688 285.622,73.55 285.659,73.145 
	285.659,72.704 285.695,72.483 285.548,70.934 285.474,70.346 285.585,67.692 "/>
<polygon fill="none" stroke="#010101" stroke-width="2.5" stroke-linecap="round" stroke-linejoin="round" stroke-miterlimit="3.85" points="
	6.292,72.418 6.215,72.375 6.175,72.375 6.136,72.333 6.019,72.331 5.94,72.291 5.9,72.289 5.742,72.285 5.466,72.238 5.389,72.236 
	5.349,72.235 5.308,72.273 5.266,72.35 5.225,72.39 5.186,72.389 4.988,72.383 4.752,72.335 4.634,72.292 4.596,72.253 
	4.521,72.133 4.444,72.013 4.406,71.973 4.329,71.93 4.287,71.969 4.205,72.125 4.163,72.203 4.124,72.202 4.084,72.201 
	4.043,72.199 3.967,72.118 3.93,72.038 3.893,71.958 3.937,71.761 3.746,71.519 3.709,71.4 3.711,71.36 3.713,71.279 3.674,71.238 
	3.635,71.237 3.556,71.234 3.479,71.193 3.44,71.114 3.443,70.994 3.487,70.879 3.531,70.721 3.658,70.407 3.779,70.292 
	3.821,70.215 3.862,70.137 3.907,69.978 3.949,69.902 3.951,69.862 3.954,69.743 3.956,69.665 4.039,69.508 4.04,69.468 
	4.042,69.389 4.007,69.191 4.01,69.11 4.052,68.996 4.096,68.836 4.097,68.797 4.1,68.718 4.022,68.637 3.986,68.557 3.872,68.356 
	3.912,68.317 4.114,68.205 4.155,68.126 4.082,67.927 4.044,67.847 3.966,67.806 3.849,67.762 3.693,67.678 3.575,67.675 
	3.496,67.632 3.418,67.591 3.419,67.552 3.308,67.312 3.309,67.273 3.31,67.232 3.431,67.117 3.632,67.003 3.674,66.925 
	3.714,66.888 3.799,66.693 3.846,66.417 3.848,66.337 3.85,66.258 3.737,66.058 3.739,65.979 3.741,65.9 3.743,65.86 3.704,65.82 
	3.666,65.778 3.513,65.577 3.476,65.497 3.477,65.457 3.517,65.419 3.557,65.42 3.715,65.425 3.833,65.428 3.914,65.391 
	3.915,65.35 3.916,65.309 3.955,65.31 4.076,65.276 4.273,65.281 4.508,65.367 4.586,65.369 4.626,65.37 4.746,65.332 4.867,65.218 
	4.949,65.141 4.991,65.024 5.077,64.789 5.08,64.67 5.081,64.63 5.247,64.358 5.327,64.321 5.41,64.205 5.451,64.125 5.492,64.087 
	5.494,64.009 5.618,63.854 5.658,63.816 5.778,63.741 5.857,63.743 5.938,63.705 6.059,63.59 6.099,63.551 6.103,63.432 
	6.105,63.353 6.106,63.314 6.388,63.125 6.67,62.972 6.671,62.932 6.632,62.892 6.521,62.652 6.446,62.452 6.448,62.374 
	6.451,62.253 6.576,62.059 6.617,62.021 6.657,61.985 6.698,61.946 6.699,61.907 6.7,61.868 6.702,61.826 6.662,61.785 
	6.664,61.708 6.667,61.626 6.667,61.587 6.71,61.509 6.712,61.431 6.674,61.351 6.675,61.311 6.676,61.272 6.678,61.191 
	6.679,61.153 6.721,61.114 6.722,61.075 6.76,61.076 6.761,61.036 6.762,60.996 6.724,60.995 6.725,60.956 6.726,60.917 
	6.687,60.875 6.688,60.836 6.651,60.755 6.691,60.719 6.692,60.68 6.734,60.64 6.774,60.56 6.855,60.525 6.976,60.489 7.014,60.49 
	7.095,60.452 7.215,60.377 7.26,60.18 7.264,60.062 7.226,59.981 7.187,59.939 7.148,59.899 7.112,59.82 7.113,59.781 7.035,59.737 
	6.997,59.696 7.036,59.697 7.078,59.582 7.121,59.504 7.161,59.424 7.165,59.306 7.167,59.228 7.131,59.108 6.983,58.748 
	6.949,58.51 6.838,58.227 6.878,58.228 6.919,58.191 6.959,58.115 7.002,58.076 6.962,58.035 6.928,57.876 6.929,57.835 
	6.854,57.636 6.855,57.596 6.897,57.518 6.898,57.48 6.938,57.481 7.058,57.484 7.097,57.485 7.178,57.407 7.217,57.37 
	7.258,57.332 7.3,57.292 7.263,57.172 7.264,57.133 7.147,57.051 7.111,56.968 7.072,56.967 7.073,56.929 7.074,56.891 
	7.075,56.849 7.076,56.811 7.116,56.774 7.155,56.775 7.196,56.736 7.236,56.698 7.237,56.659 7.238,56.619 7.239,56.578 
	7.202,56.539 7.126,56.417 7.087,56.416 7.048,56.375 7.008,56.333 7.009,56.295 6.971,56.294 6.892,56.252 6.855,56.211 
	6.858,56.092 6.859,56.054 6.983,55.858 7.065,55.743 7.066,55.703 7.186,55.667 7.224,55.707 7.263,55.708 7.424,55.633 
	7.506,55.517 7.667,55.403 7.668,55.364 7.709,55.326 7.71,55.285 7.79,55.248 7.872,55.171 7.912,55.092 7.953,55.093 
	7.993,55.056 8.033,55.058 8.034,55.018 8.035,54.978 8.036,54.939 7.997,54.897 7.998,54.859 8,54.82 8.041,54.781 8.08,54.782 
	8.119,54.783 8.2,54.747 8.239,54.748 8.32,54.668 8.361,54.63 8.403,54.593 8.444,54.475 8.448,54.318 8.45,54.238 8.417,54.079 
	8.419,54 8.42,53.959 8.465,53.684 8.508,53.567 8.512,53.446 8.513,53.406 8.633,53.333 8.636,53.254 8.757,53.137 8.799,53.06 
	8.88,53.023 8.96,52.986 9.04,52.988 9.195,53.032 9.356,52.957 9.516,52.921 9.555,52.922 9.637,52.806 9.72,52.69 9.76,52.652 
	9.839,52.614 10.037,52.66 10.196,52.624 10.275,52.586 10.399,52.471 10.562,52.277 10.563,52.237 10.602,52.238 10.603,52.198 
	10.725,52.084 10.806,52.047 10.965,52.01 11.082,52.055 11.281,51.98 11.442,51.906 11.484,51.828 11.682,51.792 11.683,51.752 
	11.722,51.754 11.766,51.637 11.729,51.519 11.77,51.48 11.771,51.441 11.891,51.403 11.971,51.367 12.012,51.289 12.297,51.018 
	12.5,50.867 12.5,50.828 12.539,50.829 12.542,50.749 12.581,50.75 12.622,50.711 12.661,50.712 12.662,50.673 12.702,50.674 
	12.703,50.635 12.744,50.596 12.745,50.556 12.784,50.557 12.823,50.558 12.862,50.559 12.983,50.522 13.022,50.523 13.101,50.525 
	13.141,50.527 13.142,50.488 13.183,50.41 13.146,50.37 13.147,50.292 13.149,50.211 13.151,50.171 13.115,50.012 13.118,49.894 
	13.121,49.774 13.122,49.735 13.084,49.695 12.852,49.492 12.78,49.251 12.705,49.091 12.669,48.973 12.592,48.89 12.555,48.851 
	12.475,48.808 12.397,48.766 12.282,48.644 12.085,48.639 11.889,48.555 11.851,48.515 11.776,48.354 11.623,48.192 11.584,48.15 
	11.507,48.109 11.354,47.906 11.314,47.866 11.117,47.861 11,47.818 11.001,47.778 10.963,47.739 10.964,47.699 10.928,47.578 
	10.93,47.5 10.852,47.419 10.812,47.418 10.657,47.295 10.618,47.294 10.581,47.253 10.582,47.214 10.542,47.213 10.462,47.21 
	10.463,47.17 10.387,47.05 10.388,47.011 10.35,47.01 10.351,46.97 10.311,46.969 10.312,46.929 10.273,46.928 10.232,46.927 
	10.154,46.925 10.033,46.961 9.915,46.998 9.756,46.994 9.718,46.953 9.68,46.912 9.564,46.79 9.565,46.75 9.567,46.71 
	9.649,46.555 9.652,46.476 9.653,46.437 9.658,46.238 9.662,46.12 9.704,46.042 9.706,45.963 9.747,45.885 9.751,45.727 
	9.718,45.528 9.719,45.489 9.606,45.248 9.381,44.767 9.152,44.524 9.079,44.323 9.081,44.245 9.04,44.244 9.082,44.206 
	9.123,44.167 9.162,44.167 9.166,44.01 9.089,43.927 8.934,43.805 8.938,43.647 8.939,43.607 8.942,43.489 8.945,43.41 8.907,43.33 
	8.83,43.248 8.792,43.207 8.793,43.129 8.795,43.089 8.797,43.01 8.798,42.971 8.799,42.932 8.761,42.891 8.762,42.851 
	8.763,42.812 8.726,42.771 8.649,42.609 8.613,42.53 8.578,42.332 8.582,42.213 8.583,42.173 8.583,42.134 8.545,42.133 
	8.546,42.093 8.507,42.092 8.465,42.09 8.389,42.048 8.35,42.008 8.273,41.888 8.197,41.847 8.08,41.764 8.001,41.723 7.886,41.641 
	7.848,41.56 7.81,41.52 7.771,41.478 7.734,41.398 7.579,41.275 7.463,41.193 7.387,41.072 7.31,40.952 7.274,40.872 7.236,40.792 
	7.237,40.751 7.163,40.592 7.164,40.552 7.13,40.354 7.09,40.353 7.094,40.193 7.019,40.034 7.02,39.995 6.946,39.834 6.871,39.713 
	6.793,39.631 6.754,39.59 6.715,39.589 6.716,39.551 6.56,39.466 6.522,39.426 6.483,39.424 6.444,39.345 6.405,39.344 
	6.406,39.305 6.33,39.224 6.293,39.144 6.294,39.104 6.295,39.064 6.261,38.866 6.262,38.826 6.305,38.709 6.347,38.591 
	6.388,38.513 6.39,38.433 6.355,38.313 6.357,38.236 6.358,38.195 6.359,38.155 6.36,38.117 6.361,38.077 6.404,37.92 6.407,37.84 
	6.41,37.722 6.375,37.562 6.377,37.483 6.379,37.445 6.381,37.366 6.464,37.17 6.467,37.091 6.47,36.972 6.471,36.933 6.436,36.774 
	6.438,36.694 6.439,36.654 6.442,36.536 6.446,36.378 6.49,36.221 6.576,36.025 6.697,35.91 6.737,35.871 6.897,35.797 
	6.941,35.679 6.942,35.639 6.943,35.601 6.945,35.521 6.905,35.521 6.906,35.481 6.868,35.439 6.831,35.36 6.792,35.359 
	6.752,35.317 6.675,35.237 6.52,35.153 6.48,35.152 6.405,35.071 6.365,35.07 6.327,34.99 6.369,34.913 6.41,34.875 6.45,34.834 
	6.53,34.758 6.571,34.719 6.611,34.72 6.613,34.681 6.651,34.682 6.69,34.683 6.732,34.646 6.771,34.646 6.851,34.648 6.969,34.652 
	7.047,34.693 7.207,34.618 7.327,34.582 7.368,34.543 7.452,34.387 7.542,33.955 7.544,33.837 7.546,33.796 7.552,33.559 
	7.553,33.52 7.557,33.401 7.52,33.282 7.485,33.162 7.408,33.079 7.378,32.723 7.421,32.568 7.355,32.13 7.252,31.494 7.26,31.216 
	7.305,31.02 7.201,30.503 7.132,30.185 7.022,29.787 6.913,29.466 6.568,29.101 6.569,29.062 6.57,29.022 6.456,28.821 
	6.457,28.781 6.419,28.701 6.421,28.622 6.388,28.424 6.389,28.385 6.317,28.105 6.241,27.984 6.246,27.826 6.247,27.787 
	6.248,27.747 6.292,27.55 6.334,27.473 6.416,27.395 6.496,27.358 6.579,27.241 6.62,27.203 6.621,27.164 6.583,27.083 
	6.546,26.963 6.555,26.649 6.521,26.41 6.523,26.369 6.606,26.214 6.69,26.058 6.735,25.822 6.662,25.661 6.435,25.259 
	6.243,25.056 6.247,24.898 6.249,24.819 6.29,24.742 6.374,24.585 6.417,24.467 6.417,24.428 6.379,24.388 6.224,24.264 
	6.109,24.143 6.073,24.022 6.075,23.944 6.204,23.552 6.249,23.355 6.254,23.158 6.182,22.919 6.231,22.563 6.082,22.243 
	6.124,22.164 6.205,22.088 6.288,21.932 6.331,21.814 6.332,21.776 6.298,21.576 6.3,21.496 6.342,21.419 6.343,21.38 6.423,21.343 
	6.584,21.228 6.626,21.151 6.627,21.109 6.629,21.031 6.631,20.952 6.595,20.833 6.479,20.711 6.326,20.548 6.212,20.347 
	6.257,20.19 6.26,20.072 6.145,19.95 5.952,19.786 5.913,19.745 5.955,19.667 5.997,19.55 5.961,19.431 5.924,19.312 5.809,19.188 
	5.776,18.99 5.824,18.635 5.826,18.555 5.867,18.518 5.868,18.478 5.909,18.439 5.99,18.362 6.033,18.245 6.035,18.167 
	5.958,18.084 5.919,18.044 5.88,18.043 5.881,18.003 5.882,17.964 5.885,17.845 5.966,17.769 5.969,17.69 5.97,17.65 5.896,17.45 
	5.819,17.408 5.781,17.329 5.743,17.287 5.705,17.247 5.707,17.168 5.748,17.09 5.87,16.975 6.031,16.859 6.309,16.828 6.388,16.83 
	6.507,16.794 6.707,16.76 6.945,16.728 6.985,16.688 7.064,16.691 7.105,16.652 7.146,16.574 7.309,16.46 7.59,16.27 7.63,16.271 
	7.703,16.471 7.782,16.512 7.901,16.437 8.103,16.283 8.384,16.172 8.464,16.135 8.622,16.14 8.701,16.142 8.859,16.146 
	8.938,16.148 9.292,16.197 9.333,16.198 9.411,16.241 9.449,16.32 9.448,16.36 9.447,16.401 9.406,16.438 9.403,16.517 
	9.402,16.556 9.441,16.598 9.479,16.599 9.518,16.639 9.557,16.64 9.677,16.604 9.919,16.453 10.039,16.456 10.116,16.458 
	10.19,16.618 10.228,16.699 10.269,16.7 10.549,16.548 10.713,16.355 10.792,16.357 10.869,16.359 11.303,16.452 11.383,16.454 
	11.494,16.693 11.534,16.734 11.839,17.099 11.918,17.141 11.956,17.181 12.261,17.584 12.296,17.744 12.255,17.783 12.135,17.858 
	12.133,17.938 12.13,18.016 12.638,18.267 12.751,18.469 12.788,18.588 12.866,18.63 13.021,18.751 13.021,18.792 13.176,18.836 
	13.214,18.877 13.254,18.878 13.293,18.879 13.571,18.887 13.89,18.775 14.131,18.665 14.288,18.668 14.327,18.709 14.445,18.752 
	14.484,18.753 14.525,18.675 14.649,18.521 14.689,18.443 14.732,18.365 14.695,18.244 14.738,18.127 14.864,17.894 15.071,17.503 
	15.113,17.465 15.036,17.383 14.958,17.342 14.959,17.302 14.961,17.224 15.003,17.146 15.162,17.07 15.282,17.073 15.323,17.035 
	15.491,16.645 15.74,16.216 15.864,16.022 15.947,15.864 16.187,15.792 16.189,15.714 16.213,14.844 16.215,14.764 16.224,14.448 
	16.234,14.053 16.287,13.579 16.292,13.422 16.363,12.237 16.389,11.288 16.392,11.208 16.401,10.854 16.404,10.734 16.417,10.261 
	16.516,8.085 16.519,8.007 16.533,7.493 16.534,7.453 16.546,6.979 16.644,4.885 16.645,4.846 16.647,4.727 16.653,4.528 
	16.705,4.095 16.8,2.04 16.822,1.25 18.045,1.323 18.758,1.342 21.837,1.506 23.023,1.539 23.298,1.585 23.734,1.597 24.84,1.627 
	25.355,1.642 25.552,1.686 26.143,1.702 27.568,1.741 28.042,1.754 30.254,1.854 30.846,1.871 31.754,1.934 31.873,1.938 
	32.506,1.955 32.665,1.959 33.059,1.97 33.454,1.98 34.008,1.996 34.481,2.009 35.981,2.089 37.643,2.134 38.355,2.154 
	38.552,2.159 38.592,2.16 38.631,2.161 38.71,2.163 38.79,2.166 39.461,2.184 39.777,2.192 40.331,2.208 41.042,2.227 41.122,2.229 
	41.28,2.233 43.137,2.284 44.836,2.331 45.983,2.362 48.394,2.428 50.569,2.487 51.082,2.501 51.635,2.517 51.713,2.519 
	52.623,2.543 54.915,2.606 54.954,2.607 55.034,2.609 55.073,2.61 55.113,2.612 55.152,2.613 55.192,2.614 55.232,2.615 
	55.627,2.625 55.745,2.629 56.338,2.645 56.575,2.652 56.615,2.653 56.893,2.66 57.208,2.669 57.248,2.67 57.366,2.673 
	57.483,2.676 58.828,2.713 58.868,2.714 58.947,2.716 59.541,2.694 59.935,2.705 60.015,2.707 64.485,2.75 65.195,2.77 
	66.302,2.761 66.382,2.763 66.62,2.77 66.697,2.771 67.173,2.785 67.41,2.791 67.686,2.798 67.964,2.767 68.124,2.771 68.201,2.773 
	68.24,2.813 68.553,2.901 68.593,2.902 69.028,2.915 69.266,2.921 69.542,2.928 69.819,2.896 70.333,2.91 70.57,2.917 70.849,2.924 
	71.361,2.938 72.786,2.938 72.983,2.943 73.22,2.95 73.734,2.925 73.971,2.931 74.249,2.939 74.447,2.944 74.486,2.945 
	74.525,2.946 75.04,2.96 75.316,2.968 76.305,2.955 76.938,2.972 77.136,2.977 78.481,2.975 78.559,2.977 79.548,2.964 
	79.707,2.969 80.775,2.998 80.932,3.002 81.011,3.004 82.633,2.97 82.989,2.98 84.255,2.975 84.295,2.976 84.334,2.977 
	84.572,2.983 84.649,2.985 84.887,2.992 85.166,2.96 85.915,2.981 85.995,2.983 86.231,2.989 86.431,2.995 87.182,2.976 
	89.159,2.989 89.145,3.503 89.139,3.702 89.15,4.809 89.14,5.205 89.138,5.284 89.135,5.363 89.17,5.522 89.152,6.194 89.168,7.025 
	89.166,7.104 89.172,8.331 89.162,8.727 89.168,9.914 89.165,11.497 89.152,11.97 89.179,12.447 89.154,13.356 89.171,14.148 
	89.158,14.622 89.18,15.295 89.162,15.927 89.189,16.324 89.191,17.709 89.178,18.223 89.171,18.46 89.201,18.896 89.183,20.954 
	89.168,21.467 89.185,22.339 89.177,22.614 89.168,22.932 89.205,23.012 89.204,23.051 89.201,23.169 89.177,24.041 89.176,24.079 
	89.172,24.197 89.206,24.476 89.19,25.028 89.181,25.385 89.203,25.939 89.194,26.256 89.188,26.493 89.172,27.085 89.17,27.125 
	89.203,27.481 89.19,27.917 89.189,27.957 89.188,28.036 89.183,28.194 89.181,28.274 89.173,28.55 89.205,28.79 89.201,28.945 
	89.197,29.064 89.194,29.183 89.19,29.341 89.188,29.381 89.176,29.855 89.209,30.134 89.203,30.371 89.195,30.648 89.188,30.884 
	89.182,31.122 89.176,31.359 89.174,31.398 89.206,31.676 89.201,31.835 89.191,32.19 89.189,32.27 89.186,32.389 89.184,32.468 
	89.183,32.507 89.212,32.903 89.211,32.942 89.208,33.061 89.206,33.141 89.202,33.298 89.196,33.495 89.188,33.773 89.222,34.011 
	89.214,34.288 89.208,34.524 89.2,34.803 89.192,35.079 89.19,35.157 89.225,35.316 89.217,35.594 89.209,35.871 89.205,36.028 
	89.213,38.68 89.222,39.748 89.236,40.739 89.218,41.371 89.213,41.569 89.237,42.124 89.231,42.359 89.223,42.637 89.216,42.914 
	89.209,43.151 89.233,46.595 89.205,47.621 89.225,48.414 89.229,54.032 89.207,56.247 89.226,57.04 89.242,57.87 89.242,59.294 
	89.234,61.036 89.233,61.075 89.215,61.749 89.223,62.853 89.221,62.936 89.238,63.805 89.233,63.964 89.214,64.675 89.208,64.913 
	89.237,66.694 89.235,66.773 89.231,66.891 89.229,66.97 89.225,67.128 89.21,67.682 89.232,68.316 89.231,68.355 89.229,68.435 
	89.229,68.474 89.227,68.513 89.211,70.569 89.229,71.324 89.235,72.588 89.22,73.142 89.213,73.418 89.202,73.815 89.201,73.855 
	89.234,76.902 89.24,78.168 89.215,79.078 89.21,79.274 89.213,80.621 89.212,80.661 89.21,80.738 89.208,80.817 89.23,81.451 
	89.2,85.408 89.221,90.473 89.193,91.5 89.191,91.579 89.184,91.817 89.202,92.608 89.195,92.845 89.188,94.546 89.206,95.417 
	89.2,95.616 89.191,95.932 89.175,96.524 89.168,96.761 89.168,99.651 89.18,102.104 89.179,102.144 89.17,102.459 89.177,105.149 
	85.617,105.092 85.301,105.083 84.944,105.113 82.294,105.081 82.137,105.076 82.018,105.073 81.782,105.066 81.742,105.065 
	81.623,105.102 81.583,105.101 81.504,105.098 81.423,105.096 81.265,105.092 81.228,105.091 81.187,105.09 81.148,105.089 
	80.988,105.084 80.396,105.068 77.667,105.072 77.113,105.057 76.522,105.041 75.769,105.06 75.136,105.042 74.463,105.024 
	74.425,105.023 72.368,105.008 72.289,105.006 71.3,104.979 67.346,104.949 64.855,104.92 63.313,104.877 62.721,104.862 
	62.444,104.854 62.167,104.886 61.851,104.877 61.336,104.864 60.705,104.846 60.349,104.836 59.912,104.865 59.873,104.864 
	59.556,104.855 59.36,104.85 59.004,104.84 57.857,104.809 57.076,104.509 53.396,103.025 50.423,101.835 49.484,101.453 
	44.044,99.288 39.975,97.673 38.176,96.952 38.098,96.911 38.019,96.909 37.822,96.823 37.785,96.782 37.628,96.739 35.71,95.973 
	34.498,95.465 30.859,94.021 30.546,93.893 26.633,92.363 25.264,91.772 23.504,91.049 21.079,90.034 17.207,88.424 16.739,88.253 
	12.788,86.603 9.698,85.291 5.944,83.724 5.005,83.343 3.911,82.879 2.697,82.37 2.151,82.157 1.72,81.987 1.25,81.777 
	1.251,81.738 1.292,81.698 1.254,81.62 1.255,81.58 1.297,81.541 1.336,81.542 1.376,81.542 1.377,81.502 1.417,81.465 
	1.418,81.425 1.419,81.385 1.343,81.303 1.305,81.262 1.346,81.185 1.388,81.108 1.469,81.031 1.47,80.993 1.431,80.952 
	1.434,80.872 1.435,80.833 1.475,80.833 1.594,80.796 1.595,80.757 1.634,80.758 1.635,80.718 1.637,80.678 1.638,80.639 
	1.639,80.6 1.601,80.56 1.562,80.519 1.482,80.557 1.403,80.555 1.365,80.514 1.366,80.474 1.406,80.436 1.487,80.359 1.528,80.321 
	1.529,80.282 1.491,80.239 1.492,80.2 1.493,80.161 1.533,80.123 1.575,80.042 1.576,80.003 1.539,79.924 1.54,79.885 1.46,79.883 
	1.461,79.843 1.426,79.724 1.43,79.566 1.471,79.488 1.591,79.453 1.631,79.454 1.669,79.494 1.708,79.495 1.868,79.459 
	1.871,79.378 1.872,79.34 1.912,79.302 1.992,79.265 2.112,79.188 2.153,79.151 2.154,79.111 2.155,79.07 2.156,79.032 2.24,78.916 
	2.319,78.877 2.44,78.761 2.442,78.723 2.443,78.683 2.483,78.644 2.486,78.526 2.733,78.176 2.735,78.136 2.737,78.059 
	2.859,77.903 2.901,77.826 2.942,77.787 2.984,77.668 2.985,77.63 3.149,77.436 3.191,77.359 3.23,77.36 3.384,77.522 3.463,77.524 
	3.542,77.526 3.582,77.528 3.699,77.57 3.74,77.571 3.856,77.614 4.015,77.619 4.055,77.62 4.092,77.661 4.131,77.662 4.25,77.665 
	4.368,77.707 4.446,77.749 4.486,77.709 4.528,77.632 5.002,77.645 5.007,77.487 5.283,77.534 5.287,77.375 5.484,77.381 
	5.682,77.386 5.686,77.268 5.883,77.274 5.849,77.115 5.812,76.956 5.813,76.917 5.816,76.837 5.82,76.679 5.862,76.64 5.864,76.56 
	5.984,76.485 6.023,76.447 6.024,76.408 6.106,76.331 6.108,76.292 6.189,76.214 6.309,76.176 6.388,76.139 6.429,76.102 
	6.51,76.065 6.631,75.949 6.711,75.874 6.834,75.757 6.928,75.206 6.93,75.125 6.931,75.087 6.981,74.734 6.982,74.693 
	6.984,74.615 6.986,74.536 6.833,74.373 6.794,74.332 6.756,74.25 6.721,74.132 6.76,74.093 6.762,74.015 6.845,73.938 
	6.886,73.859 6.889,73.78 6.89,73.741 6.891,73.701 6.892,73.661 6.893,73.622 6.894,73.583 6.856,73.502 6.817,73.463 
	6.777,73.461 6.659,73.497 6.62,73.496 6.582,73.457 6.583,73.415 6.544,73.297 6.55,73.098 6.518,72.861 6.48,72.779 6.481,72.741 
	6.442,72.701 6.443,72.661 6.444,72.622 6.406,72.621 6.369,72.5 6.292,72.458 "/>
<path d="M263.072,52.701l-1.121,1.121l3.68,3.68l-3.68,3.68l1.121,1.121l4.801-4.801L263.072,52.701z M263.072,52.701"/>
<path d="M113.072,52.701l-1.121,1.121l3.68,3.68l-3.68,3.68l1.121,1.121l4.801-4.801L113.072,52.701z M113.072,52.701"/>
</svg>
