<?xml version="1.0" encoding="utf-8"?>
<!-- Generator: Adobe Illustrator 15.0.0, SVG Export Plug-In  -->
<!DOCTYPE svg PUBLIC "-//W3C//DTD SVG 1.1//EN" "http://www.w3.org/Graphics/SVG/1.1/DTD/svg11.dtd" [
	<!ENTITY ns_flows "http://ns.adobe.com/Flows/1.0/">
]>
<svg version="1.1"
	 xmlns="http://www.w3.org/2000/svg" xmlns:xlink="http://www.w3.org/1999/xlink" xmlns:a="http://ns.adobe.com/AdobeSVGViewerExtensions/3.0/"
	 x="0px" y="0px" width="50px" height="50px" viewBox="900.275 1276.971 50 50"
	 overflow="visible" enable-background="new 900.275 1276.971 50 50" xml:space="preserve">
<defs>
</defs>
<polyline fill="none" points="1787.108,0 61,0 61,2603.557 1787.108,2603.557 "/>
<polyline fill="none" points="1726.108,18 0,18 0,2621.557 1726.108,2621.557 "/>
<g>
	<g>
		<circle fill="#FFFFFF" cx="925.376" cy="1301.779" r="22.362"/>
		<path fill="#6D6E70" d="M925.377,1324.677c-12.627,0-22.899-10.272-22.899-22.898c0-6.117,2.382-11.867,6.707-16.192
			c4.325-4.324,10.075-6.706,16.192-6.706c6.115,0,11.866,2.382,16.191,6.706c4.324,4.325,6.707,10.075,6.707,16.192
			C948.275,1314.405,938.002,1324.677,925.377,1324.677z M925.377,1279.952c-12.036,0-21.827,9.791-21.827,21.827
			c0,12.034,9.792,21.826,21.827,21.826c12.035,0,21.826-9.792,21.826-21.826C947.203,1289.743,937.412,1279.952,925.377,1279.952z"
			/>
	</g>
</g>
<circle fill="#6D6E70" cx="925.392" cy="1301.763" r="20.589"/>
<path fill="#4394D0" d="M925.392,1281.174c-11.371,0-20.589,9.218-20.589,20.589s9.218,20.589,20.589,20.589
	C925.392,1305.71,925.392,1301.686,925.392,1281.174z"/>
<path fill="#FFFFFF" d="M924.72,1285.832c0.464,0.163,3.579,0.054,4.181-0.738c0.314-0.415,0-2.623-0.547-3.169
	c-0.547-0.547-3.524-1.093-3.906-0.874c-0.383,0.218-0.657,0.573-0.629,1.065c0.027,0.491,0.41,0.929,0.41,1.284
	c0,0.354-0.164,0.901-0.218,1.365C923.955,1285.23,924.255,1285.667,924.72,1285.832z"/>
<path fill="#FFFFFF" d="M925.494,1285.95L925.494,1285.95c-0.381,0-0.669-0.024-0.792-0.068c-0.497-0.175-0.803-0.637-0.746-1.122
	c0.023-0.2,0.067-0.414,0.108-0.621c0.057-0.278,0.109-0.54,0.109-0.738c0-0.157-0.085-0.342-0.175-0.537
	c-0.103-0.224-0.22-0.477-0.235-0.744c-0.025-0.463,0.207-0.859,0.655-1.115c0.066-0.038,0.188-0.057,0.372-0.057
	c0.854,0,3.104,0.444,3.6,0.939c0.57,0.57,0.879,2.808,0.552,3.239C928.484,1285.73,926.629,1285.95,925.494,1285.95z
	 M924.792,1281.054c-0.213,0-0.291,0.026-0.318,0.042c-0.292,0.166-0.632,0.478-0.602,1.017c0.014,0.247,0.122,0.48,0.225,0.705
	c0.095,0.206,0.185,0.401,0.185,0.582c0,0.209-0.054,0.477-0.111,0.76c-0.042,0.205-0.084,0.417-0.107,0.612
	c-0.051,0.436,0.226,0.851,0.675,1.009c0.109,0.039,0.393,0.062,0.756,0.062c1.07,0,2.932-0.213,3.363-0.782
	c0.299-0.395-0.006-2.563-0.542-3.099C927.875,1281.521,925.707,1281.054,924.792,1281.054z"/>
<path fill="#FFFFFF" d="M925.566,1289.907c0.738,0.191,3.881-0.109,4.29-0.573c0.409-0.465,0.026-0.547-0.082-1.038
	c-0.109-0.492,0.245-1.065,0.245-1.585s-0.519-0.71-0.982-0.792c-0.465-0.082-3.744,0.272-4.071,0.519
	c-0.328,0.246-0.301,0.438-0.328,0.684c-0.026,0.245,0.355,0.546,0.382,0.847c0.028,0.301-0.245,0.983-0.272,1.339
	C924.72,1289.661,924.829,1289.715,925.566,1289.907z"/>
<path fill="#FFFFFF" d="M926.298,1290.019C926.298,1290.019,926.298,1290.019,926.298,1290.019c-0.335,0-0.593-0.021-0.745-0.061
	c-0.721-0.187-0.891-0.246-0.859-0.656c0.013-0.163,0.072-0.382,0.136-0.614c0.075-0.274,0.152-0.559,0.138-0.716
	c-0.012-0.133-0.105-0.273-0.195-0.408c-0.104-0.156-0.203-0.305-0.188-0.449c0.004-0.031,0.006-0.061,0.01-0.09
	c0.018-0.206,0.033-0.401,0.34-0.631c0.312-0.234,3.039-0.542,3.885-0.542c0.104,0,0.179,0.005,0.228,0.014
	c0.683,0.12,1.028,0.404,1.028,0.845c0,0.233-0.07,0.477-0.137,0.712c-0.088,0.307-0.17,0.597-0.111,0.861
	c0.035,0.156,0.1,0.27,0.156,0.37c0.119,0.21,0.213,0.377-0.086,0.715C929.552,1289.759,927.502,1290.019,926.298,1290.019z
	 M928.818,1285.959c-0.906,0-3.545,0.313-3.82,0.521c-0.268,0.201-0.281,0.356-0.299,0.555c-0.002,0.029-0.005,0.061-0.008,0.092
	c-0.012,0.106,0.076,0.238,0.169,0.378c0.098,0.146,0.198,0.298,0.213,0.458c0.017,0.177-0.063,0.471-0.142,0.754
	c-0.059,0.217-0.119,0.441-0.131,0.594c-0.023,0.308,0.041,0.354,0.779,0.545c0.144,0.037,0.391,0.057,0.717,0.057h0.001
	c1.171,0,3.209-0.264,3.519-0.614c0.248-0.28,0.186-0.391,0.072-0.591c-0.057-0.102-0.129-0.228-0.166-0.399
	c-0.065-0.291,0.024-0.608,0.111-0.914c0.065-0.229,0.133-0.464,0.133-0.683c0-0.386-0.307-0.628-0.939-0.739
	C928.985,1285.963,928.915,1285.959,928.818,1285.959z"/>
<path fill="#FFFFFF" d="M925.977,1294.72c0.738,0.191,3.88-0.108,4.289-0.573c0.41-0.465-0.3-1.257-0.409-1.749
	c-0.11-0.491,0.272-0.956,0.272-1.475c0-0.52-0.19-0.711-0.654-0.793c-0.465-0.082-2.76,0.547-4.536,0.273
	c-0.327,0.246-0.273,0.601-0.301,0.847c-0.026,0.246,0.492,0.602,0.52,0.901c0.026,0.301-0.246,1.094-0.273,1.448
	C924.856,1293.956,925.239,1294.53,925.977,1294.72z"/>
<path fill="#FFFFFF" d="M926.707,1294.833L926.707,1294.833c-0.335,0-0.592-0.021-0.744-0.06c-0.782-0.203-1.16-0.813-1.133-1.177
	c0.012-0.159,0.07-0.395,0.132-0.644c0.077-0.312,0.156-0.635,0.142-0.796c-0.012-0.132-0.14-0.287-0.264-0.437
	c-0.14-0.169-0.271-0.328-0.256-0.476c0.006-0.044,0.008-0.092,0.01-0.142c0.012-0.234,0.025-0.526,0.312-0.742l0.018-0.014
	l0.023,0.004c0.296,0.045,0.629,0.068,0.991,0.068c0.888,0,1.81-0.138,2.483-0.238c0.516-0.077,0.896-0.133,1.062-0.104
	c0.511,0.09,0.7,0.319,0.7,0.846c0,0.239-0.078,0.466-0.153,0.685c-0.093,0.268-0.179,0.521-0.122,0.778
	c0.033,0.151,0.129,0.335,0.229,0.53c0.222,0.433,0.473,0.922,0.17,1.266C929.961,1294.574,927.912,1294.833,926.707,1294.833z
	 M924.953,1290.46c-0.23,0.184-0.242,0.43-0.252,0.647c-0.002,0.053-0.005,0.103-0.01,0.148c-0.012,0.103,0.111,0.251,0.23,0.396
	c0.135,0.162,0.273,0.33,0.289,0.496c0.016,0.179-0.066,0.51-0.145,0.83c-0.061,0.245-0.117,0.477-0.129,0.627
	c-0.025,0.325,0.326,0.875,1.053,1.063c0.143,0.037,0.391,0.057,0.717,0.057c1.171,0,3.21-0.264,3.52-0.614
	c0.254-0.288,0.021-0.743-0.186-1.146c-0.104-0.201-0.201-0.392-0.236-0.556c-0.064-0.288,0.031-0.567,0.124-0.837
	c0.073-0.211,0.147-0.428,0.147-0.649c0-0.473-0.154-0.659-0.611-0.74c-0.025-0.004-0.058-0.006-0.098-0.006
	c-0.19,0-0.517,0.048-0.93,0.11c-0.676,0.101-1.604,0.239-2.499,0.239C925.58,1290.527,925.249,1290.504,924.953,1290.46z"/>
<path fill="#FFFFFF" d="M925.778,1299.367c0.708,0.284,3.775,0.707,4.241,0.299c0.467-0.408-0.282-1.492-0.327-1.994
	s0.37-1.152,0.437-1.667c0.067-0.515,0.205-0.896-0.246-1.038c-0.449-0.141-2.852,0.485-4.577-0.015
	c-0.356,0.202-0.349,0.561-0.407,0.802c-0.059,0.24,0.41,0.659,0.398,0.961c-0.012,0.301-0.559,1.045-0.632,1.394
	S925.072,1299.082,925.778,1299.367z"/>
<path fill="#FFFFFF" d="M929.046,1299.888L929.046,1299.888c-1.089,0-2.775-0.266-3.287-0.472c-0.739-0.298-1.223-0.954-1.146-1.319
	c0.035-0.171,0.172-0.417,0.315-0.678c0.151-0.275,0.31-0.56,0.314-0.707c0.005-0.133-0.102-0.304-0.205-0.468
	c-0.116-0.186-0.227-0.361-0.191-0.504c0.011-0.043,0.019-0.09,0.028-0.14c0.04-0.231,0.091-0.519,0.404-0.695l0.02-0.012
	l0.021,0.007c0.453,0.131,0.983,0.194,1.623,0.194c0.68,0,1.346-0.073,1.882-0.132c0.35-0.039,0.651-0.072,0.853-0.072
	c0.099,0,0.171,0.008,0.222,0.024c0.431,0.135,0.376,0.483,0.313,0.887c-0.01,0.066-0.021,0.137-0.03,0.209
	c-0.029,0.225-0.123,0.476-0.214,0.718c-0.122,0.325-0.248,0.66-0.223,0.938c0.014,0.159,0.106,0.389,0.204,0.632
	c0.208,0.521,0.445,1.11,0.105,1.408C929.917,1299.827,929.578,1299.888,929.046,1299.888z M925.312,1295.01
	c-0.252,0.152-0.295,0.396-0.332,0.609c-0.01,0.052-0.019,0.101-0.029,0.146c-0.024,0.099,0.078,0.263,0.178,0.421
	c0.112,0.179,0.229,0.363,0.222,0.529c-0.007,0.173-0.163,0.456-0.327,0.755c-0.135,0.242-0.273,0.493-0.306,0.648
	c-0.067,0.318,0.4,0.923,1.081,1.197c0.504,0.203,2.168,0.464,3.247,0.464l0,0c0.629,0,0.858-0.085,0.939-0.155
	c0.282-0.247,0.061-0.8-0.135-1.287c-0.101-0.251-0.196-0.487-0.212-0.662c-0.027-0.302,0.104-0.648,0.229-0.984
	c0.093-0.248,0.181-0.482,0.208-0.694c0.01-0.073,0.021-0.145,0.031-0.212c0.068-0.446,0.088-0.665-0.24-0.769
	c-0.131-0.041-0.533-0.002-1.03,0.053c-0.538,0.059-1.208,0.133-1.894,0.133C926.304,1295.203,925.771,1295.139,925.312,1295.01z"/>
<path fill="#FFFFFF" d="M925.191,1303.908c0.643,0.367,3.541,1.178,4.043,0.848c0.504-0.331-0.074-1.475-0.053-1.963
	c0.023-0.489,0.509-1.061,0.642-1.547c0.132-0.486,0.315-0.837-0.101-1.031c-0.414-0.195-2.809,0.091-4.403-0.618
	c-0.37,0.146-0.409,0.494-0.498,0.718c-0.088,0.224,0.308,0.688,0.257,0.977c-0.051,0.289-0.676,0.934-0.793,1.26
	C924.17,1302.875,924.549,1303.541,925.191,1303.908z"/>
<path fill="#FFFFFF" d="M928.816,1304.886L928.816,1304.886c-0.949,0-3.084-0.608-3.65-0.932c-0.673-0.385-1.053-1.08-0.931-1.423
	c0.058-0.16,0.221-0.38,0.394-0.611c0.183-0.245,0.371-0.498,0.396-0.639c0.021-0.127-0.059-0.305-0.136-0.477
	c-0.088-0.193-0.171-0.377-0.118-0.512c0.016-0.04,0.029-0.083,0.045-0.13c0.07-0.218,0.157-0.488,0.482-0.617l0.021-0.009
	l0.021,0.01c1.036,0.46,2.437,0.497,3.364,0.522c0.516,0.014,0.889,0.023,1.041,0.096c0.396,0.187,0.299,0.516,0.186,0.896
	c-0.019,0.063-0.038,0.13-0.057,0.199c-0.059,0.212-0.182,0.44-0.301,0.662c-0.16,0.296-0.326,0.603-0.339,0.872
	c-0.007,0.154,0.052,0.388,0.114,0.635c0.132,0.529,0.282,1.129-0.086,1.37C929.176,1304.858,929.029,1304.886,928.816,1304.886z
	 M925.318,1299.655c-0.262,0.113-0.336,0.341-0.4,0.542c-0.016,0.048-0.03,0.095-0.047,0.137c-0.036,0.092,0.041,0.263,0.116,0.428
	c0.085,0.187,0.172,0.38,0.144,0.539c-0.029,0.166-0.217,0.418-0.416,0.684c-0.16,0.216-0.327,0.438-0.379,0.584
	c-0.105,0.297,0.265,0.94,0.883,1.293c0.505,0.289,2.605,0.918,3.598,0.919l0,0c0.235,0,0.341-0.038,0.389-0.069
	c0.305-0.2,0.164-0.761,0.04-1.255c-0.063-0.255-0.124-0.496-0.116-0.666c0.014-0.294,0.186-0.611,0.351-0.918
	c0.122-0.227,0.237-0.439,0.292-0.64c0.019-0.07,0.039-0.138,0.059-0.202c0.124-0.418,0.171-0.626-0.129-0.768
	c-0.133-0.062-0.516-0.072-0.999-0.085C927.772,1300.152,926.371,1300.115,925.318,1299.655z"/>
<path fill="#FFFFFF" d="M924.438,1308.506c0.67,0.323,3.739,0.632,4.221,0.265c0.48-0.367,0.129-0.519,0.118-1.011
	c-0.012-0.492,0.438-0.975,0.536-1.472c0.1-0.498-0.362-0.78-0.791-0.947c-0.431-0.166-3.34-0.889-3.701-0.715
	c-0.359,0.173-0.485,0.328-0.558,0.559c-0.073,0.23,0.05,1.064,0.019,1.357c-0.031,0.294-0.422,0.896-0.516,1.231
	C923.671,1308.109,923.766,1308.182,924.438,1308.506z"/>
<path fill="#FFFFFF" d="M927.553,1308.992L927.553,1308.992c-1.127,0-2.682-0.217-3.14-0.438c-0.657-0.316-0.809-0.406-0.7-0.795
	c0.043-0.153,0.142-0.353,0.247-0.563c0.124-0.248,0.252-0.505,0.268-0.658c0.013-0.122-0.002-0.345-0.018-0.581
	c-0.021-0.318-0.043-0.647,0.001-0.787c0.085-0.27,0.238-0.425,0.587-0.592c0.045-0.021,0.116-0.032,0.218-0.032
	c0.768,0,3.129,0.593,3.525,0.747c0.631,0.245,0.908,0.583,0.824,1.006c-0.045,0.225-0.156,0.444-0.266,0.657
	c-0.143,0.277-0.275,0.539-0.27,0.804c0.003,0.156,0.043,0.277,0.078,0.384c0.074,0.226,0.133,0.403-0.219,0.671
	C928.535,1308.932,928.153,1308.992,927.553,1308.992z M925.016,1304.653c-0.11,0-0.154,0.014-0.172,0.021
	c-0.359,0.173-0.467,0.324-0.531,0.526c-0.038,0.122-0.016,0.455,0.004,0.749c0.018,0.24,0.032,0.468,0.019,0.599
	c-0.019,0.173-0.15,0.438-0.279,0.696c-0.098,0.196-0.199,0.4-0.24,0.544c-0.081,0.29-0.027,0.346,0.644,0.669
	c0.446,0.216,1.978,0.427,3.093,0.427l0,0c0.561,0,0.941-0.056,1.072-0.155c0.29-0.222,0.252-0.339,0.182-0.552
	c-0.035-0.108-0.08-0.243-0.084-0.415c-0.007-0.292,0.14-0.578,0.281-0.855c0.105-0.207,0.215-0.42,0.256-0.629
	c0.074-0.369-0.174-0.659-0.758-0.886C928.12,1305.244,925.753,1304.653,925.016,1304.653z"/>
<path fill="#FFFFFF" d="M923.125,1313.606c0.773,0.422,4.382,0.971,4.973,0.564c0.59-0.405,0.14-1.732,0.156-2.315
	c0.016-0.582,0.451-0.756,0.598-1.338c0.146-0.583-0.014-0.851-0.512-1.073c-0.498-0.224-3.248-0.164-5.163-0.972
	c-0.437,0.184-0.476,0.598-0.576,0.866c-0.1,0.268,0.169,1.007,0.116,1.352c-0.055,0.345-0.371,0.962-0.501,1.353
	C922.084,1312.433,922.352,1313.184,923.125,1313.606z"/>
<path fill="#FFFFFF" d="M927.194,1314.367L927.194,1314.367c-1.276,0-3.497-0.387-4.095-0.714c-0.816-0.445-1.068-1.231-0.936-1.628
	c0.051-0.15,0.126-0.33,0.207-0.521c0.127-0.303,0.26-0.616,0.292-0.823c0.024-0.152-0.022-0.399-0.066-0.639
	c-0.054-0.292-0.105-0.566-0.047-0.723c0.018-0.049,0.034-0.102,0.05-0.157c0.078-0.258,0.175-0.58,0.555-0.739l0.021-0.009
	l0.021,0.009c1.244,0.523,2.871,0.684,3.947,0.789c0.602,0.059,1.037,0.102,1.217,0.183c0.543,0.242,0.689,0.55,0.543,1.135
	c-0.068,0.271-0.194,0.453-0.316,0.629c-0.146,0.211-0.273,0.394-0.281,0.698c-0.004,0.16,0.029,0.387,0.064,0.626
	c0.092,0.634,0.207,1.423-0.244,1.731C927.98,1314.316,927.667,1314.367,927.194,1314.367z M923.177,1308.531
	c-0.316,0.144-0.399,0.419-0.473,0.663c-0.017,0.058-0.034,0.113-0.052,0.163c-0.048,0.128,0.002,0.401,0.051,0.666
	c0.046,0.248,0.093,0.504,0.067,0.675c-0.035,0.22-0.169,0.539-0.3,0.849c-0.08,0.188-0.155,0.366-0.204,0.513
	c-0.121,0.36,0.12,1.082,0.885,1.5c0.587,0.32,2.779,0.7,4.043,0.7l0,0c0.562,0,0.784-0.072,0.872-0.133
	c0.396-0.271,0.286-1.023,0.198-1.628c-0.036-0.244-0.069-0.476-0.064-0.645c0.009-0.337,0.149-0.541,0.3-0.757
	c0.116-0.168,0.236-0.342,0.3-0.594c0.134-0.534,0.013-0.789-0.481-1.011c-0.165-0.074-0.615-0.118-1.185-0.174
	C926.057,1309.213,924.433,1309.054,923.177,1308.531z"/>
<path fill="#FFFFFF" d="M921.682,1319.166c0.777,0.508,4.342,1.738,4.994,1.361c0.654-0.376,0.272-1.854,0.338-2.465
	c0.064-0.609,0.458-1.282,0.66-1.882c0.201-0.599,0.455-1.022-0.049-1.297c-0.504-0.275-3.52-0.096-5.463-1.102
	c-0.474,0.156-0.549,0.587-0.676,0.86c-0.127,0.272-0.012,0.983-0.097,1.341c-0.086,0.357-0.57,1.018-0.739,1.417
	C920.479,1317.799,920.905,1318.658,921.682,1319.166z"/>
<path fill="#FFFFFF" d="M926.289,1320.651L926.289,1320.651c-1.16,0-3.979-1.011-4.637-1.44c-0.807-0.527-1.228-1.418-1.052-1.832
	c0.073-0.172,0.199-0.384,0.332-0.608c0.175-0.296,0.356-0.602,0.404-0.8c0.037-0.155,0.035-0.39,0.032-0.616
	c-0.003-0.295-0.006-0.574,0.069-0.734c0.022-0.05,0.044-0.104,0.066-0.16c0.103-0.265,0.231-0.594,0.642-0.729l0.021-0.008
	l0.02,0.011c1.264,0.654,3.016,0.806,4.175,0.906c0.643,0.056,1.106,0.096,1.29,0.195c0.473,0.258,0.335,0.638,0.159,1.119
	c-0.028,0.077-0.058,0.158-0.086,0.243c-0.071,0.21-0.162,0.424-0.26,0.649c-0.176,0.408-0.357,0.83-0.398,1.221
	c-0.018,0.17,0,0.418,0.02,0.682c0.05,0.686,0.112,1.539-0.383,1.824C926.612,1320.625,926.477,1320.651,926.289,1320.651z
	 M922.158,1313.839c-0.346,0.124-0.457,0.408-0.554,0.659c-0.023,0.059-0.045,0.115-0.069,0.166
	c-0.064,0.139-0.062,0.419-0.059,0.688c0.002,0.233,0.005,0.474-0.035,0.642c-0.052,0.215-0.237,0.527-0.417,0.83
	c-0.131,0.222-0.255,0.431-0.325,0.596c-0.157,0.368,0.259,1.209,1.012,1.7c0.649,0.425,3.434,1.424,4.578,1.424l0,0
	c0.166,0,0.287-0.021,0.36-0.063c0.437-0.252,0.378-1.068,0.329-1.724c-0.02-0.268-0.038-0.521-0.019-0.701
	c0.044-0.405,0.228-0.836,0.407-1.252c0.096-0.224,0.186-0.435,0.256-0.641c0.028-0.085,0.059-0.167,0.087-0.246
	c0.17-0.466,0.282-0.773-0.11-0.987c-0.164-0.09-0.643-0.131-1.248-0.184C925.19,1314.646,923.439,1314.495,922.158,1313.839z"/>
<path fill="#FFFFFF" d="M926.668,1322.934c0.312-0.695,0.637-0.971,0.064-1.358c-0.457-0.311-2.477-0.536-4.28-1.328
	c-1.804-0.792-2.329-1.136-2.459-1.065c-0.65,0.351-0.403,1.081-0.587,1.393c-0.184,0.312,0.03,0.429-0.114,0.848
	C919.148,1321.84,926.357,1323.627,926.668,1322.934z"/>
<path fill="#FFFFFF" d="M926.051,1323.146L926.051,1323.146c-1.768,0-6.481-1.21-6.79-1.643c-0.03-0.042-0.027-0.076-0.02-0.099
	c0.065-0.19,0.053-0.311,0.041-0.427c-0.013-0.13-0.026-0.253,0.078-0.431c0.055-0.093,0.068-0.235,0.083-0.4
	c0.03-0.341,0.067-0.765,0.525-1.013c0.102-0.055,0.287,0.035,0.862,0.309c0.379,0.181,0.898,0.428,1.645,0.755
	c1.026,0.451,2.146,0.724,2.963,0.923c0.65,0.158,1.121,0.272,1.325,0.41c0.501,0.341,0.353,0.63,0.128,1.069
	c-0.053,0.104-0.113,0.224-0.173,0.355C926.66,1323.085,926.447,1323.146,926.051,1323.146z M920.035,1319.226
	c-0.011,0-0.015,0.002-0.017,0.003c-0.407,0.22-0.44,0.596-0.47,0.928c-0.015,0.17-0.029,0.331-0.097,0.445
	c-0.086,0.146-0.076,0.243-0.063,0.364c0.013,0.122,0.027,0.261-0.046,0.473c0.083,0.309,4.802,1.6,6.708,1.6l0,0
	c0.463,0,0.553-0.089,0.569-0.127c0.061-0.135,0.122-0.255,0.176-0.36c0.226-0.442,0.329-0.645-0.093-0.932
	c-0.188-0.127-0.676-0.245-1.291-0.396c-0.821-0.199-1.946-0.473-2.981-0.928c-0.748-0.328-1.268-0.576-1.647-0.757
	C920.359,1319.337,920.125,1319.226,920.035,1319.226z"/>
</svg>
