<?xml version="1.0" encoding="utf-8"?>
<!-- Generator: Adobe Illustrator 15.0.0, SVG Export Plug-In  -->
<!DOCTYPE svg PUBLIC "-//W3C//DTD SVG 1.1//EN" "http://www.w3.org/Graphics/SVG/1.1/DTD/svg11.dtd" [
	<!ENTITY ns_flows "http://ns.adobe.com/Flows/1.0/">
]>
<svg version="1.1"
	 xmlns="http://www.w3.org/2000/svg" xmlns:xlink="http://www.w3.org/1999/xlink" xmlns:a="http://ns.adobe.com/AdobeSVGViewerExtensions/3.0/"
	 x="0px" y="0px" width="1000px" height="1000px" viewBox="72 72 1000 1000"
	 overflow="visible" enable-background="new 72 72 1000 1000" xml:space="preserve">
<defs>
</defs>
<polyline fill="#054770" points="1144,0 0,0 0,1144 1144,1144 "/>
<path fill="#72B5E4" d="M356.327,492.704l-2.101,1.217l0.612,1.056C355.314,494.207,355.81,493.448,356.327,492.704z"/>
<path fill="none" stroke="#72B5E4" stroke-width="34" stroke-miterlimit="10" d="M764.584,615.998
	c0-128.154-147.912-323.883-300.845-323.883"/>
<path fill="none" stroke="#72B5E4" stroke-width="34" stroke-miterlimit="10" d="M609,964.701
	c-6.334,4.966-37.13,53.501-169.411,53.501"/>
<rect x="268.786" y="275.012" fill="#72B5E4" width="194.953" height="34.202"/>
<polygon fill="#72B5E4" points="463.739,1001.1 268.787,1001.1 268.787,1035.302 427.334,1035.302 463.739,1034.333 
	463.739,1030.665 "/>
<rect x="268.787" y="275.466" fill="#72B5E4" width="34.202" height="759.29"/>
<polygon fill="#72B5E4" points="387.425,419.302 387.425,762.75 421.627,762.75 421.628,475.209 "/>
<rect x="739.02" y="275.466" fill="#FCB724" width="142.822" height="34.202"/>
<polygon fill="#FCB724" points="881.842,1001.1 706.439,1001.1 727.53,1035.302 881.842,1035.302 "/>
<rect x="847.64" y="276.013" fill="#FCB724" width="34.202" height="759.289"/>
<polygon fill="#FCB724" points="738.854,276.013 738.854,344.957 773.056,400.5 773.056,276.013 "/>
<polygon fill="#72B5E4" points="747.625,611.459 747.483,662.359 781.685,717.902 781.685,610.001 "/>
<polygon fill="#FCB724" points="471.298,404.098 771.229,880.349 771.229,815.5 513.667,404.151 "/>
<polygon fill="#FCB724" points="421.627,540.593 708.518,1004.875 749.963,1004.963 387.425,419.302 387.425,484.47 "/>
<path fill="none" stroke="#72B5E4" stroke-width="20" stroke-miterlimit="10" d="M511.002,747.407
	c79.894,80.579-160.25,41.072-158.239,122.407"/>
<path fill="none" stroke="#72B5E4" stroke-width="20" stroke-miterlimit="10" d="M524.996,959.1
	c50.936-105.056-29.548-206.777-115.989-206.713"/>
<path fill="none" stroke="#72B5E4" stroke-width="20" stroke-miterlimit="10" d="M581.895,873.748
	c-27.143-110.177-118.56,115.373-186.931,71.273"/>
<path fill="#E6E7E8" d="M582.463,282.34l-5.393-176.025h-17.706l0,163.506C566.012,271.652,582.463,282.34,582.463,282.34z"/>
<path fill="#E6E7E8" d="M589.917,497.75l-2.048-81.417C577.268,405.731,568.031,404,559.229,404l0.135,45.375
	C568.694,464.711,582,485.526,589.917,497.75z"/>
<path fill="#E6E7E8" d="M559.365,572v101.333l24.997,39.538l13.765-8.729l-3.886-76.447
	C582.853,611.037,567.796,584.362,559.365,572z"/>
<path fill="#E6E7E8" d="M877.129,225.582c0,0-109.448-135.124-305.059-136.882c0-0.007,0-0.014,0-0.021
	c-0.645,0-1.284,0.007-1.926,0.01c-0.643-0.003-1.282-0.01-1.926-0.01c0,0.007,0,0.014,0,0.021
	c-195.61,1.758-305.059,136.882-305.059,136.882s153.174-87.058,306.985-87.782C723.955,138.524,877.129,225.582,877.129,225.582z"
	/>
<polygon fill="#E6E7E8" points="578.744,134.184 559.364,134.184 539.984,134.184 559.249,161.652 559.364,161.652 578.744,161.652 
	578.859,161.652 598.126,134.184 "/>
</svg>
