<?xml version="1.0" encoding="utf-8"?>
<!-- Generator: Adobe Illustrator 15.0.0, SVG Export Plug-In  -->
<!DOCTYPE svg PUBLIC "-//W3C//DTD SVG 1.1//EN" "http://www.w3.org/Graphics/SVG/1.1/DTD/svg11.dtd" [
	<!ENTITY ns_flows "http://ns.adobe.com/Flows/1.0/">
]>
<svg version="1.1"
	 xmlns="http://www.w3.org/2000/svg" xmlns:xlink="http://www.w3.org/1999/xlink" xmlns:a="http://ns.adobe.com/AdobeSVGViewerExtensions/3.0/"
	 x="0px" y="0px" width="600px" height="600px" viewBox="72 72 600 600" overflow="visible" enable-background="new 72 72 600 600"
	 xml:space="preserve">
<defs>
</defs>
<rect fill="#38342D" width="744" height="744"/>
<circle fill="#E2DDD9" cx="372.505" cy="378.402" r="226.499"/>
<polygon fill="#989285" points="372.99,470.539 345.423,429.496 356.513,407.16 378.516,407.16 "/>
<circle fill="#CAC5BC" cx="373.556" cy="248.045" r="42.346"/>
<polygon fill="#989285" points="373.592,407.16 390.068,407.16 401.158,429.496 373.592,470.539 "/>
<path fill="#989285" d="M423.775,388.002v-15.371c20.199,0,36.633-16.431,36.633-36.628v-40.22h-36.633v-15.37h52.002v55.59
	C475.777,364.675,452.449,388.002,423.775,388.002z"/>
<path fill="#989285" d="M321.821,388.002c-28.673,0-52.001-23.326-52.001-51.998v-55.591h52.001v15.37h-36.632v40.221
	c0,20.196,16.433,36.628,36.632,36.628V388.002L321.821,388.002z"/>
<path fill="#989285" d="M284.012,403.189c-28.673,0-52.001-23.326-52.001-51.997v-55.592h52.001v15.371H247.38v40.221
	c0,20.196,16.433,36.627,36.632,36.627V403.189L284.012,403.189z"/>
<path fill="#777165" d="M373.557,412.211c-41.787,0-75.782-33.996-75.782-75.781v-81.195h151.563v81.195
	C449.338,378.215,415.344,412.211,373.557,412.211z"/>
<path fill="#6F6758" d="M373.557,255.234v156.977c41.787,0,75.781-33.996,75.781-75.781v-81.195H373.557z"/>
<polygon fill="#FCD947" points="373.557,219.443 380.654,241.293 403.629,241.293 385.043,254.796 392.143,276.645 373.557,263.142 
	354.97,276.645 362.07,254.796 343.484,241.293 366.458,241.293 "/>
<polygon fill="#FFCE06" points="403.629,241.293 380.654,241.293 373.557,219.443 373.557,263.142 392.143,276.645 385.043,254.796 
	"/>
<path fill="#989285" d="M460.492,403.189v-15.371c20.199,0,36.633-16.43,36.633-36.627v-40.22h-36.633v-15.371h52.002v55.591
	C512.494,379.862,489.166,403.189,460.492,403.189z"/>
<polygon fill="#853B49" points="478.811,500.764 417.035,506.114 354.531,501.979 417.035,379.402 "/>
<polyline fill="#862634" points="417.035,379.402 479.539,501.979 417.035,506.114 "/>
<polygon fill="#A8C5DD" points="417.035,466.697 452.301,448.717 432.357,409.561 417.035,379.402 401.471,409.561 381.656,448.783 
	"/>
<polyline fill="#8DB7E2" points="417.035,466.697 452.363,448.685 432.357,409.561 417.035,379.402 "/>
<polygon fill="#853B49" points="593.15,500.471 531.375,505.822 468.871,501.688 531.375,379.109 "/>
<polyline fill="#862634" points="531.375,379.109 593.879,501.688 531.375,505.822 "/>
<polygon fill="#A8C5DD" points="531.375,466.404 566.641,448.425 546.697,409.268 531.375,379.109 515.811,409.268 495.998,448.49 
	"/>
<polyline fill="#8DB7E2" points="531.375,466.404 566.703,448.393 546.697,409.268 531.375,379.109 "/>
<polygon fill="#853B49" points="356.671,434.269 391.197,501.979 328.693,506.114 266.918,500.764 "/>
<polyline fill="#862634" points="328.693,506.114 266.189,501.979 293.428,448.717 328.693,466.403 "/>
<polygon fill="#324C78" points="364.072,448.782 353.963,428.771 330.426,430.018 328.688,441.965 324.068,429.937 303.387,429.163 
	293.428,448.717 328.693,466.696 "/>
<polyline fill="#213F7D" points="328.693,441.965 317.26,430.536 303.547,428.849 293.365,448.685 328.693,466.696 "/>
<polygon fill="#853B49" points="244.286,437.81 276.857,501.686 214.353,505.821 152.578,500.47 "/>
<polyline fill="#B31E3B" points="214.353,505.821 151.848,501.686 184.326,437.995 214.353,447.22 "/>
<polygon fill="#324C78" points="249.731,448.489 226.002,430.459 216.406,430.042 214.353,441.965 212.822,429.886 189.006,428.849 
	179.087,448.423 214.353,466.403 "/>
<polyline fill="#213F7D" points="214.353,443.188 211.164,428.849 189.006,428.849 179.024,448.392 214.353,466.403 "/>
<polyline fill="#8D9093" points="417.035,441.965 423.912,431.171 442.182,428.849 417.035,379.402 "/>
<rect x="434.256" y="425.566" transform="matrix(-0.7071 0.7071 -0.7071 -0.7071 1050.1677 422.7036)" fill="#8D9093" width="6.566" height="6.566"/>
<rect x="428.461" y="425.881" transform="matrix(-0.7071 0.7071 -0.7071 -0.7071 1040.4982 427.3397)" fill="#8D9093" width="6.566" height="6.566"/>
<polygon fill="#8D9093" points="417.041,441.965 429.359,429.646 424.797,425.084 "/>
<polyline fill="#B2B1B2" points="417.041,379.402 391.766,428.772 410.164,431.171 417.041,441.965 "/>
<polygon fill="#B2B1B2" points="396.537,433.491 391.787,428.775 396.537,424.206 401.18,428.849 "/>
<rect x="399.049" y="425.881" transform="matrix(0.7071 0.7071 -0.7071 0.7071 421.3051 -158.7925)" fill="#B2B1B2" width="6.566" height="6.566"/>
<polygon fill="#B2B1B2" points="417.035,441.965 404.717,429.646 409.279,425.084 "/>
<polyline fill="#8D9093" points="531.375,441.965 538.252,431.171 556.521,428.849 531.375,379.402 "/>
<rect x="548.596" y="425.274" transform="matrix(-0.7071 0.7071 -0.7071 -0.7071 1245.1515 341.3546)" fill="#8D9093" width="6.566" height="6.566"/>
<rect x="542.8" y="425.588" transform="matrix(-0.7073 0.707 -0.707 -0.7073 1235.4988 346.1341)" fill="#8D9093" width="6.567" height="6.567"/>
<polygon fill="#8D9093" points="531.383,441.673 543.699,429.354 539.139,424.79 "/>
<polyline fill="#B2B1B2" points="531.383,379.109 506.105,428.479 524.506,430.878 531.383,441.673 "/>
<polygon fill="#B2B1B2" points="510.879,433.199 506.127,428.482 510.879,423.914 515.521,428.557 "/>
<rect x="513.389" y="425.588" transform="matrix(0.7071 0.7071 -0.7071 0.7071 454.5873 -239.7288)" fill="#B2B1B2" width="6.566" height="6.566"/>
<polygon fill="#B2B1B2" points="531.375,441.673 519.057,429.354 523.619,424.79 "/>
<polyline fill="#F4E600" points="328.693,379.401 303.547,428.849 321.817,431.17 328.693,441.965 "/>
<rect x="304.907" y="425.566" transform="matrix(0.7071 0.7071 -0.7071 0.7071 393.5085 -92.3163)" fill="#F4E600" width="6.566" height="6.566"/>
<rect x="310.701" y="425.88" transform="matrix(0.7071 0.7071 -0.7071 0.7071 395.4555 -96.3169)" fill="#F4E600" width="6.565" height="6.565"/>
<polygon fill="#F4E600" points="328.688,441.965 316.369,429.646 320.931,425.082 "/>
<polyline fill="#EADA48" points="328.688,441.965 335.564,431.17 353.963,428.771 328.688,379.401 "/>
<polygon fill="#EADA48" points="349.191,433.491 353.941,428.774 349.191,424.206 344.548,428.849 "/>
<rect x="340.114" y="425.88" transform="matrix(-0.7071 0.7071 -0.7071 -0.7071 889.6794 489.8089)" fill="#EADA48" width="6.566" height="6.566"/>
<polygon fill="#EADA48" points="328.693,441.965 341.012,429.646 336.45,425.082 "/>
<polyline fill="#F4E600" points="214.353,379.401 189.006,428.849 207.476,431.17 214.353,441.965 "/>
<rect x="190.566" y="425.273" transform="matrix(0.7071 0.7071 -0.7071 0.7071 359.8117 -11.551)" fill="#F4E600" width="6.566" height="6.566"/>
<rect x="196.361" y="425.588" transform="matrix(0.7071 0.7071 -0.7071 0.7071 361.7085 -15.5644)" fill="#F4E600" width="6.566" height="6.566"/>
<polygon fill="#F4E600" points="214.347,441.672 202.028,429.353 206.59,424.79 "/>
<polyline fill="#EADA48" points="214.347,441.672 221.224,430.877 239.623,428.479 214.347,379.109 "/>
<polygon fill="#B2B1B2" points="234.851,433.198 239.601,428.481 234.851,423.913 230.208,428.556 "/>
<rect x="225.773" y="425.588" transform="matrix(-0.7071 0.7071 -0.7071 -0.7071 694.2735 570.1861)" fill="#EADA48" width="6.566" height="6.566"/>
<polygon fill="#EADA48" points="214.353,441.672 226.671,429.353 222.109,424.79 "/>
<polygon fill="#853B49" points="553.898,502.773 474.076,509.688 393.309,504.346 474.076,345.955 "/>
<polyline fill="#862634" points="474.076,345.955 554.842,504.346 474.076,509.688 "/>
<polygon fill="#A8C5DD" points="474.076,458.754 519.645,435.521 493.875,384.924 474.076,345.955 453.963,384.924 428.359,435.606 
	"/>
<polyline fill="#8DB7E2" points="474.076,458.754 519.727,435.479 493.875,384.924 474.076,345.955 "/>
<polyline fill="#8D9093" points="474.076,426.797 482.961,412.849 506.568,409.848 474.076,345.955 "/>
<rect x="496.328" y="405.607" transform="matrix(-0.707 0.7072 -0.7072 -0.707 1144.323 345.593)" fill="#8D9093" width="8.484" height="8.483"/>
<rect x="488.84" y="406.013" transform="matrix(-0.7072 0.707 -0.707 -0.7072 1131.8425 351.7392)" fill="#8D9093" width="8.485" height="8.485"/>
<polygon fill="#8D9093" points="474.082,426.797 490.002,410.878 484.105,404.982 "/>
<polyline fill="#B2B1B2" points="474.082,345.955 441.422,409.748 465.197,412.849 474.082,426.797 "/>
<polygon fill="#B2B1B2" points="447.59,415.848 441.451,409.752 447.59,403.849 453.588,409.848 "/>
<rect x="450.834" y="406.013" transform="matrix(0.7072 0.707 -0.707 0.7072 423.3329 -201.624)" fill="#B2B1B2" width="8.485" height="8.485"/>
<polygon fill="#B2B1B2" points="474.076,426.797 458.158,410.878 464.053,404.982 "/>
<polygon fill="#853B49" points="226.067,435.511 317.368,435.605 352.419,504.345 271.653,509.688 191.829,502.773 "/>
<polyline fill="#B31E3B" points="271.653,509.688 190.886,504.345 226.003,435.478 271.653,458.753 "/>
<polygon fill="#324C78" points="317.368,435.605 304.306,409.748 278.618,409.779 271.653,426.795 268.253,409.792 239.12,409.827 
	226.084,435.521 271.653,458.753 "/>
<polyline fill="#213F7D" points="271.653,426.795 256.793,412.106 244.279,411.93 239.12,409.827 226.002,435.479 271.653,458.753 
	"/>
<polyline fill="#F4E600" points="271.653,345.954 239.16,409.848 262.768,412.848 271.653,426.795 "/>
<rect x="240.917" y="405.606" transform="matrix(0.7071 0.7071 -0.7071 0.7071 361.5927 -53.3168)" fill="#F4E600" width="8.484" height="8.484"/>
<rect x="248.404" y="406.012" transform="matrix(0.707 0.7072 -0.7072 0.707 364.1301 -58.4779)" fill="#F4E600" width="8.485" height="8.484"/>
<polygon fill="#F4E600" points="271.646,426.795 255.727,410.877 261.623,404.981 "/>
<polyline fill="#EADA48" points="271.646,426.795 280.531,412.848 304.306,409.748 271.646,345.954 "/>
<polygon fill="#EADA48" points="298.14,415.847 304.278,409.752 298.14,403.849 292.141,409.848 "/>
<rect x="286.41" y="406.012" transform="matrix(-0.707 0.7072 -0.7072 -0.707 786.2751 494.7855)" fill="#EADA48" width="8.485" height="8.484"/>
<polygon fill="#EADA48" points="271.653,426.795 287.571,410.877 281.675,404.981 "/>
<rect x="112.259" y="543.688" fill="#6F6758" width="522.667" height="103"/>
<rect x="150.496" y="608.188" fill="none" width="444.995" height="38.5"/>
<text transform="matrix(1 0 0 1 151.5049 635.1875)" fill="#989285" font-family="'Cabin-Regular'" font-size="36" letter-spacing="7">CUP CHAMPIONSHIP</text>
<polygon fill="#777165" points="112.259,543.688 46.126,468.5 46.126,574.586 112.259,646.688 "/>
<polygon fill="#777165" points="634.926,543.688 701.059,468.5 701.059,574.586 634.926,646.688 "/>
<path fill="#E2DDD9" d="M150.496,552.166h16.398c4.782,0,8.55,1.145,11.305,3.428c2.754,2.285,4.131,5.669,4.131,10.153
	c0,3.117-0.662,5.669-1.985,7.653c-1.325,1.986-3.203,3.578-5.638,4.772l10.121,18.832h-9.16l-8.646-16.653h-0.321h-8.007v16.653
	h-8.198V552.166z M164.715,573.497c6.022,0,9.032-2.435,9.032-7.302c0-2.349-0.684-4.133-2.05-5.35
	c-1.367-1.216-3.586-1.824-6.662-1.824h-6.341v14.476H164.715z"/>
<path fill="#E2DDD9" d="M219.137,561.486c-1.9-3.522-4.527-6.255-7.879-8.198c-3.353-1.942-7.141-2.915-11.369-2.915
	s-8.019,0.973-11.371,2.915c-2.469,1.431-4.537,3.297-6.217,5.586c2.133,2.391,3.718,15.712-4.144,19.537
	c0.436,2.717,1.259,5.214,2.483,7.481c1.899,3.521,4.525,6.256,7.878,8.197c3.352,1.944,7.143,2.915,11.371,2.915
	s8.016-0.971,11.369-2.915c3.352-1.941,5.979-4.676,7.879-8.197c1.9-3.523,2.85-7.592,2.85-12.203S221.037,565.011,219.137,561.486z
	 M209.913,584.835c-2.328,2.818-5.669,4.228-10.024,4.228c-4.357,0-7.698-1.409-10.025-4.228c-2.328-2.817-3.49-6.534-3.49-11.146
	s1.163-8.327,3.49-11.145c2.327-2.82,5.668-4.228,10.025-4.228c4.355,0,7.696,1.407,10.024,4.228
	c2.328,2.817,3.491,6.533,3.491,11.145S212.241,582.018,209.913,584.835z"/>
<path fill="#E2DDD9" d="M247.698,589.383c-1.688,0.428-3.534,0.641-5.541,0.641c-4.527,0-7.997-1.409-10.409-4.227
	c-2.414-2.82-3.619-6.556-3.619-11.211c0-4.654,1.227-8.391,3.683-11.21c2.455-2.817,5.967-4.228,10.536-4.228
	c1.964,0,3.79,0.225,5.478,0.673c1.686,0.448,3.448,1.079,5.284,1.89l0.897-7.814c-3.417-1.751-7.281-2.627-11.595-2.627
	c-4.483,0-8.486,0.973-12.01,2.915c-3.522,1.943-6.276,4.676-8.262,8.198c-0.251,0.447-0.487,0.902-0.706,1.367
	c2.299,1.401,3.632,16.47-0.344,21.09c0.289,0.688,0.599,1.363,0.954,2.012c1.922,3.524,4.622,6.245,8.103,8.169
	c3.479,1.921,7.483,2.881,12.01,2.881c4.185,0,8.134-0.875,11.85-2.626l-0.897-7.813
	C251.188,588.315,249.384,588.955,247.698,589.383z"/>
<path fill="#E2DDD9" d="M261.252,573.306l15.703-20.01l4.261,6.753l-10.484,13.257l16.718,23.699h-9.608L261.252,573.306z"/>
<path fill="#E2DDD9" d="M317.795,552.166l-15.757,26.712v18.127h-8.199v-18.127l-15.757-26.712h8.967l10.89,19.345l10.89-19.345
	H317.795z"/>
<path fill="#E2DDD9" d="M375.197,561.185l-1.25-9.019h-6.727l-10.889,20.435l-10.954-20.435h-6.726l-6.212,44.839h8.519
	l3.843-29.978l11.529,20.562l11.467-20.627l3.843,30.042h8.52l-0.649-4.089C371.676,589.616,370.119,566.208,375.197,561.185z"/>
<path fill="#E2DDD9" d="M413.697,559.77c-1.839-3.016-3.193-3.841-6.201-5.585c-3.354-1.942-7.142-2.915-11.369-2.915
	s-8.019,0.973-11.37,2.915c-3.354,1.943-5.979,4.676-7.878,8.198c-1.902,3.524-2.852,7.592-2.852,12.203s0.949,8.68,2.852,12.203
	c1.898,3.521,4.524,6.256,7.878,8.197c3.352,1.944,7.143,2.915,11.37,2.915s8.016-0.971,11.369-2.915
	c3.278-1.898,5.188-3.41,7.078-6.82C413.545,583.555,414.112,563.121,413.697,559.77z M406.151,585.731
	c-2.328,2.818-5.669,4.228-10.024,4.228c-4.356,0-7.698-1.409-10.025-4.228c-2.328-2.817-3.49-6.534-3.49-11.146
	s1.162-8.327,3.49-11.145c2.327-2.82,5.669-4.228,10.025-4.228c4.355,0,7.696,1.407,10.024,4.228
	c2.327,2.817,3.491,6.533,3.491,11.145S408.479,582.914,406.151,585.731z"/>
<path fill="#E2DDD9" d="M420.277,592.554c-3.119-3.564-4.678-8.488-4.678-14.765v-25.623h8.2v23.51c0,3.117,0.277,5.711,0.832,7.782
	c0.554,2.071,1.59,3.684,3.107,4.835c1.516,1.153,3.66,1.73,6.437,1.73s4.921-0.577,6.438-1.73c1.514-1.151,2.551-2.764,3.106-4.835
	c0.555-2.071,0.831-4.665,0.831-7.782v-23.51h8.2v25.623c0,6.276-1.559,11.2-4.676,14.765c-3.117,3.566-7.752,5.348-13.9,5.348
	S423.393,596.12,420.277,592.554z"/>
<path fill="#E2DDD9" d="M455.063,552.166h8.072l19.151,28.954v-28.954h2.568l0.125,9.829l5.507-0.045v35.055h-6.728l-20.496-30.746
	v30.746h-8.2V552.166z"/>
<path fill="#E2DDD9" d="M499.05,560.11h-12.683v-7.944h33.565v7.944H507.25v36.895h-8.2V560.11z"/>
<path fill="#E2DDD9" d="M539.123,586.372h-16.334l-3.717,10.633h-7.941l15.948-44.839h7.752l12.664,35.6l0.054,9.239h-4.711
	L539.123,586.372z M536.562,579.197l-5.572-16.014l-5.638,16.014H536.562z"/>
<path fill="#E2DDD9" d="M548.899,552.166h8.197v44.839h-8.197V552.166z"/>
<path fill="#E2DDD9" d="M257.153,552.166h8.197V565.5l-5.913,7.896l5.913,8.854v14.755h-8.197V552.166z"/>
<path fill="#E2DDD9" d="M560.069,552.166h8.069l19.152,28.954v-28.954h8.199v44.839h-6.725l-20.499-30.746v30.746h-8.197V552.166z"
	/>
</svg>
